<svg xmlns="http://www.w3.org/2000/svg" xmlns:xlink="http://www.w3.org/1999/xlink" width="20" height="20" viewBox="0 0 20 20">
  <defs>
    <clipPath id="clip-path">
      <rect id="Rectangle_5438" data-name="Rectangle 5438" width="20" height="20" transform="translate(734 7182)" fill="#fff" stroke="#fff" stroke-width="1.2"/>
    </clipPath>
  </defs>
  <g id="Main_-_Product" data-name="Main - Product" transform="translate(-734 -7182)" clip-path="url(#clip-path)">
    <g id="delivery-box-01-stroke-rounded_7_" data-name="delivery-box-01-stroke-rounded (7)" transform="translate(733.072 7181.072)">
      <path id="Path_39374" data-name="Path 39374" d="M1.821,12.229V7.285H20.035v4.944c0,3.68,0,5.52-1.185,6.663s-3.093,1.143-6.91,1.143H9.916c-3.816,0-5.724,0-6.909-1.143S1.821,15.909,1.821,12.229Z" fill="none" stroke="#fff" stroke-linecap="round" stroke-linejoin="round" stroke-width="1.2"/>
      <path id="Path_39375" data-name="Path 39375" d="M1.821,7.285l.876-2.1c.679-1.63,1.019-2.445,1.707-2.9s1.571-.459,3.337-.459h6.375c1.766,0,2.649,0,3.337.459s1.028,1.274,1.707,2.9l.876,2.1" fill="none" stroke="#fff" stroke-linecap="round" stroke-width="1.2"/>
      <path id="Path_39376" data-name="Path 39376" d="M10.928,7.285V1.821" fill="none" stroke="#fff" stroke-linecap="round" stroke-width="1.2"/>
      <path id="Path_39377" data-name="Path 39377" d="M9.107,10.928H12.75" fill="none" stroke="#fff" stroke-linecap="round" stroke-width="1.2"/>
    </g>
  </g>
</svg>
