<svg xmlns="http://www.w3.org/2000/svg" xmlns:xlink="http://www.w3.org/1999/xlink" width="20" height="20" viewBox="0 0 20 20">
  <defs>
    <clipPath id="clip-path">
      <rect id="Rectangle_5442" data-name="Rectangle 5442" width="20" height="20" transform="translate(866 7182)" fill="#fff" stroke="#fff" stroke-width="1.2"/>
    </clipPath>
  </defs>
  <g id="Main_-_Dashboard" data-name="Main - Dashboard" transform="translate(-866 -7182)" clip-path="url(#clip-path)">
    <g id="dashboard-square-02-stroke-rounded" transform="translate(864.837 7180.837)">
      <path id="Path_39388" data-name="Path 39388" d="M1.86,5.581c0-1.754,0-2.631.545-3.176S3.827,1.86,5.581,1.86s2.631,0,3.176.545S9.3,3.827,9.3,5.581v1.86c0,1.754,0,2.631-.545,3.176s-1.422.545-3.176.545-2.631,0-3.176-.545S1.86,9.2,1.86,7.442Z" fill="none" stroke="#fff" stroke-width="1.2"/>
      <path id="Path_39389" data-name="Path 39389" d="M1.86,17.674A4.64,4.64,0,0,1,2,16.032a1.861,1.861,0,0,1,1.007-1.007,4.641,4.641,0,0,1,1.642-.142h1.86a4.641,4.641,0,0,1,1.642.142,1.861,1.861,0,0,1,1.007,1.007A4.64,4.64,0,0,1,9.3,17.674a4.64,4.64,0,0,1-.142,1.642,1.861,1.861,0,0,1-1.007,1.007,4.641,4.641,0,0,1-1.642.142H4.651a4.641,4.641,0,0,1-1.642-.142A1.861,1.861,0,0,1,2,19.317,4.64,4.64,0,0,1,1.86,17.674Z" fill="none" stroke="#fff" stroke-width="1.2"/>
      <path id="Path_39390" data-name="Path 39390" d="M13.023,14.884c0-1.754,0-2.631.545-3.176s1.422-.545,3.176-.545,2.631,0,3.176.545.545,1.422.545,3.176v1.86c0,1.754,0,2.631-.545,3.176s-1.422.545-3.176.545-2.631,0-3.176-.545-.545-1.422-.545-3.176Z" fill="none" stroke="#fff" stroke-width="1.2"/>
      <path id="Path_39391" data-name="Path 39391" d="M13.023,4.651a4.641,4.641,0,0,1,.142-1.642A1.861,1.861,0,0,1,14.172,2a4.64,4.64,0,0,1,1.642-.142h1.86A4.64,4.64,0,0,1,19.317,2a1.861,1.861,0,0,1,1.007,1.007,4.641,4.641,0,0,1,.142,1.642,4.641,4.641,0,0,1-.142,1.642A1.861,1.861,0,0,1,19.317,7.3a4.64,4.64,0,0,1-1.642.142h-1.86A4.64,4.64,0,0,1,14.172,7.3a1.861,1.861,0,0,1-1.007-1.007A4.641,4.641,0,0,1,13.023,4.651Z" fill="none" stroke="#fff" stroke-width="1.2"/>
    </g>
  </g>
</svg>
