<svg xmlns="http://www.w3.org/2000/svg" xmlns:xlink="http://www.w3.org/1999/xlink" width="16" height="16" viewBox="0 0 16 16">
  <defs>
    <clipPath id="clip-path">
      <rect id="Rectangle_5449" data-name="Rectangle 5449" width="16" height="16" transform="translate(734 7182)" fill="#fff" stroke="#656f7d" stroke-width="1"/>
    </clipPath>
  </defs>
  <g id="Sub_-_Product_-_Unselect" data-name="Sub - Product - Unselect" transform="translate(-734 -7182)" clip-path="url(#clip-path)">
    <g id="delivery-box-01-stroke-rounded_7_" data-name="delivery-box-01-stroke-rounded (7)" transform="translate(734.715 7182.714)">
      <path id="Path_39398" data-name="Path 39398" d="M1.821,11.24V7.285H16.392V11.24c0,2.944,0,4.416-.948,5.33s-2.475.915-5.528.915H8.3c-3.053,0-4.579,0-5.528-.915S1.821,14.184,1.821,11.24Z" transform="translate(-1.821 -2.914)" fill="none" stroke="#656f7d" stroke-linecap="round" stroke-linejoin="round" stroke-width="1"/>
      <path id="Path_39399" data-name="Path 39399" d="M1.821,6.193l.7-1.681c.543-1.3.815-1.956,1.366-2.323s1.257-.367,2.669-.367h5.1c1.413,0,2.119,0,2.669.367s.822,1.019,1.366,2.323l.7,1.681" transform="translate(-1.821 -1.821)" fill="none" stroke="#656f7d" stroke-linecap="round" stroke-width="1"/>
      <path id="Path_39400" data-name="Path 39400" d="M10.928,6.193V1.821" transform="translate(-3.643 -1.821)" fill="none" stroke="#656f7d" stroke-linecap="round" stroke-width="1"/>
      <path id="Path_39401" data-name="Path 39401" d="M9.107,10.928h2.914" transform="translate(-3.278 -3.643)" fill="none" stroke="#656f7d" stroke-linecap="round" stroke-width="1"/>
    </g>
  </g>
</svg>
