<svg width="16" height="16" viewBox="0 0 16 16" fill="none" xmlns="http://www.w3.org/2000/svg">
<path d="M2.68199 10.6671C2.68199 10.3808 2.91405 10.1488 3.20033 10.1488H4.53366C4.81993 10.1488 5.05199 10.3808 5.05199 10.6671C5.05199 10.9534 4.81993 11.1855 4.53366 11.1855H3.20033C2.91405 11.1855 2.68199 10.9534 2.68199 10.6671Z" fill="#656F7D" stroke="white" stroke-width="0.03"/>
<path d="M12.2521 12.0815L12.2777 12.0559L12.4339 11.8997C12.6364 11.6973 12.9646 11.6973 13.167 11.8997L13.167 11.8997M12.2521 12.0815L13.1772 11.8895L13.167 11.8997M12.2521 12.0815V12.0453M12.2521 12.0815V12.0453M13.167 11.8997C13.3694 12.1021 13.3694 12.4303 13.167 12.6327L12.1003 13.6994L12.1003 13.6994C11.8979 13.9018 11.5697 13.9018 11.3673 13.6994L11.3673 13.6994L10.3006 12.6327L10.3006 12.6327C10.0982 12.4303 10.0982 12.1021 10.3006 11.8997L10.3006 11.8997C10.503 11.6973 10.8312 11.6973 11.0336 11.8997M13.167 11.8997L11.044 11.8893L11.0336 11.8997M12.2521 12.0453V10.1329C12.2521 9.8466 12.0201 9.61454 11.7338 9.61454C11.4475 9.61454 11.2155 9.8466 11.2155 10.1329V12.0453V12.0815L11.1899 12.0559L11.0336 11.8997L11.0336 11.8997M12.2521 12.0453L11.0336 11.8997" fill="#656F7D" stroke="white" stroke-width="0.03"/>
<path d="M8.05045 13.8592L8.04612 13.8517H8.03747H3.2C1.44097 13.8517 0.015 12.4257 0.015 10.6667V4.16028L1.10278 1.62212C1.52063 0.647149 2.47931 0.015 3.54005 0.015H10.3266C11.3874 0.015 12.346 0.647149 12.7639 1.62212L13.8517 4.16028V8.03747V8.04612L13.8592 8.05045C15.13 8.78561 15.985 10.1596 15.985 11.7333C15.985 14.0815 14.0815 15.985 11.7333 15.985C10.1596 15.985 8.78561 15.13 8.05045 13.8592ZM7.60109 12.815H7.62044L7.61562 12.7963C7.52817 12.4565 7.48167 12.1004 7.48167 11.7333C7.48167 9.38519 9.38519 7.48167 11.7333 7.48167C12.1004 7.48167 12.4565 7.52817 12.7963 7.61562L12.815 7.62044V7.60109V4.8V4.785H12.8H1.06667H1.05167V4.8V10.6667C1.05167 11.8532 2.01351 12.815 3.2 12.815H7.60109ZM6.415 1.06667V1.05167H6.4H3.54005C2.894 1.05167 2.31012 1.43668 2.05563 2.03049L1.32837 3.72742L1.31941 3.74833H1.34215H6.4H6.415V3.73333V1.06667ZM7.45167 3.73333V3.74833H7.46667H12.5245H12.5473L12.5383 3.72742L11.811 2.03049C11.5565 1.43668 10.9727 1.05167 10.3266 1.05167H7.46667H7.45167V1.06667V3.73333ZM11.7333 8.51833C9.95774 8.51833 8.51833 9.95774 8.51833 11.7333C8.51833 13.5089 9.95774 14.9483 11.7333 14.9483C13.5089 14.9483 14.9483 13.5089 14.9483 11.7333C14.9483 9.95774 13.5089 8.51833 11.7333 8.51833Z" fill="#656F7D" stroke="white" stroke-width="0.03"/>
</svg>
