<svg width="16" height="16" viewBox="0 0 16 16" fill="none" xmlns="http://www.w3.org/2000/svg">
<path d="M3.20033 10.1338C2.90577 10.1338 2.66699 10.3726 2.66699 10.6671C2.66699 10.9617 2.90577 11.2005 3.20033 11.2005H4.53366C4.82822 11.2005 5.06699 10.9617 5.06699 10.6671C5.06699 10.3726 4.82822 10.1338 4.53366 10.1338H3.20033Z" fill="#656F7D"/>
<path d="M12.2671 11.4205L12.4233 11.5767C12.6316 11.785 12.9693 11.785 13.1776 11.5767C13.3859 11.3685 13.3859 11.0308 13.1776 10.8225L12.1109 9.75583C11.9026 9.54754 11.5649 9.54754 11.3567 9.75583L10.29 10.8225C10.0817 11.0308 10.0817 11.3685 10.29 11.5767C10.4983 11.785 10.836 11.785 11.0442 11.5767L11.2005 11.4205V13.3329C11.2005 13.6275 11.4392 13.8663 11.7338 13.8663C12.0284 13.8663 12.2671 13.6275 12.2671 13.3329V11.4205Z" fill="#656F7D"/>
<path d="M8.05045 13.8592L8.04612 13.8517H8.03747H3.2C1.44097 13.8517 0.015 12.4257 0.015 10.6667V4.16028L1.10278 1.62212C1.52063 0.647149 2.47931 0.015 3.54005 0.015H10.3266C11.3874 0.015 12.346 0.647149 12.7639 1.62212L13.8517 4.16028V8.03747V8.04612L13.8592 8.05045C15.13 8.78561 15.985 10.1596 15.985 11.7333C15.985 14.0815 14.0815 15.985 11.7333 15.985C10.1596 15.985 8.78561 15.13 8.05045 13.8592ZM7.60109 12.815H7.62044L7.61562 12.7963C7.52817 12.4565 7.48167 12.1004 7.48167 11.7333C7.48167 9.38519 9.38519 7.48167 11.7333 7.48167C12.1004 7.48167 12.4565 7.52817 12.7963 7.61562L12.815 7.62044V7.60109V4.8V4.785H12.8H1.06667H1.05167V4.8V10.6667C1.05167 11.8532 2.01351 12.815 3.2 12.815H7.60109ZM6.415 1.06667V1.05167H6.4H3.54005C2.894 1.05167 2.31012 1.43668 2.05563 2.03049L1.32837 3.72742L1.31941 3.74833H1.34215H6.4H6.415V3.73333V1.06667ZM7.45167 3.73333V3.74833H7.46667H12.5245H12.5473L12.5383 3.72742L11.811 2.03049C11.5565 1.43668 10.9727 1.05167 10.3266 1.05167H7.46667H7.45167V1.06667V3.73333ZM11.7333 8.51833C9.95774 8.51833 8.51833 9.95774 8.51833 11.7333C8.51833 13.5089 9.95774 14.9483 11.7333 14.9483C13.5089 14.9483 14.9483 13.5089 14.9483 11.7333C14.9483 9.95774 13.5089 8.51833 11.7333 8.51833Z" fill="#656F7D" stroke="white" stroke-width="0.03"/>
</svg>
