<svg xmlns="http://www.w3.org/2000/svg" width="20.389" height="18.422" viewBox="0 0 20.389 18.422">
  <g id="book-open-01-stroke-rounded" transform="translate(-1.25 -2.328)">
    <path id="Path_39551" data-name="Path 39551" d="M12,6V19.222" transform="translate(-0.556 -0.167)" fill="none" stroke="#fff" stroke-linecap="round" stroke-width="1.5"/>
    <path id="Path_39552" data-name="Path 39552" d="M5.759,3.27a10.771,10.771,0,0,1,5.685,2.579A10.77,10.77,0,0,1,17.129,3.27c1.6-.3,2.4-.457,3.079.127s.681,1.531.681,3.425V13.63c0,1.732,0,2.6-.437,3.139s-1.4.724-3.323,1.09a14.014,14.014,0,0,0-4.022,1.37A6.02,6.02,0,0,1,11.444,20a6.02,6.02,0,0,1-1.663-.772,14.014,14.014,0,0,0-4.022-1.37c-1.924-.366-2.886-.549-3.323-1.09S2,15.362,2,13.63V6.821C2,4.927,2,3.98,2.681,3.4S4.161,2.965,5.759,3.27Z" fill="none" stroke="#fff" stroke-linecap="round" stroke-linejoin="round" stroke-width="1.5"/>
  </g>
</svg>
