<svg xmlns="http://www.w3.org/2000/svg" xmlns:xlink="http://www.w3.org/1999/xlink" width="20" height="20" viewBox="0 0 20 20">
  <defs>
    <clipPath id="clip-path">
      <rect id="Rectangle_4956" data-name="Rectangle 4956" width="20" height="20" transform="translate(12952 383)" fill="#023a43" stroke="#707070" stroke-width="1"/>
    </clipPath>
  </defs>
  <g id="Mask_Group_230" data-name="Mask Group 230" transform="translate(-12952 -383)" clip-path="url(#clip-path)">
    <g id="calendar_10_" data-name="calendar (10)" transform="translate(12951.333 382.333)">
      <path id="Path_39533" data-name="Path 39533" d="M19.333,5.053a3.15,3.15,0,0,0-3.147-3.147h-.568V1.333a.667.667,0,1,0-1.333,0v.573H5.715V1.333a.667.667,0,1,0-1.333,0v.573H3.813A3.15,3.15,0,0,0,.667,5.053V16.187a3.15,3.15,0,0,0,3.147,3.147h7.129a5.94,5.94,0,0,0,3.725,1.333,6.007,6.007,0,0,0,6-6,5.94,5.94,0,0,0-1.333-3.725ZM3.813,3.24h.568v.569a.667.667,0,1,0,1.333,0V3.24h8.57v.569a.667.667,0,1,0,1.333,0V3.24h.569A1.815,1.815,0,0,1,18,5.053v.566H2V5.053A1.815,1.815,0,0,1,3.813,3.24ZM2,16.187V6.953H18v2.73A5.995,5.995,0,0,0,9.682,18H3.813A1.816,1.816,0,0,1,2,16.187Zm12.667,3.147a4.667,4.667,0,1,1,4.667-4.667A4.667,4.667,0,0,1,14.667,19.333Z" fill="#023a43"/>
      <path id="Path_39534" data-name="Path 39534" d="M15.333,14.391V12A.667.667,0,0,0,14,12v2.667a.666.666,0,0,0,.2.471l1.333,1.333a.667.667,0,1,0,.943-.943Z" fill="#023a43"/>
    </g>
  </g>
</svg>
