<svg xmlns="http://www.w3.org/2000/svg" width="15.654" height="15.2" viewBox="0 0 15.654 15.2">
  <g id="link-04-stroke-rounded_1_" data-name="link-04-stroke-rounded (1)" transform="translate(-3.173 -3.4)">
    <path id="Path_39531" data-name="Path 39531" d="M10,12.075a3.329,3.329,0,0,0,.441.572,3.114,3.114,0,0,0,3.9.516,3.235,3.235,0,0,0,.638-.516L17.811,9.7a3.435,3.435,0,0,0,0-4.72,3.119,3.119,0,0,0-4.535,0l-.624.65" transform="translate(-0.75 0)" fill="none" stroke="#4aadf4" stroke-linecap="round" stroke-width="1.2"/>
    <path id="Path_39532" data-name="Path 39532" d="M10.1,17l-.625.65a3.119,3.119,0,0,1-4.535,0,3.434,3.434,0,0,1,0-4.72l2.834-2.95a3.119,3.119,0,0,1,4.535,0,3.327,3.327,0,0,1,.441.572" transform="translate(0 -0.625)" fill="none" stroke="#4aadf4" stroke-linecap="round" stroke-width="1.2"/>
  </g>
</svg>
