<svg xmlns="http://www.w3.org/2000/svg" width="16.998" height="16.5" viewBox="0 0 16.998 16.5">
  <g id="link-04-stroke-rounded_1_" data-name="link-04-stroke-rounded (1)" transform="translate(-3.001 -3.25)">
    <path id="Path_39531" data-name="Path 39531" d="M10,12.652a3.566,3.566,0,0,0,.473.613,3.337,3.337,0,0,0,4.175.553,3.466,3.466,0,0,0,.684-.553L18.369,10.1a3.68,3.68,0,0,0,0-5.057,3.342,3.342,0,0,0-4.859,0l-.669.7" transform="translate(-0.375)" fill="none" stroke="#222" stroke-linecap="round" stroke-width="1.5"/>
    <path id="Path_39532" data-name="Path 39532" d="M10.535,17.569l-.669.7a3.342,3.342,0,0,1-4.859,0,3.68,3.68,0,0,1,0-5.057l3.037-3.161a3.342,3.342,0,0,1,4.859,0,3.564,3.564,0,0,1,.473.613" transform="translate(0 -0.313)" fill="none" stroke="#222" stroke-linecap="round" stroke-width="1.5"/>
  </g>
</svg>
