<svg xmlns="http://www.w3.org/2000/svg" xmlns:xlink="http://www.w3.org/1999/xlink" width="24" height="24" viewBox="0 0 24 24">
  <defs>
    <clipPath id="clip-path">
      <rect id="Rectangle_3220" data-name="Rectangle 3220" width="24" height="24" transform="translate(0 0)" fill="#fff" stroke="#fff" stroke-width="1" opacity="0"/>
    </clipPath>
  </defs>
  <g id="Mask_Group_761" data-name="Mask Group 761" transform="translate(24) rotate(90)" clip-path="url(#clip-path)">
    <g id="column-insert-stroke-rounded" transform="translate(2.097 0.825)">
      <path id="Path_39319" data-name="Path 39319" d="M3.851,16.506c1.545,0,2.318,0,2.873-.371a2.2,2.2,0,0,0,.607-.607c.371-.555.371-1.328.371-2.873v-8.8c0-1.545,0-2.318-.371-2.873A2.2,2.2,0,0,0,6.725.371C6.17,0,5.4,0,3.851,0S1.533,0,.978.371A2.2,2.2,0,0,0,.371.978C0,1.533,0,2.306,0,3.851v8.8c0,1.545,0,2.318.371,2.873a2.2,2.2,0,0,0,.607.607C1.533,16.506,2.306,16.506,3.851,16.506Z" transform="translate(12.104 0)" fill="none" stroke="#fff" stroke-width="1"/>
      <path id="Path_39320" data-name="Path 39320" d="M3.851,16.506c1.545,0,2.318,0,2.873-.371a2.2,2.2,0,0,0,.607-.607c.371-.555.371-1.328.371-2.873v-8.8c0-1.545,0-2.318-.371-2.873A2.2,2.2,0,0,0,6.725.371C6.17,0,5.4,0,3.851,0S1.533,0,.978.371A2.2,2.2,0,0,0,.371.978C0,1.533,0,2.306,0,3.851v8.8c0,1.545,0,2.318.371,2.873a2.2,2.2,0,0,0,.607.607C1.533,16.506,2.306,16.506,3.851,16.506Z" transform="translate(0 0)" fill="none" stroke="#fff" stroke-width="1"/>
      <path id="Path_39321" data-name="Path 39321" d="M6.6,2.751,4.857,1.064C4.124.355,3.757,0,3.3,0S2.479.355,1.745,1.064L0,2.751" transform="translate(6.602 19.257)" fill="none" stroke="#fff" stroke-linecap="round" stroke-linejoin="round" stroke-width="1"/>
    </g>
  </g>
</svg>
