<svg width="10" height="10" viewBox="0 0 10 10" fill="none" xmlns="http://www.w3.org/2000/svg">
<path d="M7.6 0.95C6.81239 0.95 6.15 1.61239 6.15 2.4C6.15 3.0499 6.58734 3.57975 7.15 3.75718V7.28C7.15 7.73239 6.77239 8.11 6.32 8.11C5.86155 8.11 5.45 7.76669 5.45 7.32V2.72C5.45 1.73316 4.66838 0.95 3.72 0.95C2.77314 0.95 1.95 1.73163 1.95 2.72V6.24282C1.38734 6.42025 0.95 6.9501 0.95 7.6C0.95 8.38761 1.61239 9.05 2.4 9.05C3.18761 9.05 3.85 8.38761 3.85 7.6C3.85 6.9501 3.41266 6.42025 2.85 6.24282V2.72C2.85 2.22761 3.22761 1.85 3.72 1.85C4.17095 1.85 4.55 2.22615 4.55 2.72V7.32C4.55 8.26761 5.33239 9.05 6.28 9.05C7.22761 9.05 8.01 8.26761 8.01 7.32V3.75791C8.61109 3.58131 9.05 3.05117 9.05 2.4C9.05 1.61239 8.38761 0.95 7.6 0.95ZM2.95 7.6C2.95 7.89239 2.69239 8.15 2.4 8.15C2.10761 8.15 1.85 7.89239 1.85 7.6C1.85 7.30761 2.10761 7.05 2.4 7.05C2.69239 7.05 2.95 7.30761 2.95 7.6ZM7.6 2.95C7.30761 2.95 7.05 2.69239 7.05 2.4C7.05 2.10761 7.30761 1.85 7.6 1.85C7.89239 1.85 8.15 2.10761 8.15 2.4C8.15 2.69239 7.89239 2.95 7.6 2.95Z" fill="#3366CC" stroke="#3366CC" stroke-width="0.1"/>
</svg>
