<svg width="32" height="32" viewBox="0 0 32 32" fill="none" xmlns="http://www.w3.org/2000/svg">
<mask id="mask0_32_31" style="mask-type:luminance" maskUnits="userSpaceOnUse" x="0" y="0" width="32" height="32">
<path d="M32 0H0V32H32V0Z" fill="white"/>
</mask>
<g mask="url(#mask0_32_31)">
<path d="M31.4175 19.52C30.669 23.0543 28.7289 26.2242 25.9221 28.4988C23.1153 30.7734 19.6123 32.0146 15.9995 32.0146C12.3868 32.0146 8.88376 30.7734 6.07697 28.4988C3.27019 26.2242 1.33009 23.0543 0.581543 19.52H8.30074C8.9638 21.0083 10.0439 22.2725 11.4105 23.1597C12.7771 24.047 14.3714 24.5191 16.0007 24.5191C17.63 24.5191 19.2244 24.047 20.591 23.1597C21.9575 22.2725 23.0377 21.0083 23.7007 19.52H31.4183H31.4175ZM31.4175 12.484H23.7015C23.0384 10.996 21.9582 9.73195 20.5918 8.8449C19.2253 7.95785 17.6311 7.48578 16.0019 7.48578C14.3728 7.48578 12.7786 7.95785 11.4121 8.8449C10.0456 9.73195 8.9655 10.996 8.30234 12.484H0.581543C1.33009 8.94967 3.27019 5.77981 6.07697 3.50522C8.88376 1.23063 12.3868 -0.0105896 15.9995 -0.0105896C19.6123 -0.0105896 23.1153 1.23063 25.9221 3.50522C28.7289 5.77981 30.669 8.94967 31.4175 12.484Z" fill="#023A43"/>
<path d="M3.78478 21.6912H5.00718L5.27678 20.6264L5.73278 21.6912H6.68638L5.87758 22.3384L6.14718 23.4032L5.23598 22.7312L4.46798 23.4L4.71678 22.2936L3.78478 21.6912ZM25.0448 21.6912H26.268L26.5376 20.6264L26.9936 21.6912H27.9464L27.1376 22.3384L27.4072 23.4032L26.4952 22.7344L25.728 23.4032L25.9768 22.2968L25.0448 21.6912ZM3.39758 9.7512H4.61998L4.88958 8.6864L5.34558 9.7512H6.29998L5.49198 10.3984L5.76158 11.4632L4.84958 10.7952L4.08238 11.4632L4.33118 10.3568L3.39758 9.7512ZM25.5576 9.7512H26.78L27.0496 8.6864L27.5048 9.7512H28.46L27.6512 10.3984L27.9208 11.4632L27.0088 10.7952L26.2424 11.4632L26.4912 10.3568L25.5576 9.7512Z" fill="white"/>
<path d="M9.24242 3.35039L9.48242 3.82319C9.04242 4.05039 8.60775 4.28799 8.17842 4.53599C8.33575 4.76479 8.49789 5.02506 8.66482 5.31679C8.99655 5.12319 9.32455 4.92319 9.64882 4.71679L9.89922 5.15279C9.51735 5.35812 9.18189 5.54479 8.89282 5.71279C9.11949 6.10959 9.34029 6.47892 9.55522 6.82079L8.92722 7.18559C8.67335 6.69599 8.40855 6.21252 8.13282 5.73519C7.88749 5.29732 7.62935 4.86692 7.35842 4.44399L9.24242 3.35039ZM14.6824 3.37039C14.7343 3.59209 14.7409 3.82199 14.7017 4.04628C14.6625 4.27058 14.5783 4.48463 14.4543 4.67556C14.3302 4.86649 14.1688 5.03037 13.9798 5.15734C13.7908 5.28431 13.5781 5.37174 13.3544 5.41439C13.1466 5.46476 12.9308 5.4728 12.7198 5.43802C12.5089 5.40325 12.3071 5.32638 12.1264 5.21199C11.9461 5.09895 11.7916 4.94933 11.6728 4.7728C11.554 4.59626 11.4736 4.39676 11.4368 4.18719C11.3845 3.96548 11.3777 3.73548 11.4167 3.51106C11.4557 3.28663 11.5397 3.07243 11.6637 2.88136C11.7878 2.69029 11.9492 2.52631 12.1383 2.39931C12.3274 2.27231 12.5402 2.18491 12.764 2.14239C12.9717 2.09238 13.1872 2.08445 13.398 2.11908C13.6088 2.1537 13.8105 2.23017 13.9912 2.34399C14.1718 2.45712 14.3266 2.60696 14.4456 2.78378C14.5645 2.96061 14.6457 3.16047 14.6824 3.37039ZM13.9872 3.58879C13.9381 3.29336 13.7792 3.02736 13.5424 2.84399C13.4386 2.76313 13.3183 2.70627 13.1899 2.6775C13.0615 2.64873 12.9284 2.64876 12.8 2.67759C12.6768 2.70316 12.5612 2.75662 12.4619 2.83386C12.3626 2.91111 12.2823 3.01008 12.2272 3.12319C12.0941 3.38241 12.0591 3.68103 12.1288 3.96399C12.177 4.26005 12.3353 4.52696 12.572 4.71119C12.6756 4.79207 12.7959 4.849 12.9241 4.87791C13.0523 4.90682 13.1853 4.90698 13.3136 4.87839C13.4369 4.85274 13.5526 4.79915 13.6519 4.72177C13.7512 4.64438 13.8314 4.54524 13.8864 4.43199C14.0205 4.17275 14.0554 3.87355 13.9848 3.59039L13.9872 3.58879ZM19.7256 3.79679C19.6995 4.0241 19.6271 4.24368 19.5131 4.44205C19.3991 4.64042 19.2457 4.8134 19.0624 4.95039C18.8816 5.08689 18.6747 5.18486 18.4546 5.23825C18.2344 5.29164 18.0057 5.29931 17.7824 5.26079C17.5699 5.23572 17.3645 5.16854 17.1783 5.06319C16.992 4.95783 16.8286 4.81641 16.6976 4.64719C16.5663 4.47937 16.4717 4.28582 16.42 4.07909C16.3684 3.87235 16.3607 3.65706 16.3976 3.44719C16.4237 3.22137 16.4954 3.0032 16.6083 2.80589C16.7212 2.60858 16.873 2.43624 17.0544 2.29929C17.2359 2.16235 17.4432 2.06365 17.6639 2.00918C17.8846 1.95471 18.1141 1.94559 18.3384 1.98239C18.551 2.00737 18.7564 2.07451 18.9427 2.17988C19.1289 2.28524 19.2923 2.4267 19.4232 2.59599C19.5545 2.76386 19.649 2.9574 19.7009 3.16409C19.7527 3.37079 19.7606 3.58605 19.724 3.79599L19.7256 3.79679ZM18.9984 3.76079C19.0547 3.46575 18.9975 3.16034 18.8384 2.90559C18.7686 2.79411 18.675 2.69939 18.5644 2.62818C18.4538 2.55697 18.3288 2.51102 18.1984 2.49359C18.0742 2.47515 17.9475 2.48547 17.8279 2.52375C17.7084 2.56203 17.5992 2.62725 17.5088 2.71439C17.2943 2.91334 17.1593 3.1834 17.1288 3.47439C17.0725 3.76918 17.1297 4.07434 17.2888 4.32879C17.3584 4.44061 17.4518 4.53562 17.5625 4.607C17.6732 4.67837 17.7983 4.72434 17.9288 4.74159C18.0533 4.75954 18.1802 4.74876 18.2999 4.71007C18.4196 4.67138 18.5288 4.60581 18.6192 4.51839C18.8341 4.32154 18.9688 4.05237 18.9976 3.76239L18.9984 3.76079ZM24.044 5.74559C23.8389 6.14359 23.485 6.44458 23.0592 6.58319C22.8231 6.65641 22.5741 6.67823 22.3289 6.64718C22.0837 6.61613 21.848 6.53294 21.6376 6.40319C21.4088 6.28052 21.0984 6.10292 20.7064 5.87039C20.955 5.44906 21.2216 4.96772 21.5064 4.42639C21.7816 3.90586 22.0064 3.45652 22.1808 3.07839L22.5864 3.29519C22.6528 3.33119 22.7528 3.38239 22.8864 3.44799C23.02 3.51359 23.1072 3.55599 23.1472 3.57919C23.376 3.67693 23.583 3.81922 23.7562 3.99777C23.9294 4.17633 24.0653 4.38757 24.156 4.61919C24.2138 4.80564 24.2334 5.00182 24.2138 5.19602C24.1941 5.39023 24.1356 5.57849 24.0416 5.74959L24.044 5.74559ZM23.364 5.49759C23.5067 5.2445 23.5454 4.94589 23.472 4.66479C23.4203 4.50818 23.3362 4.36424 23.2251 4.24237C23.114 4.12051 22.9784 4.02347 22.8272 3.95759C22.7349 3.90997 22.6401 3.86725 22.5432 3.82959C22.4014 4.13679 22.251 4.43999 22.092 4.73919C21.9128 5.07786 21.7414 5.42079 21.5776 5.76799C21.6672 5.83962 21.7631 5.90307 21.864 5.95759C21.9944 6.04185 22.1423 6.09536 22.2964 6.11407C22.4505 6.13278 22.6069 6.1162 22.7536 6.06559C23.0186 5.9557 23.2348 5.75367 23.3624 5.49679L23.364 5.49759ZM10.1824 24.8912L9.87042 25.3096C9.59735 25.0872 9.33389 24.8869 9.08002 24.7088C8.90295 24.9573 8.70775 25.2357 8.49442 25.544C8.18082 25.9963 7.87549 26.4539 7.57842 26.9168L6.97522 26.4936C7.30749 26.0552 7.62989 25.6096 7.94242 25.1568C8.15255 24.8544 8.34349 24.5728 8.51522 24.312C8.23522 24.1195 7.95015 23.9349 7.66002 23.7584L7.97522 23.34L10.1824 24.8912ZM12.8952 29.1896L12.152 28.96C12.1551 28.5704 12.1092 28.1821 12.0152 27.804C11.9728 27.716 11.9108 27.6389 11.834 27.5786C11.7572 27.5183 11.6676 27.4763 11.572 27.456C11.4752 27.4264 11.3816 27.3976 11.2928 27.376C11.1702 27.7781 11.055 28.1824 10.9472 28.5888L10.2504 28.372C10.4147 27.9112 10.5864 27.3872 10.7656 26.8C10.9379 26.2368 11.0736 25.7528 11.1728 25.348L11.6072 25.4824C11.6576 25.4984 11.7672 25.528 11.9272 25.5728C12.0872 25.6176 12.2368 25.6616 12.372 25.7032C13.14 25.9405 13.4504 26.3024 13.3032 26.7888C13.2441 26.9772 13.1222 27.1398 12.9579 27.2494C12.7936 27.359 12.5967 27.409 12.4 27.3912L12.3896 27.4272C12.5612 27.5466 12.6803 27.7273 12.7224 27.932C12.814 28.3468 12.8731 28.768 12.8992 29.192L12.8952 29.1896ZM12.6056 26.764C12.7 26.4557 12.5331 26.2357 12.1048 26.104C11.9655 26.0594 11.8226 26.027 11.6776 26.0072C11.6035 26.3272 11.5174 26.6427 11.4192 26.9536C11.5104 26.9856 11.5878 27.0123 11.6512 27.0336C12.183 27.1952 12.5011 27.1053 12.6056 26.764ZM17.9336 29.3912L17.0936 29.404C17.0387 29.095 16.9534 28.7923 16.8392 28.5L15.6264 28.52C15.5165 28.815 15.439 29.121 15.3952 29.4328L14.6048 29.4464C14.7745 28.9153 14.9707 28.393 15.1928 27.8816C15.4269 27.357 15.6226 26.8161 15.7784 26.2632L16.7704 26.2464C16.93 26.7835 17.1243 27.3097 17.352 27.8216C17.5787 28.3318 17.773 28.8565 17.9336 29.3912ZM16.6976 28.0392C16.5165 27.5989 16.3592 27.1492 16.2264 26.692H16.1824C16.1824 26.7549 16.035 27.2083 15.74 28.052L16.6976 28.0392ZM21.8016 27.7568L21.9544 28.2848L19.7264 29.02L19.6104 28.5344C19.7198 28.2533 19.8688 27.7965 20.0576 27.164C20.1932 26.7996 20.2851 26.4204 20.3312 26.0344L20.3192 25.9984C19.9219 26.1291 19.4686 26.2984 18.9592 26.5064L18.8088 25.9952L20.944 25.2912L21.0648 25.78C20.9582 26.0749 20.8198 26.5211 20.6496 27.1184C20.5203 27.4815 20.4354 27.8589 20.3968 28.2424L20.4088 28.2784C20.7582 28.1621 21.2235 27.9883 21.8048 27.7568H21.8016ZM25.444 25.5456L25.7304 25.9944L23.9024 27.2856C23.6075 26.8205 23.3022 26.3624 22.9864 25.9112C22.7016 25.4984 22.4064 25.0931 22.1008 24.6952L23.8456 23.4632L24.1256 23.9152C23.6814 24.1979 23.2843 24.4621 22.9344 24.708C23.0779 24.8824 23.2366 25.0957 23.4104 25.348C23.7304 25.1213 24.0459 24.8877 24.3568 24.6472L24.644 25.064C24.2995 25.2875 23.975 25.5069 23.6704 25.7224C23.8584 25.9912 24.04 26.24 24.2152 26.4672C24.6328 26.1701 25.0432 25.8629 25.4464 25.5456H25.444Z" fill="white"/>
<path d="M18.9336 8.95599L12.0392 9.63279C12.026 9.52748 11.9739 9.43089 11.8933 9.36182C11.8127 9.29276 11.7093 9.25617 11.6032 9.25919C11.4839 9.26127 11.37 9.30983 11.2859 9.39454C11.2018 9.47925 11.1541 9.59342 11.1528 9.71279C11.1535 9.78686 11.1728 9.85957 11.2089 9.92428C11.2449 9.98898 11.2966 10.0436 11.3592 10.0832L8.47443 16.3848L8.44483 16.4128C8.40723 16.4512 8.40723 16.4512 8.40723 16.4928C8.40733 16.4976 8.40839 16.5024 8.41033 16.5068C8.41228 16.5112 8.41508 16.5152 8.41857 16.5186C8.42206 16.5219 8.42618 16.5245 8.43068 16.5263C8.43519 16.5281 8.43999 16.5289 8.44483 16.5288L12.4664 22.2616C12.41 22.3265 12.3734 22.4062 12.3611 22.4914C12.3487 22.5765 12.3611 22.6633 12.3968 22.7416C12.4325 22.8197 12.4902 22.8857 12.5628 22.9316C12.6354 22.9775 12.7198 23.0012 12.8056 23C12.8624 23.0024 12.9191 22.9934 12.9724 22.9736C13.0257 22.9538 13.0745 22.9236 13.116 22.8848C13.2002 22.8062 13.2496 22.6974 13.2536 22.5824V22.5752L20.0176 21.9104L20.0976 21.9416C20.111 21.9299 20.1222 21.9158 20.1304 21.9C20.1536 21.9 20.1736 21.8912 20.1736 21.864L23.0608 15.5544C23.0997 15.5684 23.1404 15.5767 23.1816 15.5792C23.299 15.5709 23.4093 15.5204 23.4923 15.437C23.5753 15.3536 23.6252 15.243 23.6328 15.1256C23.6318 15.0059 23.5841 14.8913 23.4998 14.8063C23.4155 14.7212 23.3013 14.6725 23.1816 14.6704C23.1243 14.6714 23.0678 14.6836 23.0152 14.7064L19.0056 8.99599C18.968 8.95759 18.968 8.95759 18.9312 8.95759L18.9336 8.95599ZM18.6016 9.13599L15.4608 10.8648L12.0128 9.84399C12.0248 9.81302 12.0344 9.7812 12.0416 9.74879L18.6016 9.13599ZM18.8584 9.14559L19.7192 12.92L17.7424 11.6824C17.7907 11.6132 17.8239 11.5348 17.84 11.452C17.8386 11.3327 17.7908 11.2186 17.7067 11.134C17.6226 11.0493 17.5089 11.0007 17.3896 10.9984C17.2951 10.9996 17.2034 11.0306 17.1274 11.0869C17.0514 11.1432 16.9951 11.2219 16.9664 11.312L15.6528 10.9248L18.8528 9.14559H18.8584ZM19.0312 9.30159L22.8768 14.8C22.8591 14.8183 22.843 14.8381 22.8288 14.8592L19.8616 13.0064L19.0304 9.30159H19.0312ZM11.9912 9.90399L15.3792 10.912L13.0664 12.1872L11.8792 10.0528C11.9262 10.0106 11.965 9.9602 11.9936 9.90399H11.9912ZM11.7512 10.1352L12.9192 12.2344L12.9264 12.2704L11.5984 13.496V10.1688C11.6499 10.1684 11.7007 10.1578 11.748 10.1376L11.7512 10.1352ZM11.4792 10.1448C11.5073 10.1539 11.5363 10.1598 11.5656 10.1624V13.536L8.76563 16.1224L11.4792 10.1448ZM15.576 10.9744L16.9576 11.3848C16.95 11.4082 16.9446 11.4323 16.9416 11.4568C16.9435 11.5549 16.9788 11.6494 17.0416 11.7248L15.4352 13.1208L13.1736 12.3048L15.5736 10.9728L15.576 10.9744ZM17.06 11.7544C17.1013 11.803 17.1523 11.8423 17.2098 11.8699C17.2673 11.8974 17.3299 11.9126 17.3936 11.9144C17.4069 11.912 17.42 11.9088 17.4328 11.9048L17.8328 13.9848L15.4704 13.1328L17.0624 11.7496L17.06 11.7544ZM17.6944 11.7664L19.7528 13.0544L20.1592 14.8304L17.8792 14.0008L17.4792 11.8952C17.561 11.8709 17.6342 11.8241 17.6904 11.76L17.6944 11.7664ZM13.1064 12.4064L15.3464 13.2064L13.568 14.7568L13.108 12.4072L13.1064 12.4064ZM12.9664 12.4632L13.4408 14.8632L11.9304 16.1688C11.8878 16.125 11.8366 16.0905 11.78 16.0673C11.7235 16.0442 11.6627 16.033 11.6016 16.0344V13.7144L12.9656 12.4568L12.9664 12.4632ZM19.8928 13.144L22.7728 14.9496C22.7646 14.9704 22.7579 14.9918 22.7528 15.0136L20.268 14.8312L19.8896 13.144H19.8928ZM15.376 13.2184L17.852 14.1048L18.3008 16.4624L16.348 18.1448L14.0736 17.352L13.5704 14.7816L15.376 13.2184ZM11.5648 13.7552V16.0464C11.4487 16.0562 11.3408 16.1103 11.2635 16.1977C11.1863 16.285 11.1458 16.3987 11.1503 16.5152C11.1548 16.6317 11.2041 16.7419 11.2879 16.823C11.3717 16.9041 11.4835 16.9497 11.6 16.9504C11.6184 16.9482 11.6366 16.9447 11.6544 16.94L11.912 18.3048L8.63203 16.452L11.5664 13.748L11.5648 13.7552ZM17.8968 14.1192L20.0992 14.9072L18.3288 16.436L17.8968 14.1192ZM13.4456 14.8944L13.9256 17.304L12.0128 16.6392C12.0332 16.5932 12.0477 16.5448 12.056 16.4952C12.0569 16.3862 12.0186 16.2806 11.948 16.1976L13.4488 14.8944H13.4456ZM20.2848 14.9832L22.7328 15.1632C22.7396 15.237 22.7652 15.3078 22.8072 15.3688L20.2256 17.6968L20.2848 14.9832ZM20.1696 15.072L20.1096 17.8024L19.1168 18.6984C19.0354 18.6245 18.93 18.5824 18.82 18.58C18.79 18.5825 18.7603 18.5879 18.7312 18.596L18.3664 16.6248L20.1696 15.072ZM22.8808 15.4672C22.8988 15.4802 22.9175 15.4922 22.9368 15.5032L20.1424 21.6216L20.2224 17.8264L22.8792 15.4672H22.8808ZM18.3376 16.66L18.7064 18.6C18.6372 18.6142 18.5727 18.6459 18.5191 18.6919C18.4655 18.738 18.4245 18.7969 18.4 18.8632L16.54 18.216L18.3376 16.66ZM11.9872 16.6952L13.9368 17.3728L14.4008 19.7144L11.9656 18.3416L11.6944 16.9328C11.7581 16.9166 11.8175 16.8867 11.8685 16.8453C11.9194 16.8039 11.9608 16.7518 11.9896 16.6928L11.9872 16.6952ZM8.73683 16.7024L11.9544 18.5232L12.636 22.1336C12.6182 22.1431 12.6011 22.1538 12.5848 22.1656L8.73683 16.7024ZM14.0864 17.4224L16.2952 18.1904L14.5352 19.7104L14.0864 17.42V17.4224ZM20.108 17.9272L20.028 21.7568L16.428 20.4656L18.4576 19.2808C18.4904 19.3317 18.5332 19.3754 18.5835 19.4091C18.6337 19.4428 18.6904 19.4659 18.7499 19.4769C18.8094 19.4878 18.8705 19.4865 18.9295 19.473C18.9885 19.4594 19.0441 19.434 19.0929 19.3981C19.1416 19.3623 19.1826 19.3168 19.2131 19.2645C19.2436 19.2123 19.2631 19.1543 19.2704 19.0942C19.2776 19.0341 19.2725 18.9732 19.2553 18.9152C19.2381 18.8571 19.2092 18.8032 19.1704 18.7568L20.108 17.9272ZM16.4888 18.2592L18.3896 18.92C18.3787 18.9564 18.372 18.994 18.3696 19.032C18.3705 19.0976 18.3855 19.1623 18.4136 19.2216L16.3336 20.4328L14.664 19.8344L16.4872 18.2584L16.4888 18.2592ZM12.0032 18.548L14.4032 19.908L12.9992 22.1392C12.9021 22.0911 12.7905 22.0811 12.6864 22.1112L12.004 18.5448L12.0032 18.548ZM14.5312 19.9648L16.1512 20.5416L13.1656 22.2816C13.1512 22.2573 13.134 22.2348 13.1144 22.2144L14.5312 19.9648ZM16.2432 20.5744L19.752 21.8232L13.2336 22.436C13.2278 22.4061 13.219 22.3769 13.2072 22.3488L16.2472 20.5744H16.2432Z" fill="#023A43" stroke="#023A43" stroke-width="0.3"/>
<path d="M11.5576 9.87119C11.5517 9.87094 11.546 9.86945 11.5407 9.86683C11.5355 9.86421 11.5309 9.86052 11.5272 9.85599L11.3456 9.67519C11.3414 9.66676 11.34 9.65725 11.3416 9.64799C11.343 9.63855 11.3475 9.62985 11.3544 9.62319C11.361 9.61668 11.3694 9.61236 11.3786 9.61078C11.3877 9.60921 11.3971 9.61047 11.4056 9.61439L11.5544 9.76399L12.068 9.25039C12.0765 9.24763 12.0858 9.24763 12.0944 9.25039C12.1011 9.25158 12.1076 9.25432 12.1131 9.25839C12.1187 9.26246 12.1232 9.26776 12.1264 9.27388C12.1296 9.27999 12.1313 9.28676 12.1314 9.29364C12.1315 9.30053 12.1301 9.30736 12.1272 9.31359L11.5848 9.85999C11.5773 9.86679 11.5677 9.87075 11.5576 9.87119Z" fill="white"/>
<path d="M11.6 10.1648C11.4832 10.1633 11.3713 10.1174 11.2871 10.0365C11.2029 9.95551 11.1526 9.84554 11.1465 9.72887C11.1404 9.61221 11.1789 9.49759 11.2542 9.40828C11.3295 9.31897 11.436 9.26166 11.552 9.24799C11.6123 9.24166 11.6733 9.24765 11.7312 9.26559C11.7364 9.26614 11.7414 9.26808 11.7456 9.27119C11.7502 9.27427 11.7541 9.27838 11.7568 9.28319C11.7596 9.28788 11.7615 9.29303 11.7624 9.29839C11.7635 9.30366 11.7635 9.30911 11.7624 9.31439C11.761 9.31936 11.7585 9.32398 11.7552 9.32799C11.7518 9.33219 11.7474 9.33549 11.7424 9.33759C11.7376 9.33998 11.7322 9.34123 11.7268 9.34123C11.7214 9.34123 11.7161 9.33998 11.7112 9.33759C11.657 9.32112 11.5998 9.31688 11.5437 9.32519C11.4877 9.33349 11.4341 9.35413 11.387 9.38561C11.3399 9.41709 11.3003 9.45863 11.2712 9.50724C11.2421 9.55585 11.2241 9.61032 11.2185 9.66673C11.213 9.72313 11.22 9.78006 11.2391 9.83342C11.2582 9.88678 11.2889 9.93523 11.329 9.97529C11.3691 10.0154 11.4176 10.046 11.4709 10.0651C11.5243 10.0842 11.5812 10.0912 11.6376 10.0856C11.6873 10.0807 11.7355 10.0659 11.7794 10.0419C11.8232 10.018 11.8618 9.98553 11.8928 9.94639C11.9241 9.90707 11.9473 9.86194 11.961 9.8136C11.9748 9.76526 11.9788 9.71468 11.9728 9.66479C11.972 9.65976 11.972 9.65462 11.9728 9.64959C11.9745 9.64445 11.9769 9.63959 11.98 9.63519C11.987 9.62721 11.9967 9.62208 12.0072 9.62079C12.0179 9.6199 12.0285 9.62326 12.0368 9.63015C12.045 9.63704 12.0502 9.6469 12.0512 9.65759C12.064 9.77913 12.0281 9.90078 11.9513 9.99586C11.8745 10.0909 11.7631 10.1517 11.6416 10.1648H11.5968H11.6Z" fill="#010101"/>
<path d="M17.3192 11.596C17.3076 11.5948 17.2969 11.589 17.2896 11.58L17.1104 11.4C17.1064 11.3916 17.1052 11.3821 17.1068 11.373C17.1084 11.3638 17.1127 11.3554 17.1193 11.3488C17.1258 11.3422 17.1342 11.3377 17.1433 11.336C17.1524 11.3343 17.1619 11.3354 17.1703 11.3392L17.3192 11.4896L17.8328 10.976C17.8412 10.9718 17.8507 10.9704 17.8599 10.972C17.8694 10.9736 17.878 10.978 17.8847 10.9848C17.8911 10.9917 17.8953 11.0003 17.8968 11.0096C17.8984 11.0189 17.897 11.0284 17.8927 11.0368L17.3496 11.5808C17.3458 11.5853 17.3412 11.589 17.336 11.5916C17.3307 11.5943 17.325 11.5957 17.3192 11.596ZM23.1528 15.3032C23.1412 15.3024 23.1303 15.2972 23.1224 15.2888L22.9431 15.1064C22.9389 15.0979 22.9375 15.0883 22.9391 15.079C22.9407 15.0696 22.9452 15.061 22.952 15.0544C22.9589 15.0481 22.9675 15.0439 22.9768 15.0424C22.986 15.041 22.9955 15.0424 23.0039 15.0464L23.152 15.196L23.6655 14.6824C23.6744 14.6795 23.6839 14.6795 23.6927 14.6824C23.7016 14.684 23.7098 14.6883 23.7161 14.6947C23.7225 14.7012 23.7266 14.7095 23.728 14.7184C23.7307 14.7272 23.7307 14.7367 23.728 14.7456L23.1856 15.2928C23.1776 15.3012 23.1667 15.3064 23.1552 15.3072L23.1528 15.3032ZM18.712 19.1552C18.7021 19.1493 18.6949 19.1399 18.692 19.1288L18.612 18.8888C18.6121 18.8794 18.6152 18.8702 18.6208 18.8626C18.6264 18.855 18.6342 18.8494 18.6431 18.8464C18.6517 18.8437 18.661 18.8437 18.6696 18.8464C18.6788 18.8487 18.687 18.854 18.6927 18.8616L18.7608 19.0616L19.4464 18.828C19.4558 18.8276 19.4651 18.8305 19.4728 18.836C19.4803 18.8418 19.4861 18.8495 19.4896 18.8584C19.4924 18.8672 19.4924 18.8767 19.4896 18.8856C19.4869 18.8947 19.4816 18.9028 19.4744 18.9088L18.7487 19.1616C18.7382 19.1657 18.7265 19.1657 18.716 19.1616L18.712 19.1552ZM11.524 16.6304C11.5142 16.6245 11.507 16.615 11.504 16.604L11.424 16.364C11.4241 16.3545 11.4272 16.3453 11.4327 16.3376C11.4381 16.3301 11.4457 16.3245 11.4544 16.3216C11.4635 16.3187 11.4732 16.3187 11.4824 16.3216C11.4913 16.3244 11.4992 16.33 11.5048 16.3376L11.5728 16.5368L12.2584 16.3032C12.2676 16.3032 12.2766 16.3063 12.284 16.312C12.2914 16.3177 12.297 16.3255 12.3 16.3344C12.3026 16.3434 12.3026 16.3529 12.2999 16.3619C12.2972 16.3708 12.2919 16.3788 12.2848 16.3848L11.56 16.6376C11.5494 16.6417 11.5377 16.6417 11.5271 16.6376L11.524 16.6304Z" fill="white"/>
</g>
</svg>
