<svg width="18" height="16" viewBox="0 0 18 16" fill="none" xmlns="http://www.w3.org/2000/svg">
<path d="M6.2965 14.1822L6.29661 14.1823C6.43559 14.33 6.62193 14.4118 6.81556 14.41C7.00919 14.4081 7.1942 14.3227 7.33081 14.1724C7.46739 14.0222 7.54472 13.8191 7.5464 13.6071C7.54807 13.395 7.47396 13.1905 7.33979 13.0377L7.33967 13.0375L3.50538 8.81986L16.2727 8.81986C16.4686 8.81986 16.6562 8.73426 16.7944 8.58227C16.9325 8.43031 17.01 8.22439 17.01 8.00985C17.01 7.79532 16.9325 7.5894 16.7944 7.43744C16.6562 7.28545 16.4686 7.19985 16.2727 7.19985L3.50538 7.19985L7.33955 2.98231C7.33958 2.98228 7.33961 2.98225 7.33964 2.98222C7.40997 2.90747 7.46602 2.81813 7.50457 2.71942C7.54314 2.62066 7.56342 2.51448 7.56427 2.40705C7.56512 2.29963 7.54651 2.19308 7.50951 2.09361C7.47252 1.99413 7.41786 1.9037 7.34868 1.82761C7.27951 1.75152 7.1972 1.69129 7.10652 1.65048C7.01584 1.60967 6.91864 1.58912 6.82061 1.59005C6.72257 1.59099 6.62571 1.6134 6.5357 1.65593C6.44572 1.69845 6.3644 1.76021 6.29646 1.83757C6.29643 1.8376 6.29641 1.83763 6.29638 1.83766L1.20554 7.43753L1.21294 7.44425L1.20554 7.43753C1.06744 7.58948 0.99 7.79536 0.99 8.00985C0.99 8.22435 1.06744 8.43023 1.20554 8.58218L1.21294 8.57545L1.20554 8.58218L6.2965 14.1822Z" fill="#023A43" stroke="#023A43" stroke-width="0.02"/>
</svg>
