<svg width="8" height="12" viewBox="0 0 8 12" fill="none" xmlns="http://www.w3.org/2000/svg">
<path d="M6.24071 0.950184L6.24063 0.950186C6.06067 0.954421 5.888 1.02216 5.75331 1.14165L0.770892 5.4087C0.687141 5.48018 0.619891 5.56897 0.573777 5.66895C0.527662 5.76893 0.503782 5.87775 0.503782 5.98784C0.503782 6.09794 0.527662 6.20676 0.573777 6.30674C0.619889 6.40671 0.687128 6.49541 0.770844 6.56686L6.24071 0.950184ZM6.24071 0.950184C6.39888 0.946705 6.55423 0.992559 6.68513 1.08145C6.81604 1.17034 6.91598 1.29787 6.97109 1.44618C7.0262 1.59449 7.03372 1.75628 6.99262 1.90907C6.95156 2.06172 6.864 2.19773 6.74212 2.29835L2.43465 5.98849L6.74108 9.67645C6.82485 9.73834 6.89504 9.81673 6.9473 9.90686C6.99987 9.99753 7.03315 10.0981 7.04507 10.2022C7.05698 10.3064 7.04726 10.4118 7.01653 10.512C6.9858 10.6122 6.93471 10.705 6.86646 10.7845C6.7982 10.8641 6.71425 10.9286 6.6199 10.9742C6.52553 11.0198 6.42277 11.0454 6.31804 11.0494C6.21334 11.0535 6.1089 11.0359 6.01128 10.9977C5.91429 10.9598 5.82612 10.9023 5.75223 10.8289L0.770892 6.5669L6.24071 0.950184Z" fill="#023A43" stroke="#023A43" stroke-width="0.1"/>
</svg>
