<svg width="80" height="80" viewBox="0 0 80 80" fill="none" xmlns="http://www.w3.org/2000/svg">
<g clip-path="url(#clip0_1_592)">
<mask id="mask0_1_592" style="mask-type:luminance" maskUnits="userSpaceOnUse" x="0" y="0" width="80" height="80">
<path d="M80 0H0V80H80V0Z" fill="white"/>
</mask>
<g mask="url(#mask0_1_592)">
<path d="M78.544 48.8C76.6726 57.6358 71.8224 65.5605 64.8054 71.2469C57.7884 76.9334 49.0308 80.0365 39.999 80.0365C30.9672 80.0365 22.2095 76.9334 15.1926 71.2469C8.17559 65.5605 3.32534 57.6358 1.45398 48.8H20.752C22.4096 52.5207 25.11 55.6813 28.5264 57.8993C31.9428 60.1174 35.9287 61.2978 40.002 61.2978C44.0752 61.2978 48.0612 60.1174 51.4776 57.8993C54.894 55.6813 57.5943 52.5207 59.252 48.8H78.546H78.544ZM78.544 31.21H59.254C57.5961 27.4899 54.8957 24.3299 51.4796 22.1122C48.0634 19.8946 44.0778 18.7144 40.005 18.7144C35.9321 18.7144 31.9466 19.8946 28.5304 22.1122C25.1142 24.3299 22.4139 27.4899 20.756 31.21H1.45398C3.32534 22.3742 8.17559 14.4495 15.1926 8.76303C22.2095 3.07655 30.9672 -0.0264893 39.999 -0.0264893C49.0308 -0.0264893 57.7884 3.07655 64.8054 8.76303C71.8224 14.4495 76.6726 22.3742 78.544 31.21Z" fill="#023A43"/>
<path d="M9.46202 54.2279H12.518L13.192 51.5659L14.332 54.2279H16.716L14.694 55.8459L15.368 58.5079L13.09 56.8279L11.17 58.4999L11.792 55.7339L9.46202 54.2279ZM62.612 54.2279H65.67L66.344 51.5659L67.484 54.2279H69.866L67.844 55.8459L68.518 58.5079L66.238 56.8359L64.32 58.5079L64.942 55.7419L62.612 54.2279ZM8.49402 24.3779H11.55L12.224 21.7159L13.364 24.3779H15.75L13.73 25.9959L14.404 28.6579L12.124 26.9879L10.206 28.6579L10.828 25.8919L8.49402 24.3779ZM63.894 24.3779H66.95L67.624 21.7159L68.762 24.3779H71.15L69.128 25.9959L69.802 28.6579L67.522 26.9879L65.606 28.6579L66.228 25.8919L63.894 24.3779Z" fill="white"/>
<path d="M23.106 8.37602L23.706 9.55802C22.606 10.126 21.5193 10.72 20.446 11.34C20.8393 11.912 21.2447 12.5627 21.662 13.292C22.4913 12.808 23.3113 12.308 24.122 11.792L24.748 12.882C23.7933 13.3954 22.9547 13.862 22.232 14.282C22.7987 15.274 23.3507 16.1974 23.888 17.052L22.318 17.964C21.6833 16.74 21.0213 15.5314 20.332 14.338C19.7187 13.2434 19.0733 12.1674 18.396 11.11L23.106 8.37602ZM36.706 8.42602C36.8358 8.98026 36.8522 9.55502 36.7541 10.1158C36.6561 10.6765 36.4457 11.2116 36.1356 11.6889C35.8255 12.1663 35.422 12.576 34.9495 12.8934C34.477 13.2108 33.9451 13.4294 33.386 13.536C32.8665 13.6619 32.327 13.682 31.7995 13.5951C31.2721 13.5082 30.7676 13.316 30.316 13.03C29.8653 12.7474 29.479 12.3734 29.182 11.932C28.885 11.4907 28.684 10.9919 28.592 10.468C28.4613 9.91375 28.4442 9.33876 28.5417 8.77769C28.6392 8.21663 28.8493 7.68112 29.1593 7.20345C29.4693 6.72578 29.8729 6.31583 30.3456 5.99832C30.8184 5.68082 31.3505 5.46232 31.91 5.35602C32.4291 5.23099 32.968 5.21118 33.495 5.29774C34.0219 5.3843 34.5261 5.57548 34.978 5.86002C35.4295 6.14284 35.8165 6.51744 36.1138 6.9595C36.4112 7.40156 36.6142 7.90121 36.706 8.42602ZM34.968 8.97202C34.8451 8.23344 34.448 7.56845 33.856 7.11002C33.5966 6.90788 33.2956 6.76573 32.9747 6.6938C32.6537 6.62187 32.3209 6.62195 32 6.69402C31.692 6.75794 31.4028 6.89159 31.1546 7.0847C30.9064 7.27782 30.7057 7.52526 30.568 7.80802C30.2351 8.45608 30.1478 9.20262 30.322 9.91002C30.4424 10.6502 30.8382 11.3174 31.43 11.778C31.689 11.9802 31.9896 12.1226 32.3101 12.1948C32.6307 12.2671 32.9633 12.2675 33.284 12.196C33.5921 12.1319 33.8814 11.9979 34.1297 11.8045C34.378 11.611 34.5785 11.3632 34.716 11.08C35.0511 10.4319 35.1386 9.68393 34.962 8.97602L34.968 8.97202ZM49.314 9.49202C49.2486 10.0603 49.0678 10.6092 48.7827 11.1052C48.4976 11.6011 48.1142 12.0336 47.656 12.376C47.204 12.7173 46.6868 12.9622 46.1364 13.0957C45.586 13.2291 45.0141 13.2483 44.456 13.152C43.9247 13.0893 43.4112 12.9214 42.9456 12.658C42.4799 12.3946 42.0714 12.0411 41.744 11.618C41.4157 11.1985 41.1792 10.7146 41.05 10.1978C40.9208 9.68093 40.9017 9.1427 40.994 8.61802C41.0593 8.05347 41.2385 7.50805 41.5207 7.01477C41.803 6.5215 42.1824 6.09064 42.636 5.74828C43.0896 5.40592 43.608 5.15917 44.1598 5.023C44.7115 4.88682 45.2852 4.86403 45.846 4.95602C46.3773 5.01848 46.8909 5.18633 47.3566 5.44973C47.8222 5.71314 48.2307 6.0668 48.558 6.49002C48.8861 6.90971 49.1226 7.39354 49.2521 7.91028C49.3816 8.42702 49.4013 8.96518 49.31 9.49002L49.314 9.49202ZM47.496 9.40202C47.6366 8.66441 47.4937 7.90091 47.096 7.26402C46.9214 6.98532 46.6875 6.74853 46.4109 6.5705C46.1344 6.39247 45.822 6.27759 45.496 6.23402C45.1855 6.18792 44.8687 6.21372 44.5698 6.30942C44.2709 6.40512 43.9979 6.56818 43.772 6.78602C43.2357 7.28341 42.8981 7.95854 42.822 8.68602C42.6813 9.42298 42.8242 10.1859 43.222 10.822C43.3959 11.1016 43.6295 11.3391 43.9062 11.5175C44.1829 11.696 44.4956 11.8109 44.822 11.854C45.1332 11.8989 45.4505 11.8719 45.7497 11.7752C46.0489 11.6785 46.322 11.5146 46.548 11.296C47.0852 10.8039 47.422 10.131 47.494 9.40602L47.496 9.40202ZM60.11 14.364C59.5971 15.359 58.7124 16.1115 57.648 16.458C57.0578 16.6411 56.4353 16.6956 55.8222 16.618C55.2092 16.5404 54.6199 16.3324 54.094 16.008C53.522 15.7014 52.746 15.2574 51.766 14.676C52.3873 13.6227 53.054 12.4194 53.766 11.066C54.454 9.76468 55.016 8.64135 55.452 7.69602L56.466 8.23802C56.632 8.32802 56.882 8.45602 57.216 8.62002C57.55 8.78402 57.768 8.89002 57.868 8.94802C58.4399 9.19237 58.9574 9.5481 59.3904 9.99448C59.8234 10.4409 60.1632 10.969 60.39 11.548C60.5344 12.0142 60.5835 12.5046 60.5344 12.9901C60.4852 13.4756 60.3389 13.9463 60.104 14.374L60.11 14.364ZM58.41 13.744C58.7666 13.1113 58.8634 12.3648 58.68 11.662C58.5508 11.2705 58.3405 10.9106 58.0627 10.606C57.7849 10.3013 57.4459 10.0587 57.068 9.89402C56.8371 9.77498 56.6001 9.66817 56.358 9.57402C56.0033 10.342 55.6273 11.1 55.23 11.848C54.782 12.6947 54.3533 13.552 53.944 14.42C54.168 14.5991 54.4076 14.7577 54.66 14.894C54.986 15.1047 55.3556 15.2384 55.7409 15.2852C56.1262 15.332 56.5171 15.2906 56.884 15.164C57.5463 14.8893 58.087 14.3842 58.406 13.742L58.41 13.744ZM25.456 62.228L24.676 63.274C23.9933 62.718 23.3347 62.2174 22.7 61.772C22.2573 62.3934 21.7693 63.0893 21.236 63.86C20.452 64.9907 19.6887 66.1347 18.946 67.292L17.438 66.234C18.2687 65.138 19.0747 64.024 19.856 62.892C20.3813 62.136 20.8587 61.432 21.288 60.78C20.588 60.2987 19.8753 59.8374 19.15 59.396L19.938 58.35L25.456 62.228ZM32.238 72.974L30.38 72.4C30.3878 71.4261 30.2729 70.4552 30.038 69.51C29.9319 69.2901 29.7769 69.0973 29.5849 68.9465C29.3928 68.7957 29.1688 68.6909 28.93 68.64C28.688 68.566 28.454 68.494 28.232 68.44C27.9253 69.4454 27.6373 70.456 27.368 71.472L25.626 70.93C26.0367 69.778 26.466 68.468 26.914 67C27.3447 65.592 27.684 64.382 27.932 63.37L29.018 63.706C29.144 63.746 29.418 63.82 29.818 63.932C30.218 64.044 30.592 64.154 30.93 64.258C32.85 64.8514 33.626 65.756 33.258 66.972C33.1102 67.4432 32.8055 67.8495 32.3948 68.1235C31.984 68.3975 31.4918 68.5226 31 68.478L30.974 68.568C31.4028 68.8665 31.7007 69.3183 31.806 69.83C32.0349 70.867 32.1827 71.9201 32.248 72.98L32.238 72.974ZM31.514 66.91C31.75 66.1394 31.3327 65.5894 30.262 65.26C29.9137 65.1485 29.5563 65.0675 29.194 65.018C29.0087 65.818 28.7933 66.6067 28.548 67.384C28.776 67.464 28.9693 67.5307 29.128 67.584C30.4573 67.988 31.2527 67.7634 31.514 66.91ZM44.834 73.478L42.734 73.51C42.5966 72.7377 42.3836 71.9807 42.098 71.25L39.066 71.3C38.7913 72.0375 38.5975 72.8027 38.488 73.582L36.512 73.616C36.9362 72.2882 37.4268 70.9826 37.982 69.704C38.5672 68.3926 39.0565 67.0403 39.446 65.658L41.926 65.616C42.3249 66.9588 42.8106 68.2742 43.38 69.554C43.9468 70.8294 44.4324 72.1414 44.834 73.478ZM41.744 70.098C41.2912 68.9973 40.898 67.873 40.566 66.73H40.456C40.456 66.8874 40.0873 68.0207 39.35 70.13L41.744 70.098ZM54.504 69.392L54.886 70.712L49.316 72.55L49.026 71.336C49.2993 70.6333 49.672 69.4914 50.144 67.91C50.483 66.9991 50.7126 66.0511 50.828 65.086L50.798 64.996C49.8047 65.3227 48.6713 65.746 47.398 66.266L47.022 64.988L52.36 63.228L52.662 64.45C52.3953 65.1874 52.0493 66.3027 51.624 67.796C51.3006 68.7037 51.0884 69.6473 50.992 70.606L51.022 70.696C51.8953 70.4053 53.0587 69.9707 54.512 69.392H54.504ZM63.61 63.864L64.326 64.986L59.756 68.214C59.0187 67.0514 58.2553 65.906 57.466 64.778C56.754 63.746 56.016 62.7327 55.252 61.738L59.614 58.658L60.314 59.788C59.2033 60.4947 58.2107 61.1553 57.336 61.77C57.6947 62.206 58.0913 62.7394 58.526 63.37C59.326 62.8034 60.1147 62.2194 60.892 61.618L61.61 62.66C60.7487 63.2187 59.9373 63.7673 59.176 64.306C59.646 64.978 60.1 65.6 60.538 66.168C61.582 65.4253 62.608 64.6573 63.616 63.864H63.61Z" fill="white"/>
<path d="M47.3339 22.39L30.0979 24.082C30.0648 23.8187 29.9348 23.5773 29.7333 23.4046C29.5318 23.2319 29.2732 23.1405 29.0079 23.148C28.7096 23.1532 28.425 23.2746 28.2147 23.4864C28.0044 23.6981 27.885 23.9836 27.8819 24.282C27.8837 24.4672 27.9319 24.649 28.022 24.8107C28.1122 24.9725 28.2414 25.1091 28.3979 25.208L21.1859 40.962L21.1119 41.032C21.0179 41.128 21.0179 41.128 21.0179 41.232C21.0182 41.2441 21.0208 41.256 21.0257 41.2671C21.0306 41.2781 21.0376 41.2881 21.0463 41.2965C21.055 41.3048 21.0653 41.3114 21.0766 41.3158C21.0878 41.3202 21.0999 41.3223 21.1119 41.322L31.1659 55.654C31.0248 55.8162 30.9334 56.0156 30.9025 56.2284C30.8717 56.4412 30.9027 56.6584 30.9919 56.854C31.0812 57.0493 31.2254 57.2143 31.4069 57.329C31.5883 57.4437 31.7993 57.5032 32.0139 57.5C32.1559 57.506 32.2977 57.4835 32.4309 57.4341C32.5642 57.3846 32.6862 57.3091 32.7899 57.212C33.0003 57.0155 33.124 56.7436 33.1339 56.456V56.438L50.0439 54.776L50.2439 54.854C50.2775 54.8247 50.3053 54.7895 50.3259 54.75C50.3839 54.75 50.4339 54.728 50.4339 54.66L57.6519 38.886C57.7491 38.921 57.8508 38.9418 57.9539 38.948C58.2473 38.9274 58.5232 38.8011 58.7306 38.5926C58.938 38.3841 59.0628 38.1075 59.0819 37.814C59.0794 37.5147 58.96 37.2282 58.7493 37.0157C58.5386 36.8031 58.2532 36.6812 57.9539 36.676C57.8107 36.6784 57.6694 36.709 57.5379 36.766L47.5139 22.49C47.4199 22.394 47.4199 22.394 47.3279 22.394L47.3339 22.39ZM46.5039 22.84L38.6519 27.162L30.0319 24.61C30.0618 24.5326 30.0859 24.453 30.1039 24.372L46.5039 22.84ZM47.1459 22.864L49.2979 32.3L44.3559 29.206C44.4765 29.0331 44.5597 28.8369 44.5999 28.63C44.5964 28.3317 44.4768 28.0466 44.2667 27.8349C44.0565 27.6233 43.7722 27.5017 43.4739 27.496C43.2376 27.4991 43.0083 27.5765 42.8184 27.7172C42.6285 27.8579 42.4877 28.0548 42.4159 28.28L39.1319 27.312L47.1319 22.864H47.1459ZM47.5779 23.254L57.1919 37C57.1476 37.0457 57.1074 37.0952 57.0719 37.148L49.6539 32.516L47.5759 23.254H47.5779ZM29.9779 24.76L38.4479 27.28L32.6659 30.468L29.6979 25.132C29.8153 25.0266 29.9123 24.9005 29.9839 24.76H29.9779ZM29.3779 25.338L32.2979 30.586L32.3159 30.676L28.9959 33.74V25.422C29.1246 25.4211 29.2517 25.3946 29.3699 25.344L29.3779 25.338ZM28.6979 25.362C28.7681 25.3847 28.8405 25.3995 28.9139 25.406V33.84L21.9139 40.306L28.6979 25.362ZM38.9399 27.436L42.3939 28.462C42.3749 28.5206 42.3615 28.5809 42.3539 28.642C42.3586 28.8873 42.4468 29.1236 42.6039 29.312L38.5879 32.802L32.9339 30.762L38.9339 27.432L38.9399 27.436ZM42.6499 29.386C42.7531 29.5075 42.8807 29.6058 43.0244 29.6747C43.1681 29.7437 43.3246 29.7816 43.4839 29.786C43.5171 29.7801 43.5498 29.7721 43.5819 29.762L44.5819 34.962L38.6759 32.832L42.6559 29.374L42.6499 29.386ZM44.2359 29.416L49.3819 32.636L50.3979 37.076L44.6979 35.002L43.6979 29.738C43.9023 29.6774 44.0853 29.5602 44.2259 29.4L44.2359 29.416ZM32.7659 31.016L38.3659 33.016L33.9199 36.892L32.7699 31.018L32.7659 31.016ZM32.4159 31.158L33.6019 37.158L29.8259 40.422C29.7194 40.3125 29.5914 40.2262 29.4499 40.1684C29.3085 40.1106 29.1567 40.0825 29.0039 40.086V34.286L32.4139 31.142L32.4159 31.158ZM49.7319 32.86L56.9319 37.374C56.9114 37.4261 56.8947 37.4795 56.8819 37.534L50.6699 37.078L49.7239 32.86H49.7319ZM38.4399 33.046L44.6299 35.262L45.7519 41.156L40.8699 45.362L35.1839 43.38L33.9259 36.954L38.4399 33.046ZM28.9119 34.388V40.116C28.6216 40.1404 28.3518 40.2759 28.1587 40.4942C27.9657 40.7125 27.8643 40.9969 27.8756 41.2881C27.887 41.5793 28.0102 41.8549 28.2196 42.0575C28.429 42.2602 28.7085 42.3743 28.9999 42.376C29.0458 42.3705 29.0913 42.3618 29.1359 42.35L29.7799 45.762L21.5799 41.13L28.9159 34.37L28.9119 34.388ZM44.7419 35.298L50.2479 37.268L45.8219 41.09L44.7419 35.298ZM33.6139 37.236L34.8139 43.26L30.0319 41.598C30.083 41.483 30.1192 41.3621 30.1399 41.238C30.1422 40.9656 30.0464 40.7015 29.8699 40.494L33.6219 37.236H33.6139ZM50.7119 37.458L56.8319 37.908C56.8488 38.0925 56.9129 38.2695 57.0179 38.422L50.5639 44.242L50.7119 37.458ZM50.4239 37.68L50.2739 44.506L47.7919 46.746C47.5883 46.5612 47.3248 46.4561 47.0499 46.45C46.9748 46.4563 46.9005 46.4697 46.8279 46.49L45.9159 41.562L50.4239 37.68ZM57.2019 38.668C57.2469 38.7005 57.2937 38.7306 57.3419 38.758L50.3559 54.054L50.5559 44.566L57.1979 38.668H57.2019ZM45.8439 41.65L46.7659 46.5C46.5929 46.5356 46.4317 46.6147 46.2977 46.7298C46.1637 46.8449 46.0612 46.9923 45.9999 47.158L41.3499 45.54L45.8439 41.65ZM29.9679 41.738L34.8419 43.432L36.0019 49.286L29.9139 45.854L29.2359 42.332C29.3951 42.2915 29.5436 42.2169 29.671 42.1133C29.7985 42.0097 29.9018 41.8796 29.9739 41.732L29.9679 41.738ZM21.8419 41.756L29.8859 46.308L31.5899 55.334C31.5455 55.3577 31.5027 55.3844 31.4619 55.414L21.8419 41.756ZM35.2159 43.556L40.7379 45.476L36.3379 49.276L35.2159 43.55V43.556ZM50.2699 44.818L50.0699 54.392L41.0699 51.164L46.1439 48.202C46.2258 48.3293 46.3329 48.4384 46.4585 48.5227C46.5842 48.607 46.7258 48.6647 46.8746 48.6922C47.0234 48.7196 47.1762 48.7164 47.3237 48.6825C47.4712 48.6487 47.6102 48.5849 47.7321 48.4953C47.854 48.4057 47.9563 48.2921 48.0326 48.1614C48.1089 48.0307 48.1576 47.8858 48.1758 47.7356C48.194 47.5854 48.1812 47.433 48.1382 47.2879C48.0952 47.1429 48.023 47.0081 47.9259 46.892L50.2699 44.818ZM41.2219 45.648L45.9739 47.3C45.9467 47.3911 45.9299 47.4851 45.9239 47.58C45.926 47.7441 45.9635 47.9058 46.0339 48.054L40.8339 51.082L36.6599 49.586L41.2179 45.646L41.2219 45.648ZM30.0079 46.37L36.0079 49.77L32.4979 55.348C32.2552 55.2278 31.9762 55.2028 31.7159 55.278L30.0099 46.362L30.0079 46.37ZM36.3279 49.912L40.3779 51.354L32.9139 55.704C32.8778 55.6433 32.8349 55.5869 32.7859 55.536L36.3279 49.912ZM40.6079 51.436L49.3799 54.558L33.0839 56.09C33.0695 56.0153 33.0474 55.9422 33.0179 55.872L40.6179 51.436H40.6079Z" fill="#023A43" stroke="#023A43" stroke-width="0.3"/>
<path d="M28.894 24.678C28.8793 24.6774 28.865 24.6737 28.8519 24.6671C28.8388 24.6606 28.8272 24.6513 28.818 24.64L28.364 24.188C28.3536 24.167 28.3501 24.1432 28.354 24.12C28.3576 24.0964 28.3688 24.0747 28.386 24.058C28.4025 24.0418 28.4236 24.0309 28.4465 24.027C28.4694 24.0231 28.4929 24.0262 28.514 24.036L28.886 24.41L30.17 23.126C30.1914 23.1191 30.2145 23.1191 30.236 23.126C30.2529 23.129 30.269 23.1358 30.2828 23.146C30.2967 23.1562 30.3081 23.1695 30.316 23.1847C30.324 23.2 30.3283 23.2169 30.3286 23.2342C30.3289 23.2514 30.3253 23.2684 30.318 23.284L28.962 24.65C28.9433 24.667 28.9192 24.6769 28.894 24.678Z" fill="white"/>
<path d="M29 25.412C28.708 25.4083 28.4283 25.2936 28.2177 25.0912C28.0071 24.8888 27.8815 24.6139 27.8662 24.3222C27.8509 24.0306 27.9472 23.744 28.1355 23.5207C28.3238 23.2975 28.5899 23.1542 28.88 23.12C29.0308 23.1042 29.1832 23.1192 29.328 23.164C29.341 23.1654 29.3535 23.1702 29.364 23.178C29.3755 23.1857 29.3851 23.196 29.392 23.208C29.3989 23.2197 29.4036 23.2326 29.406 23.246C29.4088 23.2592 29.4088 23.2728 29.406 23.286C29.4024 23.2984 29.3962 23.31 29.388 23.32C29.3795 23.3305 29.3685 23.3388 29.356 23.344C29.3439 23.35 29.3305 23.3531 29.317 23.3531C29.3035 23.3531 29.2901 23.35 29.278 23.344C29.1424 23.3028 28.9994 23.2922 28.8593 23.313C28.7191 23.3338 28.5853 23.3853 28.4675 23.464C28.3497 23.5428 28.2508 23.6466 28.1779 23.7681C28.1051 23.8897 28.0601 24.0258 28.0462 24.1668C28.0323 24.3079 28.0499 24.4502 28.0977 24.5836C28.1454 24.717 28.2222 24.8381 28.3224 24.9383C28.4226 25.0384 28.5438 25.1151 28.6772 25.1628C28.8107 25.2105 28.953 25.228 29.094 25.214C29.2183 25.2018 29.3388 25.1647 29.4484 25.1049C29.558 25.0451 29.6545 24.9639 29.732 24.866C29.8102 24.7677 29.8682 24.6549 29.9025 24.534C29.9368 24.4132 29.9469 24.2867 29.932 24.162C29.9299 24.1494 29.9299 24.1366 29.932 24.124C29.9361 24.1111 29.9422 24.099 29.95 24.088C29.9675 24.0681 29.9917 24.0552 30.018 24.052C30.0448 24.0498 30.0713 24.0582 30.0919 24.0754C30.1125 24.0926 30.1255 24.1173 30.128 24.144C30.1599 24.4479 30.0701 24.752 29.8781 24.9897C29.6862 25.2274 29.4078 25.3793 29.104 25.412H28.992H29Z" fill="#010101"/>
<path d="M43.2979 28.99C43.2689 28.987 43.2423 28.9726 43.2239 28.95L42.7759 28.5C42.7662 28.4789 42.7631 28.4553 42.7671 28.4325C42.771 28.4096 42.7819 28.3885 42.7982 28.3719C42.8145 28.3554 42.8355 28.3443 42.8583 28.34C42.8812 28.3357 42.9047 28.3385 42.9259 28.348L43.2979 28.724L44.5819 27.44C44.603 27.4295 44.6268 27.4259 44.6499 27.43C44.6734 27.4339 44.6951 27.4451 44.7119 27.462C44.7279 27.4792 44.7383 27.5008 44.7419 27.524C44.746 27.5471 44.7424 27.5709 44.7319 27.592L43.3739 28.952C43.3647 28.9633 43.3531 28.9725 43.34 28.9791C43.3269 28.9856 43.3126 28.9893 43.2979 28.99ZM57.8819 38.258C57.853 38.2559 57.8259 38.243 57.8059 38.222L57.3579 37.766C57.3474 37.7448 57.3438 37.7207 57.3478 37.6974C57.3517 37.674 57.363 37.6525 57.3799 37.636C57.3972 37.6201 57.4188 37.6097 57.4419 37.606C57.4651 37.6025 57.4888 37.606 57.5099 37.616L57.8799 37.99L59.1639 36.706C59.186 36.6988 59.2098 36.6988 59.2319 36.706C59.2542 36.7099 59.2746 36.7207 59.2904 36.7368C59.3062 36.753 59.3165 36.7736 59.3199 36.796C59.3269 36.8181 59.3269 36.8418 59.3199 36.864L57.9639 38.232C57.944 38.253 57.9169 38.2659 57.8879 38.268L57.8819 38.258ZM46.7799 47.888C46.7553 47.8733 46.7374 47.8496 46.7299 47.822L46.5299 47.222C46.5304 47.1984 46.5381 47.1756 46.5521 47.1566C46.5661 47.1376 46.5856 47.1234 46.6079 47.116C46.6294 47.1092 46.6525 47.1092 46.6739 47.116C46.697 47.1216 46.7175 47.135 46.7319 47.154L46.9019 47.654L48.6159 47.07C48.6396 47.0691 48.6628 47.0761 48.6819 47.09C48.7007 47.1045 48.7152 47.1239 48.7239 47.146C48.731 47.1681 48.731 47.1918 48.7239 47.214C48.7174 47.2367 48.7041 47.2569 48.6859 47.272L46.8719 47.904C46.8455 47.9141 46.8163 47.9141 46.7899 47.904L46.7799 47.888ZM28.8099 41.576C28.7855 41.5612 28.7676 41.5375 28.7599 41.51L28.5599 40.91C28.5603 40.8862 28.568 40.8632 28.5819 40.844C28.5953 40.8253 28.6142 40.8113 28.6359 40.804C28.6587 40.7966 28.6832 40.7966 28.7059 40.804C28.7284 40.811 28.748 40.825 28.7619 40.844L28.9319 41.342L30.6459 40.758C30.6691 40.758 30.6917 40.7657 30.7099 40.78C30.7285 40.7942 30.7425 40.8137 30.7499 40.836C30.7566 40.8584 30.7565 40.8823 30.7498 40.9046C30.743 40.927 30.7299 40.9469 30.7119 40.962L28.8999 41.594C28.8735 41.6041 28.8443 41.6041 28.8179 41.594L28.8099 41.576Z" fill="white"/>
</g>
</g>
<defs>
<clipPath id="clip0_1_592">
<rect width="80" height="80" fill="white"/>
</clipPath>
</defs>
</svg>
