<svg xmlns="http://www.w3.org/2000/svg" xmlns:xlink="http://www.w3.org/1999/xlink" width="48" height="48" viewBox="0 0 48 48">
  <defs>
    <clipPath id="clip-path">
      <rect id="Rectangle_4968" data-name="Rectangle 4968" width="40" height="40" fill="#fff" stroke="#707070" stroke-width="1"/>
    </clipPath>
  </defs>
  <g id="Group_16716" data-name="Group 16716" transform="translate(-196 -184)">
    <rect id="Rectangle_4967" data-name="Rectangle 4967" width="48" height="48" rx="3" transform="translate(196 184)" fill="#733389"/>
    <g id="Mask_Group_237" data-name="Mask Group 237" transform="translate(200 188)" clip-path="url(#clip-path)">
      <g id="Group_663" data-name="Group 663" transform="translate(0 10.723)">
        <g id="Group_661" data-name="Group 661" transform="translate(0 12.231)">
          <path id="Path_1839" data-name="Path 1839" d="M90.574,3.561a.426.426,0,1,1-.426.426.426.426,0,0,1,.426-.426" transform="translate(-77.087 -3.561)" fill="#fff"/>
          <g id="Group_660" data-name="Group 660" transform="translate(0 0.03)">
            <path id="Path_1838" data-name="Path 1838" d="M61.245,13.741a2.965,2.965,0,0,0-.343-.108.087.087,0,0,0-.045.008h0a.321.321,0,0,0-.038.11l-.016.1h-.354l-.229-1.638h.374l.03.079a2.253,2.253,0,0,0,.369.668,1.2,1.2,0,0,0,.4.312,1.114,1.114,0,0,0,.48.1.677.677,0,0,0,.462-.168.573.573,0,0,0,.187-.461.649.649,0,0,0-.195-.471,4.016,4.016,0,0,0-.611-.434l-.56-.349a2.13,2.13,0,0,1-.427-.343h0a1.125,1.125,0,0,1-.31-.766,1.241,1.241,0,0,1,.365-.911,1.3,1.3,0,0,1,.959-.364,1.8,1.8,0,0,1,.579.117,2.923,2.923,0,0,0,.324.1.127.127,0,0,0,.069-.012.3.3,0,0,0,.048-.115l.023-.093h.34l.169,1.638H62.9l-.023-.092a1.369,1.369,0,0,0-.465-.81,1.1,1.1,0,0,0-.629-.227.608.608,0,0,0-.393.132.411.411,0,0,0-.154.344.519.519,0,0,0,.124.353h0a1.871,1.871,0,0,0,.448.355l.576.355a3.053,3.053,0,0,1,.793.639h0a1.18,1.18,0,0,1,.243.74,1.226,1.226,0,0,1-.429.951,1.564,1.564,0,0,1-1.074.376,2.062,2.062,0,0,1-.676-.122m-15.021.112-1.647-3.673a1.807,1.807,0,0,0-.3-.529.466.466,0,0,0-.286-.1l-.114-.008V9.2h1.986v.363l-.12,0a1.191,1.191,0,0,0-.3.026c-.061.02-.072.048-.072.092a.547.547,0,0,0,.048.18c.036.093.106.254.207.477h0l.9,2.011.827-2.193c.039-.1.069-.194.09-.266a.572.572,0,0,0,.027-.149.133.133,0,0,0-.087-.143.876.876,0,0,0-.275-.036l-.118,0V9.2h1.583v.34l-.1.015a.484.484,0,0,0-.245.085h0a1.126,1.126,0,0,0-.262.453h0l-1.479,3.761ZM81.8,13.777v-.352l.112-.009c.331-.027.4-.089.413-.1s.067-.094.067-.445V10.494l-1.475,3.283H80.67l-1.447-3.142v2.058c0,.425.077.568.123.616.022.022.1.077.383.107l.109.012v.349H78.055v-.35l.11-.011c.31-.032.408-.1.439-.139s.088-.155.088-.584V10.032c0-.273-.052-.353-.074-.374s-.1-.077-.43-.093l-.116-.006V9.2h1.5L81,12.328,82.373,9.2h1.506v.357l-.113.008c-.288.02-.37.074-.392.1s-.071.093-.071.37v2.913c0,.284.052.356.068.371s.106.074.4.1l.112.01v.352Zm-7.231,0v-.351l.112-.01a1.334,1.334,0,0,0,.332-.052.139.139,0,0,0,.012-.07A.669.669,0,0,0,75,13.155a1.724,1.724,0,0,0-.084-.239l-.24-.556H73.119c-.151.38-.243.616-.273.7a.607.607,0,0,0-.043.186c0,.078.031.1.064.12a.942.942,0,0,0,.272.046l.112.009v.352H71.709v-.349l.108-.012a.411.411,0,0,0,.3-.146,4.954,4.954,0,0,0,.418-.859l1.4-3.288h.288l.032.073L75.88,12.91a1.4,1.4,0,0,0,.231.417.5.5,0,0,0,.263.09l.1.015v.346Zm-1.234-1.926h1.14L73.9,10.485ZM68,13.777v-.35l.11-.011c.325-.032.393-.091.4-.1s.062-.078.062-.445V11.717H66.836v1.228c0,.284.054.356.07.372s.109.075.4.1l.112.009v.353H65.352v-.349l.109-.012c.323-.035.394-.094.4-.105s.062-.076.062-.442V10.032c0-.279-.054-.354-.071-.371s-.106-.076-.392-.1l-.113-.008V9.2h2.063v.357l-.113.008c-.286.02-.371.074-.394.1s-.072.091-.072.37v1.155h1.743V10.032c0-.28-.053-.355-.07-.371s-.1-.075-.392-.1L68,9.557V9.2h2.063v.357l-.113.008c-.286.02-.369.074-.392.1s-.071.091-.071.371v2.913c0,.283.053.355.069.37s.108.074.4.1l.112.01v.352Zm-11.75,0v-.353l.113-.008a.949.949,0,0,0,.453-.095c.007-.006.071-.064.071-.375V10.032c0-.284-.059-.358-.077-.374s-.121-.077-.444-.093l-.116-.006V9.2h2.182V9.56l-.116.006c-.322.015-.418.07-.444.093s-.077.09-.077.374v2.913c0,.312.064.37.071.375a.948.948,0,0,0,.453.095l.113.008v.353Zm-2.823,0-.037-.047-1.522-1.965-.185.008v1.172c0,.295.058.361.069.371a.785.785,0,0,0,.411.1l.112.01v.352H50.215v-.351l.11-.01c.311-.029.377-.091.388-.1s.065-.1.065-.444V10.032c0-.275-.053-.351-.07-.368s-.1-.077-.381-.1l-.112-.009V9.2H52.15a2.8,2.8,0,0,1,.987.152,1.253,1.253,0,0,1,.593.429,1.153,1.153,0,0,1,.2.686,1.038,1.038,0,0,1-.363.845,1.531,1.531,0,0,1-.408.237,2.139,2.139,0,0,1-.312.1l1.221,1.5a.8.8,0,0,0,.215.195.7.7,0,0,0,.272.074l.11.011v.35ZM51.7,9.713a.246.246,0,0,0-.011.085v1.488a2.894,2.894,0,0,0,.843-.133.694.694,0,0,0,.335-.262.783.783,0,0,0,.111-.431.8.8,0,0,0-.1-.416.626.626,0,0,0-.3-.25h0a1.529,1.529,0,0,0-.612-.1,1.092,1.092,0,0,0-.271.019Z" transform="translate(-43.879 -7.572)" fill="#fff"/>
            <path id="Path_1840" data-name="Path 1840" d="M90.651,3.669a.4.4,0,1,1-.4.4A.4.4,0,0,1,90.651,3.669Z" transform="translate(-77.165 -3.669)" fill="none" stroke="#7a2483" stroke-width="0.012"/>
          </g>
        </g>
        <path id="Path_1842" data-name="Path 1842" d="M5.776,11.559a5.824,5.824,0,0,1-1.165-.118A5.774,5.774,0,0,1,.117,6.947a5.831,5.831,0,0,1,.014-2.4A5.744,5.744,0,0,1,1.1,2.389a5.821,5.821,0,0,1,.783-.875,3.99,3.99,0,0,0,.354.834,4.224,4.224,0,0,0,.529.738,4.265,4.265,0,0,0,.674.609,4.089,4.089,0,0,0,.788.448.3.3,0,0,0,.032.022l.008,0a.135.135,0,0,1,.029.02.146.146,0,0,1,.019.025.132.132,0,0,0,.022.027.129.129,0,0,0,.03.018l.01.005a.3.3,0,0,1,.065.05l.032.027a.406.406,0,0,0,.059.037l.034.02a.655.655,0,0,1,.058.041l.018.014a.185.185,0,0,0,.073.043.23.23,0,0,1,.083.043h0a.172.172,0,0,1,.022.02l.021.019a.334.334,0,0,0,.059.032.414.414,0,0,1,.05.025c.028.018.058.033.087.048a.9.9,0,0,1,.116.067.143.143,0,0,0,.046.022l.022.008a.183.183,0,0,0,.045.012h.022A20.7,20.7,0,0,0,6.21,6.667c.209.384.456.783.8,1.294.258.374.5.7.751,1h0l-.022-.005-.11-.032c-.042-.014-.087-.029-.132-.046l-.041-.019a.37.37,0,0,0-.073-.03c-.02,0-.04-.007-.059-.01l-.023,0a.332.332,0,0,1-.065-.019l-.011,0c-.081-.029-.175-.063-.263-.1l-.023-.01h0A.774.774,0,0,0,6.79,8.62l-.032-.006a.3.3,0,0,1-.05-.011c-.028-.01-.056-.022-.083-.034h0l-.007,0-.045-.022c-.027-.014-.055-.027-.083-.038l-.037-.012a.324.324,0,0,1-.074-.03L6.359,8.45a.328.328,0,0,0-.078-.04l-.007,0a4.283,4.283,0,0,1-.547-.536c-.07-.077-.143-.157-.217-.233A5.233,5.233,0,0,0,1.828,6.047H1.782A22.709,22.709,0,0,0,4.058,7.861a4.987,4.987,0,0,0,1.219.671,1.918,1.918,0,0,0,.624.124,1.264,1.264,0,0,0,.324-.043l.036.013.01,0h0a.361.361,0,0,1,.054.021.331.331,0,0,1,.041.026.244.244,0,0,0,.1.047l.018.005a.812.812,0,0,1,.123.051l.057.027a1.041,1.041,0,0,0,.106.037h0l.057.019c.036.012.071.027.105.041l.033.015a.469.469,0,0,0,.127.042A.561.561,0,0,1,7.235,9l.081.039a.866.866,0,0,0,.1.032c.028.007.056.015.083.025.047.017.1.032.144.047h0a2.115,2.115,0,0,1,.205.071.4.4,0,0,0,.076.023l.034.008h0a.564.564,0,0,0,.059.012l.008.009,0,.005a3.592,3.592,0,0,0-.651-.059,3.637,3.637,0,0,0-1.741.441c-.143.078-.287.171-.426.261a2.917,2.917,0,0,1-1.025.49,2.555,2.555,0,0,0,.843.136A3.972,3.972,0,0,0,6.322,10.3a11.551,11.551,0,0,0,1.294-.57h0c.191-.093.388-.19.584-.28.06.064.122.127.183.189l.1.1,0,0a6.507,6.507,0,0,0,.492.441l.265.217a5.757,5.757,0,0,1-3.469,1.158m3.64-1.291h0a11.209,11.209,0,0,1-.894-.79A11.341,11.341,0,0,1,6.929,7.485,19.754,19.754,0,0,1,5.8,5.4a.241.241,0,0,0,.051-.078.616.616,0,0,1,.032-.067l0,0h0A.077.077,0,0,1,5.9,5.227a.119.119,0,0,0,.027-.054l.006-.019.033-.084c.014-.033.029-.067.045-.1.005-.01.012-.021.018-.031a.214.214,0,0,0,.028-.055.412.412,0,0,0,.009-.052.084.084,0,0,1,0-.014.205.205,0,0,1,.016-.048l0-.011L6.1,4.746c.025-.063.052-.127.081-.188l.007-.015v0a.43.43,0,0,0,.043-.114c0-.009,0-.017,0-.026h0a.216.216,0,0,1,.006-.039A.621.621,0,0,1,6.263,4.3l0,0,.015-.032a.638.638,0,0,0,.029-.07.311.311,0,0,0,.008-.032.234.234,0,0,1,.013-.045,3.993,3.993,0,0,0,.847-.519,2.27,2.27,0,0,0,.341-.346,1.725,1.725,0,0,0,.243-.418,2.146,2.146,0,0,0,.043-1.3,8.216,8.216,0,0,0-.436-1.3,5.783,5.783,0,0,1,3.917,7.294l-.176-.141a7.528,7.528,0,0,1-.623-.534,2.058,2.058,0,0,1-.45-.622A10.4,10.4,0,0,0,10.1,7.956a3.818,3.818,0,0,0,.369,1.2,5.81,5.81,0,0,1-1.048,1.11ZM5.691,5.17h0C5.52,4.807,5.352,4.424,5.176,4c-.118-.289-.244-.61-.4-1.009C4.6,2.531,4.451,2.164,4.34,1.9h0l-.031-.072A4.428,4.428,0,0,0,4.757.1,5.826,5.826,0,0,1,7.3.211a18,18,0,0,0-1.131,2.7,2.109,2.109,0,0,0-.133.632A.85.85,0,0,0,6.16,4v.011a.2.2,0,0,1-.013.047.214.214,0,0,1-.02.033.2.2,0,0,0-.021.034.2.2,0,0,0-.011.041h0l0,.013a.406.406,0,0,1-.037.1c-.007.014-.014.028-.019.042a.564.564,0,0,0-.025.074c0,.016-.01.034-.015.05a.8.8,0,0,1-.032.079l-.01.021h0a.3.3,0,0,0-.036.1.312.312,0,0,1-.035.108.267.267,0,0,1-.018.03.27.27,0,0,0-.018.029.469.469,0,0,0-.028.072.523.523,0,0,1-.024.065c-.014.029-.026.059-.038.089h0a1.406,1.406,0,0,1-.063.138Zm-.519-.664h0L5.156,4.5l-.064-.031a.749.749,0,0,1-.074-.045L5,4.406a.141.141,0,0,0-.039-.028.277.277,0,0,0-.039-.011l-.011,0a.127.127,0,0,1-.036-.018l-.007,0a1.222,1.222,0,0,1-.144-.1l-.012-.011a.293.293,0,0,0-.078-.053L4.611,4.17a.124.124,0,0,1-.03-.012.378.378,0,0,1-.047-.036h0L4.508,4.1a.422.422,0,0,0-.041-.035l-.021-.012a.121.121,0,0,1-.04-.03L4.4,4.012h0l-.014-.017a3.252,3.252,0,0,0-.345-.842,3.64,3.64,0,0,0-.558-.728,3.771,3.771,0,0,0-.722-.572,3.543,3.543,0,0,0-.838-.372A5.792,5.792,0,0,1,3.127.649a2.553,2.553,0,0,0,.432.688,2.133,2.133,0,0,0,.631.5c.061.2.149.471.246.753.191.55.4,1.1.6,1.6.044.107.088.215.132.32Z" transform="translate(13.93 -0.007)" fill="#fff"/>
      </g>
    </g>
  </g>
</svg>
