<svg width="160" height="140" viewBox="0 0 160 140" fill="none" xmlns="http://www.w3.org/2000/svg">
<path fill-rule="evenodd" clip-rule="evenodd" d="M92.8064 0L160 54.2909L150.343 139.781H23.5671L0 61.1712L92.8064 0Z" fill="#E5FAFE"/>
<path fill-rule="evenodd" clip-rule="evenodd" d="M44.9288 121.234V139.807H42.0362V132.46C42.0362 132.46 34.0608 131.367 35.1015 123.08H37.4989C37.4989 123.08 36.9281 129.6 42.0362 129.19V121.234H44.9288Z" fill="white"/>
<path fill-rule="evenodd" clip-rule="evenodd" d="M45.1189 121.234C45.1189 121.125 45.0339 121.039 44.9289 121.039H42.0363C41.9315 121.039 41.8464 121.125 41.8464 121.234V129.006C40.9553 129.053 40.2522 128.876 39.699 128.546C38.8154 128.026 38.3171 127.137 38.0331 126.232C37.5488 124.693 37.6882 123.097 37.6882 123.097C37.6928 123.045 37.675 122.994 37.639 122.954C37.6029 122.914 37.5521 122.891 37.4989 122.891H35.1015C35.0059 122.891 34.9251 122.96 34.9132 123.057C34.5939 125.599 35.109 127.479 35.98 128.864C37.7681 131.708 41.0741 132.477 41.8465 132.62L41.8464 139.807C41.8464 139.915 41.9315 140 42.0363 140H44.9289C45.0339 140 45.1189 139.915 45.1189 139.807V121.234ZM44.7389 121.421C44.7389 123.262 44.7389 137.777 44.7389 139.618H42.2263V132.46C42.2263 132.363 42.1561 132.284 42.062 132.272C42.062 132.272 38.2431 131.748 36.3011 128.659C35.4875 127.366 35.0072 125.616 35.2701 123.274H37.2976C37.2772 123.769 37.271 125.074 37.6709 126.345C37.982 127.336 38.5385 128.305 39.5068 128.876C40.1526 129.257 40.983 129.463 42.0516 129.377C42.1503 129.372 42.2263 129.286 42.2263 129.19V121.421H44.7389Z" fill="#0A2226"/>
<path fill-rule="evenodd" clip-rule="evenodd" d="M23.991 122.389C23.8871 123.228 24.1466 124.071 24.7034 124.706C25.2602 125.342 26.061 125.704 26.9023 125.704C33.0254 125.704 48.1771 125.704 54.2765 125.704C55.8279 125.704 57.1108 124.488 57.2045 122.93C57.4264 119.198 56.9516 113.145 51.3115 114.167C51.3115 114.167 53.1277 97.1431 44.6946 96.6321C37.6472 96.1999 36.7058 105.023 36.7058 105.023C36.7058 105.023 31.6291 103.4 29.4045 107.771C27.1797 112.138 28.492 118.042 28.492 118.042C28.492 118.042 24.4854 118.35 23.991 122.389Z" fill="white"/>
<path fill-rule="evenodd" clip-rule="evenodd" d="M23.8025 122.364C23.6919 123.257 23.9682 124.161 24.5612 124.836C25.1541 125.51 26.0067 125.897 26.9023 125.897C33.0254 125.897 48.1772 125.897 54.2766 125.897C55.9282 125.897 57.2947 124.602 57.3943 122.944C57.4843 121.431 57.4599 119.546 57.0346 117.893C56.6421 116.365 55.9073 115.04 54.6309 114.355C53.8293 113.929 52.8116 113.746 51.5239 113.939C51.629 112.739 52.0017 107.424 50.8511 102.979C49.963 99.5492 48.1652 96.6518 44.7062 96.4388C41.0886 96.2208 39.0352 98.3683 37.8891 100.576C36.9682 102.353 36.638 104.164 36.5465 104.779C35.5358 104.526 31.2515 103.722 29.2354 107.683C27.2297 111.622 28.0595 116.792 28.2655 117.878C27.4107 118.013 24.2462 118.742 23.8025 122.364ZM24.1795 122.414C24.655 118.529 28.5065 118.235 28.5065 118.235C28.5615 118.231 28.6119 118.201 28.6447 118.157C28.6776 118.112 28.6895 118.057 28.6775 118.003C28.6775 118.003 27.3769 112.167 29.5736 107.856C31.7284 103.629 36.6484 105.206 36.6484 105.206C36.7028 105.221 36.7619 105.216 36.8098 105.182C36.8575 105.152 36.8887 105.102 36.8948 105.042C36.8948 105.042 37.127 102.874 38.2258 100.755C39.3125 98.6614 41.2533 96.6124 44.6833 96.8205C47.9709 97.0237 49.6397 99.8177 50.4831 103.072C51.7738 108.059 51.1225 114.147 51.1225 114.147C51.1159 114.206 51.1381 114.267 51.1821 114.311C51.2256 114.35 51.286 114.365 51.345 114.355C52.6471 114.123 53.6634 114.272 54.4525 114.693C55.6372 115.328 56.3028 116.574 56.6666 117.988C57.0817 119.606 57.1027 121.447 57.0156 122.92C56.9272 124.379 55.7272 125.515 54.2766 125.515C48.1772 125.515 33.0254 125.515 26.9023 125.515C26.1156 125.515 25.3667 125.173 24.8459 124.582C24.3251 123.987 24.0824 123.198 24.1795 122.414Z" fill="#023A43"/>
<path fill-rule="evenodd" clip-rule="evenodd" d="M34.9161 114.274C34.8953 114.404 34.808 114.519 34.6847 114.575C34.5614 114.627 34.4192 114.615 34.3077 114.541C33.4702 113.96 31.9607 112.604 32.9178 110.802C32.9984 110.655 33.1673 110.568 33.3355 110.603C33.9598 110.74 35.3811 111.366 34.9161 114.274Z" fill="#0A2226"/>
<path fill-rule="evenodd" clip-rule="evenodd" d="M43.697 107.716C43.5836 107.803 43.4381 107.82 43.3085 107.767C43.1788 107.714 43.0876 107.595 43.0671 107.457C42.9616 106.67 42.9903 105.349 44.2789 104.913C44.4554 104.854 44.6536 104.928 44.7474 105.092C44.9915 105.546 45.2424 106.551 43.697 107.716Z" fill="#0A2226"/>
<path fill-rule="evenodd" clip-rule="evenodd" d="M44.0368 119.704C43.9049 119.747 43.7613 119.719 43.6606 119.628C43.5555 119.54 43.5058 119.403 43.5251 119.268C43.6722 118.35 44.1747 116.696 45.9193 116.737C46.0963 116.74 46.2514 116.861 46.2909 117.036C46.4194 117.613 46.4238 118.949 44.0368 119.704Z" fill="#0A2226"/>
<path fill-rule="evenodd" clip-rule="evenodd" d="M60.6221 116.605L56.0987 120.059L54.8062 124.647L59.3908 126.675L64.0899 123.325L60.6221 116.605Z" fill="white"/>
<path fill-rule="evenodd" clip-rule="evenodd" d="M60.7909 116.514C60.7655 116.468 60.7185 116.429 60.6641 116.418C60.6098 116.405 60.552 116.418 60.5079 116.451L55.9838 119.911C55.9509 119.933 55.9272 119.968 55.9158 120.007L54.6233 124.595C54.5978 124.686 54.6431 124.784 54.7297 124.823L59.3144 126.852C59.3756 126.881 59.4463 126.87 59.5007 126.829L64.1997 123.478C64.2773 123.422 64.3022 123.318 64.2586 123.233L60.7909 116.514ZM60.5576 116.895L63.8453 123.262L59.3687 126.458L55.0343 124.539L56.2641 120.173L60.5576 116.895Z" fill="#0A2226"/>
<path fill-rule="evenodd" clip-rule="evenodd" d="M67.2651 125.569L67.5235 129.829H74.511V125.569H67.2651Z" fill="white"/>
<path fill-rule="evenodd" clip-rule="evenodd" d="M67.2652 125.377C67.213 125.377 67.1628 125.397 67.1264 125.435C67.0908 125.473 67.0724 125.525 67.0755 125.583L67.3333 129.841C67.3397 129.943 67.423 130.021 67.5235 130.021H74.511C74.616 130.021 74.7012 129.937 74.7012 129.829V125.569C74.7012 125.461 74.616 125.377 74.511 125.377H67.2652ZM67.4669 125.761H74.3208V129.643H67.7016L67.4669 125.761Z" fill="#0A2226"/>
<path fill-rule="evenodd" clip-rule="evenodd" d="M73.6866 73.7428L82.2078 97.8102L59.7661 116.097C60.8921 119.443 62.4655 122.475 64.8281 124.955C64.8281 124.955 85.151 109.897 92.6803 104.324C94.355 103.082 95.1293 100.95 94.6462 98.916C92.6277 90.4071 87.4728 68.6652 87.4728 68.6652L73.6866 73.7428Z" fill="white"/>
<path fill-rule="evenodd" clip-rule="evenodd" d="M73.6214 73.5607C73.5235 73.5952 73.4731 73.7085 73.5077 73.8058L81.9839 97.7476L59.6465 115.95C59.5843 116.002 59.5605 116.087 59.586 116.16C60.7211 119.53 62.3091 122.583 64.691 125.092C64.7567 125.159 64.8636 125.166 64.9407 125.108C64.9407 125.108 85.2635 110.058 92.7928 104.478C94.5287 103.19 95.3311 100.985 94.8308 98.8706C92.8136 90.3617 87.6575 68.6197 87.6575 68.6197C87.6453 68.5684 87.611 68.5229 87.5633 68.4943C87.5156 68.4715 87.4593 68.4659 87.408 68.483L73.6214 73.5607ZM73.9288 73.8575L87.337 68.9161L94.4614 98.9617C94.9263 100.922 94.18 102.974 92.5677 104.17C85.3969 109.481 66.6244 123.387 64.8506 124.704C62.6002 122.293 61.084 119.376 59.9886 116.167C61.6303 114.827 82.3277 97.9581 82.3277 97.9581C82.39 97.9064 82.4133 97.8215 82.3864 97.7476L73.9288 73.8575Z" fill="#0A2226"/>
<path fill-rule="evenodd" clip-rule="evenodd" d="M64.2976 77.4988L65.4734 126.619C69.1693 127.302 72.3041 127.285 75.7616 126.619L76.9759 74.4105L67.2121 72.4268L64.2976 77.4988Z" fill="white"/>
<path fill-rule="evenodd" clip-rule="evenodd" d="M64.1334 77.4014C64.116 77.4359 64.1069 77.4703 64.108 77.5048L65.2833 126.625C65.2857 126.716 65.3507 126.79 65.4395 126.807C69.1603 127.49 72.3166 127.473 75.7973 126.807C75.885 126.79 75.9496 126.716 75.9513 126.625L77.1663 74.4104C77.1685 74.3192 77.104 74.2392 77.014 74.222L67.2496 72.2444C67.1698 72.2271 67.0883 72.2616 67.0474 72.3355L64.1334 77.4014ZM64.4891 77.5504L67.3085 72.6433C67.3085 72.6433 75.5408 74.3131 76.7824 74.5643C76.7116 77.6243 75.645 123.455 75.5754 126.458C72.2481 127.08 69.2107 127.098 65.6599 126.458L64.4891 77.5504Z" fill="#0A2226"/>
<path fill-rule="evenodd" clip-rule="evenodd" d="M56.0986 120.059C56.0986 120.059 54.7166 124.522 60.2637 126.055C60.8695 126.22 61.0722 126.779 60.608 127.844C60.1443 128.909 59.6733 133.07 61.6989 136.763C61.6989 136.763 62.838 137.184 63.086 137.487C63.2536 137.686 63.1947 138.667 63.1387 139.276C63.1126 139.561 62.8754 139.777 62.5918 139.777C61.0898 139.777 56.6115 139.777 55.4157 139.777C55.2307 139.777 55.0581 139.686 54.9567 139.532C52.2799 135.418 50.2004 131.275 48.42 127.12C48.1415 126.465 48.267 125.706 48.7413 125.177C50.4846 123.256 54.6872 118.902 56.0986 120.059Z" fill="#023A43"/>
<path fill-rule="evenodd" clip-rule="evenodd" d="M65.4737 139.036C65.4878 139.451 65.827 139.776 66.2402 139.776C68.3599 139.776 74.4653 139.776 76.2832 139.776C76.6155 139.776 76.9099 139.565 77.0129 139.246C77.2213 138.596 77.4534 137.399 77.0458 135.935C76.4236 133.702 75.7992 134.379 75.4968 131.251C75.1181 127.329 66.8064 127.569 66.6801 130.287C66.589 132.247 66.8845 132.214 66.1831 133.61C65.558 134.853 65.4063 136.978 65.4737 139.036Z" fill="#023A43"/>
<path fill-rule="evenodd" clip-rule="evenodd" d="M68.2646 134.758C70.1963 134.03 72.0862 134.043 73.9369 134.758C74.0346 134.795 74.1445 134.746 74.1817 134.649C74.2195 134.55 74.1706 134.44 74.0724 134.404C72.1341 133.651 70.1546 133.633 68.1308 134.404C68.0324 134.44 67.983 134.55 68.0197 134.649C68.0569 134.746 68.1662 134.795 68.2646 134.758Z" fill="white"/>
<path fill-rule="evenodd" clip-rule="evenodd" d="M67.9841 133.651C70.1075 132.916 72.1839 132.934 74.2173 133.651C74.3164 133.688 74.4245 133.633 74.4593 133.534C74.4939 133.437 74.4415 133.326 74.3425 133.29C72.2283 132.549 70.0686 132.53 67.8607 133.29C67.7616 133.326 67.7087 133.437 67.7427 133.534C67.7769 133.633 67.885 133.688 67.9841 133.651Z" fill="white"/>
<path fill-rule="evenodd" clip-rule="evenodd" d="M60.204 130.762C59.9352 130.909 59.2314 131.203 58.176 131.142C58.0716 131.135 57.9815 131.215 57.9754 131.319C57.9694 131.43 58.0497 131.515 58.1541 131.521C59.3134 131.595 60.0855 131.259 60.3809 131.105C60.4738 131.057 60.5097 130.94 60.4605 130.849C60.4118 130.75 60.297 130.713 60.204 130.762Z" fill="white"/>
<path fill-rule="evenodd" clip-rule="evenodd" d="M60.3718 132.518C60.0065 132.653 59.4272 132.794 58.6643 132.751C58.5597 132.744 58.4698 132.824 58.4637 132.928C58.4576 133.039 58.5378 133.124 58.6424 133.13C59.474 133.179 60.1062 133.026 60.5044 132.874C60.6029 132.837 60.6526 132.726 60.6162 132.629C60.5797 132.53 60.4704 132.482 60.3718 132.518Z" fill="white"/>
<path fill-rule="evenodd" clip-rule="evenodd" d="M60.6709 134.049C60.3038 134.177 59.7433 134.305 59.0169 134.263C58.9123 134.257 58.8224 134.336 58.8162 134.44C58.8101 134.55 58.8904 134.636 58.995 134.642C59.7864 134.692 60.3973 134.55 60.798 134.41C60.8964 134.373 60.9487 134.263 60.9134 134.165C60.8788 134.067 60.77 134.012 60.6709 134.049Z" fill="white"/>
<path fill-rule="evenodd" clip-rule="evenodd" d="M71.9971 30.9076C71.9971 30.9076 67.4934 30.8016 65.084 35.8202L71.3805 40.737C71.3805 40.737 75.968 38.5289 74.5007 32.8139L71.9971 30.9076Z" fill="#082024"/>
<path fill-rule="evenodd" clip-rule="evenodd" d="M72.5422 32.6415L73.7491 36.3227C76.467 36.9837 78.6264 36.6616 81.3441 35.2833L79.7857 30.2184L76.1608 30.5001L72.5422 32.6415Z" fill="white"/>
<path fill-rule="evenodd" clip-rule="evenodd" d="M72.4464 32.4773C72.3691 32.5209 72.3328 32.6154 72.3586 32.7005L73.57 36.382C73.5883 36.4447 73.6383 36.4916 73.7032 36.5087C76.4689 37.1814 78.6636 36.8571 81.4262 35.4551C81.5118 35.412 81.5534 35.3178 81.5228 35.2282L79.9692 30.1634C79.9435 30.0784 79.8591 30.0205 79.7711 30.0284L76.1455 30.3102C76.1192 30.3086 76.0923 30.3201 76.065 30.336L72.4464 32.4773ZM72.7702 32.7298L76.2205 30.6883L79.6512 30.4211L81.1118 35.1857C78.5414 36.463 76.4754 36.7643 73.8948 36.16L72.7702 32.7298Z" fill="#0A2226"/>
<path fill-rule="evenodd" clip-rule="evenodd" d="M84.0574 29.687C84.0574 29.687 88.6007 27.9848 92.8039 32.2356L91.325 34.5312L90.0564 34.288L90.7708 35.1857L88.1187 39.4645C88.1187 39.4645 82.6812 38.8429 82.1772 32.5119L84.0574 29.687Z" fill="#082024"/>
<path fill-rule="evenodd" clip-rule="evenodd" d="M81.5951 32.6571C81.3431 32.4912 81.277 32.1476 81.4434 31.8931C81.8776 31.2249 82.6813 29.9906 83.1205 29.316C83.282 29.0679 83.6208 28.9916 83.8728 29.1576C84.1248 29.3235 84.1909 29.667 84.0282 29.9151L82.3511 32.4921C82.1859 32.7467 81.8471 32.8231 81.5951 32.6571Z" fill="white"/>
<path fill-rule="evenodd" clip-rule="evenodd" d="M81.491 32.8169C81.8311 33.0406 82.2861 32.941 82.51 32.5974C82.9442 31.9293 83.7479 30.6949 84.1871 30.0205C84.4073 29.6832 84.3155 29.2229 83.9755 28.9992C83.6366 28.7753 83.1754 28.8713 82.9565 29.2084C82.5173 29.883 81.7136 31.1173 81.2781 31.7854C81.0555 32.129 81.1521 32.5931 81.491 32.8169ZM81.7026 32.4925C81.5387 32.3843 81.4934 32.1639 81.6011 31.9984L83.2794 29.4214C83.3871 29.2559 83.6048 29.209 83.7687 29.3173C83.9327 29.4255 83.9779 29.6458 83.8703 29.8112L82.1931 32.3882C82.0855 32.5536 81.8665 32.6007 81.7026 32.4925Z" fill="#0A2226"/>
<path fill-rule="evenodd" clip-rule="evenodd" d="M80.2016 22.5573C80.2016 22.5573 81.2475 22.8315 82.4488 23.6029C83.6513 24.3744 83.4348 27.4669 83.0433 28.0748C82.6482 28.6815 81.4653 29.558 80.6029 29.609C80.6029 29.609 79.8555 30.7999 78.3918 32.1257C76.9285 33.4515 73.9943 34.3116 71.2804 32.7485C70.1406 32.0906 69.4951 30.7717 69.1719 29.7587C68.8529 28.7458 67.5864 24.5795 67.5864 24.5795L69.9015 19.2042L77.2713 18.9578L79.5619 22.7389L80.2016 22.5573Z" fill="white"/>
<path fill-rule="evenodd" clip-rule="evenodd" d="M80.2494 22.3726C80.2176 22.3641 80.1846 22.3646 80.1491 22.3733L79.6512 22.516L77.4334 18.8582C77.3947 18.7989 77.3301 18.7639 77.2624 18.7662L69.8968 19.0134C69.8208 19.0153 69.7575 19.0605 69.7275 19.1281L67.4124 24.5032C67.3959 24.5454 67.391 24.5918 67.4035 24.635C67.4035 24.635 68.6697 28.8034 68.9928 29.817C69.3254 30.8683 70.0042 32.232 71.1893 32.9152C73.9822 34.5258 77.0107 33.6352 78.5196 32.268C79.7797 31.1256 80.5161 30.0814 80.7106 29.7909C81.6183 29.6826 82.8012 28.8004 83.2037 28.1795C83.2819 28.0569 83.3566 27.8447 83.4141 27.5732C83.5401 26.9905 83.5939 26.1129 83.4777 25.3078C83.3615 24.5027 83.0703 23.7755 82.5529 23.4419C81.321 22.6517 80.2494 22.3726 80.2494 22.3726ZM80.2005 22.7559C80.4195 22.8194 81.3247 23.1075 82.3474 23.764C82.7865 24.0471 83.0043 24.6797 83.1021 25.3625C83.1939 26.0121 83.1706 26.712 83.0923 27.2453C83.0397 27.5757 82.9676 27.8381 82.8832 27.9703C82.5125 28.5411 81.4054 29.3709 80.5944 29.4186C80.5308 29.4215 80.4782 29.4551 80.4427 29.5065C80.4427 29.5065 79.7026 30.6779 78.2643 31.9835C76.847 33.268 74.0029 34.0965 71.3757 32.5828C70.2775 31.9494 69.6609 30.6752 69.3554 29.701C69.0591 28.7648 67.9534 25.1311 67.7899 24.5912L70.0289 19.3914L77.1661 19.1526L79.3992 22.8385C79.4445 22.9118 79.5338 22.9468 79.6133 22.9231L80.2005 22.7559Z" fill="#0A2226"/>
<path fill-rule="evenodd" clip-rule="evenodd" d="M81.7418 24.5892C81.7418 24.5892 80.7865 25.0136 79.8727 26.0191C79.8029 26.0971 79.809 26.2183 79.8873 26.2896C79.9607 26.3605 80.0843 26.3557 80.154 26.2777C81.0091 25.3386 81.8972 24.9385 81.8972 24.9385C81.9889 24.8949 82.0318 24.7818 81.9926 24.6859C81.9486 24.5892 81.8348 24.5456 81.7418 24.5892Z" fill="#0A2226"/>
<path fill-rule="evenodd" clip-rule="evenodd" d="M81.6525 25.9316C81.6525 25.9316 81.1106 25.5493 80.6923 25.3879C80.5956 25.3498 80.4843 25.3989 80.4488 25.4975C80.4085 25.5958 80.4586 25.7067 80.5565 25.7444C80.9381 25.8926 81.436 26.2455 81.436 26.2455C81.5217 26.3054 81.6428 26.285 81.7015 26.1984C81.7602 26.1114 81.7418 25.9928 81.6525 25.9316Z" fill="#0A2226"/>
<path fill-rule="evenodd" clip-rule="evenodd" d="M72.0456 27.5822L71.9681 29.058C71.9601 29.163 72.0393 29.2533 72.1472 29.2599C72.251 29.2654 72.3381 29.1843 72.3459 29.0793L72.4277 27.6042C72.4316 27.4984 72.3524 27.4082 72.2486 27.4028C72.1447 27.397 72.0535 27.4775 72.0456 27.5822Z" fill="#0A2226"/>
<path fill-rule="evenodd" clip-rule="evenodd" d="M75.7723 24.2494C75.7723 24.2494 74.142 23.4242 73.0094 24.9168C72.9434 25 72.9595 25.1206 73.0419 25.1845C73.1285 25.2489 73.2473 25.2332 73.3092 25.149C74.2515 23.9113 75.5988 24.5907 75.5988 24.5907C75.6959 24.6386 75.8097 24.6004 75.8564 24.506C75.9033 24.4117 75.8655 24.2967 75.7723 24.2494Z" fill="#0A2226"/>
<path fill-rule="evenodd" clip-rule="evenodd" d="M72.8978 31.0436C72.8978 31.0436 74.7168 31.1893 75.2068 29.3769C75.2368 29.2748 75.1768 29.1693 75.0764 29.1415C74.9722 29.1145 74.868 29.1741 74.8422 29.2757C74.433 30.7796 72.9307 30.6616 72.9307 30.6616C72.8227 30.6542 72.7317 30.7327 72.7237 30.8378C72.7158 30.943 72.7938 31.0352 72.8978 31.0436Z" fill="#0A2226"/>
<path fill-rule="evenodd" clip-rule="evenodd" d="M71.3103 25.0761C71.3103 25.0761 69.68 24.2508 68.5474 25.7435C68.4815 25.8267 68.4976 25.9472 68.5801 26.0111C68.6666 26.0756 68.7853 26.0598 68.8474 25.9756C69.7896 24.7379 71.1368 25.4173 71.1368 25.4173C71.2341 25.4652 71.3477 25.427 71.3946 25.3327C71.4413 25.2382 71.4035 25.1234 71.3103 25.0761Z" fill="#0A2226"/>
<path d="M73.8675 27.0369C73.6119 26.9865 73.4452 26.7386 73.4948 26.4831C73.5446 26.2277 73.7921 26.0615 74.0476 26.1119C74.3033 26.1623 74.47 26.4103 74.4202 26.6657C74.3706 26.9212 74.1231 27.0873 73.8675 27.0369Z" fill="#0A2226"/>
<path d="M69.8372 27.8046C69.5817 27.7543 69.4148 27.5063 69.4646 27.2509C69.5144 26.9954 69.7619 26.8292 70.0174 26.8796C70.2729 26.9301 70.4398 27.178 70.39 27.4335C70.3402 27.6889 70.0927 27.8551 69.8372 27.8046Z" fill="#0A2226"/>
<path fill-rule="evenodd" clip-rule="evenodd" d="M79.4346 23.6424C79.4346 23.6424 79.5031 32.4197 79.2781 32.173C78.9903 31.8512 78.0807 23.4672 78.0807 23.4672L75.6923 23.2339L74.7034 20.5744L74.4406 23.2536C74.4406 23.2536 69.5888 24.4708 67.0587 25.3542C67.0587 25.3542 64.5856 17.8281 72.6086 15.619C78.4024 14.028 85.6085 18.9388 83.5131 29.2447L81.6109 32.2555L80.2273 31.906L79.7845 30.6353L79.7441 29.7082C79.7441 29.7082 80.1588 28.7703 80.198 27.6762C80.198 27.6762 82.8415 27.5233 82.9467 25.5647C83.1131 22.4741 79.4346 23.6424 79.4346 23.6424Z" fill="#082024"/>
<path fill-rule="evenodd" clip-rule="evenodd" d="M82.5222 35.7706C82.5222 35.7706 82.0745 33.9298 81.4629 33.8159C80.8525 33.7075 73.2848 35.7706 73.2848 35.7706C73.2848 35.7706 72.5759 35.8618 72.9117 36.9617C72.9117 36.9617 70.9494 37.3948 69.9602 37.7595L69.4185 74.9632C69.4185 74.9632 77.5524 75.8005 85.5609 74.0791L84.9309 36.2322L82.5222 35.7706Z" fill="white"/>
<path fill-rule="evenodd" clip-rule="evenodd" d="M82.6752 35.6051C82.6018 35.3316 82.4012 34.6592 82.1247 34.1919C81.9449 33.8842 81.7223 33.6676 81.4972 33.6277C81.3675 33.6049 80.9394 33.6676 80.34 33.7929C78.1434 34.2489 73.4783 35.5197 73.2446 35.5824C73.175 35.5938 72.8857 35.6678 72.7282 35.9813C72.6405 36.158 72.5901 36.4202 72.6773 36.819C72.1558 36.9387 70.7037 37.2863 69.8958 37.5771C69.8216 37.6055 69.7718 37.674 69.7707 37.7538L69.2283 74.963C69.2272 75.0591 69.3013 75.1452 69.3993 75.1563C69.3993 75.1563 77.5626 75.9937 85.6001 74.2673C85.6894 74.25 85.7518 74.17 85.7505 74.0789L85.1218 36.232C85.1193 36.1409 85.0557 36.0611 84.9676 36.044L82.6752 35.6051ZM82.3376 35.8161C82.3559 35.8902 82.4134 35.9414 82.4868 35.9585L84.7438 36.3916C84.7438 36.3916 85.3236 71.2861 85.3677 73.9249C78.1219 75.4531 70.8164 74.9002 69.6111 74.7918C69.6111 74.7918 70.1132 40.3126 70.1483 37.8962C71.1606 37.5485 72.9531 37.1439 72.9531 37.1439C73.0046 37.1325 73.0492 37.104 73.0759 37.0584C73.1024 37.0072 73.1093 36.9558 73.0934 36.9045C72.9807 36.5341 72.9943 36.3005 73.0679 36.1522C73.1517 35.987 73.3096 35.9585 73.3096 35.9585C73.3182 35.9585 73.3267 35.9585 73.3346 35.9528C73.3346 35.9528 78.1706 34.6364 80.417 34.1633C80.943 34.0551 81.3162 33.9867 81.4299 34.0038C81.4874 34.0152 81.54 34.0551 81.5926 34.1064C81.666 34.1804 81.7345 34.2773 81.7981 34.3856C82.1272 34.9441 82.3376 35.8161 82.3376 35.8161Z" fill="#0A2226"/>
<path fill-rule="evenodd" clip-rule="evenodd" d="M71.1067 37.4062C70.9103 37.4405 67.146 38.6259 66.5164 39.0078L62.1123 57.4667V79.0255C65.4158 79.3913 68.7341 79.4824 72.0913 78.8273C71.5494 65.7931 71.1566 52.218 71.1067 37.4062Z" fill="#023A43"/>
<path fill-rule="evenodd" clip-rule="evenodd" d="M83.3503 35.9303C83.8494 52.6227 83.6733 65.8843 83.3503 78.3989C86.7523 78.5651 90.1016 78.16 93.3898 77.0776L89.6759 37.8053C87.8104 36.9105 85.6526 36.3406 83.3503 35.9303Z" fill="#023A43"/>
<path fill-rule="evenodd" clip-rule="evenodd" d="M74.3677 37.7038C74.3677 37.7038 79.4617 36.8044 81.4801 36.7248C81.589 36.7187 81.6685 36.6331 81.6624 36.529C81.6624 36.4188 81.5706 36.3393 81.4679 36.3454C79.4372 36.4188 74.3008 37.3245 74.3008 37.3245C74.1974 37.3428 74.1305 37.4407 74.1487 37.5448C74.167 37.6487 74.2643 37.7221 74.3677 37.7038Z" fill="#0A2226"/>
<path fill-rule="evenodd" clip-rule="evenodd" d="M50.2237 25.769L51.1528 31.6733C51.1692 31.7815 51.2666 31.8498 51.3702 31.8329C51.4738 31.8157 51.5446 31.7188 51.5281 31.6163L50.5985 25.7063C50.5821 25.6038 50.4848 25.5354 50.3812 25.5468C50.2775 25.5639 50.2067 25.6664 50.2237 25.769Z" fill="#023A43"/>
<path fill-rule="evenodd" clip-rule="evenodd" d="M43.9353 30.1115L47.2875 33.2401C47.3644 33.3086 47.4847 33.3028 47.556 33.2288C47.6272 33.149 47.6227 33.0293 47.5457 32.9552L44.1936 29.8322C44.1167 29.7582 43.9964 29.7638 43.9252 29.8378C43.8539 29.9176 43.8584 30.0373 43.9353 30.1115Z" fill="#023A43"/>
<path fill-rule="evenodd" clip-rule="evenodd" d="M56.7866 28.1679L55.5432 31.5759C55.507 31.6785 55.5574 31.7868 55.6559 31.8209C55.7545 31.8608 55.8637 31.8096 55.8999 31.7127L57.1432 28.2989C57.1789 28.1964 57.1285 28.0881 57.03 28.0539C56.9314 28.0141 56.8222 28.0653 56.7866 28.1679Z" fill="#023A43"/>
<path fill-rule="evenodd" clip-rule="evenodd" d="M36.7871 75.5174L46.8196 78.9702C46.9189 79.0047 47.0269 78.9481 47.0608 78.8508C47.0947 78.7486 47.0417 78.6402 46.9425 78.6057L36.9099 75.1579C36.8107 75.1234 36.7027 75.1751 36.6687 75.2773C36.6348 75.3746 36.6879 75.483 36.7871 75.5174Z" fill="#0A2226"/>
<path fill-rule="evenodd" clip-rule="evenodd" d="M127.046 49.0896L121.681 56.2931C121.617 56.3787 121.634 56.4983 121.719 56.561C121.803 56.6237 121.922 56.6066 121.984 56.5268L127.349 49.3233C127.413 49.2377 127.396 49.118 127.312 49.0554C127.227 48.9927 127.109 49.0098 127.046 49.0896Z" fill="#023A43"/>
<path fill-rule="evenodd" clip-rule="evenodd" d="M25.1308 88.2266C24.3845 88.2266 23.7786 88.8361 23.7786 89.5885C23.7786 90.3409 24.3845 90.9504 25.1308 90.9504C25.8771 90.9504 26.4831 90.3409 26.4831 89.5885C26.4831 88.8361 25.8771 88.2266 25.1308 88.2266ZM25.1308 88.6083C25.6674 88.6083 26.1032 89.0467 26.1032 89.5885C26.1032 90.1291 25.6674 90.5687 25.1308 90.5687C24.5941 90.5687 24.1584 90.1291 24.1584 89.5885C24.1584 89.0467 24.5941 88.6083 25.1308 88.6083Z" fill="#023A43"/>
<path fill-rule="evenodd" clip-rule="evenodd" d="M139.919 128.016C139.18 128.016 138.58 128.621 138.58 129.361C138.58 130.102 139.18 130.705 139.919 130.705C140.657 130.705 141.257 130.102 141.257 129.361C141.257 128.621 140.657 128.016 139.919 128.016ZM139.919 128.398C140.447 128.398 140.876 128.831 140.876 129.361C140.876 129.892 140.447 130.324 139.919 130.324C139.39 130.324 138.961 129.892 138.961 129.361C138.961 128.831 139.39 128.398 139.919 128.398Z" fill="#023A43"/>
<path d="M107.635 35.0039C110.956 35.0039 113.647 32.2944 113.647 28.952C113.647 25.6097 110.956 22.9001 107.635 22.9001C104.314 22.9001 101.623 25.6097 101.623 28.952C101.623 32.2944 104.314 35.0039 107.635 35.0039Z" fill="#023A43"/>
<path fill-rule="evenodd" clip-rule="evenodd" d="M110.5 28.0823C110.5 27.8662 110.415 27.6559 110.263 27.5039C110.11 27.3521 109.903 27.2644 109.688 27.2644C108.596 27.2644 106.672 27.2644 105.582 27.2644C105.366 27.2644 105.16 27.3521 105.007 27.5039C104.854 27.6559 104.769 27.8662 104.769 28.0823C104.769 29.0637 104.769 30.6993 104.769 31.6808C104.769 31.897 104.854 32.1073 105.007 32.2591C105.16 32.4111 105.366 32.4987 105.582 32.4987C106.672 32.4987 108.596 32.4987 109.688 32.4987C109.903 32.4987 110.11 32.4111 110.263 32.2591C110.415 32.1073 110.5 31.897 110.5 31.6808C110.5 30.6993 110.5 29.0637 110.5 28.0823Z" fill="white"/>
<path fill-rule="evenodd" clip-rule="evenodd" d="M106.169 27.2717C106.169 26.3517 106.82 25.5965 107.635 25.5965C108.45 25.5965 109.1 26.3517 109.1 27.2717C109.1 27.3739 109.185 27.4591 109.29 27.4591C109.395 27.4591 109.48 27.3739 109.48 27.2717C109.48 26.1303 108.647 25.2103 107.635 25.2103C106.623 25.2103 105.79 26.1303 105.79 27.2717C105.79 27.3739 105.875 27.4591 105.98 27.4591C106.085 27.4591 106.169 27.3739 106.169 27.2717Z" fill="white"/>
<path fill-rule="evenodd" clip-rule="evenodd" d="M108.249 29.5935C108.249 29.2496 107.974 28.9744 107.635 28.9744C107.295 28.9744 107.021 29.2496 107.021 29.5935C107.021 29.7785 107.021 29.9891 107.021 30.174C107.021 30.518 107.295 30.7931 107.635 30.7931C107.974 30.7931 108.249 30.518 108.249 30.174C108.249 29.9891 108.249 29.7785 108.249 29.5935Z" fill="#023A43"/>
<path d="M32.7967 62.0314C36.1171 62.0314 38.8088 59.3219 38.8088 55.9795C38.8088 52.6371 36.1171 49.9276 32.7967 49.9276C29.4764 49.9276 26.7847 52.6371 26.7847 55.9795C26.7847 59.3219 29.4764 62.0314 32.7967 62.0314Z" fill="#023A43"/>
<path fill-rule="evenodd" clip-rule="evenodd" d="M32.7966 54.687C31.4238 54.687 30.2075 55.0524 29.4528 55.6094C28.9106 56.0061 28.6018 56.5051 28.6018 57.0398C28.6018 57.5702 28.9106 58.0693 29.4528 58.4659C30.2075 59.0228 31.4238 59.3883 32.7966 59.3883C34.1694 59.3883 35.3858 59.0228 36.1404 58.4659C36.6827 58.0693 36.9914 57.5702 36.9914 57.0398C36.9914 56.5051 36.6827 56.0061 36.1404 55.6094C35.3858 55.0524 34.1694 54.687 32.7966 54.687ZM32.7966 55.0702C34.0762 55.0702 35.2129 55.4 35.9163 55.9169C36.3462 56.2334 36.6116 56.6165 36.6116 57.0398C36.6116 57.4587 36.3462 57.8421 35.9163 58.1584C35.2129 58.6753 34.0762 59.0051 32.7966 59.0051C31.517 59.0051 30.3803 58.6753 29.6769 58.1584C29.247 57.8421 28.9816 57.4587 28.9816 57.0398C28.9816 56.6165 29.247 56.2334 29.6769 55.9169C30.3803 55.4 31.517 55.0702 32.7966 55.0702Z" fill="white"/>
<path d="M32.797 59.1779C33.9693 59.1779 34.9197 58.2213 34.9197 57.0411C34.9197 55.861 33.9693 54.9042 32.797 54.9042C31.6244 54.9042 30.6741 55.861 30.6741 57.0411C30.6741 58.2213 31.6244 59.1779 32.797 59.1779Z" fill="white"/>
<path d="M32.7968 58.277C33.4763 58.277 34.027 57.7226 34.027 57.0387C34.027 56.3548 33.4763 55.8003 32.7968 55.8003C32.1174 55.8003 31.5667 56.3548 31.5667 57.0387C31.5667 57.7226 32.1174 58.277 32.7968 58.277Z" fill="#0A2226"/>
<path d="M32.0145 56.8374C32.3336 56.8374 32.5922 56.577 32.5922 56.2559C32.5922 55.9348 32.3336 55.6744 32.0145 55.6744C31.6956 55.6744 31.437 55.9348 31.437 56.2559C31.437 56.577 31.6956 56.8374 32.0145 56.8374Z" fill="white"/>
<path fill-rule="evenodd" clip-rule="evenodd" d="M32.8157 53.9146V52.7672C32.8157 52.6638 32.7306 52.5759 32.6258 52.5759C32.5209 52.5759 32.4358 52.6638 32.4358 52.7672V53.9146C32.4358 54.0179 32.5209 54.1058 32.6258 54.1058C32.7306 54.1058 32.8157 54.0179 32.8157 53.9146Z" fill="white"/>
<path fill-rule="evenodd" clip-rule="evenodd" d="M31.4239 53.992L31.057 53.152C31.0162 53.0511 30.9029 53.0115 30.8075 53.0512C30.7107 53.0959 30.667 53.2073 30.7091 53.3034L31.0749 54.1482C31.117 54.2443 31.2289 54.2889 31.3257 54.2442C31.4211 54.2045 31.4647 54.0931 31.4239 53.992Z" fill="white"/>
<path fill-rule="evenodd" clip-rule="evenodd" d="M34.1767 54.1482L34.5423 53.3034C34.5844 53.2073 34.5407 53.0959 34.4441 53.0512C34.3487 53.0115 34.2354 53.0511 34.1945 53.152L33.8276 53.992C33.7867 54.0931 33.8304 54.2045 33.9259 54.2442C34.0226 54.2889 34.1346 54.2443 34.1767 54.1482Z" fill="white"/>
<path fill-rule="evenodd" clip-rule="evenodd" d="M30.0212 54.4131L29.5415 53.9341C29.4674 53.8585 29.347 53.8564 29.2729 53.9331C29.1988 54.0055 29.1988 54.1274 29.2729 54.203L29.7524 54.6863C29.8265 54.7621 29.9469 54.7597 30.021 54.6873C30.0952 54.6106 30.0952 54.4887 30.0212 54.4131Z" fill="white"/>
<path fill-rule="evenodd" clip-rule="evenodd" d="M35.4988 54.6863L35.9783 54.203C36.0525 54.1274 36.0525 54.0055 35.9783 53.9331C35.9042 53.8564 35.7838 53.8585 35.7097 53.9341L35.2301 54.4131C35.156 54.4887 35.156 54.6106 35.2302 54.6873C35.3043 54.7597 35.4247 54.7621 35.4988 54.6863Z" fill="white"/>
<path fill-rule="evenodd" clip-rule="evenodd" d="M113.529 138.776C93.3312 128.611 81.1681 109.691 81.1045 77.58L113.646 65.0265L146.189 77.58C146.126 109.757 133.915 128.684 113.646 138.838L113.529 138.776Z" fill="white"/>
<path fill-rule="evenodd" clip-rule="evenodd" d="M113.443 138.946L113.562 139.007C113.616 139.031 113.678 139.031 113.732 139.007C134.057 128.83 146.315 109.848 146.38 77.5847C146.38 77.4997 146.331 77.4332 146.258 77.4024L113.715 64.8439C113.672 64.8318 113.623 64.8318 113.579 64.8439L81.0359 77.4024C80.9625 77.4332 80.9136 77.4997 80.9136 77.5847C80.9784 109.782 93.188 128.751 113.443 138.946ZM113.613 138.606C93.5011 128.484 81.3907 109.647 81.294 77.7127L113.646 65.2328C115.229 65.8405 143.892 76.8988 146 77.7127C145.902 109.666 133.778 128.501 113.647 138.618L113.613 138.606Z" fill="#023A43"/>
<path fill-rule="evenodd" clip-rule="evenodd" d="M113.559 129.286C98.5631 121.738 89.534 107.692 89.4863 83.8512L113.647 74.5309L137.808 83.8512C137.761 107.741 128.695 121.793 113.647 129.331L113.559 129.286Z" fill="#023A43"/>
<path fill-rule="evenodd" clip-rule="evenodd" d="M101.189 101.73L109.799 108.951C111.044 109.994 112.884 109.874 113.981 108.671L126.396 95.0852C127.532 93.8427 127.451 91.9045 126.217 90.7593C124.981 89.6203 123.057 89.6991 121.922 90.9416L111.466 102.386L105.081 97.0283C103.791 95.9508 101.873 96.1282 100.799 97.4211C99.7264 98.7215 99.9001 100.653 101.189 101.73Z" fill="white"/>
<path fill-rule="evenodd" clip-rule="evenodd" d="M79.8335 72.1224C79.8335 72.1224 75.1031 75.7784 73.7049 80.5574C73.6162 80.8763 73.7537 81.21 74.0384 81.3726C74.0374 81.3775 74.0374 81.3775 74.0374 81.3775C74.211 81.476 74.4158 81.5007 74.6073 81.4465C74.7989 81.3923 74.9608 81.2593 75.0573 81.0881C75.6208 80.0378 76.7557 78.0454 77.6308 77.1773C77.6308 77.1773 77.3062 78.1784 77.1389 79.1549C77.0098 79.9097 77.916 81.9957 78.3318 82.9032C78.4118 83.0756 78.5589 83.2074 78.7394 83.2665C78.9192 83.3256 79.1156 83.3059 79.2818 83.2172C79.3845 83.1593 79.4885 83.0805 79.5876 82.9722C79.5876 82.9722 80.2286 83.2911 80.7754 82.7813C80.7754 82.7813 81.0237 82.8687 81.2904 82.8256C81.5375 82.7813 81.7185 82.5646 81.7185 82.3146C81.7198 81.657 81.7198 80.0279 81.7198 80.0279V78.8692L83.1229 77.6575L80.8818 72.1224H79.8335Z" fill="white"/>
<path fill-rule="evenodd" clip-rule="evenodd" d="M79.8335 71.9313C79.7919 71.9313 79.7515 71.9448 79.7173 71.9694C79.7173 71.9694 74.9364 75.6698 73.5227 80.5042L73.5222 80.5091C73.4213 80.8662 73.551 81.2442 73.8386 81.4708C73.8663 81.5336 73.9444 81.5435 73.9444 81.5435C74.1617 81.6666 74.4188 81.6961 74.659 81.6272C74.8989 81.5582 75.1022 81.3969 75.2231 81.1814C75.2236 81.1814 75.224 81.1765 75.224 81.1765C75.6672 80.3564 76.4642 78.9378 77.2072 77.9614C77.1179 78.3049 77.0214 78.7174 76.9517 79.1201C76.9098 79.3651 76.9624 79.7432 77.0776 80.1754C77.3286 81.1174 77.8654 82.3439 78.1593 82.9817C78.2617 83.2021 78.4498 83.3745 78.6799 83.4484C78.91 83.526 79.161 83.5014 79.3735 83.3844C79.4604 83.3351 79.5497 83.2711 79.6353 83.1923C79.8665 83.2662 80.3632 83.3597 80.8231 82.9916C80.9369 83.0162 81.1253 83.0457 81.321 83.0113H81.3222C81.6599 82.9571 81.9082 82.6628 81.9082 82.3143C81.9094 81.6617 81.9094 80.0276 81.9094 80.0276V78.9575L83.2464 77.805C83.3088 77.7508 83.3296 77.6621 83.2991 77.5882L81.0568 72.0482C81.0286 71.9744 80.9589 71.9313 80.8818 71.9313H79.8335ZM74.213 81.2492L74.1457 81.2147C74.1413 81.2147 74.1369 81.2097 74.132 81.2048C73.9239 81.0878 73.823 80.8428 73.8874 80.6113C75.186 76.1759 79.3919 72.7157 79.8995 72.313H80.7534L82.8954 77.603L81.5962 78.7224C81.5534 78.7618 81.5302 78.8159 81.5302 78.8701V80.0276C81.5302 80.0276 81.5302 81.6567 81.5277 82.3143C81.5277 82.4719 81.4152 82.6086 81.2598 82.6332C81.0421 82.6726 80.8378 82.5988 80.8378 82.5988C80.7717 82.5741 80.6971 82.5938 80.6457 82.6382C80.198 83.0605 79.6732 82.8007 79.6732 82.8007C79.5974 82.7613 79.5057 82.7761 79.4482 82.8401C79.3637 82.9325 79.2769 83.0014 79.1903 83.0507C79.0699 83.1147 78.9285 83.1295 78.7983 83.0851C78.6682 83.0408 78.5619 82.9472 78.5039 82.8204C78.2163 82.1961 77.6903 80.9943 77.4445 80.0769C77.347 79.7087 77.2905 79.3947 77.3261 79.189C77.4909 78.2261 77.8117 77.2348 77.8117 77.2348C77.8384 77.1523 77.8053 77.0588 77.7308 77.0144C77.6562 76.9652 77.5601 76.9799 77.4978 77.0391C76.612 77.917 75.4615 79.934 74.8906 80.9943C74.8184 81.1223 74.698 81.2196 74.5556 81.259C74.4421 81.2935 74.3222 81.2886 74.213 81.2492ZM74.1457 81.2147L74.1487 81.2196H74.1521C74.172 81.2295 74.1921 81.2393 74.213 81.2492H74.2135C74.2506 81.2836 74.272 81.3477 74.2042 81.4708C74.252 81.3821 74.228 81.2787 74.1521 81.2196C74.1447 81.2147 74.1379 81.2147 74.131 81.2098L74.1457 81.2147Z" fill="#0A2226"/>
<path fill-rule="evenodd" clip-rule="evenodd" d="M89.6761 37.8049C89.6761 37.8049 85.4509 41.7601 86.1396 49.3968L91.6382 62.5671C91.6382 62.5671 84.2509 67.1776 83.0838 68.1465C81.9181 69.1091 81.7358 70.2099 81.7358 70.2099L79.562 72.1124L83.0838 78.0452C83.0838 78.0452 98.3626 72.0274 99.6275 70.2099C100.891 68.3973 102.147 64.3566 99.6275 57.1816C93.2958 39.167 89.6761 37.8049 89.6761 37.8049Z" fill="#023A43"/>
<path fill-rule="evenodd" clip-rule="evenodd" d="M85.9645 49.4713L91.3996 62.4877C90.383 63.1261 84.0378 67.1096 82.9638 67.9987C81.9142 68.8649 81.6255 69.8457 81.5631 70.1068L79.4371 71.965C79.3674 72.0278 79.3527 72.13 79.3992 72.21L82.921 78.1428C82.9748 78.2339 83.091 78.2622 83.1815 78.2118C83.2721 78.1539 83.3014 78.0406 83.2476 77.9495L79.8065 72.1472L81.8604 70.358C81.8947 70.3297 81.9167 70.2903 81.924 70.2435C81.924 70.2435 82.1014 69.2066 83.2048 68.2951C84.3681 67.3262 91.7384 62.7271 91.7384 62.7271C91.8179 62.6759 91.8497 62.579 91.813 62.4934L86.3156 49.323C86.274 49.2262 86.1627 49.1806 86.0661 49.2204C85.9694 49.2603 85.9241 49.3743 85.9645 49.4713Z" fill="#0A2226"/>
<path fill-rule="evenodd" clip-rule="evenodd" d="M78.6714 78.7928V79.9688C78.6714 79.9811 78.6774 79.9983 78.6774 80.0106L79.4005 83.0152C79.4249 83.1199 79.5289 83.1864 79.6317 83.1568C79.7356 83.1322 79.7956 83.0337 79.7711 82.9302L79.0543 79.9441V78.7928C79.0543 78.6893 78.9693 78.6031 78.8659 78.6031C78.7564 78.6031 78.6714 78.6893 78.6714 78.7928Z" fill="#0A2226"/>
<path fill-rule="evenodd" clip-rule="evenodd" d="M80.1785 78.7928V79.9688C80.1785 79.9749 80.1785 79.986 80.1846 79.9921L80.5858 82.8132C80.6042 82.9179 80.702 82.9844 80.8048 82.9721C80.9088 82.961 80.9809 82.8625 80.9626 82.7591L80.5614 79.9564V78.7928C80.5614 78.6893 80.477 78.6031 80.373 78.6031C80.2641 78.6031 80.1785 78.6893 80.1785 78.7928Z" fill="#0A2226"/>
<path fill-rule="evenodd" clip-rule="evenodd" d="M82.1846 71.1203C82.1846 71.1203 83.644 73.5191 84.8538 76.2232C84.8966 76.3217 85.0055 76.3648 85.1034 76.3217C85.2 76.2725 85.2428 76.1629 85.2 76.0643C83.9779 73.3356 82.5075 70.9184 82.5075 70.9184C82.4525 70.8273 82.3375 70.8026 82.2458 70.8568C82.154 70.9122 82.1247 71.028 82.1846 71.1203Z" fill="#0A2226"/>
<path fill-rule="evenodd" clip-rule="evenodd" d="M91.6675 62.7491C91.6675 62.7491 93.8009 62.3758 95.1808 63.8505C95.2542 63.9301 95.3692 63.9301 95.4487 63.8627C95.5282 63.7893 95.5282 63.667 95.4548 63.5874C93.9477 61.9658 91.6015 62.3758 91.6015 62.3758C91.4975 62.3942 91.4302 62.4921 91.4486 62.5961C91.4669 62.7002 91.5648 62.7674 91.6675 62.7491Z" fill="#0A2226"/>
<path fill-rule="evenodd" clip-rule="evenodd" d="M47.6174 41.6918C47.6174 41.6918 47.0089 41.9654 46.9286 44.0626C46.8482 46.1541 48.9139 51.3629 48.9139 51.3629C48.9139 51.3629 51.027 53.0897 54.0632 50.9242L53.5778 46.6955L47.6174 41.6918Z" fill="white"/>
<path fill-rule="evenodd" clip-rule="evenodd" d="M47.7389 41.5496C47.6834 41.4984 47.6064 41.4869 47.5404 41.5211C47.5404 41.5211 46.8254 41.7946 46.7386 44.0515C46.6574 46.1715 48.7375 51.4317 48.7375 51.4317C48.7495 51.4601 48.769 51.4887 48.7941 51.5115C48.7941 51.5115 51.0024 53.3408 54.1731 51.0783C54.2299 51.0384 54.2601 50.9701 54.252 50.9017L53.7662 46.673C53.7607 46.6218 53.7366 46.5761 53.6994 46.5477L47.7389 41.5496ZM47.6232 41.9486L53.3975 46.7927L53.8617 50.8332C51.2356 52.6456 49.3534 51.4431 49.0706 51.2437C48.8605 50.7079 47.0434 46.0233 47.1184 44.0685C47.1532 43.1625 47.2879 42.6039 47.4289 42.2734C47.4935 42.1195 47.5683 42.0112 47.6232 41.9486Z" fill="#0A2226"/>
<path fill-rule="evenodd" clip-rule="evenodd" d="M54.5583 36.6523C54.4569 36.2479 54.0568 35.9979 53.6546 36.0883C52.1852 36.4182 48.8556 37.1577 47.3245 37.5035C47.1181 37.5461 46.94 37.6791 46.8327 37.86C46.7254 38.0463 46.6984 38.2644 46.7583 38.4666C47.4364 40.7757 49.4098 47.4956 50.0487 49.6717C50.1623 50.0601 50.5551 50.2942 50.9462 50.2038C52.3268 49.8952 55.4019 49.1981 56.8369 48.8736C57.0378 48.831 57.2122 48.7033 57.3195 48.5277C57.4274 48.3521 57.4596 48.1393 57.4088 47.9372C56.8312 45.6492 55.1213 38.8816 54.5583 36.6523Z" fill="#023A43"/>
<path fill-rule="evenodd" clip-rule="evenodd" d="M48.4995 44.3987C48.4995 44.3987 51.0238 42.1478 53.4356 39.7028C53.5692 39.5717 53.7531 39.4977 53.9428 39.5034C54.1325 39.509 54.3102 39.6001 54.433 39.7426C54.6131 39.9592 54.6301 40.2669 54.4755 40.495C53.8714 41.4125 52.3592 43.6523 51.5462 44.3987C51.5462 44.3987 53.4389 42.8771 54.6556 42.0337C54.7908 41.9425 54.955 41.914 55.1118 41.9539C55.2682 41.9882 55.4041 42.085 55.4867 42.2274C55.4935 42.2332 55.5002 42.2445 55.5065 42.256C55.6441 42.4839 55.6146 42.7802 55.4341 42.974C54.7404 43.7319 53.0438 45.5728 52.3553 46.1313C52.3553 46.1313 54.1738 44.6552 55.1436 43.8687C55.2852 43.7548 55.472 43.7149 55.6492 43.7548C55.8259 43.8004 55.973 43.9201 56.0472 44.091C56.131 44.2792 56.0987 44.4956 55.964 44.6552C55.2676 45.4645 53.1592 47.9094 53.1592 47.9094C54.0713 47.2825 54.8096 46.7239 55.7245 45.909C55.8292 45.8178 55.9719 45.7837 56.1066 45.8179C56.2414 45.852 56.3507 45.9546 56.3987 46.0857C56.4775 46.3023 56.4463 46.5416 56.3144 46.7297C55.8791 47.3337 54.826 48.7129 53.6467 49.5963" fill="white"/>
<path fill-rule="evenodd" clip-rule="evenodd" d="M54.2894 39.8681C54.4133 40.0163 54.4251 40.2271 54.3176 40.3924C53.7192 41.2986 52.2235 43.5212 51.4183 44.2563C51.3425 44.3247 51.3351 44.4444 51.4014 44.5242C51.4682 44.604 51.5848 44.6154 51.6647 44.5471C51.6647 44.5471 53.5482 43.0368 54.7609 42.1933C54.8527 42.1306 54.9636 42.1135 55.0694 42.1363C55.1759 42.1648 55.2676 42.2275 55.3242 42.3244L55.3441 42.3585C55.4375 42.5125 55.4177 42.7119 55.2948 42.843C55.2948 42.843 55.2948 42.843 55.2943 42.843C54.6052 43.601 52.9204 45.4247 52.2364 45.9775C52.1544 46.0458 52.1414 46.1655 52.207 46.2509C52.2727 46.3307 52.3922 46.3422 52.4742 46.2795C52.4742 46.2795 54.2927 44.8034 55.2625 44.017C55.3587 43.9428 55.485 43.9144 55.6045 43.9428C55.7239 43.9714 55.8236 44.0569 55.874 44.1652C55.9272 44.2906 55.9068 44.4273 55.8208 44.5298L53.016 47.784C52.9532 47.8581 52.9538 47.9664 53.0171 48.0347C53.0811 48.1089 53.1875 48.1203 53.2663 48.069C54.1851 47.4364 54.9285 46.8722 55.8497 46.0572C55.9074 46.006 55.986 45.9831 56.0597 46.0059C56.1338 46.023 56.1939 46.08 56.2204 46.1484L56.2221 46.1542C56.2771 46.308 56.2544 46.4847 56.1599 46.6158C55.7301 47.2141 54.6946 48.5762 53.5335 49.4424C53.4492 49.5051 53.4316 49.6248 53.4945 49.7103C53.5567 49.7957 53.6761 49.8128 53.7599 49.7502C54.9568 48.8554 56.0263 47.4535 56.4684 46.8437C56.4684 46.8437 56.469 46.8379 56.4696 46.8379C56.6372 46.5986 56.6773 46.291 56.5771 46.0173L56.5726 46.0059C56.5007 45.8235 56.345 45.6811 56.1536 45.6355C55.9583 45.5843 55.7506 45.6355 55.5994 45.7665H55.5989C55.1646 46.1542 54.77 46.479 54.3777 46.7867L56.1078 44.7807C56.2906 44.5699 56.3348 44.2678 56.221 44.0113C56.1226 43.789 55.9277 43.6294 55.6933 43.5724C55.4595 43.5154 55.2122 43.5668 55.0242 43.7207L54.9505 43.7834C55.1957 43.5154 55.412 43.2818 55.5744 43.1051C55.8117 42.843 55.8501 42.4611 55.669 42.1592C55.6622 42.1477 55.6549 42.1364 55.6476 42.1249C55.5377 41.9426 55.3598 41.8114 55.1543 41.7659C54.9477 41.7203 54.731 41.7545 54.5526 41.8741C54.5509 41.8741 54.5498 41.8741 54.5481 41.8741C54.0498 42.2219 53.4389 42.6777 52.8898 43.0995C53.5675 42.1989 54.2672 41.1561 54.6341 40.6033C54.8357 40.3013 54.813 39.8966 54.578 39.6174H54.5741C54.4173 39.4293 54.1908 39.321 53.9501 39.3153C53.7073 39.3038 53.4718 39.3951 53.3008 39.5718C50.893 42.0109 48.3736 44.2563 48.3736 44.2563C48.295 44.3247 48.2878 44.4444 48.3573 44.5242C48.4268 44.604 48.5469 44.6096 48.6254 44.5413C48.6254 44.5413 51.154 42.2902 53.5703 39.8396C53.5709 39.8396 53.5709 39.8396 53.5709 39.8396C53.6666 39.7427 53.7991 39.6915 53.9355 39.6971C54.0719 39.7028 54.1998 39.7655 54.2881 39.8681H54.2894ZM56.3569 46.2681C56.3693 46.2737 56.3936 46.2795 56.4407 46.2681C56.4124 46.2795 56.3835 46.2737 56.3569 46.2681ZM56.3348 46.2624H56.3354H56.3342H56.3348ZM56.3264 46.2624H56.3281H56.3247H56.3264ZM56.3178 46.2567H56.3206H56.3167H56.3178ZM56.3105 46.2509L56.3122 46.2567L56.3098 46.2509H56.3105ZM56.2307 46.1713C56.2402 46.194 56.2538 46.2112 56.2732 46.2283C56.2561 46.2112 56.2413 46.194 56.2307 46.1713ZM54.3674 39.9251H54.368C54.3884 39.9307 54.4139 39.9365 54.4467 39.9365C54.4195 39.9365 54.3924 39.9307 54.3674 39.9251ZM54.3555 39.9194H54.359H54.355H54.3555ZM54.2989 39.8795C54.3142 39.8966 54.3318 39.908 54.3538 39.9194C54.3335 39.908 54.3154 39.8966 54.2989 39.8795Z" fill="#0A2226"/>
<path fill-rule="evenodd" clip-rule="evenodd" d="M66.7882 38.9108C66.7882 38.9108 65.3948 39.0476 62.9927 43.6809C60.5905 48.3084 57.6023 54.2127 57.6023 54.2127L61.412 68.1467C61.412 68.1467 66.0182 59.849 67.5848 56.0705C69.1518 52.2863 66.7882 38.9108 66.7882 38.9108Z" fill="#023A43"/>
<path fill-rule="evenodd" clip-rule="evenodd" d="M57.4189 54.2638L61.2292 68.1979C61.2495 68.2719 61.313 68.3232 61.3893 68.3346C61.4658 68.3461 61.5405 68.3062 61.5778 68.2377C61.5778 68.2377 66.1908 59.9286 67.7603 56.1445C67.8004 56.0476 67.7552 55.9336 67.6584 55.8937C67.5615 55.8538 67.45 55.8994 67.4098 55.9963C66.0533 59.2676 62.4147 65.9297 61.472 67.645L57.7853 54.1611C57.7575 54.0586 57.6528 53.996 57.552 54.0245C57.4506 54.0529 57.3912 54.1613 57.4189 54.2638Z" fill="#0A2226"/>
<path fill-rule="evenodd" clip-rule="evenodd" d="M48.7181 50.8504C48.7181 50.8504 48.2923 50.9415 48.3604 51.7109C48.4284 52.4803 48.9892 53.905 48.9892 53.905C48.9892 53.905 48.7011 54.2983 48.8289 55.2728C48.9566 56.2473 53.5809 66.5911 55.9899 68.6655C58.3994 70.7397 60.9743 69.6746 61.9786 67.0299C62.983 64.3912 58.0564 53.6885 56.4518 52.3948C55.7515 51.8306 55.3105 52.1953 55.3105 52.1953C55.3105 52.1953 54.4692 49.8701 53.6528 50.1437L48.7181 50.8504Z" fill="#023A43"/>
<path fill-rule="evenodd" clip-rule="evenodd" d="M48.6912 50.6622C48.6875 50.6622 48.6838 50.6622 48.68 50.6679C48.68 50.6679 48.5155 50.6906 48.3679 50.8673C48.2505 51.0098 48.1304 51.2663 48.1712 51.728C48.2307 52.4004 48.6564 53.563 48.7793 53.8878C48.69 54.0702 48.5374 54.509 48.6406 55.2955C48.7051 55.7856 49.8975 58.6465 51.3842 61.6385C52.8703 64.6362 54.651 67.7649 55.8664 68.8077C57.1318 69.8962 58.4436 70.1523 59.5679 69.7989C60.6883 69.4467 61.631 68.4829 62.1564 67.0981C62.3251 66.6536 62.3421 65.9926 62.2311 65.189C62.0726 64.0321 61.6553 62.5675 61.1079 61.0458C60.1539 58.3901 58.8047 55.5406 57.7489 53.808C57.2836 53.0388 56.8691 52.4859 56.5702 52.2465C56.1637 51.916 55.8285 51.8704 55.5986 51.8932C55.5273 51.9045 55.4651 51.916 55.4112 51.9331C55.2641 51.574 54.9209 50.799 54.5122 50.3374C54.2326 50.024 53.9144 49.8644 53.6103 49.9555C53.6109 49.9555 48.6912 50.6622 48.6912 50.6622ZM48.7601 51.0384L53.6794 50.3317C53.6908 50.3317 53.7014 50.3259 53.7122 50.3259C53.787 50.2975 53.8617 50.3146 53.9353 50.3488C54.0366 50.4 54.1346 50.4913 54.2297 50.5939C54.7376 51.1637 55.1316 52.2636 55.1316 52.2636C55.1531 52.3206 55.2007 52.3662 55.2601 52.3833C55.3196 52.4004 55.3836 52.3833 55.431 52.3434C55.431 52.3434 55.7748 52.0927 56.333 52.5429C56.6115 52.7708 56.9908 53.2895 57.4251 54.0075C58.4702 55.7229 59.8057 58.5439 60.7506 61.1769C61.2879 62.67 61.6989 64.1062 61.8552 65.2403C61.9548 65.964 61.9537 66.5624 61.8014 66.9614C61.3225 68.2265 60.4755 69.1155 59.4548 69.4344C58.4379 69.7533 57.2575 69.5034 56.1139 68.5171C54.9198 67.4914 53.184 64.4081 51.7239 61.4675C50.2644 58.5325 49.0805 55.7286 49.0173 55.2442C48.9026 54.3722 49.142 54.0189 49.142 54.0189C49.1809 53.9619 49.19 53.8936 49.1659 53.8366C49.1659 53.8366 48.616 52.4403 48.5496 51.6937C48.5062 51.2036 48.7366 51.0554 48.7601 51.0384Z" fill="#0A2226"/>
<path d="M48.0708 39.1213C48.3246 39.1213 48.5303 38.9143 48.5303 38.6588C48.5303 38.4033 48.3246 38.1962 48.0708 38.1962C47.8171 38.1962 47.6113 38.4033 47.6113 38.6588C47.6113 38.9143 47.8171 39.1213 48.0708 39.1213Z" fill="white"/>
<path fill-rule="evenodd" clip-rule="evenodd" d="M48.636 44.5327C48.6057 44.5512 48.5814 44.5695 48.5509 44.5817L48.4963 44.6184L49.5235 50.2234L50.5752 50.3275L53.4505 49.7707C53.4505 49.7645 53.4687 49.7033 53.4566 49.6361C53.4444 49.5565 53.4749 49.4892 53.5174 49.4463C53.5295 49.4341 53.5356 49.4219 53.5418 49.4096C53.645 49.2689 52.873 48.4857 52.873 48.4857L48.636 44.5327Z" fill="white"/>
<path fill-rule="evenodd" clip-rule="evenodd" d="M49.9431 53.8705C49.9431 53.8705 52.5022 53.8216 54.4778 53.0383C54.5751 53.0016 54.6237 52.8915 54.5873 52.7936C54.5508 52.6957 54.4354 52.6467 54.3381 52.6834C52.4232 53.4422 49.931 53.4911 49.931 53.4911C49.8276 53.4911 49.7425 53.5768 49.7486 53.687C49.7486 53.7909 49.8336 53.8766 49.9431 53.8705Z" fill="#0A2226"/>
</svg>
