<svg width="22" height="20" viewBox="0 0 22 20" fill="none" xmlns="http://www.w3.org/2000/svg">
<path d="M8.61719 7.25H20.4141C20.7667 7.25 21.05 6.95813 21.05 6.6C21.05 6.24187 20.7667 5.95 20.4141 5.95H8.61719C8.26459 5.95 7.98125 6.24187 7.98125 6.6C7.98125 6.95813 8.26459 7.25 8.61719 7.25Z" fill="black" stroke="black" stroke-width="0.1"/>
<path d="M20.4141 9.54998H10.9609C10.6083 9.54998 10.325 9.84185 10.325 10.2C10.325 10.5581 10.6083 10.85 10.9609 10.85H20.4141C20.7667 10.85 21.05 10.5581 21.05 10.2C21.05 9.84185 20.7667 9.54998 20.4141 9.54998Z" fill="black" stroke="black" stroke-width="0.1"/>
<path d="M20.4141 13.15H10.9609C10.6083 13.15 10.325 13.4418 10.325 13.8C10.325 14.1581 10.6083 14.45 10.9609 14.45H20.4141C20.7667 14.45 21.05 14.1581 21.05 13.8C21.05 13.4418 20.7667 13.15 20.4141 13.15Z" fill="black" stroke="black" stroke-width="0.1"/>
<path d="M20.4141 16.75H8.61719C8.26459 16.75 7.98125 17.0419 7.98125 17.4C7.98125 17.7582 8.26459 18.05 8.61719 18.05H20.4141C20.7667 18.05 21.05 17.7582 21.05 17.4C21.05 17.0419 20.7667 16.75 20.4141 16.75Z" fill="black" stroke="black" stroke-width="0.1"/>
<path d="M6.72347 9.14084L9.06647 11.5401L6.72347 9.14084ZM6.72347 9.14084C6.47498 8.88639 6.07185 8.88639 5.82337 9.14084M6.72347 9.14084L5.82337 9.14084M5.82337 9.14084C5.57553 9.39462 5.57553 9.80536 5.82337 10.0591M5.82337 9.14084V10.0591M5.82337 10.0591L7.08398 11.35M5.82337 10.0591L7.08398 11.35M7.08398 11.35H1.58594C1.23334 11.35 0.95 11.6419 0.95 12C0.95 12.3581 1.23334 12.65 1.58594 12.65H7.08398L5.82337 13.9409C5.57553 14.1947 5.57553 14.6054 5.82337 14.8592C6.07185 15.1136 6.47494 15.1137 6.72347 14.8592L9.06647 12.4599L7.08398 11.35ZM9.06651 12.4599C9.31209 12.209 9.31603 11.795 9.06651 11.5401V12.4599Z" fill="black" stroke="black" stroke-width="0.1"/>
</svg>
