<svg xmlns="http://www.w3.org/2000/svg" xmlns:xlink="http://www.w3.org/1999/xlink" width="32" height="32" viewBox="0 0 32 32">
  <defs>
    <clipPath id="clip-path">
      <rect id="Rectangle_4081" data-name="Rectangle 4081" width="32" height="32" transform="translate(486.473 362.473)" fill="#023a43" stroke="#707070" stroke-width="1"/>
    </clipPath>
  </defs>
  <g id="Mask_Group_37" data-name="Mask Group 37" transform="translate(-486.473 -362.473)" clip-path="url(#clip-path)">
    <g id="Edit_Add_Row" data-name="Edit / Add_Row" transform="translate(486 366.842)">
      <path id="Vector_Stroke_" data-name="Vector (Stroke)" d="M12.07,8a1.614,1.614,0,0,1,1.614,1.614v3.228h3.228a1.614,1.614,0,1,1,0,3.228H13.684V19.3a1.614,1.614,0,1,1-3.228,0V16.07H7.228a1.614,1.614,0,1,1,0-3.228h3.228V9.614A1.614,1.614,0,0,1,12.07,8Zm8.07,11.3a1.614,1.614,0,0,1,1.614-1.614h9.684a4.842,4.842,0,0,1,4.842,4.842v3.228A4.842,4.842,0,0,1,31.437,30.6H8.842A4.842,4.842,0,0,1,4,25.753V24.14a1.614,1.614,0,0,1,3.228,0v1.614a1.614,1.614,0,0,0,1.614,1.614h22.6a1.614,1.614,0,0,0,1.614-1.614V22.526a1.614,1.614,0,0,0-1.614-1.614H21.753A1.614,1.614,0,0,1,20.14,19.3Z" transform="translate(-4 -8)" fill="#023a43" fill-rule="evenodd"/>
    </g>
  </g>
</svg>
