<svg width="41" height="25" viewBox="0 0 41 25" xmlns="http://www.w3.org/2000/svg">
    <g fill="none" fill-rule="evenodd">
        <rect x=".667" y=".667" width="38.952" height="16.667" rx="3.556" fill="#FFF" stroke="#121212" stroke-width="1.333"/>
        <g fill-rule="nonzero">
            <path d="m30.813 22.806-1.008 1.008a.636.636 0 0 1-.9 0l-3.953-3.952a.636.636 0 0 0-1.034.195l-1.549 3.563a.636.636 0 0 1-1.181-.056l-4.16-12.74a.637.637 0 0 1 .796-.796l12.738 4.158a.637.637 0 0 1 .056 1.181l-3.562 1.55a.637.637 0 0 0-.195 1.035l3.952 3.952a.637.637 0 0 1 0 .902z" fill="#E9E6E6"/>
            <path d="m26.752 17.993 3.499-1.52a1.25 1.25 0 0 0-.11-2.329L17.63 10.06a1.25 1.25 0 0 0-1.571 1.572l4.084 12.508c.158.495.608.838 1.126.86h.061c.497.002.946-.293 1.142-.75l1.52-3.498 3.882 3.882a1.25 1.25 0 0 0 1.768 0l.99-.991a1.25 1.25 0 0 0 0-1.769l-3.88-3.88zm2.006 5.757-3.88-3.881a1.25 1.25 0 0 0-2.033.386l-1.517 3.488-4.08-12.496 12.492 4.08-3.488 1.517a1.25 1.25 0 0 0-.386 2.031l3.884 3.883-.992.992z" fill="#121212"/>
        </g>
    </g>
</svg>
