<svg width="47" height="21" viewBox="0 0 47 21" xmlns="http://www.w3.org/2000/svg">
    <g fill="none" fill-rule="evenodd">
        <rect stroke="#121212" stroke-width="1.333" fill="#FFF" x=".667" y=".667" width="45.667" height="19.667" rx="3.556"/>
        <path d="M15.917 4H5.083C4.485 4 4 4.485 4 5.083v10.834C4 16.515 4.485 17 5.083 17h10.834c.598 0 1.083-.485 1.083-1.083V5.083C17 4.485 16.515 4 15.917 4zm-2.325 5.258L9.8 13.05a.542.542 0 0 1-.767 0l-1.625-1.625a.542.542 0 0 1 .767-.767l1.242 1.243 3.408-3.41a.542.542 0 1 1 .767.767z" fill="#121212" fill-rule="nonzero"/>
    </g>
</svg>
