<svg xmlns="http://www.w3.org/2000/svg" width="20" height="20" viewBox="0 0 20 20">
  <g id="_02_User" data-name="02 User" transform="translate(0.006 0.003)">
    <path id="Path_1869" data-name="Path 1869" d="M.971,20A.977.977,0,0,1,.28,18.329L18.325.283a.977.977,0,0,1,1.381,1.381L1.661,19.71A.974.974,0,0,1,.971,20Z" transform="translate(0 0)" fill="#023a43"/>
    <path id="Path_1870" data-name="Path 1870" d="M19.017,20a.974.974,0,0,1-.691-.286L.283,1.664A.977.977,0,1,1,1.664.283L19.708,18.329A.977.977,0,0,1,19.017,20Z" transform="translate(0)" fill="#023a43"/>
  </g>
</svg>
