<svg xmlns="http://www.w3.org/2000/svg" width="16.2" height="16.2" viewBox="0 0 16.2 16.2">
  <g id="copy_6_" data-name="copy (6)" transform="translate(-201.867 -101.878)">
    <g id="Icon" transform="translate(201.967 101.978)">
      <g id="Group_13872" data-name="Group 13872" transform="translate(0 0)">
        <path id="Path_1863" data-name="Path 1863" d="M207.109,134.263v-1.142a1.716,1.716,0,0,0-1.715-1.715h-8a1.716,1.716,0,0,0-1.715,1.715v8a1.716,1.716,0,0,0,1.715,1.715h1.142a.572.572,0,0,0,0-1.143H197.4a.571.571,0,0,1-.572-.572v-8a.571.571,0,0,1,.572-.572h8a.571.571,0,0,1,.572.572v1.142a.572.572,0,1,0,1.143,0Z" transform="translate(-195.681 -131.406)" stroke="#fff" stroke-width="0.2" fill-rule="evenodd"/>
      </g>
      <g id="Group_13873" data-name="Group 13873" transform="translate(4.572 4.572)">
        <path id="Path_1864" data-name="Path 1864" d="M207.109,133.121a1.716,1.716,0,0,0-1.715-1.715h-8a1.716,1.716,0,0,0-1.715,1.715v8a1.716,1.716,0,0,0,1.715,1.715h8a1.716,1.716,0,0,0,1.715-1.715Zm-1.143,0v8a.571.571,0,0,1-.572.572h-8a.571.571,0,0,1-.572-.572v-8a.571.571,0,0,1,.572-.572h8A.571.571,0,0,1,205.966,133.121Z" transform="translate(-195.681 -131.406)" stroke="#fff" stroke-width="0.2" fill-rule="evenodd"/>
      </g>
      <path id="Union_1" data-name="Union 1" d="M-8991.136-3322.715v-2.277h-2.294a.574.574,0,0,1-.571-.573.574.574,0,0,1,.571-.571h2.294v-2.291a.57.57,0,0,1,.57-.571.57.57,0,0,1,.571.571v2.291h2.28a.573.573,0,0,1,.57.571.573.573,0,0,1-.57.573h-2.28v2.277a.572.572,0,0,1-.571.573A.572.572,0,0,1-8991.136-3322.715Z" transform="translate(9000.871 3335.865)" stroke="#fff" stroke-width="0.2"/>
    </g>
  </g>
</svg>
