<svg xmlns="http://www.w3.org/2000/svg" width="16" height="16.147" viewBox="0 0 16 16.147">
  <g id="crop-active" transform="translate(-19422 -6163.853)">
    <rect id="Rectangle_5287" data-name="Rectangle 5287" width="16" height="16" transform="translate(19422 6164)" fill="#fff" opacity="0"/>
    <g id="Group_16433" data-name="Group 16433" transform="translate(19422.559 6164.56)">
      <path id="Path_39076" data-name="Path 39076" d="M1.155,4.621H0V3.466A3.466,3.466,0,0,1,3.466,0H4.621V1.155A3.466,3.466,0,0,1,1.155,4.621Z" transform="translate(4.172 3.267) rotate(-45)" fill="none" stroke="#000" stroke-linecap="round" stroke-linejoin="round" stroke-miterlimit="10" stroke-width="1"/>
      <path id="Path_39077" data-name="Path 39077" d="M1.155,4.621H0V3.466A3.466,3.466,0,0,1,3.466,0H4.621V1.155A3.466,3.466,0,0,1,1.155,4.621Z" transform="translate(0.479 9.465) rotate(-90)" fill="none" stroke="#000" stroke-linecap="round" stroke-linejoin="round" stroke-miterlimit="10" stroke-width="1"/>
      <path id="Path_39078" data-name="Path 39078" d="M1.155,0H0V1.155A3.466,3.466,0,0,0,3.466,4.621H4.621V3.466A3.466,3.466,0,0,0,1.155,0Z" transform="translate(9.779 9.465) rotate(-90)" fill="none" stroke="#000" stroke-linecap="round" stroke-linejoin="round" stroke-miterlimit="10" stroke-width="1"/>
      <line id="Line_5" data-name="Line 5" y2="8.503" transform="translate(7.44 6.377)" fill="none" stroke="#000" stroke-width="1"/>
      <line id="Line_7" data-name="Line 7" x2="2.48" y2="2.48" transform="translate(4.961 9.346)" fill="none" stroke="#000" stroke-width="1"/>
      <line id="Line_8" data-name="Line 8" x1="2.48" y2="2.48" transform="translate(7.44 9.346)" fill="none" stroke="#000" stroke-width="1"/>
      <line id="Line_6" data-name="Line 6" x2="14.88" transform="translate(0 14.88)" fill="none" stroke="#000" stroke-width="1"/>
    </g>
  </g>
</svg>
