<svg width="24" height="17" viewBox="0 0 24 17" xmlns="http://www.w3.org/2000/svg">
    <path d="M20.47 3.654C18.228 1.306 15.178-.009 12 0h-.043C5.365.024 0 5.704 0 12.653v2.558C0 16.199.768 17 1.714 17h20.572c.946 0 1.714-.801 1.714-1.79v-2.684c.009-3.331-1.263-6.527-3.53-8.872zm1.816 11.557H11.112l5.867-8.422a.92.92 0 0 0-.189-1.25.834.834 0 0 0-1.198.196l-6.6 9.476H1.713v-2.558c0-.345.016-.685.046-1.021h2.526c.473 0 .857-.401.857-.895s-.384-.895-.857-.895H2.065C3.17 5.496 6.779 2.21 11.143 1.828v2.646c0 .494.384.894.857.894s.857-.4.857-.894V1.826c4.358.383 8.01 3.597 9.107 8.016h-2.25c-.473 0-.857.4-.857.895 0 .494.384.895.857.895h2.536c.023.296.036.593.036.894v2.685z" fill="#FFF" fill-rule="nonzero"/>
</svg>
