<svg xmlns="http://www.w3.org/2000/svg" xmlns:xlink="http://www.w3.org/1999/xlink" width="24" height="24" viewBox="0 0 24 24">
  <defs>
    <clipPath id="clip-path">
      <rect id="Rectangle_5231" data-name="Rectangle 5231" width="24" height="24" transform="translate(405 1705)" fill="#fff" stroke="#000" stroke-width="1.2"/>
    </clipPath>
  </defs>
  <g id="Mask_Group_51" data-name="Mask Group 51" transform="translate(-405 -1705)" clip-path="url(#clip-path)">
    <g id="certificate_2_" data-name="certificate (2)" transform="translate(405 1704.989)">
      <g id="Group_16389" data-name="Group 16389">
        <line id="Line_415" data-name="Line 415" x2="5.677" transform="translate(5.56 14.148)" fill="none" stroke="#000" stroke-linecap="round" stroke-linejoin="round" stroke-width="1.2"/>
        <line id="Line_416" data-name="Line 416" x2="5.677" transform="translate(5.56 18.443)" fill="none" stroke="#000" stroke-linecap="round" stroke-linejoin="round" stroke-width="1.2"/>
        <line id="Line_417" data-name="Line 417" x2="2.396" transform="translate(5.56 9.852)" fill="none" stroke="#000" stroke-linecap="round" stroke-linejoin="round" stroke-width="1.2"/>
        <line id="Line_418" data-name="Line 418" x2="2.396" transform="translate(5.56 5.557)" fill="none" stroke="#000" stroke-linecap="round" stroke-linejoin="round" stroke-width="1.2"/>
      </g>
      <g id="Group_16390" data-name="Group 16390">
        <circle id="Ellipse_143" data-name="Ellipse 143" cx="3.735" cy="3.735" r="3.735" transform="translate(14.77 11.493)" fill="none" stroke="#000" stroke-linecap="round" stroke-linejoin="round" stroke-width="1.2"/>
        <path id="Path_39092" data-name="Path 39092" d="M21.382,17.779v4.152a1.129,1.129,0,0,1-1.77.93L18.5,22.1l-1.108.763a1.129,1.129,0,0,1-1.77-.93V17.779" fill="none" stroke="#000" stroke-linecap="round" stroke-linejoin="round" stroke-width="1.2"/>
      </g>
      <path id="Path_39093" data-name="Path 39093" d="M18.5,6.805V5.054L14.388.937H4.573A2.812,2.812,0,0,0,1.761,3.75v16.5a2.812,2.812,0,0,0,2.812,2.812H15.692a2.826,2.826,0,0,0,.567-.057" fill="none" stroke="#000" stroke-linecap="round" stroke-linejoin="round" stroke-width="1.2"/>
    </g>
  </g>
</svg>
