<svg xmlns="http://www.w3.org/2000/svg" width="20" height="20" viewBox="0 0 20 20">
  <g id="distributor" transform="translate(-19333 -6164)">
    <rect id="Rectangle_5285" data-name="Rectangle 5285" width="20" height="20" transform="translate(19333 6164)" fill="#023a43" opacity="0"/>
    <g id="trolley-01-stroke-rounded" transform="translate(19331.699 6163.165)">
      <path id="Path_39279" data-name="Path 39279" d="M2,2H3.21c1.1,0,1.654,0,2.028.345s.447.922.592,2.076l1.048,8.3c.194,1.538.291,2.307.79,2.768s1.233.461,2.7.461h9.3" fill="none" stroke="#fff" stroke-linecap="round" stroke-width="1.3"/>
      <circle id="Ellipse_306" data-name="Ellipse 306" cx="1.395" cy="1.395" r="1.395" transform="translate(8.51 16.88)" fill="none" stroke="#fff" stroke-width="1.3"/>
      <circle id="Ellipse_307" data-name="Ellipse 307" cx="1.395" cy="1.395" r="1.395" transform="translate(15.02 16.88)" fill="none" stroke="#fff" stroke-width="1.3"/>
      <path id="Path_39280" data-name="Path 39280" d="M19.44,13.65H13.86c-.877,0-1.315,0-1.588-.34S12,12.421,12,11.325s0-1.644.272-1.985S12.983,9,13.86,9h5.58c.877,0,1.315,0,1.588.34s.272.889.272,1.985,0,1.644-.272,1.985S20.317,13.65,19.44,13.65Z" transform="translate(-0.7 -0.49)" fill="none" stroke="#fff" stroke-linecap="round" stroke-linejoin="round" stroke-width="1.3"/>
      <path id="Path_39281" data-name="Path 39281" d="M17.44,8.65H11.86c-.877,0-1.315,0-1.588-.34S10,7.421,10,6.325s0-1.644.272-1.985S10.983,4,11.86,4h5.58c.877,0,1.315,0,1.588.34s.272.888.272,1.985,0,1.644-.272,1.985S18.317,8.65,17.44,8.65Z" transform="translate(-0.56 -0.14)" fill="none" stroke="#fff" stroke-linecap="round" stroke-linejoin="round" stroke-width="1.3"/>
    </g>
  </g>
</svg>
