<svg xmlns="http://www.w3.org/2000/svg" xmlns:xlink="http://www.w3.org/1999/xlink" width="20" height="20" viewBox="0 0 20 20">
  <defs>
    <clipPath id="clip-path">
      <rect id="Rectangle_5232" data-name="Rectangle 5232" width="20" height="20" transform="translate(92 171)" fill="#fff" stroke="#707070" stroke-width="1"/>
    </clipPath>
  </defs>
  <g id="Mask_Group_47" data-name="Mask Group 47" transform="translate(-92 -171)" clip-path="url(#clip-path)">
    <g id="g7068" transform="translate(92.109 191.109)">
      <g id="g7070" transform="translate(0.391 -19.609)">
        <g id="Group_16388" data-name="Group 16388">
          <g id="g7078" transform="translate(15.293 9.114)">
            <path id="path7080" d="M0,0A.386.386,0,0,1,.382.386.386.386,0,0,1,0,.772.386.386,0,0,1-.391.386.386.386,0,0,1,0,0" transform="translate(0.391)"/>
          </g>
          <g id="g7082" transform="translate(13.748 7.569)">
            <path id="path7084" d="M0,0A.386.386,0,0,1,.382.386.386.386,0,0,1,0,.772.386.386,0,0,1-.391.386.386.386,0,0,1,0,0" transform="translate(0.391)"/>
          </g>
          <g id="g7086" transform="translate(12.976 9.886)">
            <path id="path7088" d="M0,0A.386.386,0,0,1,.382.386.386.386,0,0,1,0,.772.386.386,0,0,1-.391.386.386.386,0,0,1,0,0" transform="translate(0.391)"/>
          </g>
          <g id="g7090" transform="translate(10.659 4.48)">
            <path id="path7092" d="M0,0A.386.386,0,0,1,.382.386.386.386,0,0,1,0,.772.386.386,0,0,1-.391.386.386.386,0,0,1,0,0" transform="translate(0.391)"/>
          </g>
          <g id="g7094" transform="translate(9.886 2.935)">
            <path id="path7096" d="M0,0A.386.386,0,0,1,.382.386.386.386,0,0,1,0,.772.386.386,0,0,1-.391.386.386.386,0,0,1,0,0" transform="translate(0.391)"/>
          </g>
          <g id="g7098" transform="translate(9.886 14.52)">
            <path id="path7100" d="M0,0A.386.386,0,0,1,.382.386.386.386,0,0,1,0,.772.386.386,0,0,1-.391.386.386.386,0,0,1,0,0" transform="translate(0.391)"/>
          </g>
          <g id="g7102" transform="translate(9.114 6.024)">
            <path id="path7104" d="M0,0A.386.386,0,0,1,.382.386.386.386,0,0,1,0,.772.386.386,0,0,1-.391.386.386.386,0,0,1,0,0" transform="translate(0.391)"/>
          </g>
          <g id="g7106" transform="translate(9.114 12.203)">
            <path id="path7108" d="M0,0A.386.386,0,0,1,.382.386.386.386,0,0,1,0,.772.386.386,0,0,1-.391.386.386.386,0,0,1,0,0" transform="translate(0.391)"/>
          </g>
          <g id="g7110" transform="translate(7.569 13.748)">
            <path id="path7112" d="M0,0A.386.386,0,0,1,.382.386.386.386,0,0,1,0,.772.386.386,0,0,1-.391.386.386.386,0,0,1,0,0" transform="translate(0.391)"/>
          </g>
          <g id="g7114" transform="translate(6.024 9.886)">
            <path id="path7116" d="M0,0A.386.386,0,0,1,.382.386.386.386,0,0,1,0,.772.386.386,0,0,1-.391.386.386.386,0,0,1,0,0" transform="translate(0.391)"/>
          </g>
          <g id="g7118" transform="translate(4.48 10.659)">
            <path id="path7120" d="M0,0A.386.386,0,0,1,.382.386.386.386,0,0,1,0,.772.386.386,0,0,1-.391.386.386.386,0,0,1,0,0" transform="translate(0.391)"/>
          </g>
          <g id="g7122" transform="translate(2.935 9.114)">
            <path id="path7124" d="M0,0A.386.386,0,0,1,.382.386.386.386,0,0,1,0,.772.386.386,0,0,1-.391.386.386.386,0,0,1,0,0" transform="translate(0.391)"/>
          </g>
          <g id="g7126" transform="translate(4.749 4.761)">
            <path id="path7128" d="M-.109,0l-9.5,9.5" transform="translate(9.609)" fill="none" stroke="#000" stroke-linecap="round" stroke-linejoin="round" stroke-width="1"/>
          </g>
          <g id="g7130" transform="translate(4.783 5.041)">
            <path id="path7132" d="M-2.414-2.177,7.035,7.038" transform="translate(2.414 2.177)" fill="none" stroke="#000" stroke-linecap="round" stroke-linejoin="round" stroke-width="1"/>
          </g>
          <g id="g7154" transform="translate(0 1.628)">
            <path id="path7156" d="M5.424-5.513-2.443,2.359l9.476,9.5,8.236-8.235" transform="translate(2.443 5.513)" fill="none" stroke="#000" stroke-linecap="round" stroke-linejoin="round" stroke-width="1"/>
          </g>
          <g id="g7158" transform="translate(7.858 0)">
            <path id="path7160" d="M-.114-.123l1.206-1.2-9.524-9.5L-10.05-9.2" transform="translate(10.05 10.826)" fill="none" stroke="#000" stroke-linecap="round" stroke-linejoin="round" stroke-width="1"/>
          </g>
          <g id="g7162" transform="translate(16.181 11.547)">
            <path id="path7164" d="M0,0A.386.386,0,0,0,.386.382.386.386,0,0,0,.772,0,.386.386,0,0,0,.386-.391.386.386,0,0,0,0,0" transform="translate(0 0.391)"/>
          </g>
        </g>
      </g>
    </g>
  </g>
</svg>
