<svg xmlns="http://www.w3.org/2000/svg" xmlns:xlink="http://www.w3.org/1999/xlink" width="15" height="15" viewBox="0 0 15 15">
  <defs>
    <clipPath id="clip-path">
      <rect id="Rectangle_38" data-name="Rectangle 38" width="15" height="15" transform="translate(1216 98)" stroke="#707070" stroke-width="1"/>
    </clipPath>
  </defs>
  <g id="Mask_Group_10" data-name="Mask Group 10" transform="translate(-1216 -98)" clip-path="url(#clip-path)">
    <g id="sort_3_" data-name="sort (3)" transform="translate(1214.5 96.5)">
      <g id="Group_35" data-name="Group 35">
        <path id="Path_24" data-name="Path 24" d="M13.5,9.75h-9a.75.75,0,0,1,0-1.5h9a.75.75,0,0,1,0,1.5Z"/>
      </g>
      <g id="Group_36" data-name="Group 36">
        <path id="Path_25" data-name="Path 25" d="M11.25,14.25H6.75a.75.75,0,0,1,0-1.5h4.5a.75.75,0,0,1,0,1.5Z"/>
      </g>
      <g id="Group_37" data-name="Group 37">
        <path id="Path_26" data-name="Path 26" d="M15.75,5.25H2.25A.709.709,0,0,1,1.5,4.5a.709.709,0,0,1,.75-.75h13.5a.709.709,0,0,1,.75.75A.709.709,0,0,1,15.75,5.25Z"/>
      </g>
    </g>
  </g>
</svg>
