<svg width="14" height="13" viewBox="0 0 14 13" xmlns="http://www.w3.org/2000/svg">
    <path d="M7 3.5a3 3 0 1 0 0 6 3 3 0 0 0 0-6zm0 5a2 2 0 1 1 0-4 2 2 0 0 1 0 4zm6.871-3.3a.5.5 0 0 0-.243-.337l-1.864-1.062-.007-2.1a.5.5 0 0 0-.177-.38A6.994 6.994 0 0 0 9.285.028a.5.5 0 0 0-.404.037l-1.88 1.05L5.118.065a.5.5 0 0 0-.404-.038 7.006 7.006 0 0 0-2.292 1.297.5.5 0 0 0-.177.38l-.01 2.102L.371 4.867a.5.5 0 0 0-.243.338c-.17.857-.17 1.74 0 2.597a.5.5 0 0 0 .243.337l1.864 1.062.008 2.101a.5.5 0 0 0 .177.38 6.994 6.994 0 0 0 2.295 1.292.5.5 0 0 0 .403-.037l1.883-1.054 1.882 1.053a.494.494 0 0 0 .404.036 7.006 7.006 0 0 0 2.293-1.295.5.5 0 0 0 .177-.38l.009-2.102 1.864-1.062a.5.5 0 0 0 .243-.338 6.652 6.652 0 0 0-.002-2.594zm-.937 2.182-1.786 1.016a.5.5 0 0 0-.187.187c-.036.063-.074.129-.113.191a.496.496 0 0 0-.076.263l-.01 2.016a5.993 5.993 0 0 1-1.585.893l-1.801-1.003a.5.5 0 0 0-.245-.063H6.892a.505.505 0 0 0-.256.063L4.833 11.95a6 6 0 0 1-1.59-.89L3.236 9.05a.5.5 0 0 0-.076-.263 3.571 3.571 0 0 1-.112-.191.506.506 0 0 0-.188-.192L1.073 7.385a5.654 5.654 0 0 1 0-1.765l1.782-1.018a.5.5 0 0 0 .188-.187c.036-.063.074-.129.113-.191a.496.496 0 0 0 .076-.264l.01-2.015a5.993 5.993 0 0 1 1.585-.893l1.799 1.003a.5.5 0 0 0 .256.063h.227c.09.002.178-.02.257-.063L9.168 1.05a6 6 0 0 1 1.59.89l.007 2.011a.5.5 0 0 0 .076.264c.039.063.077.125.112.191.045.08.11.146.188.192l1.787 1.018c.094.585.095 1.181.003 1.767h.003z" fill="#121212" fill-rule="nonzero"/>
</svg>
