<svg xmlns="http://www.w3.org/2000/svg" xmlns:xlink="http://www.w3.org/1999/xlink" width="720" height="768" viewBox="0 0 720 768">
  <defs>
    <linearGradient id="linear-gradient" x1="0.5" x2="0.5" y2="1" gradientUnits="objectBoundingBox">
      <stop offset="0" stop-color="#023a43"/>
      <stop offset="1" stop-color="#0b2b2e"/>
    </linearGradient>
    <clipPath id="clip-path">
      <path id="Rectangle_5275" data-name="Rectangle 5275" d="M8,0H720a0,0,0,0,1,0,0V768a0,0,0,0,1,0,0H8a8,8,0,0,1-8-8V8A8,8,0,0,1,8,0Z" transform="translate(720)" fill="url(#linear-gradient)"/>
    </clipPath>
  </defs>
  <g id="Mask_Group_736" data-name="Mask Group 736" transform="translate(-720)" clip-path="url(#clip-path)">
    <g id="Group_16426" data-name="Group 16426" transform="translate(-31)">
      <path id="grass_1_" data-name="grass (1)" d="M82.043,52.659a89.049,89.049,0,0,0-3.469-10.636,124.675,124.675,0,0,1,4.875-16.265v-.011A1.2,1.2,0,0,0,81.364,24.6a70.327,70.327,0,0,0-6.629,9.271q-1.165-2.119-2.446-4.084a135.5,135.5,0,0,1,4.218-13.175c.008-.017.01-.036.017-.053a1.194,1.194,0,0,0-1.116-1.624,1.3,1.3,0,0,0-.949.471,80.034,80.034,0,0,0-6.408,8.666,48.345,48.345,0,0,0-18.5-13.713,1.2,1.2,0,0,0-1.244,2.015c.153.132,8.2,7.249,14.826,20.445a99.018,99.018,0,0,0-7.927,23.62,103.821,103.821,0,0,0-4.093-14.558,123.66,123.66,0,0,1,4.838-16.116.022.022,0,0,1,0-.016,1.2,1.2,0,0,0-1.11-1.645,1.267,1.267,0,0,0-.972.5,69.667,69.667,0,0,0-6.328,8.771q-.992-2.072-2.069-4.043a53.767,53.767,0,0,1,7.359-8.549,1.2,1.2,0,0,0-1.244-2.015,41.652,41.652,0,0,0-9.233,5.32,80.135,80.135,0,0,0-6.447-8.716l-.017-.016a1.169,1.169,0,0,0-1.837.056l-.011.014a1.193,1.193,0,0,0-.16,1.158c.005.014.006.03.012.045.329.838,1.948,5.075,3.776,11.575a48.567,48.567,0,0,0-5.092,6.119c-3.887-8.613-9.3-16.584-12.808-20.374A1.2,1.2,0,0,0,17.8,15.23a163.788,163.788,0,0,1,8.174,31.419A77.608,77.608,0,0,0,23.2,54.9,76.266,76.266,0,0,0,7.726,24.538l-.005,0a1.19,1.19,0,0,0-1.74-.1A1.3,1.3,0,0,0,5.7,25.76c.445,1.124,10.844,27.882,8.15,56.833a1.2,1.2,0,0,0,1.194,1.31H84.415a1.2,1.2,0,0,0,1.2-1.148,115.3,115.3,0,0,0-3.571-30.1ZM78.8,31.965c-.563,1.838-1.177,3.979-1.8,6.4q-.467-1.013-.955-2,1.3-2.261,2.752-4.4Zm-6.93-9.273c-.424,1.344-.88,2.855-1.352,4.518-.288-.4-.579-.789-.875-1.174q1.075-1.707,2.227-3.344ZM50.121,46.412a105.668,105.668,0,0,1,3.871,16.972A103.179,103.179,0,0,0,52.95,81.5H47.713A127.494,127.494,0,0,1,50.121,46.412Zm-4.05-10.534c-.994,1.775-1.925,3.621-2.794,5.519-.424-2.17-.891-4.339-1.4-6.488.691-1.19,1.386-2.309,2.073-3.354C44.692,32.958,45.4,34.4,46.071,35.878ZM38.92,53.271c-.617-2.648-1.307-5.241-2.089-7.749a71.713,71.713,0,0,1,3.312-7.44c.532,2.428,1.012,4.873,1.433,7.3C40.576,47.925,39.694,50.566,38.92,53.271ZM38.541,22.7q1,1.42,1.943,2.9c-.284.242-.567.486-.845.736-.381-1.317-.75-2.532-1.1-3.634Zm7.774,1.529C33.887,39.286,27.634,59.7,30.505,81.5H22.083C22.053,74.661,23.053,39.186,46.314,24.227ZM22.437,21.3a85.617,85.617,0,0,1,8.576,15.378,59.507,59.507,0,0,0-3.289,5.989A177.729,177.729,0,0,0,22.437,21.3ZM10.3,31.866A78.408,78.408,0,0,1,21.949,60,102.106,102.106,0,0,0,19.677,81.5H16.35C17.989,61.024,13.338,41.8,10.3,31.866ZM32.93,81.5a73.264,73.264,0,0,1,2.548-32.077c.829,3,1.548,6.1,2.134,9.259a.26.26,0,0,0,.008.051A107.146,107.146,0,0,1,39.389,81.5Zm8.865,0a108.006,108.006,0,0,0-1.771-22.948A77.871,77.871,0,0,1,51.307,31.963C46.584,47.4,43.987,65.136,45.3,81.5Zm13.558,0a104.928,104.928,0,0,1,9.122-45.9c.9,1.981,1.762,4.085,2.556,6.3a162.179,162.179,0,0,0-2.568,19.514A92.327,92.327,0,0,0,62.8,81.5Zm9.85,0a91.962,91.962,0,0,1,4.454-30.659A84.187,84.187,0,0,1,70.921,81.5Zm18.037,0h-9.9c3.411-25.52-4.248-48.971-18.506-65.768,14.671,8.989,21.6,24.939,24.869,37.467a114.633,114.633,0,0,1,3.536,28.3Z" transform="translate(714.375 684.097)" opacity="0.119"/>
      <path id="grass_1_2" data-name="grass (1)" d="M82.043,52.659a89.049,89.049,0,0,0-3.469-10.636,124.675,124.675,0,0,1,4.875-16.265v-.011A1.2,1.2,0,0,0,81.364,24.6a70.327,70.327,0,0,0-6.629,9.271q-1.165-2.119-2.446-4.084a135.5,135.5,0,0,1,4.218-13.175c.008-.017.01-.036.017-.053a1.194,1.194,0,0,0-1.116-1.624,1.3,1.3,0,0,0-.949.471,80.034,80.034,0,0,0-6.408,8.666,48.345,48.345,0,0,0-18.5-13.713,1.2,1.2,0,0,0-1.244,2.015c.153.132,8.2,7.249,14.826,20.445a99.018,99.018,0,0,0-7.927,23.62,103.821,103.821,0,0,0-4.093-14.558,123.66,123.66,0,0,1,4.838-16.116.022.022,0,0,1,0-.016,1.2,1.2,0,0,0-1.11-1.645,1.267,1.267,0,0,0-.972.5,69.667,69.667,0,0,0-6.328,8.771q-.992-2.072-2.069-4.043a53.767,53.767,0,0,1,7.359-8.549,1.2,1.2,0,0,0-1.244-2.015,41.652,41.652,0,0,0-9.233,5.32,80.135,80.135,0,0,0-6.447-8.716l-.017-.016a1.169,1.169,0,0,0-1.837.056l-.011.014a1.193,1.193,0,0,0-.16,1.158c.005.014.006.03.012.045.329.838,1.948,5.075,3.776,11.575a48.567,48.567,0,0,0-5.092,6.119c-3.887-8.613-9.3-16.584-12.808-20.374A1.2,1.2,0,0,0,17.8,15.23a163.788,163.788,0,0,1,8.174,31.419A77.608,77.608,0,0,0,23.2,54.9,76.266,76.266,0,0,0,7.726,24.538l-.005,0a1.19,1.19,0,0,0-1.74-.1A1.3,1.3,0,0,0,5.7,25.76c.445,1.124,10.844,27.882,8.15,56.833a1.2,1.2,0,0,0,1.194,1.31H84.415a1.2,1.2,0,0,0,1.2-1.148,115.3,115.3,0,0,0-3.571-30.1ZM78.8,31.965c-.563,1.838-1.177,3.979-1.8,6.4q-.467-1.013-.955-2,1.3-2.261,2.752-4.4Zm-6.93-9.273c-.424,1.344-.88,2.855-1.352,4.518-.288-.4-.579-.789-.875-1.174q1.075-1.707,2.227-3.344ZM50.121,46.412a105.668,105.668,0,0,1,3.871,16.972A103.179,103.179,0,0,0,52.95,81.5H47.713A127.494,127.494,0,0,1,50.121,46.412Zm-4.05-10.534c-.994,1.775-1.925,3.621-2.794,5.519-.424-2.17-.891-4.339-1.4-6.488.691-1.19,1.386-2.309,2.073-3.354C44.692,32.958,45.4,34.4,46.071,35.878ZM38.92,53.271c-.617-2.648-1.307-5.241-2.089-7.749a71.713,71.713,0,0,1,3.312-7.44c.532,2.428,1.012,4.873,1.433,7.3C40.576,47.925,39.694,50.566,38.92,53.271ZM38.541,22.7q1,1.42,1.943,2.9c-.284.242-.567.486-.845.736-.381-1.317-.75-2.532-1.1-3.634Zm7.774,1.529C33.887,39.286,27.634,59.7,30.505,81.5H22.083C22.053,74.661,23.053,39.186,46.314,24.227ZM22.437,21.3a85.617,85.617,0,0,1,8.576,15.378,59.507,59.507,0,0,0-3.289,5.989A177.729,177.729,0,0,0,22.437,21.3ZM10.3,31.866A78.408,78.408,0,0,1,21.949,60,102.106,102.106,0,0,0,19.677,81.5H16.35C17.989,61.024,13.338,41.8,10.3,31.866ZM32.93,81.5a73.264,73.264,0,0,1,2.548-32.077c.829,3,1.548,6.1,2.134,9.259a.26.26,0,0,0,.008.051A107.146,107.146,0,0,1,39.389,81.5Zm8.865,0a108.006,108.006,0,0,0-1.771-22.948A77.871,77.871,0,0,1,51.307,31.963C46.584,47.4,43.987,65.136,45.3,81.5Zm13.558,0a104.928,104.928,0,0,1,9.122-45.9c.9,1.981,1.762,4.085,2.556,6.3a162.179,162.179,0,0,0-2.568,19.514A92.327,92.327,0,0,0,62.8,81.5Zm9.85,0a91.962,91.962,0,0,1,4.454-30.659A84.187,84.187,0,0,1,70.921,81.5Zm18.037,0h-9.9c3.411-25.52-4.248-48.971-18.506-65.768,14.671,8.989,21.6,24.939,24.869,37.467a114.633,114.633,0,0,1,3.536,28.3Z" transform="translate(870.375 684.097)" opacity="0.119"/>
      <path id="grass_1_3" data-name="grass (1)" d="M82.043,52.659a89.049,89.049,0,0,0-3.469-10.636,124.675,124.675,0,0,1,4.875-16.265v-.011A1.2,1.2,0,0,0,81.364,24.6a70.327,70.327,0,0,0-6.629,9.271q-1.165-2.119-2.446-4.084a135.5,135.5,0,0,1,4.218-13.175c.008-.017.01-.036.017-.053a1.194,1.194,0,0,0-1.116-1.624,1.3,1.3,0,0,0-.949.471,80.034,80.034,0,0,0-6.408,8.666,48.345,48.345,0,0,0-18.5-13.713,1.2,1.2,0,0,0-1.244,2.015c.153.132,8.2,7.249,14.826,20.445a99.018,99.018,0,0,0-7.927,23.62,103.821,103.821,0,0,0-4.093-14.558,123.66,123.66,0,0,1,4.838-16.116.022.022,0,0,1,0-.016,1.2,1.2,0,0,0-1.11-1.645,1.267,1.267,0,0,0-.972.5,69.667,69.667,0,0,0-6.328,8.771q-.992-2.072-2.069-4.043a53.767,53.767,0,0,1,7.359-8.549,1.2,1.2,0,0,0-1.244-2.015,41.652,41.652,0,0,0-9.233,5.32,80.135,80.135,0,0,0-6.447-8.716l-.017-.016a1.169,1.169,0,0,0-1.837.056l-.011.014a1.193,1.193,0,0,0-.16,1.158c.005.014.006.03.012.045.329.838,1.948,5.075,3.776,11.575a48.567,48.567,0,0,0-5.092,6.119c-3.887-8.613-9.3-16.584-12.808-20.374A1.2,1.2,0,0,0,17.8,15.23a163.788,163.788,0,0,1,8.174,31.419A77.608,77.608,0,0,0,23.2,54.9,76.266,76.266,0,0,0,7.726,24.538l-.005,0a1.19,1.19,0,0,0-1.74-.1A1.3,1.3,0,0,0,5.7,25.76c.445,1.124,10.844,27.882,8.15,56.833a1.2,1.2,0,0,0,1.194,1.31H84.415a1.2,1.2,0,0,0,1.2-1.148,115.3,115.3,0,0,0-3.571-30.1ZM78.8,31.965c-.563,1.838-1.177,3.979-1.8,6.4q-.467-1.013-.955-2,1.3-2.261,2.752-4.4Zm-6.93-9.273c-.424,1.344-.88,2.855-1.352,4.518-.288-.4-.579-.789-.875-1.174q1.075-1.707,2.227-3.344ZM50.121,46.412a105.668,105.668,0,0,1,3.871,16.972A103.179,103.179,0,0,0,52.95,81.5H47.713A127.494,127.494,0,0,1,50.121,46.412Zm-4.05-10.534c-.994,1.775-1.925,3.621-2.794,5.519-.424-2.17-.891-4.339-1.4-6.488.691-1.19,1.386-2.309,2.073-3.354C44.692,32.958,45.4,34.4,46.071,35.878ZM38.92,53.271c-.617-2.648-1.307-5.241-2.089-7.749a71.713,71.713,0,0,1,3.312-7.44c.532,2.428,1.012,4.873,1.433,7.3C40.576,47.925,39.694,50.566,38.92,53.271ZM38.541,22.7q1,1.42,1.943,2.9c-.284.242-.567.486-.845.736-.381-1.317-.75-2.532-1.1-3.634Zm7.774,1.529C33.887,39.286,27.634,59.7,30.505,81.5H22.083C22.053,74.661,23.053,39.186,46.314,24.227ZM22.437,21.3a85.617,85.617,0,0,1,8.576,15.378,59.507,59.507,0,0,0-3.289,5.989A177.729,177.729,0,0,0,22.437,21.3ZM10.3,31.866A78.408,78.408,0,0,1,21.949,60,102.106,102.106,0,0,0,19.677,81.5H16.35C17.989,61.024,13.338,41.8,10.3,31.866ZM32.93,81.5a73.264,73.264,0,0,1,2.548-32.077c.829,3,1.548,6.1,2.134,9.259a.26.26,0,0,0,.008.051A107.146,107.146,0,0,1,39.389,81.5Zm8.865,0a108.006,108.006,0,0,0-1.771-22.948A77.871,77.871,0,0,1,51.307,31.963C46.584,47.4,43.987,65.136,45.3,81.5Zm13.558,0a104.928,104.928,0,0,1,9.122-45.9c.9,1.981,1.762,4.085,2.556,6.3a162.179,162.179,0,0,0-2.568,19.514A92.327,92.327,0,0,0,62.8,81.5Zm9.85,0a91.962,91.962,0,0,1,4.454-30.659A84.187,84.187,0,0,1,70.921,81.5Zm18.037,0h-9.9c3.411-25.52-4.248-48.971-18.506-65.768,14.671,8.989,21.6,24.939,24.869,37.467a114.633,114.633,0,0,1,3.536,28.3Z" transform="translate(1026.375 684.097)" opacity="0.119"/>
      <path id="grass_1_4" data-name="grass (1)" d="M82.043,52.659a89.049,89.049,0,0,0-3.469-10.636,124.675,124.675,0,0,1,4.875-16.265v-.011A1.2,1.2,0,0,0,81.364,24.6a70.327,70.327,0,0,0-6.629,9.271q-1.165-2.119-2.446-4.084a135.5,135.5,0,0,1,4.218-13.175c.008-.017.01-.036.017-.053a1.194,1.194,0,0,0-1.116-1.624,1.3,1.3,0,0,0-.949.471,80.034,80.034,0,0,0-6.408,8.666,48.345,48.345,0,0,0-18.5-13.713,1.2,1.2,0,0,0-1.244,2.015c.153.132,8.2,7.249,14.826,20.445a99.018,99.018,0,0,0-7.927,23.62,103.821,103.821,0,0,0-4.093-14.558,123.66,123.66,0,0,1,4.838-16.116.022.022,0,0,1,0-.016,1.2,1.2,0,0,0-1.11-1.645,1.267,1.267,0,0,0-.972.5,69.667,69.667,0,0,0-6.328,8.771q-.992-2.072-2.069-4.043a53.767,53.767,0,0,1,7.359-8.549,1.2,1.2,0,0,0-1.244-2.015,41.652,41.652,0,0,0-9.233,5.32,80.135,80.135,0,0,0-6.447-8.716l-.017-.016a1.169,1.169,0,0,0-1.837.056l-.011.014a1.193,1.193,0,0,0-.16,1.158c.005.014.006.03.012.045.329.838,1.948,5.075,3.776,11.575a48.567,48.567,0,0,0-5.092,6.119c-3.887-8.613-9.3-16.584-12.808-20.374A1.2,1.2,0,0,0,17.8,15.23a163.788,163.788,0,0,1,8.174,31.419A77.608,77.608,0,0,0,23.2,54.9,76.266,76.266,0,0,0,7.726,24.538l-.005,0a1.19,1.19,0,0,0-1.74-.1A1.3,1.3,0,0,0,5.7,25.76c.445,1.124,10.844,27.882,8.15,56.833a1.2,1.2,0,0,0,1.194,1.31H84.415a1.2,1.2,0,0,0,1.2-1.148,115.3,115.3,0,0,0-3.571-30.1ZM78.8,31.965c-.563,1.838-1.177,3.979-1.8,6.4q-.467-1.013-.955-2,1.3-2.261,2.752-4.4Zm-6.93-9.273c-.424,1.344-.88,2.855-1.352,4.518-.288-.4-.579-.789-.875-1.174q1.075-1.707,2.227-3.344ZM50.121,46.412a105.668,105.668,0,0,1,3.871,16.972A103.179,103.179,0,0,0,52.95,81.5H47.713A127.494,127.494,0,0,1,50.121,46.412Zm-4.05-10.534c-.994,1.775-1.925,3.621-2.794,5.519-.424-2.17-.891-4.339-1.4-6.488.691-1.19,1.386-2.309,2.073-3.354C44.692,32.958,45.4,34.4,46.071,35.878ZM38.92,53.271c-.617-2.648-1.307-5.241-2.089-7.749a71.713,71.713,0,0,1,3.312-7.44c.532,2.428,1.012,4.873,1.433,7.3C40.576,47.925,39.694,50.566,38.92,53.271ZM38.541,22.7q1,1.42,1.943,2.9c-.284.242-.567.486-.845.736-.381-1.317-.75-2.532-1.1-3.634Zm7.774,1.529C33.887,39.286,27.634,59.7,30.505,81.5H22.083C22.053,74.661,23.053,39.186,46.314,24.227ZM22.437,21.3a85.617,85.617,0,0,1,8.576,15.378,59.507,59.507,0,0,0-3.289,5.989A177.729,177.729,0,0,0,22.437,21.3ZM10.3,31.866A78.408,78.408,0,0,1,21.949,60,102.106,102.106,0,0,0,19.677,81.5H16.35C17.989,61.024,13.338,41.8,10.3,31.866ZM32.93,81.5a73.264,73.264,0,0,1,2.548-32.077c.829,3,1.548,6.1,2.134,9.259a.26.26,0,0,0,.008.051A107.146,107.146,0,0,1,39.389,81.5Zm8.865,0a108.006,108.006,0,0,0-1.771-22.948A77.871,77.871,0,0,1,51.307,31.963C46.584,47.4,43.987,65.136,45.3,81.5Zm13.558,0a104.928,104.928,0,0,1,9.122-45.9c.9,1.981,1.762,4.085,2.556,6.3a162.179,162.179,0,0,0-2.568,19.514A92.327,92.327,0,0,0,62.8,81.5Zm9.85,0a91.962,91.962,0,0,1,4.454-30.659A84.187,84.187,0,0,1,70.921,81.5Zm18.037,0h-9.9c3.411-25.52-4.248-48.971-18.506-65.768,14.671,8.989,21.6,24.939,24.869,37.467a114.633,114.633,0,0,1,3.536,28.3Z" transform="translate(1182.375 684.097)" opacity="0.119"/>
      <path id="grass_1_5" data-name="grass (1)" d="M82.043,52.659a89.049,89.049,0,0,0-3.469-10.636,124.675,124.675,0,0,1,4.875-16.265v-.011A1.2,1.2,0,0,0,81.364,24.6a70.327,70.327,0,0,0-6.629,9.271q-1.165-2.119-2.446-4.084a135.5,135.5,0,0,1,4.218-13.175c.008-.017.01-.036.017-.053a1.194,1.194,0,0,0-1.116-1.624,1.3,1.3,0,0,0-.949.471,80.034,80.034,0,0,0-6.408,8.666,48.345,48.345,0,0,0-18.5-13.713,1.2,1.2,0,0,0-1.244,2.015c.153.132,8.2,7.249,14.826,20.445a99.018,99.018,0,0,0-7.927,23.62,103.821,103.821,0,0,0-4.093-14.558,123.66,123.66,0,0,1,4.838-16.116.022.022,0,0,1,0-.016,1.2,1.2,0,0,0-1.11-1.645,1.267,1.267,0,0,0-.972.5,69.667,69.667,0,0,0-6.328,8.771q-.992-2.072-2.069-4.043a53.767,53.767,0,0,1,7.359-8.549,1.2,1.2,0,0,0-1.244-2.015,41.652,41.652,0,0,0-9.233,5.32,80.135,80.135,0,0,0-6.447-8.716l-.017-.016a1.169,1.169,0,0,0-1.837.056l-.011.014a1.193,1.193,0,0,0-.16,1.158c.005.014.006.03.012.045.329.838,1.948,5.075,3.776,11.575a48.567,48.567,0,0,0-5.092,6.119c-3.887-8.613-9.3-16.584-12.808-20.374A1.2,1.2,0,0,0,17.8,15.23a163.788,163.788,0,0,1,8.174,31.419A77.608,77.608,0,0,0,23.2,54.9,76.266,76.266,0,0,0,7.726,24.538l-.005,0a1.19,1.19,0,0,0-1.74-.1A1.3,1.3,0,0,0,5.7,25.76c.445,1.124,10.844,27.882,8.15,56.833a1.2,1.2,0,0,0,1.194,1.31H84.415a1.2,1.2,0,0,0,1.2-1.148,115.3,115.3,0,0,0-3.571-30.1ZM78.8,31.965c-.563,1.838-1.177,3.979-1.8,6.4q-.467-1.013-.955-2,1.3-2.261,2.752-4.4Zm-6.93-9.273c-.424,1.344-.88,2.855-1.352,4.518-.288-.4-.579-.789-.875-1.174q1.075-1.707,2.227-3.344ZM50.121,46.412a105.668,105.668,0,0,1,3.871,16.972A103.179,103.179,0,0,0,52.95,81.5H47.713A127.494,127.494,0,0,1,50.121,46.412Zm-4.05-10.534c-.994,1.775-1.925,3.621-2.794,5.519-.424-2.17-.891-4.339-1.4-6.488.691-1.19,1.386-2.309,2.073-3.354C44.692,32.958,45.4,34.4,46.071,35.878ZM38.92,53.271c-.617-2.648-1.307-5.241-2.089-7.749a71.713,71.713,0,0,1,3.312-7.44c.532,2.428,1.012,4.873,1.433,7.3C40.576,47.925,39.694,50.566,38.92,53.271ZM38.541,22.7q1,1.42,1.943,2.9c-.284.242-.567.486-.845.736-.381-1.317-.75-2.532-1.1-3.634Zm7.774,1.529C33.887,39.286,27.634,59.7,30.505,81.5H22.083C22.053,74.661,23.053,39.186,46.314,24.227ZM22.437,21.3a85.617,85.617,0,0,1,8.576,15.378,59.507,59.507,0,0,0-3.289,5.989A177.729,177.729,0,0,0,22.437,21.3ZM10.3,31.866A78.408,78.408,0,0,1,21.949,60,102.106,102.106,0,0,0,19.677,81.5H16.35C17.989,61.024,13.338,41.8,10.3,31.866ZM32.93,81.5a73.264,73.264,0,0,1,2.548-32.077c.829,3,1.548,6.1,2.134,9.259a.26.26,0,0,0,.008.051A107.146,107.146,0,0,1,39.389,81.5Zm8.865,0a108.006,108.006,0,0,0-1.771-22.948A77.871,77.871,0,0,1,51.307,31.963C46.584,47.4,43.987,65.136,45.3,81.5Zm13.558,0a104.928,104.928,0,0,1,9.122-45.9c.9,1.981,1.762,4.085,2.556,6.3a162.179,162.179,0,0,0-2.568,19.514A92.327,92.327,0,0,0,62.8,81.5Zm9.85,0a91.962,91.962,0,0,1,4.454-30.659A84.187,84.187,0,0,1,70.921,81.5Zm18.037,0h-9.9c3.411-25.52-4.248-48.971-18.506-65.768,14.671,8.989,21.6,24.939,24.869,37.467a114.633,114.633,0,0,1,3.536,28.3Z" transform="translate(1338.375 684.097)" opacity="0.119"/>
      <path id="grass_1_6" data-name="grass (1)" d="M82.043,52.659a89.049,89.049,0,0,0-3.469-10.636,124.675,124.675,0,0,1,4.875-16.265v-.011A1.2,1.2,0,0,0,81.364,24.6a70.327,70.327,0,0,0-6.629,9.271q-1.165-2.119-2.446-4.084a135.5,135.5,0,0,1,4.218-13.175c.008-.017.01-.036.017-.053a1.194,1.194,0,0,0-1.116-1.624,1.3,1.3,0,0,0-.949.471,80.034,80.034,0,0,0-6.408,8.666,48.345,48.345,0,0,0-18.5-13.713,1.2,1.2,0,0,0-1.244,2.015c.153.132,8.2,7.249,14.826,20.445a99.018,99.018,0,0,0-7.927,23.62,103.821,103.821,0,0,0-4.093-14.558,123.66,123.66,0,0,1,4.838-16.116.022.022,0,0,1,0-.016,1.2,1.2,0,0,0-1.11-1.645,1.267,1.267,0,0,0-.972.5,69.667,69.667,0,0,0-6.328,8.771q-.992-2.072-2.069-4.043a53.767,53.767,0,0,1,7.359-8.549,1.2,1.2,0,0,0-1.244-2.015,41.652,41.652,0,0,0-9.233,5.32,80.135,80.135,0,0,0-6.447-8.716l-.017-.016a1.169,1.169,0,0,0-1.837.056l-.011.014a1.193,1.193,0,0,0-.16,1.158c.005.014.006.03.012.045.329.838,1.948,5.075,3.776,11.575a48.567,48.567,0,0,0-5.092,6.119c-3.887-8.613-9.3-16.584-12.808-20.374A1.2,1.2,0,0,0,17.8,15.23a163.788,163.788,0,0,1,8.174,31.419A77.608,77.608,0,0,0,23.2,54.9,76.266,76.266,0,0,0,7.726,24.538l-.005,0a1.19,1.19,0,0,0-1.74-.1A1.3,1.3,0,0,0,5.7,25.76c.445,1.124,10.844,27.882,8.15,56.833a1.2,1.2,0,0,0,1.194,1.31H84.415a1.2,1.2,0,0,0,1.2-1.148,115.3,115.3,0,0,0-3.571-30.1ZM78.8,31.965c-.563,1.838-1.177,3.979-1.8,6.4q-.467-1.013-.955-2,1.3-2.261,2.752-4.4Zm-6.93-9.273c-.424,1.344-.88,2.855-1.352,4.518-.288-.4-.579-.789-.875-1.174q1.075-1.707,2.227-3.344ZM50.121,46.412a105.668,105.668,0,0,1,3.871,16.972A103.179,103.179,0,0,0,52.95,81.5H47.713A127.494,127.494,0,0,1,50.121,46.412Zm-4.05-10.534c-.994,1.775-1.925,3.621-2.794,5.519-.424-2.17-.891-4.339-1.4-6.488.691-1.19,1.386-2.309,2.073-3.354C44.692,32.958,45.4,34.4,46.071,35.878ZM38.92,53.271c-.617-2.648-1.307-5.241-2.089-7.749a71.713,71.713,0,0,1,3.312-7.44c.532,2.428,1.012,4.873,1.433,7.3C40.576,47.925,39.694,50.566,38.92,53.271ZM38.541,22.7q1,1.42,1.943,2.9c-.284.242-.567.486-.845.736-.381-1.317-.75-2.532-1.1-3.634Zm7.774,1.529C33.887,39.286,27.634,59.7,30.505,81.5H22.083C22.053,74.661,23.053,39.186,46.314,24.227ZM22.437,21.3a85.617,85.617,0,0,1,8.576,15.378,59.507,59.507,0,0,0-3.289,5.989A177.729,177.729,0,0,0,22.437,21.3ZM10.3,31.866A78.408,78.408,0,0,1,21.949,60,102.106,102.106,0,0,0,19.677,81.5H16.35C17.989,61.024,13.338,41.8,10.3,31.866ZM32.93,81.5a73.264,73.264,0,0,1,2.548-32.077c.829,3,1.548,6.1,2.134,9.259a.26.26,0,0,0,.008.051A107.146,107.146,0,0,1,39.389,81.5Zm8.865,0a108.006,108.006,0,0,0-1.771-22.948A77.871,77.871,0,0,1,51.307,31.963C46.584,47.4,43.987,65.136,45.3,81.5Zm13.558,0a104.928,104.928,0,0,1,9.122-45.9c.9,1.981,1.762,4.085,2.556,6.3a162.179,162.179,0,0,0-2.568,19.514A92.327,92.327,0,0,0,62.8,81.5Zm9.85,0a91.962,91.962,0,0,1,4.454-30.659A84.187,84.187,0,0,1,70.921,81.5Zm18.037,0h-9.9c3.411-25.52-4.248-48.971-18.506-65.768,14.671,8.989,21.6,24.939,24.869,37.467a114.633,114.633,0,0,1,3.536,28.3Z" transform="translate(792.375 684.097)" opacity="0.119"/>
      <path id="grass_1_7" data-name="grass (1)" d="M82.043,52.659a89.049,89.049,0,0,0-3.469-10.636,124.675,124.675,0,0,1,4.875-16.265v-.011A1.2,1.2,0,0,0,81.364,24.6a70.327,70.327,0,0,0-6.629,9.271q-1.165-2.119-2.446-4.084a135.5,135.5,0,0,1,4.218-13.175c.008-.017.01-.036.017-.053a1.194,1.194,0,0,0-1.116-1.624,1.3,1.3,0,0,0-.949.471,80.034,80.034,0,0,0-6.408,8.666,48.345,48.345,0,0,0-18.5-13.713,1.2,1.2,0,0,0-1.244,2.015c.153.132,8.2,7.249,14.826,20.445a99.018,99.018,0,0,0-7.927,23.62,103.821,103.821,0,0,0-4.093-14.558,123.66,123.66,0,0,1,4.838-16.116.022.022,0,0,1,0-.016,1.2,1.2,0,0,0-1.11-1.645,1.267,1.267,0,0,0-.972.5,69.667,69.667,0,0,0-6.328,8.771q-.992-2.072-2.069-4.043a53.767,53.767,0,0,1,7.359-8.549,1.2,1.2,0,0,0-1.244-2.015,41.652,41.652,0,0,0-9.233,5.32,80.135,80.135,0,0,0-6.447-8.716l-.017-.016a1.169,1.169,0,0,0-1.837.056l-.011.014a1.193,1.193,0,0,0-.16,1.158c.005.014.006.03.012.045.329.838,1.948,5.075,3.776,11.575a48.567,48.567,0,0,0-5.092,6.119c-3.887-8.613-9.3-16.584-12.808-20.374A1.2,1.2,0,0,0,17.8,15.23a163.788,163.788,0,0,1,8.174,31.419A77.608,77.608,0,0,0,23.2,54.9,76.266,76.266,0,0,0,7.726,24.538l-.005,0a1.19,1.19,0,0,0-1.74-.1A1.3,1.3,0,0,0,5.7,25.76c.445,1.124,10.844,27.882,8.15,56.833a1.2,1.2,0,0,0,1.194,1.31H84.415a1.2,1.2,0,0,0,1.2-1.148,115.3,115.3,0,0,0-3.571-30.1ZM78.8,31.965c-.563,1.838-1.177,3.979-1.8,6.4q-.467-1.013-.955-2,1.3-2.261,2.752-4.4Zm-6.93-9.273c-.424,1.344-.88,2.855-1.352,4.518-.288-.4-.579-.789-.875-1.174q1.075-1.707,2.227-3.344ZM50.121,46.412a105.668,105.668,0,0,1,3.871,16.972A103.179,103.179,0,0,0,52.95,81.5H47.713A127.494,127.494,0,0,1,50.121,46.412Zm-4.05-10.534c-.994,1.775-1.925,3.621-2.794,5.519-.424-2.17-.891-4.339-1.4-6.488.691-1.19,1.386-2.309,2.073-3.354C44.692,32.958,45.4,34.4,46.071,35.878ZM38.92,53.271c-.617-2.648-1.307-5.241-2.089-7.749a71.713,71.713,0,0,1,3.312-7.44c.532,2.428,1.012,4.873,1.433,7.3C40.576,47.925,39.694,50.566,38.92,53.271ZM38.541,22.7q1,1.42,1.943,2.9c-.284.242-.567.486-.845.736-.381-1.317-.75-2.532-1.1-3.634Zm7.774,1.529C33.887,39.286,27.634,59.7,30.505,81.5H22.083C22.053,74.661,23.053,39.186,46.314,24.227ZM22.437,21.3a85.617,85.617,0,0,1,8.576,15.378,59.507,59.507,0,0,0-3.289,5.989A177.729,177.729,0,0,0,22.437,21.3ZM10.3,31.866A78.408,78.408,0,0,1,21.949,60,102.106,102.106,0,0,0,19.677,81.5H16.35C17.989,61.024,13.338,41.8,10.3,31.866ZM32.93,81.5a73.264,73.264,0,0,1,2.548-32.077c.829,3,1.548,6.1,2.134,9.259a.26.26,0,0,0,.008.051A107.146,107.146,0,0,1,39.389,81.5Zm8.865,0a108.006,108.006,0,0,0-1.771-22.948A77.871,77.871,0,0,1,51.307,31.963C46.584,47.4,43.987,65.136,45.3,81.5Zm13.558,0a104.928,104.928,0,0,1,9.122-45.9c.9,1.981,1.762,4.085,2.556,6.3a162.179,162.179,0,0,0-2.568,19.514A92.327,92.327,0,0,0,62.8,81.5Zm9.85,0a91.962,91.962,0,0,1,4.454-30.659A84.187,84.187,0,0,1,70.921,81.5Zm18.037,0h-9.9c3.411-25.52-4.248-48.971-18.506-65.768,14.671,8.989,21.6,24.939,24.869,37.467a114.633,114.633,0,0,1,3.536,28.3Z" transform="translate(948.375 684.097)" opacity="0.119"/>
      <path id="grass_1_8" data-name="grass (1)" d="M82.043,52.659a89.049,89.049,0,0,0-3.469-10.636,124.675,124.675,0,0,1,4.875-16.265v-.011A1.2,1.2,0,0,0,81.364,24.6a70.327,70.327,0,0,0-6.629,9.271q-1.165-2.119-2.446-4.084a135.5,135.5,0,0,1,4.218-13.175c.008-.017.01-.036.017-.053a1.194,1.194,0,0,0-1.116-1.624,1.3,1.3,0,0,0-.949.471,80.034,80.034,0,0,0-6.408,8.666,48.345,48.345,0,0,0-18.5-13.713,1.2,1.2,0,0,0-1.244,2.015c.153.132,8.2,7.249,14.826,20.445a99.018,99.018,0,0,0-7.927,23.62,103.821,103.821,0,0,0-4.093-14.558,123.66,123.66,0,0,1,4.838-16.116.022.022,0,0,1,0-.016,1.2,1.2,0,0,0-1.11-1.645,1.267,1.267,0,0,0-.972.5,69.667,69.667,0,0,0-6.328,8.771q-.992-2.072-2.069-4.043a53.767,53.767,0,0,1,7.359-8.549,1.2,1.2,0,0,0-1.244-2.015,41.652,41.652,0,0,0-9.233,5.32,80.135,80.135,0,0,0-6.447-8.716l-.017-.016a1.169,1.169,0,0,0-1.837.056l-.011.014a1.193,1.193,0,0,0-.16,1.158c.005.014.006.03.012.045.329.838,1.948,5.075,3.776,11.575a48.567,48.567,0,0,0-5.092,6.119c-3.887-8.613-9.3-16.584-12.808-20.374A1.2,1.2,0,0,0,17.8,15.23a163.788,163.788,0,0,1,8.174,31.419A77.608,77.608,0,0,0,23.2,54.9,76.266,76.266,0,0,0,7.726,24.538l-.005,0a1.19,1.19,0,0,0-1.74-.1A1.3,1.3,0,0,0,5.7,25.76c.445,1.124,10.844,27.882,8.15,56.833a1.2,1.2,0,0,0,1.194,1.31H84.415a1.2,1.2,0,0,0,1.2-1.148,115.3,115.3,0,0,0-3.571-30.1ZM78.8,31.965c-.563,1.838-1.177,3.979-1.8,6.4q-.467-1.013-.955-2,1.3-2.261,2.752-4.4Zm-6.93-9.273c-.424,1.344-.88,2.855-1.352,4.518-.288-.4-.579-.789-.875-1.174q1.075-1.707,2.227-3.344ZM50.121,46.412a105.668,105.668,0,0,1,3.871,16.972A103.179,103.179,0,0,0,52.95,81.5H47.713A127.494,127.494,0,0,1,50.121,46.412Zm-4.05-10.534c-.994,1.775-1.925,3.621-2.794,5.519-.424-2.17-.891-4.339-1.4-6.488.691-1.19,1.386-2.309,2.073-3.354C44.692,32.958,45.4,34.4,46.071,35.878ZM38.92,53.271c-.617-2.648-1.307-5.241-2.089-7.749a71.713,71.713,0,0,1,3.312-7.44c.532,2.428,1.012,4.873,1.433,7.3C40.576,47.925,39.694,50.566,38.92,53.271ZM38.541,22.7q1,1.42,1.943,2.9c-.284.242-.567.486-.845.736-.381-1.317-.75-2.532-1.1-3.634Zm7.774,1.529C33.887,39.286,27.634,59.7,30.505,81.5H22.083C22.053,74.661,23.053,39.186,46.314,24.227ZM22.437,21.3a85.617,85.617,0,0,1,8.576,15.378,59.507,59.507,0,0,0-3.289,5.989A177.729,177.729,0,0,0,22.437,21.3ZM10.3,31.866A78.408,78.408,0,0,1,21.949,60,102.106,102.106,0,0,0,19.677,81.5H16.35C17.989,61.024,13.338,41.8,10.3,31.866ZM32.93,81.5a73.264,73.264,0,0,1,2.548-32.077c.829,3,1.548,6.1,2.134,9.259a.26.26,0,0,0,.008.051A107.146,107.146,0,0,1,39.389,81.5Zm8.865,0a108.006,108.006,0,0,0-1.771-22.948A77.871,77.871,0,0,1,51.307,31.963C46.584,47.4,43.987,65.136,45.3,81.5Zm13.558,0a104.928,104.928,0,0,1,9.122-45.9c.9,1.981,1.762,4.085,2.556,6.3a162.179,162.179,0,0,0-2.568,19.514A92.327,92.327,0,0,0,62.8,81.5Zm9.85,0a91.962,91.962,0,0,1,4.454-30.659A84.187,84.187,0,0,1,70.921,81.5Zm18.037,0h-9.9c3.411-25.52-4.248-48.971-18.506-65.768,14.671,8.989,21.6,24.939,24.869,37.467a114.633,114.633,0,0,1,3.536,28.3Z" transform="translate(1104.375 684.097)" opacity="0.119"/>
      <path id="grass_1_9" data-name="grass (1)" d="M82.043,52.659a89.049,89.049,0,0,0-3.469-10.636,124.675,124.675,0,0,1,4.875-16.265v-.011A1.2,1.2,0,0,0,81.364,24.6a70.327,70.327,0,0,0-6.629,9.271q-1.165-2.119-2.446-4.084a135.5,135.5,0,0,1,4.218-13.175c.008-.017.01-.036.017-.053a1.194,1.194,0,0,0-1.116-1.624,1.3,1.3,0,0,0-.949.471,80.034,80.034,0,0,0-6.408,8.666,48.345,48.345,0,0,0-18.5-13.713,1.2,1.2,0,0,0-1.244,2.015c.153.132,8.2,7.249,14.826,20.445a99.018,99.018,0,0,0-7.927,23.62,103.821,103.821,0,0,0-4.093-14.558,123.66,123.66,0,0,1,4.838-16.116.022.022,0,0,1,0-.016,1.2,1.2,0,0,0-1.11-1.645,1.267,1.267,0,0,0-.972.5,69.667,69.667,0,0,0-6.328,8.771q-.992-2.072-2.069-4.043a53.767,53.767,0,0,1,7.359-8.549,1.2,1.2,0,0,0-1.244-2.015,41.652,41.652,0,0,0-9.233,5.32,80.135,80.135,0,0,0-6.447-8.716l-.017-.016a1.169,1.169,0,0,0-1.837.056l-.011.014a1.193,1.193,0,0,0-.16,1.158c.005.014.006.03.012.045.329.838,1.948,5.075,3.776,11.575a48.567,48.567,0,0,0-5.092,6.119c-3.887-8.613-9.3-16.584-12.808-20.374A1.2,1.2,0,0,0,17.8,15.23a163.788,163.788,0,0,1,8.174,31.419A77.608,77.608,0,0,0,23.2,54.9,76.266,76.266,0,0,0,7.726,24.538l-.005,0a1.19,1.19,0,0,0-1.74-.1A1.3,1.3,0,0,0,5.7,25.76c.445,1.124,10.844,27.882,8.15,56.833a1.2,1.2,0,0,0,1.194,1.31H84.415a1.2,1.2,0,0,0,1.2-1.148,115.3,115.3,0,0,0-3.571-30.1ZM78.8,31.965c-.563,1.838-1.177,3.979-1.8,6.4q-.467-1.013-.955-2,1.3-2.261,2.752-4.4Zm-6.93-9.273c-.424,1.344-.88,2.855-1.352,4.518-.288-.4-.579-.789-.875-1.174q1.075-1.707,2.227-3.344ZM50.121,46.412a105.668,105.668,0,0,1,3.871,16.972A103.179,103.179,0,0,0,52.95,81.5H47.713A127.494,127.494,0,0,1,50.121,46.412Zm-4.05-10.534c-.994,1.775-1.925,3.621-2.794,5.519-.424-2.17-.891-4.339-1.4-6.488.691-1.19,1.386-2.309,2.073-3.354C44.692,32.958,45.4,34.4,46.071,35.878ZM38.92,53.271c-.617-2.648-1.307-5.241-2.089-7.749a71.713,71.713,0,0,1,3.312-7.44c.532,2.428,1.012,4.873,1.433,7.3C40.576,47.925,39.694,50.566,38.92,53.271ZM38.541,22.7q1,1.42,1.943,2.9c-.284.242-.567.486-.845.736-.381-1.317-.75-2.532-1.1-3.634Zm7.774,1.529C33.887,39.286,27.634,59.7,30.505,81.5H22.083C22.053,74.661,23.053,39.186,46.314,24.227ZM22.437,21.3a85.617,85.617,0,0,1,8.576,15.378,59.507,59.507,0,0,0-3.289,5.989A177.729,177.729,0,0,0,22.437,21.3ZM10.3,31.866A78.408,78.408,0,0,1,21.949,60,102.106,102.106,0,0,0,19.677,81.5H16.35C17.989,61.024,13.338,41.8,10.3,31.866ZM32.93,81.5a73.264,73.264,0,0,1,2.548-32.077c.829,3,1.548,6.1,2.134,9.259a.26.26,0,0,0,.008.051A107.146,107.146,0,0,1,39.389,81.5Zm8.865,0a108.006,108.006,0,0,0-1.771-22.948A77.871,77.871,0,0,1,51.307,31.963C46.584,47.4,43.987,65.136,45.3,81.5Zm13.558,0a104.928,104.928,0,0,1,9.122-45.9c.9,1.981,1.762,4.085,2.556,6.3a162.179,162.179,0,0,0-2.568,19.514A92.327,92.327,0,0,0,62.8,81.5Zm9.85,0a91.962,91.962,0,0,1,4.454-30.659A84.187,84.187,0,0,1,70.921,81.5Zm18.037,0h-9.9c3.411-25.52-4.248-48.971-18.506-65.768,14.671,8.989,21.6,24.939,24.869,37.467a114.633,114.633,0,0,1,3.536,28.3Z" transform="translate(1260.375 684.097)" opacity="0.119"/>
      <path id="grass_1_10" data-name="grass (1)" d="M82.043,52.659a89.049,89.049,0,0,0-3.469-10.636,124.675,124.675,0,0,1,4.875-16.265v-.011A1.2,1.2,0,0,0,81.364,24.6a70.327,70.327,0,0,0-6.629,9.271q-1.165-2.119-2.446-4.084a135.5,135.5,0,0,1,4.218-13.175c.008-.017.01-.036.017-.053a1.194,1.194,0,0,0-1.116-1.624,1.3,1.3,0,0,0-.949.471,80.034,80.034,0,0,0-6.408,8.666,48.345,48.345,0,0,0-18.5-13.713,1.2,1.2,0,0,0-1.244,2.015c.153.132,8.2,7.249,14.826,20.445a99.018,99.018,0,0,0-7.927,23.62,103.821,103.821,0,0,0-4.093-14.558,123.66,123.66,0,0,1,4.838-16.116.022.022,0,0,1,0-.016,1.2,1.2,0,0,0-1.11-1.645,1.267,1.267,0,0,0-.972.5,69.667,69.667,0,0,0-6.328,8.771q-.992-2.072-2.069-4.043a53.767,53.767,0,0,1,7.359-8.549,1.2,1.2,0,0,0-1.244-2.015,41.652,41.652,0,0,0-9.233,5.32,80.135,80.135,0,0,0-6.447-8.716l-.017-.016a1.169,1.169,0,0,0-1.837.056l-.011.014a1.193,1.193,0,0,0-.16,1.158c.005.014.006.03.012.045.329.838,1.948,5.075,3.776,11.575a48.567,48.567,0,0,0-5.092,6.119c-3.887-8.613-9.3-16.584-12.808-20.374A1.2,1.2,0,0,0,17.8,15.23a163.788,163.788,0,0,1,8.174,31.419A77.608,77.608,0,0,0,23.2,54.9,76.266,76.266,0,0,0,7.726,24.538l-.005,0a1.19,1.19,0,0,0-1.74-.1A1.3,1.3,0,0,0,5.7,25.76c.445,1.124,10.844,27.882,8.15,56.833a1.2,1.2,0,0,0,1.194,1.31H84.415a1.2,1.2,0,0,0,1.2-1.148,115.3,115.3,0,0,0-3.571-30.1ZM78.8,31.965c-.563,1.838-1.177,3.979-1.8,6.4q-.467-1.013-.955-2,1.3-2.261,2.752-4.4Zm-6.93-9.273c-.424,1.344-.88,2.855-1.352,4.518-.288-.4-.579-.789-.875-1.174q1.075-1.707,2.227-3.344ZM50.121,46.412a105.668,105.668,0,0,1,3.871,16.972A103.179,103.179,0,0,0,52.95,81.5H47.713A127.494,127.494,0,0,1,50.121,46.412Zm-4.05-10.534c-.994,1.775-1.925,3.621-2.794,5.519-.424-2.17-.891-4.339-1.4-6.488.691-1.19,1.386-2.309,2.073-3.354C44.692,32.958,45.4,34.4,46.071,35.878ZM38.92,53.271c-.617-2.648-1.307-5.241-2.089-7.749a71.713,71.713,0,0,1,3.312-7.44c.532,2.428,1.012,4.873,1.433,7.3C40.576,47.925,39.694,50.566,38.92,53.271ZM38.541,22.7q1,1.42,1.943,2.9c-.284.242-.567.486-.845.736-.381-1.317-.75-2.532-1.1-3.634Zm7.774,1.529C33.887,39.286,27.634,59.7,30.505,81.5H22.083C22.053,74.661,23.053,39.186,46.314,24.227ZM22.437,21.3a85.617,85.617,0,0,1,8.576,15.378,59.507,59.507,0,0,0-3.289,5.989A177.729,177.729,0,0,0,22.437,21.3ZM10.3,31.866A78.408,78.408,0,0,1,21.949,60,102.106,102.106,0,0,0,19.677,81.5H16.35C17.989,61.024,13.338,41.8,10.3,31.866ZM32.93,81.5a73.264,73.264,0,0,1,2.548-32.077c.829,3,1.548,6.1,2.134,9.259a.26.26,0,0,0,.008.051A107.146,107.146,0,0,1,39.389,81.5Zm8.865,0a108.006,108.006,0,0,0-1.771-22.948A77.871,77.871,0,0,1,51.307,31.963C46.584,47.4,43.987,65.136,45.3,81.5Zm13.558,0a104.928,104.928,0,0,1,9.122-45.9c.9,1.981,1.762,4.085,2.556,6.3a162.179,162.179,0,0,0-2.568,19.514A92.327,92.327,0,0,0,62.8,81.5Zm9.85,0a91.962,91.962,0,0,1,4.454-30.659A84.187,84.187,0,0,1,70.921,81.5Zm18.037,0h-9.9c3.411-25.52-4.248-48.971-18.506-65.768,14.671,8.989,21.6,24.939,24.869,37.467a114.633,114.633,0,0,1,3.536,28.3Z" transform="translate(1416.375 684.097)" opacity="0.119"/>
    </g>
  </g>
</svg>
