<svg width="1316" height="417.012" viewBox="0 0 1316 417.012" xmlns="http://www.w3.org/2000/svg" xmlns:xlink="http://www.w3.org/1999/xlink">
    <defs>
        <path d="m1316 358-.911-.096-1.6-.164C1281.997 354.548 960.267 324.082 688 382 352.667 453.333 123.333 415.667 0 269l1.177 1.377a4.99 4.99 0 0 1 3.407-1.76l1306-109.164a5 5 0 0 1 5.416 4.982z" id="ri115de1pa"/>
        <path d="M98.039 28.759c-12.599 0-41.025-5.227-55.923-8.752C35.062 18.339 18.522 10.054 0 0c18.522 10.054 35.062 18.339 42.116 20.007 14.898 3.525 43.324 8.752 55.923 8.752 2.86 0 4.907-.27 5.792-.89-.885.62-2.932.89-5.792.89" id="42f5ftpgsb"/>
        <radialGradient cx="-2.037%" cy="271.179%" fx="-2.037%" fy="271.179%" r="548.131%" gradientTransform="matrix(.3973 0 0 1 -.012 0)" id="tivp1xuubc">
            <stop stop-color="#CCDAFC" offset="0%"/>
            <stop stop-color="#ABBDF8" offset="100%"/>
        </radialGradient>
    </defs>
    <g fill="none" fill-rule="evenodd">
        <g>
            <use fill="#EDEDED" xlink:href="#ri115de1pa"/>
            <use fill="#FFF" xlink:href="#ri115de1pa"/>
        </g>
        <path d="M256.127 210.042c0 89.093 72.225 161.317 161.317 161.317 89.092 0 161.316-72.224 161.316-161.317S506.536 48.726 417.444 48.726s-161.317 72.223-161.317 161.316" fill="#BDD0FB"/>
        <path d="M414.076 48.79a.469.469 0 0 1 .453-.483c.97-.033 1.94-.05 2.915-.05l.847.005a.469.469 0 0 1 .463.473c-.003.258-.215.492-.473.463l-.837-.004c-.963 0-1.925.016-2.884.049h-.016a.469.469 0 0 1-.468-.453m11.635.803a85.284 85.284 0 0 0-3.71-.277.469.469 0 0 1 .048-.936c1.241.066 2.503.16 3.753.282a.467.467 0 0 1-.046.934l-.045-.003m-19.102-.185a.47.47 0 0 1 .408-.521 87.243 87.243 0 0 1 3.756-.372c.232-.014.483.172.502.43a.467.467 0 0 1-.431.503c-1.23.095-2.481.219-3.714.369l-.057.003a.467.467 0 0 1-.464-.412m26.468 1.225a84.506 84.506 0 0 0-3.671-.6.467.467 0 0 1-.398-.53.466.466 0 0 1 .529-.397c1.235.175 2.483.379 3.712.606a.469.469 0 0 1-.086.929l-.086-.008m-33.85.039a.468.468 0 0 1 .362-.554 90.134 90.134 0 0 1 3.699-.695.464.464 0 0 1 .538.385.468.468 0 0 1-.384.539c-1.211.2-2.442.432-3.661.687l-.097.01a.468.468 0 0 1-.457-.372m41.087 1.626a86.715 86.715 0 0 0-3.603-.91.469.469 0 0 1 .209-.912c1.211.278 2.436.587 3.642.92a.465.465 0 0 1 .326.575.466.466 0 0 1-.45.344l-.124-.017m-48.317.26a.468.468 0 0 1 .314-.582 92.797 92.797 0 0 1 3.617-1.006.469.469 0 0 1 .232.908 88.012 88.012 0 0 0-3.58.995l-.135.02a.468.468 0 0 1-.448-.334m55.407 2.014a93.417 93.417 0 0 0-3.524-1.212.467.467 0 1 1 .286-.891 89.63 89.63 0 0 1 3.56 1.225.468.468 0 0 1-.161.907l-.161-.03m-62.453.469a.469.469 0 0 1 .265-.607 92.183 92.183 0 0 1 3.528-1.304.47.47 0 0 1 .595.29.467.467 0 0 1-.288.595 92.031 92.031 0 0 0-3.493 1.29l-.171.033a.468.468 0 0 1-.436-.297m69.351 2.386a94.555 94.555 0 0 0-3.422-1.497.467.467 0 1 1 .357-.864c1.155.477 2.317.985 3.457 1.51a.468.468 0 0 1-.196.894l-.196-.043m-76.187.659a.469.469 0 0 1 .216-.626 95.18 95.18 0 0 1 3.413-1.581.47.47 0 0 1 .617.24.47.47 0 0 1-.241.618 93.285 93.285 0 0 0-3.379 1.565l-.205.047a.469.469 0 0 1-.421-.263m82.825 2.717a97.507 97.507 0 0 0-3.287-1.751.468.468 0 1 1 .424-.835c1.104.562 2.22 1.157 3.318 1.768a.469.469 0 0 1-.227.877l-.228-.06m-89.408.845a.467.467 0 0 1 .168-.64 103.647 103.647 0 0 1 3.282-1.836.469.469 0 0 1 .442.826 96.009 96.009 0 0 0-3.252 1.819l-.235.064a.467.467 0 0 1-.405-.233m95.779 3.017a105.296 105.296 0 0 0-3.15-1.988.469.469 0 0 1 .485-.801c1.06.643 2.129 1.318 3.179 2.007a.468.468 0 0 1-.257.859l-.257-.077M365.228 65.68a.469.469 0 0 1 .122-.651 109.35 109.35 0 0 1 3.139-2.067.468.468 0 0 1 .501.79 105.382 105.382 0 0 0-3.111 2.05.466.466 0 0 1-.651-.122m108.169 3.286c-.987-.75-1.998-1.491-3.005-2.204a.467.467 0 1 1 .54-.764c1.016.719 2.036 1.466 3.031 2.222a.468.468 0 1 1-.566.746M359.214 70.14a.469.469 0 0 1 .078-.658 116.26 116.26 0 0 1 2.992-2.277.47.47 0 0 1 .655.1.47.47 0 0 1-.101.655c-.998.733-1.987 1.486-2.967 2.258a.47.47 0 0 1-.657-.078m119.972 3.525a115.71 115.71 0 0 0-2.856-2.396.468.468 0 1 1 .589-.727c.969.786 1.929 1.592 2.88 2.415a.468.468 0 0 1-.613.708m-125.681 1.317a.468.468 0 0 1 .036-.661 122.85 122.85 0 0 1 2.838-2.464.468.468 0 1 1 .603.715c-.947.798-1.885 1.613-2.816 2.447a.467.467 0 0 1-.661-.037M484.67 78.72c-.893-.873-1.794-1.73-2.704-2.57a.468.468 0 1 1 .634-.688c.917.846 1.825 1.709 2.724 2.589a.469.469 0 0 1-.654.669m-136.564 1.448a.47.47 0 0 1-.004-.662c.885-.894 1.778-1.772 2.682-2.632a.468.468 0 1 1 .645.677 130.81 130.81 0 0 0-2.661 2.613.466.466 0 0 1-.662.004m141.739 3.924c-.84-.923-1.691-1.831-2.549-2.724a.468.468 0 1 1 .674-.648c.865.898 1.721 1.812 2.567 2.743a.467.467 0 1 1-.692.629m-146.83 1.567a.468.468 0 0 1-.041-.661c.832-.943 1.674-1.87 2.525-2.782a.468.468 0 1 1 .684.639c-.846.906-1.68 1.826-2.507 2.762a.465.465 0 0 1-.661.042m151.698 4.088c-.79-.968-1.587-1.922-2.396-2.86a.468.468 0 1 1 .71-.611c.813.944 1.617 1.905 2.411 2.88a.468.468 0 1 1-.725.59m-156.478 1.675a.469.469 0 0 1-.076-.658c.78-.985 1.57-1.957 2.369-2.914a.467.467 0 1 1 .718.6 147.47 147.47 0 0 0-2.354 2.896.463.463 0 0 1-.366.177.46.46 0 0 1-.291-.101m161.039 4.234a138.929 138.929 0 0 0-2.242-2.983.468.468 0 0 1 .74-.573c.763.987 1.515 1.988 2.257 3.002a.467.467 0 0 1-.376.745.468.468 0 0 1-.379-.191m-165.512 1.77a.468.468 0 0 1-.11-.652 153.268 153.268 0 0 1 2.215-3.033.468.468 0 0 1 .75.562 150.32 150.32 0 0 0-2.202 3.014.47.47 0 0 1-.653.11m169.771 4.359a156.183 156.183 0 0 0-2.092-3.092.468.468 0 1 1 .77-.534 155.155 155.155 0 0 1 2.104 3.11.467.467 0 0 1-.134.649l-.257.077a.467.467 0 0 1-.391-.21m-173.941 1.86a.467.467 0 0 1-.141-.646 147.695 147.695 0 0 1 2.063-3.138.468.468 0 1 1 .775.523 156.87 156.87 0 0 0-2.051 3.119.464.464 0 0 1-.394.216l-.252-.074m177.901 4.469a159.987 159.987 0 0 0-1.944-3.188.469.469 0 0 1 .794-.496 157.147 157.147 0 0 1 1.954 3.206.469.469 0 0 1-.163.642l-.239.065a.467.467 0 0 1-.402-.23m-181.772 1.942a.467.467 0 0 1-.171-.64 162.435 162.435 0 0 1 1.912-3.23.468.468 0 0 1 .801.487 162.571 162.571 0 0 0-1.903 3.212.466.466 0 0 1-.406.234l-.233-.063m185.437 4.565a176.233 176.233 0 0 0-1.796-3.273.467.467 0 1 1 .815-.46 167.07 167.07 0 0 1 1.806 3.292.469.469 0 0 1-.192.634l-.219.055a.466.466 0 0 1-.414-.248m-189.015 2.014a.468.468 0 0 1-.2-.631c.579-1.116 1.168-2.22 1.767-3.314a.468.468 0 0 1 .82.45 174.41 174.41 0 0 0-1.756 3.295.469.469 0 0 1-.416.253l-.215-.053m192.39 4.648a179.563 179.563 0 0 0-1.652-3.35.467.467 0 1 1 .835-.422 172.574 172.574 0 0 1 1.661 3.367.47.47 0 0 1-.22.625l-.202.046a.466.466 0 0 1-.422-.266m-195.677 2.08a.467.467 0 0 1-.225-.621 185.653 185.653 0 0 1 1.621-3.386.468.468 0 1 1 .839.413 190.165 190.165 0 0 0-1.612 3.368.468.468 0 0 1-.424.27l-.199-.043m198.766 4.719a188.593 188.593 0 0 0-1.51-3.416.467.467 0 0 1 .852-.387c.516 1.135 1.021 2.28 1.518 3.434a.47.47 0 0 1-.246.615l-.185.038a.468.468 0 0 1-.429-.284m-201.765 2.142a.468.468 0 0 1-.252-.612c.482-1.16.975-2.31 1.477-3.451a.469.469 0 0 1 .857.377c-.5 1.135-.991 2.28-1.47 3.433a.468.468 0 0 1-.432.288l-.18-.035m204.572 4.78a177.916 177.916 0 0 0-1.369-3.475.469.469 0 0 1 .867-.353 184.95 184.95 0 0 1 1.376 3.493.469.469 0 0 1-.27.605l-.166.03a.469.469 0 0 1-.438-.3M313.134 137.2a.47.47 0 0 1-.276-.602c.436-1.177.882-2.347 1.337-3.507a.47.47 0 0 1 .872.342 181.106 181.106 0 0 0-1.331 3.49.468.468 0 0 1-.439.306l-.163-.03m209.827 4.832a203.206 203.206 0 0 0-1.232-3.526.467.467 0 1 1 .88-.317c.424 1.173.836 2.354 1.238 3.544a.469.469 0 0 1-.294.593l-.149.025a.467.467 0 0 1-.443-.32m-212.27 2.248a.469.469 0 0 1-.3-.59c.39-1.194.79-2.38 1.2-3.557a.47.47 0 0 1 .596-.29.47.47 0 0 1 .288.597 209.86 209.86 0 0 0-1.194 3.54.469.469 0 0 1-.445.323l-.145-.023m214.527 4.875c-.354-1.198-.72-2.39-1.095-3.571a.468.468 0 1 1 .892-.284c.377 1.189.744 2.385 1.101 3.589a.47.47 0 0 1-.317.582l-.133.019a.47.47 0 0 1-.448-.335m-216.699 2.292a.468.468 0 0 1-.322-.578c.343-1.208.698-2.408 1.062-3.6a.467.467 0 1 1 .896.273 201.007 201.007 0 0 0-1.058 3.583.468.468 0 0 1-.45.34l-.128-.018m218.687 4.91c-.31-1.211-.63-2.414-.96-3.611a.466.466 0 1 1 .901-.25c.333 1.203.654 2.412.966 3.628a.468.468 0 0 1-.337.57l-.117.015a.47.47 0 0 1-.453-.352m-220.59 2.333a.467.467 0 0 1-.342-.566c.297-1.22.607-2.431.927-3.637a.469.469 0 0 1 .906.24c-.319 1.2-.627 2.406-.925 3.62a.467.467 0 0 1-.454.356l-.112-.013m222.311 4.937a192.94 192.94 0 0 0-.827-3.643.468.468 0 0 1 .911-.216c.288 1.214.565 2.434.832 3.66a.468.468 0 0 1-.357.557l-.101.01a.47.47 0 0 1-.458-.368m-223.948 2.37a.467.467 0 0 1-.363-.553c.255-1.23.52-2.452.796-3.668a.468.468 0 0 1 .913.207 208.733 208.733 0 0 0-.793 3.652.468.468 0 0 1-.457.372l-.096-.01m225.408 4.958a205.174 205.174 0 0 0-.696-3.671.468.468 0 1 1 .918-.182c.244 1.223.478 2.452.7 3.687a.469.469 0 0 1-.378.544l-.084.007a.471.471 0 0 1-.46-.385m-226.781 2.403a.468.468 0 0 1-.383-.54c.211-1.236.432-2.468.665-3.693a.469.469 0 0 1 .919.174c-.23 1.219-.451 2.445-.661 3.677a.467.467 0 0 1-.46.389l-.08-.007m227.983 4.972c-.18-1.236-.371-2.467-.57-3.693a.469.469 0 0 1 .926-.15c.199 1.23.389 2.468.568 3.709a.467.467 0 0 1-.394.53l-.069.005a.465.465 0 0 1-.461-.401m-229.1 2.433a.466.466 0 0 1-.4-.526c.168-1.243.345-2.481.534-3.715a.47.47 0 0 1 .533-.391.466.466 0 0 1 .392.533c-.187 1.228-.364 2.46-.533 3.699a.467.467 0 0 1-.462.405l-.064-.005m230.041 4.98a223.771 223.771 0 0 0-.441-3.711.47.47 0 0 1 .406-.523.47.47 0 0 1 .523.405c.158 1.238.305 2.48.443 3.727a.47.47 0 0 1-.416.516l-.051.003a.466.466 0 0 1-.464-.417m-230.899 2.46a.467.467 0 0 1-.418-.513c.125-1.248.26-2.492.406-3.73a.461.461 0 0 1 .52-.41c.257.03.44.262.41.519-.145 1.233-.28 2.472-.406 3.714a.467.467 0 0 1-.464.422l-.048-.002m231.586 4.98a205.955 205.955 0 0 0-.312-3.722.47.47 0 0 1 .422-.51.473.473 0 0 1 .51.423c.115 1.242.219 2.489.314 3.74a.468.468 0 0 1-.431.502h-.037a.468.468 0 0 1-.466-.432m-232.19 2.483a.469.469 0 0 1-.436-.498c.082-1.251.177-2.5.28-3.742a.486.486 0 0 1 .505-.428.468.468 0 0 1 .427.506 225.621 225.621 0 0 0-.278 3.725.468.468 0 0 1-.467.438l-.031-.001m232.627 4.977a228.553 228.553 0 0 0-.187-3.733.468.468 0 0 1 .44-.494.46.46 0 0 1 .495.44c.073 1.245.135 2.494.187 3.747a.468.468 0 0 1-.448.488h-.019a.469.469 0 0 1-.468-.448m-232.98 2.502a.467.467 0 0 1-.452-.483 220.1 220.1 0 0 1 .154-3.748.468.468 0 1 1 .935.046 228.75 228.75 0 0 0-.153 3.734.469.469 0 0 1-.468.452l-.016-.001m233.167 4.969c-.009-1.25-.032-2.496-.062-3.737a.467.467 0 0 1 .456-.48.46.46 0 0 1 .479.457c.032 1.247.053 2.498.064 3.752a.468.468 0 0 1-.464.472h-.005a.47.47 0 0 1-.468-.464m-233.708 5.68a222.953 222.953 0 0 1-.003-7.38c.005-.258.261-.464.476-.461a.469.469 0 0 1 .46.476 220.966 220.966 0 0 0 .003 7.349.469.469 0 0 1-.46.477h-.008a.469.469 0 0 1-.468-.46m234.106 2.266a.47.47 0 0 1-.457-.481c.031-1.24.052-2.483.06-3.731a.47.47 0 0 1 .468-.464h.004c.26 0 .467.213.465.472-.01 1.253-.029 2.502-.061 3.748a.467.467 0 0 1-.467.456h-.012m-233.857 5.235a211.22 211.22 0 0 1-.157-3.75.468.468 0 0 1 .453-.483c.304.008.475.194.484.452.041 1.248.092 2.492.154 3.733a.468.468 0 0 1-.443.492h-.024a.467.467 0 0 1-.467-.444m233.534 2.246a.468.468 0 0 1-.441-.495c.072-1.24.133-2.483.185-3.731a.477.477 0 0 1 .486-.45c.259.012.459.23.448.489a219.665 219.665 0 0 1-.185 3.748.468.468 0 0 1-.466.44l-.027-.001m-233.035 5.239c-.105-1.242-.198-2.49-.282-3.742a.47.47 0 0 1 .935-.061c.083 1.245.175 2.488.28 3.724a.47.47 0 0 1-.428.506l-.04.002a.467.467 0 0 1-.465-.43m232.459 2.229a.466.466 0 0 1-.422-.51c.113-1.236.216-2.477.31-3.722a.469.469 0 0 1 .934.069 252.384 252.384 0 0 1-.312 3.74.468.468 0 0 1-.467.425l-.043-.002m-231.706 5.24c-.147-1.24-.283-2.483-.408-3.73a.466.466 0 0 1 .418-.513.477.477 0 0 1 .512.419c.125 1.242.262 2.48.407 3.714a.466.466 0 0 1-.41.519l-.055.004a.468.468 0 0 1-.464-.413m230.877 2.202a.47.47 0 0 1-.406-.523c.156-1.231.303-2.47.438-3.71a.467.467 0 1 1 .93.1 203.837 203.837 0 0 1-.438 3.727.468.468 0 0 1-.464.41l-.06-.004m-229.868 5.235a195.174 195.174 0 0 1-.537-3.714.468.468 0 0 1 .4-.527.455.455 0 0 1 .527.4c.168 1.238.347 2.47.535 3.698a.47.47 0 0 1-.392.534l-.072.005a.467.467 0 0 1-.461-.396m228.784 2.175a.47.47 0 0 1-.387-.537c.199-1.226.387-2.458.564-3.693a.474.474 0 0 1 .53-.397.47.47 0 0 1 .398.53c-.18 1.242-.368 2.478-.567 3.71a.47.47 0 0 1-.462.393l-.076-.006m-227.517 5.22a194.59 194.59 0 0 1-.667-3.693.47.47 0 0 1 .924-.157c.21 1.23.431 2.457.663 3.675a.467.467 0 0 1-.372.548l-.089.009a.47.47 0 0 1-.459-.381m226.174 2.145a.468.468 0 0 1-.369-.55c.243-1.218.473-2.442.696-3.672a.467.467 0 1 1 .921.167 208.792 208.792 0 0 1-.699 3.688.468.468 0 0 1-.459.377l-.09-.01M305.44 258.43a195.216 195.216 0 0 1-.798-3.667.469.469 0 0 1 .916-.191c.255 1.224.519 2.44.794 3.65a.467.467 0 0 1-.352.56l-.105.012a.467.467 0 0 1-.455-.364m223.037 2.11a.468.468 0 0 1-.348-.562c.285-1.208.561-2.423.827-3.644a.468.468 0 0 1 .914.199 221.745 221.745 0 0 1-.829 3.66.471.471 0 0 1-.456.36l-.108-.012m-221.244 5.178c-.32-1.207-.63-2.42-.93-3.638a.466.466 0 0 1 .343-.565.465.465 0 0 1 .566.343c.297 1.212.608 2.419.926 3.619a.469.469 0 0 1-.331.573l-.121.016a.47.47 0 0 1-.453-.348m219.373 2.073a.47.47 0 0 1-.327-.576c.33-1.196.648-2.4.959-3.61a.468.468 0 1 1 .906.232 196.49 196.49 0 0 1-.962 3.627.468.468 0 0 1-.452.344l-.124-.017m-217.31 5.144c-.365-1.194-.72-2.393-1.064-3.6a.467.467 0 0 1 .321-.578.463.463 0 0 1 .578.32c.343 1.202.698 2.396 1.06 3.583a.468.468 0 0 1-.31.585l-.137.02a.47.47 0 0 1-.448-.33m215.169 2.033a.467.467 0 0 1-.303-.587c.373-1.185.738-2.375 1.091-3.573a.469.469 0 0 1 .898.265c-.355 1.204-.722 2.4-1.098 3.589a.467.467 0 0 1-.446.327l-.142-.021m-212.835 5.1a203.344 203.344 0 0 1-1.202-3.556.47.47 0 0 1 .891-.291c.389 1.187.787 2.368 1.195 3.539a.467.467 0 0 1-.287.596l-.155.026a.468.468 0 0 1-.442-.313m210.424 1.988a.468.468 0 0 1-.282-.6c.419-1.167.829-2.343 1.229-3.526a.468.468 0 1 1 .886.3c-.401 1.189-.812 2.37-1.234 3.544a.467.467 0 0 1-.44.309l-.159-.027m-207.813 5.052c-.458-1.162-.903-2.33-1.339-3.508a.468.468 0 1 1 .877-.325 181.05 181.05 0 0 0 1.333 3.489.468.468 0 0 1-.263.607l-.172.032a.47.47 0 0 1-.436-.295m205.125 1.938a.47.47 0 0 1-.258-.61c.465-1.15.921-2.31 1.366-3.478a.469.469 0 0 1 .875.335 183.79 183.79 0 0 1-1.374 3.494.467.467 0 0 1-.433.292l-.176-.033m-202.234 4.988a178.88 178.88 0 0 1-1.481-3.45.469.469 0 0 1 .865-.36c.48 1.154.971 2.298 1.472 3.432a.467.467 0 0 1-.239.617l-.189.04a.469.469 0 0 1-.428-.28m199.264 1.887a.466.466 0 0 1-.231-.62 182.717 182.717 0 0 0 1.506-3.417.467.467 0 1 1 .86.37 171.515 171.515 0 0 1-1.515 3.435.47.47 0 0 1-.426.274l-.194-.042m-196.089 4.918a165.242 165.242 0 0 1-1.624-3.386.467.467 0 1 1 .849-.394 171.175 171.175 0 0 0 1.614 3.367.468.468 0 0 1-.213.627l-.206.048a.468.468 0 0 1-.42-.262m192.837 1.828a.47.47 0 0 1-.207-.63c.56-1.106 1.11-2.222 1.65-3.35a.469.469 0 0 1 .844.404 175.434 175.434 0 0 1-1.658 3.369.469.469 0 0 1-.418.257l-.211-.05m-189.374 4.834c-.6-1.093-1.189-2.197-1.768-3.312a.467.467 0 1 1 .83-.431 177.453 177.453 0 0 0 1.759 3.293.468.468 0 0 1-.186.636l-.225.057a.469.469 0 0 1-.41-.243m185.831 1.763a.469.469 0 0 1-.178-.638 173.715 173.715 0 0 0 1.793-3.275.469.469 0 0 1 .827.44 178.4 178.4 0 0 1-1.804 3.294.467.467 0 0 1-.408.238l-.23-.06m-182.074 4.74a172.718 172.718 0 0 1-1.915-3.23.467.467 0 1 1 .81-.468 166.571 166.571 0 0 0 1.906 3.212.47.47 0 0 1-.157.644l-.243.068a.47.47 0 0 1-.401-.226m178.238 1.69a.466.466 0 0 1-.148-.643 159.983 159.983 0 0 0 1.939-3.19.47.47 0 0 1 .806.477 169.985 169.985 0 0 1-1.952 3.209.464.464 0 0 1-.397.22l-.248-.072m-174.183 4.63a153.006 153.006 0 0 1-2.066-3.136.468.468 0 1 1 .788-.505c.675 1.052 1.36 2.09 2.053 3.117a.469.469 0 0 1-.775.525m170.049 1.613a.47.47 0 0 1-.118-.652 154.642 154.642 0 0 0 2.089-3.093.471.471 0 0 1 .649-.134.47.47 0 0 1 .133.649 161.117 161.117 0 0 1-2.102 3.112.47.47 0 0 1-.651.118m-165.689 4.505a146.7 146.7 0 0 1-2.218-3.033.467.467 0 0 1 .763-.543 145.744 145.744 0 0 0 2.203 3.013.468.468 0 0 1-.748.563m161.251 1.526a.47.47 0 0 1-.086-.657c.758-.981 1.503-1.977 2.241-2.985a.468.468 0 0 1 .756.552 150.756 150.756 0 0 1-2.254 3.005.472.472 0 0 1-.657.085m-156.586 4.36a133.564 133.564 0 0 1-2.371-2.914.467.467 0 1 1 .733-.581c.775.979 1.561 1.944 2.357 2.894a.47.47 0 0 1-.059.66.47.47 0 0 1-.66-.06m151.842 1.433a.47.47 0 0 1-.051-.66c.808-.94 1.605-1.895 2.393-2.864a.468.468 0 0 1 .727.591c-.793.976-1.596 1.937-2.409 2.883a.466.466 0 0 1-.66.05m-146.865 4.196a137.665 137.665 0 0 1-2.528-2.78.468.468 0 0 1 .702-.62 132.63 132.63 0 0 0 2.51 2.76.47.47 0 0 1-.342.789.464.464 0 0 1-.342-.15m141.811 1.33a.47.47 0 0 1-.013-.662c.858-.892 1.706-1.802 2.546-2.726a.47.47 0 0 1 .662-.032c.192.173.206.47.032.66-.846.932-1.7 1.847-2.565 2.747a.471.471 0 0 1-.662.013m-136.523 4.008a122.92 122.92 0 0 1-2.684-2.631.469.469 0 0 1 .666-.658 123.42 123.42 0 0 0 2.664 2.61.47.47 0 0 1-.646.679m131.159 1.215a.469.469 0 0 1 .025-.661c.91-.841 1.811-1.7 2.701-2.573a.468.468 0 1 1 .657.668c-.899.88-1.805 1.746-2.721 2.592a.47.47 0 0 1-.662-.026m-125.558 3.796a118.527 118.527 0 0 1-2.84-2.463.468.468 0 1 1 .625-.696c.929.832 1.868 1.645 2.817 2.442a.467.467 0 0 1-.301.827.466.466 0 0 1-.301-.11m119.885 1.088a.468.468 0 0 1 .067-.658c.96-.782 1.913-1.581 2.854-2.4a.466.466 0 0 1 .66.046c.17.195.15.49-.046.66-.95.825-1.908 1.632-2.877 2.419a.466.466 0 0 1-.658-.067m-113.976 3.557a116.131 116.131 0 0 1-2.992-2.274.468.468 0 0 1 .578-.735c.981.77 1.971 1.522 2.969 2.254a.47.47 0 0 1 .1.656.467.467 0 0 1-.655.099m107.999.95a.468.468 0 0 1 .111-.653 107.54 107.54 0 0 0 3.004-2.206.466.466 0 1 1 .566.744 111.44 111.44 0 0 1-3.028 2.226.469.469 0 0 1-.653-.111m-101.789 3.287a109.36 109.36 0 0 1-3.141-2.065.469.469 0 0 1 .528-.773c1.027.7 2.074 1.389 3.114 2.047a.468.468 0 0 1-.25.863l-.251-.072m95.518.799a.467.467 0 0 1 .156-.643 109.575 109.575 0 0 0 3.15-1.993.467.467 0 0 1 .513.782 108.693 108.693 0 0 1-3.176 2.01l-.243.069a.464.464 0 0 1-.4-.225m-89.021 2.984a102.2 102.2 0 0 1-3.284-1.833.467.467 0 0 1-.168-.64.465.465 0 0 1 .639-.168c1.068.62 2.163 1.233 3.253 1.815a.468.468 0 0 1-.22.88l-.22-.054m82.469.637a.47.47 0 0 1 .204-.63c1.105-.565 2.21-1.156 3.285-1.757a.467.467 0 1 1 .457.817 98.908 98.908 0 0 1-3.316 1.773l-.213.05a.469.469 0 0 1-.417-.253m-75.703 2.644a98.138 98.138 0 0 1-3.415-1.576.47.47 0 0 1-.217-.626.472.472 0 0 1 .627-.217 95.539 95.539 0 0 0 3.381 1.562.468.468 0 0 1-.188.896l-.188-.04m68.895.462a.468.468 0 0 1 .254-.612 98.117 98.117 0 0 0 3.409-1.497.469.469 0 0 1 .393.85 95.815 95.815 0 0 1-3.444 1.512l-.179.035a.47.47 0 0 1-.433-.288m-61.876 2.285a91.09 91.09 0 0 1-3.536-1.301.469.469 0 1 1 .341-.872 91.51 91.51 0 0 0 3.5 1.288.467.467 0 0 1-.153.91l-.152-.025m54.844.269a.466.466 0 0 1 .301-.59c1.175-.38 2.36-.788 3.518-1.216a.468.468 0 0 1 .324.878 89.284 89.284 0 0 1-3.554 1.23l-.144.022a.467.467 0 0 1-.445-.324m-47.641 1.885a89.949 89.949 0 0 1-3.623-1 .47.47 0 0 1 .269-.898c1.183.355 2.389.688 3.584.99a.467.467 0 0 1-.115.922l-.115-.014m40.432.07a.471.471 0 0 1 .351-.561 86.208 86.208 0 0 0 3.602-.917.47.47 0 0 1 .251.902 88.494 88.494 0 0 1-3.641.927l-.106.012a.47.47 0 0 1-.457-.362m-33.077 1.462a88.13 88.13 0 0 1-3.697-.69.466.466 0 0 1-.362-.552.466.466 0 0 1 .553-.364c1.207.252 2.439.482 3.658.683a.468.468 0 0 1-.075.93l-.077-.007m25.713-.124a.47.47 0 0 1 .398-.53 83.519 83.519 0 0 0 3.675-.606.467.467 0 1 1 .172.92c-1.219.229-2.47.435-3.716.613l-.065.005a.469.469 0 0 1-.464-.402m-18.244 1.019a87.71 87.71 0 0 1-3.745-.368.469.469 0 0 1 .111-.929c1.223.147 2.47.269 3.705.363a.468.468 0 0 1-.035.935l-.036-.001m10.786-.326a.468.468 0 0 1 .443-.492 85.758 85.758 0 0 0 3.708-.285c.248-.012.487.162.513.42a.467.467 0 0 1-.421.51 85.996 85.996 0 0 1-3.75.289h-.025a.47.47 0 0 1-.468-.442m-7.029.527a.469.469 0 0 1-.453-.483c.008-.26.236-.436.483-.453 1.238.039 2.484.052 3.723.039h.006a.468.468 0 0 1 .005.936 88.997 88.997 0 0 1-3.764-.039" fill="#FFF"/>
        <path d="M421.358 49.93a11.126 11.126 0 0 0-3.463-.727.468.468 0 0 1-.448-.487c.012-.26.195-.468.488-.448a12.09 12.09 0 0 1 3.754.786.467.467 0 0 1-.165.906l-.166-.03m-10.871 1.037a.469.469 0 0 1 .154-.644 14.508 14.508 0 0 1 3.485-1.58.469.469 0 0 1 .264.899c-1.086.319-2.182.817-3.259 1.478l-.245.07a.467.467 0 0 1-.399-.223m16.837 2.989a21.537 21.537 0 0 0-2.799-2.335.467.467 0 1 1 .532-.77 22.457 22.457 0 0 1 2.921 2.436.466.466 0 0 1 .007.66.464.464 0 0 1-.661.009m-22.289 2.07a.468.468 0 0 1-.054-.66 29.4 29.4 0 0 1 2.626-2.738.467.467 0 1 1 .629.692 28.803 28.803 0 0 0-2.542 2.65.465.465 0 0 1-.659.056m26.934 3.647a43.253 43.253 0 0 0-2.184-2.984.47.47 0 0 1 .071-.658.47.47 0 0 1 .658.07c.747.93 1.499 1.957 2.233 3.05a.468.468 0 0 1-.129.65l-.259.08a.47.47 0 0 1-.39-.208m-31.177 2.508a.467.467 0 0 1-.161-.643 54.047 54.047 0 0 1 2.047-3.171.469.469 0 0 1 .768.537 52.992 52.992 0 0 0-2.013 3.115.466.466 0 0 1-.401.228l-.24-.066m34.915 3.91a74.792 74.792 0 0 0-1.778-3.268.468.468 0 0 1 .81-.47 72.552 72.552 0 0 1 1.801 3.312.47.47 0 0 1-.203.63l-.213.05a.466.466 0 0 1-.417-.254m-38.378 2.728a.466.466 0 0 1-.224-.623 86.132 86.132 0 0 1 1.679-3.371.467.467 0 1 1 .828.437 83.512 83.512 0 0 0-1.661 3.333.468.468 0 0 1-.423.269l-.199-.045m41.497 4.04a104.731 104.731 0 0 0-1.495-3.415.468.468 0 1 1 .85-.392 107.632 107.632 0 0 1 1.508 3.446.47.47 0 0 1-.251.613l-.181.036a.467.467 0 0 1-.431-.288m-44.415 2.857a.467.467 0 0 1-.266-.607c.466-1.196.941-2.356 1.421-3.48a.468.468 0 1 1 .861.367 120.52 120.52 0 0 0-1.41 3.454.469.469 0 0 1-.436.298l-.17-.032m47.086 4.112a145.364 145.364 0 0 0-1.287-3.504.466.466 0 0 1 .269-.604.47.47 0 0 1 .605.269c.438 1.145.87 2.32 1.296 3.527a.47.47 0 0 1-.286.598l-.155.026a.469.469 0 0 1-.442-.312M391.89 82.77a.467.467 0 0 1-.296-.591c.405-1.212.814-2.395 1.229-3.55a.47.47 0 0 1 .882.317 156.718 156.718 0 0 0-1.222 3.529.47.47 0 0 1-.445.32l-.148-.025m51.935 4.156c-.37-1.212-.745-2.4-1.125-3.562a.469.469 0 0 1 .889-.292c.382 1.169.76 2.363 1.131 3.58a.468.468 0 0 1-.311.585l-.137.02c-.2 0-.386-.13-.447-.331m-54.14 3.004a.47.47 0 0 1-.319-.58 201.01 201.01 0 0 1 1.079-3.596.467.467 0 1 1 .894.277c-.363 1.17-.72 2.363-1.073 3.58a.469.469 0 0 1-.45.337l-.131-.018m56.191 4.184a226.585 226.585 0 0 0-.995-3.603.468.468 0 1 1 .901-.257c.338 1.186.671 2.392.998 3.619a.468.468 0 0 1-.332.573l-.121.016a.467.467 0 0 1-.451-.348m-58.138 3.049a.467.467 0 0 1-.338-.57c.313-1.228.63-2.44.953-3.628a.467.467 0 1 1 .903.244c-.32 1.186-.637 2.39-.949 3.616a.468.468 0 0 1-.454.353l-.115-.015m59.955 4.204a252.549 252.549 0 0 0-.882-3.633.467.467 0 1 1 .907-.228c.3 1.197.596 2.413.887 3.646a.468.468 0 0 1-.349.563l-.108.013a.47.47 0 0 1-.455-.361m-61.687 3.084a.467.467 0 0 1-.354-.56c.278-1.234.561-2.452.848-3.654a.468.468 0 0 1 .911.218 256.375 256.375 0 0 0-.845 3.642.468.468 0 0 1-.456.366l-.104-.012m63.307 4.218a325.12 325.12 0 0 0-.786-3.656.467.467 0 1 1 .914-.203c.267 1.207.53 2.43.788 3.668a.466.466 0 0 1-.362.553l-.096.01a.468.468 0 0 1-.458-.372m-64.85 3.113a.468.468 0 0 1-.367-.551c.247-1.24.499-2.463.755-3.674a.469.469 0 0 1 .916.194 302.04 302.04 0 0 0-.753 3.663.468.468 0 0 1-.458.377l-.093-.01m66.295 4.228a313.404 313.404 0 0 0-.702-3.675.469.469 0 0 1 .919-.181c.239 1.215.473 2.443.703 3.684a.467.467 0 0 1-.374.546l-.086.008a.468.468 0 0 1-.46-.382m-67.671 3.137a.469.469 0 0 1-.38-.543c.221-1.242.445-2.472.675-3.69a.469.469 0 0 1 .547-.372c.254.047.42.292.372.546-.228 1.214-.452 2.44-.672 3.68a.469.469 0 0 1-.46.386l-.082-.007m68.962 4.23c-.206-1.24-.415-2.47-.628-3.687a.468.468 0 0 1 .923-.16c.212 1.22.422 2.452.627 3.697a.467.467 0 0 1-.385.537l-.078.007a.465.465 0 0 1-.459-.393m-70.19 3.158a.468.468 0 0 1-.39-.535c.196-1.245.397-2.48.601-3.701a.469.469 0 0 1 .923.154 397.6 397.6 0 0 0-.598 3.693.47.47 0 0 1-.462.395l-.074-.006m71.335 4.237a358.473 358.473 0 0 0-.556-3.7.468.468 0 0 1 .926-.143c.19 1.225.375 2.46.558 3.708a.47.47 0 0 1-.397.53l-.068.006a.47.47 0 0 1-.463-.401m-72.426 3.174a.467.467 0 0 1-.398-.528c.174-1.246.351-2.484.534-3.711a.468.468 0 1 1 .925.138 433.181 433.181 0 0 0-.532 3.702.469.469 0 0 1-.463.404l-.066-.005m73.443 4.239c-.16-1.246-.325-2.482-.493-3.71a.468.468 0 1 1 .928-.127c.168 1.23.333 2.47.493 3.718a.467.467 0 0 1-.403.524l-.061.004a.47.47 0 0 1-.464-.41m-74.404 3.19a.468.468 0 0 1-.408-.52c.152-1.25.309-2.49.47-3.72a.468.468 0 1 1 .929.121 457.344 457.344 0 0 0-.47 3.712.468.468 0 0 1-.464.41l-.057-.002m75.299 4.24c-.14-1.247-.284-2.486-.433-3.716a.47.47 0 0 1 .929-.113c.15 1.233.294 2.475.435 3.725a.47.47 0 0 1-.413.517l-.053.002a.467.467 0 0 1-.465-.415m-76.145 3.203a.468.468 0 0 1-.416-.515c.133-1.25.271-2.492.412-3.726a.467.467 0 1 1 .93.106 480.919 480.919 0 0 0-.411 3.72.47.47 0 0 1-.465.418l-.05-.003m76.925 4.239a550.825 550.825 0 0 0-.375-3.722.465.465 0 0 1 .415-.514.46.46 0 0 1 .515.416c.13 1.235.256 2.479.377 3.73a.467.467 0 0 1-.42.51l-.046.003a.47.47 0 0 1-.466-.423m-77.66 3.216a.468.468 0 0 1-.423-.51c.116-1.25.235-2.494.357-3.731a.469.469 0 0 1 .933.093 555.831 555.831 0 0 0-.358 3.726.468.468 0 0 1-.465.424l-.044-.002m78.332 4.239c-.102-1.25-.21-2.493-.321-3.73a.468.468 0 1 1 .933-.083c.111 1.239.218 2.484.323 3.735a.469.469 0 0 1-.428.505l-.04.002a.47.47 0 0 1-.467-.43m-78.959 3.226a.466.466 0 0 1-.429-.503c.097-1.252.199-2.497.304-3.736.023-.258.276-.454.505-.426a.467.467 0 0 1 .427.506 575.018 575.018 0 0 0-.304 3.729.468.468 0 0 1-.466.432l-.037-.002m79.53 4.237a594.27 594.27 0 0 0-.272-3.732.467.467 0 1 1 .932-.071c.095 1.239.186 2.486.273 3.738a.467.467 0 0 1-.433.499h-.034a.467.467 0 0 1-.466-.434m-80.055 3.235a.47.47 0 0 1-.437-.497c.081-1.253.166-2.5.254-3.74a.454.454 0 0 1 .501-.433.468.468 0 0 1 .434.5 603.457 603.457 0 0 0-.255 3.733.468.468 0 0 1-.466.438l-.031-.001m80.525 4.235c-.071-1.25-.145-2.496-.223-3.735a.468.468 0 1 1 .934-.06c.077 1.243.152 2.49.223 3.743a.468.468 0 0 1-.441.493h-.027a.466.466 0 0 1-.466-.441m-80.952 3.244a.467.467 0 0 1-.443-.492c.064-1.253.133-2.5.205-3.743a.472.472 0 0 1 .494-.44.468.468 0 0 1 .44.495 539.77 539.77 0 0 0-.205 3.736.467.467 0 0 1-.467.444h-.024m81.325 4.232a728.108 728.108 0 0 0-.175-3.74.47.47 0 0 1 .445-.49c.273-.023.477.187.49.444.063 1.244.121 2.492.176 3.745a.468.468 0 0 1-.448.487h-.02a.468.468 0 0 1-.468-.446m-81.658 3.25a.468.468 0 0 1-.45-.485c.049-1.253.101-2.502.158-3.745.011-.257.209-.48.488-.447a.468.468 0 0 1 .446.489 728.072 728.072 0 0 0-.156 3.739.468.468 0 0 1-.468.45h-.018m81.938 4.228a562.5 562.5 0 0 0-.128-3.741.469.469 0 0 1 .45-.485.46.46 0 0 1 .486.45c.045 1.244.088 2.493.128 3.746a.469.469 0 0 1-.454.483h-.015a.468.468 0 0 1-.467-.453m-82.177 3.259a.468.468 0 0 1-.456-.481c.033-1.253.07-2.502.112-3.746.007-.258.177-.47.483-.452a.468.468 0 0 1 .453.483 562.542 562.542 0 0 0-.112 3.74.47.47 0 0 1-.468.456h-.012m82.367 4.224a897.926 897.926 0 0 0-.084-3.742.468.468 0 0 1 .457-.48.457.457 0 0 1 .479.456c.031 1.245.059 2.494.084 3.747a.47.47 0 0 1-.459.477h-.009a.467.467 0 0 1-.468-.458m-82.519 3.264a.468.468 0 0 1-.461-.475c.019-1.253.041-2.502.066-3.748a.47.47 0 0 1 .468-.458h.01c.258.006.464.22.458.478a760.4 760.4 0 0 0-.066 3.742.468.468 0 0 1-.468.46h-.007m82.618 4.219c-.01-1.25-.023-2.497-.039-3.741a.469.469 0 0 1 .462-.475h.006c.256 0 .464.206.468.462.017 1.247.029 2.495.038 3.749a.468.468 0 0 1-.464.47h-.004a.469.469 0 0 1-.467-.465m-82.677 3.267a.469.469 0 0 1-.467-.47c.004-1.251.011-2.5.022-3.742a.467.467 0 0 1 .468-.464h.004a.469.469 0 0 1 .464.472 660.598 660.598 0 0 0-.022 3.737.468.468 0 0 1-.468.467h-.001m83.153 4.688a.47.47 0 0 1-.466-.47c.005-.934.008-1.87.007-2.807l-.001-.934a.468.468 0 1 1 .936-.001l.001.934c.001.94-.002 1.876-.006 2.812a.468.468 0 0 1-.469.466h-.002m-83.612.47a666.98 666.98 0 0 1-.011-3.747.467.467 0 1 1 .936 0c0 1.25.004 2.499.011 3.743a.468.468 0 0 1-.465.47h-.003a.469.469 0 0 1-.468-.465m83.529 7.01a.467.467 0 0 1-.46-.475c.021-1.243.037-2.49.05-3.743a.468.468 0 0 1 .468-.463h.006a.469.469 0 0 1 .463.473 765.31 765.31 0 0 1-.05 3.748.469.469 0 0 1-.468.46h-.009m-83.44.486a574.955 574.955 0 0 1-.055-3.748.466.466 0 0 1 .462-.472h.006c.256 0 .465.205.468.462.014 1.252.033 2.5.055 3.743a.467.467 0 0 1-.46.475h-.008a.467.467 0 0 1-.468-.46m83.269 7.002a.467.467 0 0 1-.455-.48c.035-1.243.067-2.49.095-3.742.006-.258.192-.441.479-.458.258.005.463.22.458.478a900.377 900.377 0 0 1-.095 3.747.47.47 0 0 1-.469.455h-.013m-83.092.49c-.037-1.243-.07-2.492-.101-3.745a.47.47 0 0 1 .458-.48c.234.014.472.199.478.458.031 1.252.064 2.499.101 3.74a.469.469 0 0 1-.454.483h-.014a.469.469 0 0 1-.468-.455m82.83 6.997a.472.472 0 0 1-.451-.488c.051-1.242.097-2.49.141-3.74.01-.258.197-.44.484-.451a.47.47 0 0 1 .452.484 743.73 743.73 0 0 1-.14 3.745.47.47 0 0 1-.469.45h-.017m-82.561.496a561.405 561.405 0 0 1-.146-3.746.468.468 0 0 1 .451-.485c.251.01.475.193.485.45.045 1.253.093 2.499.146 3.74a.47.47 0 0 1-.448.489h-.02a.468.468 0 0 1-.468-.448m82.204 6.984a.468.468 0 0 1-.443-.492c.066-1.24.129-2.486.186-3.737a.461.461 0 0 1 .491-.446.469.469 0 0 1 .445.49c-.06 1.252-.121 2.5-.188 3.743a.466.466 0 0 1-.465.443l-.026-.001m-81.841.503c-.069-1.242-.133-2.49-.193-3.742a.466.466 0 0 1 .444-.49c.287-.023.477.186.49.444.061 1.25.125 2.496.193 3.737a.465.465 0 0 1-.441.492h-.026a.467.467 0 0 1-.467-.441m81.389 6.975a.47.47 0 0 1-.437-.498c.083-1.24.161-2.485.236-3.736a.46.46 0 0 1 .496-.438.466.466 0 0 1 .438.495 535.9 535.9 0 0 1-.236 3.74.466.466 0 0 1-.466.438l-.031-.001m-80.931.507c-.084-1.24-.164-2.488-.241-3.741a.468.468 0 0 1 .439-.495c.258-.028.479.18.496.439.076 1.25.157 2.495.241 3.733a.47.47 0 0 1-.435.5h-.033a.47.47 0 0 1-.467-.436m80.381 6.962a.465.465 0 0 1-.429-.503c.098-1.238.193-2.481.284-3.731a.468.468 0 1 1 .932.068 477.525 477.525 0 0 1-.285 3.738.465.465 0 0 1-.466.43l-.036-.002m-79.823.514a591.498 591.498 0 0 1-.292-3.736.467.467 0 0 1 .432-.502.456.456 0 0 1 .502.432c.092 1.249.189 2.494.29 3.73a.469.469 0 0 1-.429.505h-.038a.466.466 0 0 1-.465-.43m79.169 6.95a.469.469 0 0 1-.422-.51c.116-1.236.228-2.477.336-3.727a.469.469 0 0 1 .933.08 640.037 640.037 0 0 1-.336 3.734.47.47 0 0 1-.466.425l-.045-.002m-78.509.52a561.55 561.55 0 0 1-.344-3.733.467.467 0 0 1 .426-.506.48.48 0 0 1 .507.424c.11 1.25.225 2.492.344 3.727a.47.47 0 0 1-.422.51l-.046.003a.47.47 0 0 1-.465-.424m77.748 6.93a.466.466 0 0 1-.414-.514c.134-1.234.264-2.474.39-3.723a.469.469 0 0 1 .932.096c-.127 1.25-.257 2.492-.391 3.727a.47.47 0 0 1-.465.418l-.052-.003m-76.979.525a554.393 554.393 0 0 1-.398-3.727.467.467 0 0 1 .417-.513.464.464 0 0 1 .514.416c.129 1.248.262 2.489.398 3.722a.468.468 0 0 1-.414.516l-.053.003a.469.469 0 0 1-.464-.417m76.106 6.915a.468.468 0 0 1-.407-.522c.153-1.23.303-2.467.448-3.715a.468.468 0 1 1 .929.108 469.947 469.947 0 0 1-.448 3.723.469.469 0 0 1-.464.41l-.058-.004m-75.224.532a457.221 457.221 0 0 1-.456-3.722.468.468 0 1 1 .929-.11c.148 1.247.3 2.485.455 3.715a.468.468 0 0 1-.406.523l-.059.003a.466.466 0 0 1-.463-.41m74.23 6.893a.468.468 0 0 1-.398-.53c.173-1.225.343-2.462.507-3.707a.465.465 0 0 1 .527-.402c.257.034.436.27.402.525a446.236 446.236 0 0 1-.51 3.716.468.468 0 0 1-.463.403l-.065-.005m-73.227.54a463.118 463.118 0 0 1-.516-3.714.467.467 0 0 1 .401-.527c.25-.046.492.145.526.4.168 1.246.339 2.482.516 3.708a.468.468 0 0 1-.397.53l-.067.004a.469.469 0 0 1-.463-.4m72.104 6.866a.468.468 0 0 1-.388-.537c.195-1.222.387-2.454.573-3.697a.47.47 0 0 1 .926.139c-.187 1.246-.38 2.48-.575 3.706a.468.468 0 0 1-.462.394l-.074-.005m-70.97.546c-.2-1.224-.394-2.46-.585-3.705a.467.467 0 0 1 .926-.141c.19 1.242.384 2.474.582 3.696a.468.468 0 0 1-.387.537l-.076.006a.467.467 0 0 1-.46-.393m69.707 6.838a.47.47 0 0 1-.379-.544c.22-1.216.435-2.445.645-3.686a.467.467 0 0 1 .54-.383.47.47 0 0 1 .384.54 425.072 425.072 0 0 1-.647 3.695.469.469 0 0 1-.46.385l-.083-.007m-68.435.552c-.222-1.218-.44-2.45-.655-3.692a.468.468 0 1 1 .923-.16c.213 1.24.431 2.47.654 3.684a.47.47 0 0 1-.377.545l-.085.007a.468.468 0 0 1-.46-.384m67.018 6.803a.47.47 0 0 1-.366-.553c.245-1.21.486-2.432.723-3.67a.47.47 0 0 1 .92.175c-.239 1.242-.48 2.469-.725 3.682a.469.469 0 0 1-.459.375l-.093-.01m-65.589.564a357.2 357.2 0 0 1-.735-3.68.47.47 0 0 1 .92-.178c.239 1.237.484 2.46.733 3.669a.47.47 0 0 1-.365.554l-.095.009a.47.47 0 0 1-.458-.374m64.002 6.758a.466.466 0 0 1-.352-.56c.274-1.201.544-2.42.809-3.652a.473.473 0 0 1 .557-.36.47.47 0 0 1 .359.557 313.678 313.678 0 0 1-.813 3.663.467.467 0 0 1-.456.364l-.104-.012m-62.4.57a321.159 321.159 0 0 1-.823-3.66.466.466 0 0 1 .357-.556.466.466 0 0 1 .557.357c.27 1.233.543 2.449.821 3.65a.466.466 0 0 1-.351.56l-.105.013a.468.468 0 0 1-.456-.363m60.617 6.705a.467.467 0 0 1-.335-.57c.307-1.192.61-2.4.908-3.626a.467.467 0 1 1 .91.22 241.625 241.625 0 0 1-.913 3.64.467.467 0 0 1-.452.35l-.118-.014m-58.818.58a255.673 255.673 0 0 1-.927-3.636.468.468 0 0 1 .909-.224c.303 1.226.611 2.433.923 3.622a.466.466 0 0 1-.334.57l-.119.017a.467.467 0 0 1-.452-.35m56.811 6.639a.469.469 0 0 1-.316-.581c.347-1.177.688-2.376 1.025-3.594a.468.468 0 0 1 .902.248 209.936 209.936 0 0 1-1.03 3.61.466.466 0 0 1-.448.336l-.133-.02m-54.784.59a212.228 212.228 0 0 1-1.044-3.604.467.467 0 1 1 .901-.253c.341 1.219.687 2.415 1.039 3.589a.467.467 0 0 1-.313.583l-.135.019a.468.468 0 0 1-.448-.333m52.508 6.546a.468.468 0 0 1-.293-.593c.394-1.158.78-2.341 1.163-3.55a.467.467 0 1 1 .892.282 183.054 183.054 0 0 1-1.168 3.569.47.47 0 0 1-.445.317l-.149-.025m-50.206.605c-.402-1.161-.798-2.35-1.188-3.564a.468.468 0 1 1 .89-.287c.389 1.209.783 2.39 1.183 3.543a.47.47 0 0 1-.289.597l-.153.025a.471.471 0 0 1-.443-.314m47.597 6.416a.467.467 0 0 1-.262-.608c.451-1.13.896-2.292 1.335-3.485a.467.467 0 1 1 .878.32 134.602 134.602 0 0 1-1.344 3.513.466.466 0 0 1-.434.294l-.173-.034m-44.955.619a129.1 129.1 0 0 1-1.369-3.502.467.467 0 1 1 .876-.327c.448 1.19.9 2.35 1.36 3.474a.469.469 0 0 1-.256.61l-.177.036a.469.469 0 0 1-.434-.291m41.916 6.226a.466.466 0 0 1-.217-.624 96.895 96.895 0 0 0 1.556-3.387.468.468 0 0 1 .858.375 97.863 97.863 0 0 1-1.572 3.419.467.467 0 0 1-.422.264l-.203-.047m-38.831.635a91.597 91.597 0 0 1-1.607-3.404.467.467 0 0 1 .854-.383 94.663 94.663 0 0 0 1.591 3.37.468.468 0 0 1-.21.627l-.209.05a.469.469 0 0 1-.419-.26m35.204 5.913a.468.468 0 0 1-.153-.644 63.22 63.22 0 0 0 1.865-3.215.468.468 0 0 1 .824.446 65.776 65.776 0 0 1-1.893 3.263.465.465 0 0 1-.397.22l-.246-.07m-31.506.65a61.835 61.835 0 0 1-1.94-3.233.468.468 0 1 1 .817-.457 61.736 61.736 0 0 0 1.909 3.184.466.466 0 0 1-.139.646l-.254.076a.47.47 0 0 1-.393-.215m27.005 5.316a.469.469 0 0 1-.035-.66 36.38 36.38 0 0 0 2.316-2.875.47.47 0 0 1 .654-.102.47.47 0 0 1 .103.655 38.236 38.236 0 0 1-2.376 2.947.466.466 0 0 1-.662.035m-22.384.663a34.824 34.824 0 0 1-2.454-2.884.467.467 0 1 1 .744-.57 33.868 33.868 0 0 0 2.386 2.807.468.468 0 1 1-.676.647m16.55 3.92a.469.469 0 0 1 .191-.634c.995-.534 2-1.225 2.984-2.05a.467.467 0 1 1 .602.716 18.81 18.81 0 0 1-3.144 2.16l-.221.055a.468.468 0 0 1-.412-.247m-10.478.617a17.126 17.126 0 0 1-3.255-1.987.467.467 0 1 1 .568-.743 16.318 16.318 0 0 0 3.077 1.88.467.467 0 0 1-.195.893l-.195-.043m3.674 1.075a.468.468 0 0 1 .12-.93c.438.058.88.086 1.315.086.78-.02 1.488-.078 2.222-.234a.48.48 0 0 1 .555.362.468.468 0 0 1-.362.555c-.79.167-1.596.252-2.395.252h-.021c-.474 0-.956-.03-1.434-.091" fill="#FFF"/>
        <path d="M422.982 93.704c-1.24-.03-2.483-.05-3.731-.06a.47.47 0 0 1-.465-.472c.002-.258.191-.48.471-.465 1.254.01 2.502.03 3.748.06a.469.469 0 0 1-.011.937h-.012m-11.684-.452a.467.467 0 0 1 .456-.48 212.53 212.53 0 0 1 3.753-.063h.003a.469.469 0 0 1 .004.936c-1.249.01-2.494.03-3.736.063h-.012a.468.468 0 0 1-.468-.456m19.152.759a240.997 240.997 0 0 0-3.733-.184.469.469 0 0 1-.449-.487c.011-.258.241-.48.487-.448 1.254.052 2.502.113 3.748.185a.469.469 0 0 1-.026.935l-.027-.001m-26.632-.431a.468.468 0 0 1 .44-.495c1.245-.073 2.495-.136 3.748-.188a.464.464 0 0 1 .487.448.468.468 0 0 1-.448.487 227.87 227.87 0 0 0-3.732.187h-.028a.468.468 0 0 1-.467-.44m34.082.99a213.945 213.945 0 0 0-3.724-.31.47.47 0 0 1-.431-.502.472.472 0 0 1 .503-.432c1.25.094 2.496.198 3.738.312a.469.469 0 0 1-.042.934l-.044-.002m-41.549-.41a.47.47 0 0 1 .424-.51c1.242-.115 2.489-.22 3.738-.313a.46.46 0 0 1 .503.43.467.467 0 0 1-.431.503c-1.246.094-2.488.198-3.724.313l-.045.002a.469.469 0 0 1-.465-.425m48.978 1.222a202.086 202.086 0 0 0-3.71-.437.468.468 0 0 1 .1-.931c1.248.136 2.491.282 3.729.439a.469.469 0 0 1-.059.932l-.06-.003m-56.419-.39a.468.468 0 0 1 .405-.523 214.27 214.27 0 0 1 3.727-.441.47.47 0 0 1 .517.414.469.469 0 0 1-.415.516c-1.241.137-2.478.283-3.71.44l-.06.004a.468.468 0 0 1-.464-.41m63.815 1.455a215.555 215.555 0 0 0-3.693-.564.469.469 0 0 1 .134-.928c1.242.18 2.478.369 3.71.568a.468.468 0 0 1-.075.93l-.076-.006m-71.224-.367a.469.469 0 0 1 .386-.537c1.231-.2 2.468-.39 3.709-.57a.465.465 0 0 1 .531.396.47.47 0 0 1-.397.53c-1.236.18-2.468.369-3.693.568l-.075.006a.467.467 0 0 1-.461-.393m78.578 1.692a224.754 224.754 0 0 0-3.672-.695.468.468 0 0 1 .166-.921c1.236.222 2.465.455 3.688.698a.468.468 0 0 1-.09.927l-.092-.01m-85.946-.342a.468.468 0 0 1 .368-.55c1.224-.244 2.453-.478 3.688-.701a.47.47 0 0 1 .544.378.47.47 0 0 1-.378.544c-1.229.222-2.453.454-3.671.696l-.093.009a.467.467 0 0 1-.458-.376m93.248 1.93a201.18 201.18 0 0 0-3.644-.827.468.468 0 1 1 .199-.915c1.226.267 2.446.543 3.66.83a.47.47 0 0 1-.108.924l-.107-.012m-100.56-.32a.468.468 0 0 1 .347-.563c1.214-.287 2.434-.565 3.66-.832a.468.468 0 0 1 .199.915c-1.22.266-2.435.542-3.643.828l-.108.013a.468.468 0 0 1-.455-.36m107.798 2.168a200.839 200.839 0 0 0-3.612-.958.467.467 0 0 1 .233-.907c1.216.31 2.426.632 3.628.963a.471.471 0 0 1 .327.576.47.47 0 0 1-.452.343l-.124-.017m-115.048-.292a.469.469 0 0 1 .327-.576c1.202-.332 2.411-.654 3.627-.965a.468.468 0 0 1 .232.907c-1.211.31-2.414.63-3.61.96l-.125.017a.468.468 0 0 1-.451-.343m122.212 2.41a200.293 200.293 0 0 0-3.572-1.092.468.468 0 1 1 .265-.898c1.203.356 2.402.722 3.59 1.098a.469.469 0 0 1-.141.914l-.142-.022m-129.387-.265a.469.469 0 0 1 .305-.588c1.189-.377 2.385-.744 3.589-1.101a.469.469 0 0 1 .265.898c-1.197.354-2.387.719-3.571 1.095l-.142.022a.468.468 0 0 1-.446-.326m136.466 2.655c-1.169-.42-2.345-.83-3.529-1.23a.468.468 0 0 1 .299-.886c1.191.402 2.373.813 3.546 1.235a.468.468 0 0 1-.158.908l-.158-.027m-143.554-.24a.468.468 0 0 1 .281-.598c1.174-.423 2.355-.835 3.544-1.238a.469.469 0 0 1 .3.888c-1.183.4-2.359.81-3.526 1.23l-.159.028a.467.467 0 0 1-.44-.31m150.532 2.904c-1.15-.466-2.309-.921-3.476-1.367a.469.469 0 1 1 .334-.875c1.174.449 2.338.906 3.493 1.374a.467.467 0 0 1-.175.902l-.176-.034m-157.519-.21a.467.467 0 0 1 .258-.61 196.3 196.3 0 0 1 3.491-1.376.468.468 0 1 1 .335.874 194.49 194.49 0 0 0-3.475 1.369l-.176.035a.466.466 0 0 1-.433-.292m164.384 3.154a172.949 172.949 0 0 0-3.417-1.507.469.469 0 0 1 .369-.861c1.154.495 2.3 1 3.434 1.515a.468.468 0 0 1-.193.894l-.193-.041m-171.257-.181a.468.468 0 0 1 .232-.62 193.839 193.839 0 0 1 3.435-1.517.467.467 0 1 1 .369.86c-1.148.493-2.286.997-3.416 1.509l-.194.042a.468.468 0 0 1-.426-.274m177.992 3.407a179.577 179.577 0 0 0-3.35-1.65.468.468 0 0 1 .404-.844c1.134.543 2.257 1.096 3.369 1.658a.468.468 0 0 1-.211.886l-.212-.05m-184.737-.15a.467.467 0 0 1 .207-.628 169.904 169.904 0 0 1 3.368-1.661.467.467 0 1 1 .404.844 179.657 179.657 0 0 0-3.35 1.652l-.211.05a.469.469 0 0 1-.418-.256m191.326 3.664a162.577 162.577 0 0 0-3.275-1.794.468.468 0 0 1 .441-.826c1.109.59 2.207 1.193 3.293 1.803a.47.47 0 0 1-.23.877l-.229-.06m-197.919-.117a.467.467 0 0 1 .179-.637 157.343 157.343 0 0 1 3.292-1.806.467.467 0 1 1 .441.825 176.896 176.896 0 0 0-3.274 1.796l-.23.06a.469.469 0 0 1-.408-.238m204.344 3.923a161.964 161.964 0 0 0-3.191-1.94.469.469 0 0 1 .478-.805c1.081.64 2.15 1.29 3.208 1.95a.468.468 0 0 1-.248.866l-.247-.071m-210.771-.082a.468.468 0 0 1 .148-.645 156.328 156.328 0 0 1 3.208-1.954.467.467 0 1 1 .477.805 157.139 157.139 0 0 0-3.188 1.943l-.248.07a.468.468 0 0 1-.397-.22m217.007 4.187a159.228 159.228 0 0 0-3.094-2.09.468.468 0 0 1 .514-.781c1.051.69 2.089 1.39 3.112 2.1a.469.469 0 0 1-.532.77m-223.247-.045a.467.467 0 0 1 .117-.651 151.061 151.061 0 0 1 3.111-2.105.467.467 0 1 1 .515.78 152.062 152.062 0 0 0-3.093 2.094.467.467 0 0 1-.65-.118m229.272 4.45a145.04 145.04 0 0 0-2.984-2.24.467.467 0 1 1 .552-.755c1.014.74 2.016 1.493 3.004 2.254a.468.468 0 1 1-.572.742m-235.298-.008a.466.466 0 0 1 .084-.656 139.87 139.87 0 0 1 3.001-2.258.468.468 0 0 1 .554.755 145.041 145.041 0 0 0-2.983 2.243.465.465 0 0 1-.656-.084m241.087 4.717a137.18 137.18 0 0 0-2.862-2.393.467.467 0 1 1 .59-.726c.976.793 1.937 1.596 2.883 2.409a.468.468 0 1 1-.611.71m-246.877.032a.47.47 0 0 1 .049-.66c.945-.813 1.906-1.617 2.881-2.412a.468.468 0 0 1 .591.726 137.23 137.23 0 0 0-2.861 2.396.465.465 0 0 1-.66-.05m252.4 4.984a137.842 137.842 0 0 0-2.725-2.546.467.467 0 1 1 .629-.693c.931.845 1.847 1.7 2.745 2.565a.468.468 0 1 1-.649.674m-257.919.073a.467.467 0 0 1 .013-.661c.898-.864 1.813-1.721 2.742-2.567a.469.469 0 1 1 .631.692c-.924.84-1.832 1.69-2.724 2.549a.466.466 0 0 1-.662-.013m263.143 5.252c-.84-.91-1.698-1.81-2.572-2.7a.47.47 0 0 1 .006-.662.466.466 0 0 1 .661.006c.882.898 1.745 1.805 2.592 2.72a.467.467 0 1 1-.687.636m-268.36.118a.47.47 0 0 1-.027-.662c.846-.917 1.709-1.824 2.588-2.723a.469.469 0 0 1 .67.655c-.874.892-1.73 1.794-2.57 2.703a.465.465 0 0 1-.661.027m273.248 5.514c-.782-.96-1.582-1.912-2.4-2.853a.469.469 0 0 1 .707-.615c.824.95 1.631 1.909 2.419 2.877a.468.468 0 1 1-.726.59m-278.128.165a.467.467 0 0 1-.067-.658 119.86 119.86 0 0 1 2.415-2.88.468.468 0 0 1 .707.614c-.816.943-1.615 1.896-2.396 2.856a.465.465 0 0 1-.659.068m282.64 5.77a114.541 114.541 0 0 0-2.206-3.004.468.468 0 1 1 .745-.566c.756.993 1.505 2.012 2.225 3.028a.47.47 0 0 1-.381.739.468.468 0 0 1-.383-.197m-287.14.21a.467.467 0 0 1-.112-.651 111.89 111.89 0 0 1 2.223-3.031.468.468 0 1 1 .745.566c-.754.993-1.488 1.995-2.204 3.006a.466.466 0 0 1-.652.11m291.235 6.015a105.157 105.157 0 0 0-1.992-3.148.469.469 0 1 1 .783-.515c.689 1.05 1.365 2.119 2.009 3.177a.467.467 0 0 1-.158.643l-.242.069a.47.47 0 0 1-.4-.226m-295.313.263a.47.47 0 0 1-.158-.643 108.185 108.185 0 0 1 2.008-3.18.468.468 0 0 1 .783.515 104.251 104.251 0 0 0-1.99 3.15.468.468 0 0 1-.4.226l-.243-.068m298.946 6.24a97.8 97.8 0 0 0-1.756-3.284.469.469 0 0 1 .817-.457 99.624 99.624 0 0 1 1.773 3.317.467.467 0 0 1-.205.629l-.212.05a.468.468 0 0 1-.417-.255m-302.556.315a.467.467 0 0 1-.204-.63 97.556 97.556 0 0 1 1.768-3.317.468.468 0 1 1 .817.455 103.442 103.442 0 0 0-1.752 3.287.465.465 0 0 1-.416.256l-.213-.051m305.682 6.446a92.094 92.094 0 0 0-1.497-3.41.469.469 0 0 1 .849-.394 98.085 98.085 0 0 1 1.512 3.444.47.47 0 0 1-.252.612l-.18.036a.468.468 0 0 1-.432-.288m-308.787.377a.47.47 0 0 1-.253-.612 95.008 95.008 0 0 1 1.512-3.456.467.467 0 1 1 .85.39 95.711 95.711 0 0 0-1.497 3.424.47.47 0 0 1-.433.289l-.179-.035m311.362 6.606a88.65 88.65 0 0 0-1.217-3.517.469.469 0 0 1 .879-.325 93.963 93.963 0 0 1 1.229 3.555.468.468 0 0 1-.301.589l-.145.023a.467.467 0 0 1-.445-.325m-313.907.442a.468.468 0 0 1-.302-.59 94.929 94.929 0 0 1 1.224-3.56.469.469 0 0 1 .88.324 91.299 91.299 0 0 0-1.213 3.524.467.467 0 0 1-.445.324l-.144-.022m315.891 6.717a85.59 85.59 0 0 0-.918-3.601.47.47 0 0 1 .903-.251c.335 1.207.646 2.432.927 3.64a.47.47 0 0 1-.35.563l-.107.01a.467.467 0 0 1-.455-.361m-317.836.5a.467.467 0 0 1-.351-.56 88.9 88.9 0 0 1 .92-3.641.47.47 0 0 1 .903.248 87.875 87.875 0 0 0-.911 3.603.47.47 0 0 1-.456.363l-.105-.012m319.205 6.817a87.13 87.13 0 0 0-.606-3.676.467.467 0 1 1 .92-.172c.23 1.23.436 2.48.614 3.715a.47.47 0 0 1-.398.53l-.067.005a.469.469 0 0 1-.463-.402m-320.528.535a.467.467 0 0 1-.398-.53c.175-1.237.379-2.486.607-3.711a.469.469 0 0 1 .92.17 86.399 86.399 0 0 0-.6 3.673.467.467 0 0 1-.463.402l-.066-.004m321.26 6.878a87.078 87.078 0 0 0-.284-3.71.468.468 0 1 1 .931-.092c.123 1.25.22 2.512.287 3.75a.468.468 0 0 1-.442.493h-.026a.466.466 0 0 1-.466-.441m-321.943.572a.467.467 0 0 1-.442-.492c.068-1.257.163-2.52.282-3.752a.477.477 0 0 1 .511-.42.467.467 0 0 1 .421.51 90.856 90.856 0 0 0-.28 3.712.468.468 0 0 1-.466.444l-.026-.002m322.479 7.352a.466.466 0 0 1-.453-.482 87.212 87.212 0 0 0 .039-3.724.468.468 0 0 1 .463-.473c.259-.036.47.204.472.463a89.072 89.072 0 0 1-.039 3.764.467.467 0 0 1-.468.452h-.014m-322.994-.323a88.388 88.388 0 0 1-.048-2.916l.003-.845a.468.468 0 0 1 .469-.463h.004a.467.467 0 0 1 .464.47l-.004.838c0 .964.016 1.926.048 2.885a.467.467 0 0 1-.452.483h-.016a.468.468 0 0 1-.468-.452m322.387 7.78a.467.467 0 0 1-.408-.52c.148-1.23.269-2.476.362-3.703a.467.467 0 1 1 .932.07c-.093 1.24-.216 2.5-.365 3.745a.468.468 0 0 1-.465.413l-.056-.004m-321.804-.27a84.649 84.649 0 0 1-.373-3.756.467.467 0 0 1 .429-.503.462.462 0 0 1 .503.43 87.51 87.51 0 0 0 .369 3.716.465.465 0 0 1-.407.52l-.058.004a.466.466 0 0 1-.463-.411m320.555 7.645a.467.467 0 0 1-.362-.554c.252-1.213.481-2.445.68-3.657a.468.468 0 0 1 .925.151 88.138 88.138 0 0 1-.689 3.698.469.469 0 0 1-.458.372l-.096-.01m-319.325-.216a85.937 85.937 0 0 1-.696-3.7.468.468 0 0 1 .924-.153c.203 1.224.434 2.455.688 3.659a.469.469 0 0 1-.361.555l-.098.01a.468.468 0 0 1-.457-.371m317.451 7.449a.468.468 0 0 1-.314-.583c.352-1.184.686-2.39.99-3.585a.466.466 0 0 1 .569-.338c.25.063.403.318.338.568a89.507 89.507 0 0 1-1.001 3.623.467.467 0 0 1-.448.334l-.134-.02m-315.593-.17a89.273 89.273 0 0 1-1.007-3.617.47.47 0 0 1 .338-.571.467.467 0 0 1 .569.338c.305 1.193.64 2.397.995 3.58a.466.466 0 0 1-.312.583l-.135.02a.467.467 0 0 1-.448-.332m313.116 7.237a.467.467 0 0 1-.266-.606 90.777 90.777 0 0 0 1.287-3.5.469.469 0 0 1 .885.306 92.56 92.56 0 0 1-1.3 3.534.467.467 0 0 1-.436.298l-.17-.032m-310.657-.142a90.49 90.49 0 0 1-1.306-3.53.47.47 0 0 1 .885-.306c.406 1.173.84 2.347 1.291 3.492a.466.466 0 0 1-.263.606l-.172.034a.469.469 0 0 1-.435-.296m307.617 6.99a.467.467 0 0 1-.217-.625 91.724 91.724 0 0 0 1.561-3.382.468.468 0 1 1 .858.377 96.825 96.825 0 0 1-1.576 3.414.47.47 0 0 1-.422.264l-.204-.047m-304.592-.108a96.158 96.158 0 0 1-1.582-3.413.47.47 0 0 1 .241-.617c.235-.1.511.005.617.24a94.211 94.211 0 0 0 1.565 3.38.469.469 0 0 1-.216.626l-.205.047a.465.465 0 0 1-.42-.263m301.039 6.695a.468.468 0 0 1-.171-.64 102.07 102.07 0 0 0 1.817-3.253.467.467 0 1 1 .825.44 105.052 105.052 0 0 1-1.831 3.285.473.473 0 0 1-.407.23l-.233-.062m-297.491-.064a99.213 99.213 0 0 1-1.837-3.282.467.467 0 1 1 .825-.442 95.6 95.6 0 0 0 1.82 3.25.468.468 0 0 1-.169.642l-.235.064a.468.468 0 0 1-.404-.232m293.465 6.372a.469.469 0 0 1-.123-.651 103.495 103.495 0 0 0 2.046-3.113.469.469 0 0 1 .792.499c-.665 1.052-1.36 2.11-2.065 3.143a.467.467 0 0 1-.65.122m-289.444-.021a108.054 108.054 0 0 1-2.068-3.14.469.469 0 0 1 .791-.501 111.08 111.08 0 0 0 2.05 3.112.469.469 0 0 1-.773.529m284.991 6.038a.466.466 0 0 1-.079-.657c.769-.978 1.528-1.976 2.255-2.968a.469.469 0 1 1 .755.554c-.734 1-1.499 2.007-2.274 2.993a.469.469 0 0 1-.657.078m-280.538.02c-.779-.99-1.538-1.986-2.277-2.993a.466.466 0 1 1 .753-.553c.734.997 1.487 1.986 2.259 2.966a.469.469 0 0 1-.735.58m275.701 5.694a.469.469 0 0 1-.037-.66c.832-.93 1.648-1.868 2.444-2.818a.467.467 0 0 1 .717.602c-.803.956-1.624 1.902-2.462 2.84a.476.476 0 0 1-.35.156.462.462 0 0 1-.312-.12m-270.861.056a122.642 122.642 0 0 1-2.467-2.837.469.469 0 0 1 .717-.604c.797.947 1.613 1.885 2.446 2.816a.468.468 0 0 1-.696.625m265.682 5.349a.467.467 0 0 1 .003-.661 128.14 128.14 0 0 0 2.61-2.664.468.468 0 1 1 .679.645c-.859.905-1.737 1.798-2.63 2.684a.467.467 0 0 1-.662-.004m-260.499.09a125.338 125.338 0 0 1-2.634-2.681.468.468 0 0 1 .678-.645c.854.895 1.726 1.782 2.614 2.66a.467.467 0 0 1-.329.802.463.463 0 0 1-.329-.136m255.013 5.005a.466.466 0 0 1 .041-.66 132.63 132.63 0 0 0 2.76-2.51.469.469 0 1 1 .639.684c-.911.852-1.838 1.694-2.78 2.527a.463.463 0 0 1-.31.117.462.462 0 0 1-.35-.158m-249.52.123a132.066 132.066 0 0 1-2.783-2.525.468.468 0 1 1 .638-.684 130.55 130.55 0 0 0 2.765 2.507.468.468 0 1 1-.62.702m243.761 4.663a.468.468 0 0 1 .077-.657c.978-.776 1.943-1.562 2.893-2.357a.47.47 0 0 1 .659.058.466.466 0 0 1-.059.66 139.03 139.03 0 0 1-2.912 2.372.47.47 0 0 1-.658-.076m-237.996.15a139.07 139.07 0 0 1-2.915-2.367.468.468 0 1 1 .599-.718c.952.793 1.917 1.578 2.897 2.353a.469.469 0 0 1-.581.733m231.995 4.327a.468.468 0 0 1 .11-.653 142.143 142.143 0 0 0 3.013-2.203.466.466 0 1 1 .561.747c-.996.75-2.007 1.489-3.031 2.218a.473.473 0 0 1-.653-.109m-225.986.18a152.188 152.188 0 0 1-3.033-2.214.47.47 0 0 1 .562-.75c.991.745 1.996 1.478 3.015 2.203a.469.469 0 0 1-.544.762m219.77 3.994a.468.468 0 0 1 .142-.646c1.051-.675 2.09-1.358 3.118-2.052a.469.469 0 1 1 .522.776 143.83 143.83 0 0 1-3.135 2.064l-.252.074a.469.469 0 0 1-.395-.216m-213.544.208a147.767 147.767 0 0 1-3.139-2.063.468.468 0 1 1 .524-.775c1.027.692 2.067 1.376 3.12 2.05a.468.468 0 0 1-.253.862l-.252-.074m207.138 3.667a.466.466 0 0 1 .172-.638 160.534 160.534 0 0 0 3.21-1.906.467.467 0 1 1 .487.799 162.48 162.48 0 0 1-3.23 1.916l-.234.064a.467.467 0 0 1-.405-.235m-200.721.234a167.416 167.416 0 0 1-3.231-1.912.469.469 0 0 1 .486-.801c1.06.643 2.13 1.277 3.213 1.903a.467.467 0 0 1-.234.873l-.234-.063m194.144 3.348a.467.467 0 0 1 .2-.63 186.769 186.769 0 0 0 3.294-1.76.467.467 0 1 1 .45.822c-1.094.6-2.198 1.188-3.313 1.768l-.214.052a.466.466 0 0 1-.417-.252m-187.557.257a170.767 170.767 0 0 1-3.314-1.766.467.467 0 0 1 .45-.821 177.27 177.27 0 0 0 3.296 1.757.467.467 0 0 1-.216.883l-.216-.053m180.832 3.034a.469.469 0 0 1 .226-.622 163.159 163.159 0 0 0 3.367-1.614.47.47 0 0 1 .627.212.47.47 0 0 1-.213.628 167.68 167.68 0 0 1-3.385 1.623l-.197.044a.467.467 0 0 1-.425-.271m-174.094.28a203.415 203.415 0 0 1-3.387-1.621.468.468 0 0 1 .414-.84 183.52 183.52 0 0 0 3.369 1.613.467.467 0 0 1-.198.892l-.198-.044m167.235 2.727a.468.468 0 0 1 .252-.612c1.152-.481 2.296-.972 3.431-1.472a.468.468 0 0 1 .379.856c-1.142.504-2.291.997-3.45 1.48l-.181.036a.465.465 0 0 1-.431-.288m-160.365.299a188.21 188.21 0 0 1-3.45-1.477.47.47 0 0 1 .376-.858c1.136.5 2.28.99 3.434 1.47a.47.47 0 0 1-.181.9l-.179-.035m153.389 2.427a.47.47 0 0 1 .276-.602c1.172-.433 2.335-.878 3.491-1.333a.468.468 0 1 1 .341.87c-1.16.459-2.329.906-3.506 1.34l-.164.03a.469.469 0 0 1-.438-.305m-146.402.318a174.114 174.114 0 0 1-3.507-1.337.468.468 0 1 1 .342-.872c1.154.454 2.318.899 3.489 1.33a.468.468 0 0 1-.162.908l-.162-.03m139.327 2.132a.467.467 0 0 1 .299-.591 203.86 203.86 0 0 0 3.538-1.194.466.466 0 0 1 .596.288.467.467 0 0 1-.287.595c-1.178.41-2.364.81-3.557 1.202l-.145.023a.466.466 0 0 1-.444-.323m-132.236.339c-1.194-.391-2.38-.79-3.557-1.2a.47.47 0 0 1-.289-.596.472.472 0 0 1 .596-.29c1.172.409 2.352.807 3.54 1.195a.467.467 0 0 1-.145.913l-.145-.022m125.069 1.837a.468.468 0 0 1 .322-.58c1.201-.341 2.396-.697 3.582-1.06a.468.468 0 0 1 .274.897c-1.193.365-2.392.719-3.599 1.064l-.129.018a.469.469 0 0 1-.45-.34m-117.89.355a187.476 187.476 0 0 1-3.601-1.062.469.469 0 0 1 .274-.896c1.188.364 2.381.716 3.583 1.059a.468.468 0 0 1-.128.918l-.128-.02m110.65 1.554a.465.465 0 0 1 .341-.566c1.213-.298 2.419-.608 3.62-.927a.473.473 0 0 1 .573.332.47.47 0 0 1-.333.573c-1.205.32-2.417.63-3.637.93l-.111.014a.464.464 0 0 1-.453-.356m-103.395.37a191.448 191.448 0 0 1-3.637-.927.469.469 0 0 1 .24-.905c1.2.319 2.407.627 3.62.924a.466.466 0 0 1 .342.566.467.467 0 0 1-.454.357l-.111-.014m96.088 1.27a.466.466 0 0 1 .362-.553c1.223-.255 2.44-.52 3.652-.795.25-.06.502.1.559.353a.465.465 0 0 1-.352.559c-1.217.277-2.439.544-3.668.799l-.096.01a.467.467 0 0 1-.457-.373m-88.769.389a205.36 205.36 0 0 1-3.667-.796.466.466 0 0 1-.353-.56.462.462 0 0 1 .559-.353c1.212.275 2.429.538 3.652.793a.468.468 0 0 1-.094.926l-.097-.01m81.409.99a.469.469 0 0 1 .381-.541c1.231-.21 2.456-.431 3.677-.664a.467.467 0 0 1 .176.92c-1.228.234-2.458.456-3.694.667l-.08.007a.466.466 0 0 1-.46-.39m-74.033.405a207.634 207.634 0 0 1-3.694-.664.467.467 0 1 1 .173-.92c1.221.23 2.447.452 3.678.66a.468.468 0 0 1-.078.93l-.079-.006m66.627.715a.47.47 0 0 1 .401-.527c1.238-.168 2.47-.346 3.699-.534a.468.468 0 0 1 .142.925c-1.233.19-2.472.368-3.715.536l-.063.005a.468.468 0 0 1-.464-.405m-59.21.417a209.85 209.85 0 0 1-3.713-.534.47.47 0 0 1-.392-.534.471.471 0 0 1 .533-.392c1.229.187 2.461.365 3.699.533.256.035.435.27.4.526a.467.467 0 0 1-.463.406l-.064-.005m51.771.445a.468.468 0 0 1 .419-.512c1.243-.125 2.48-.261 3.715-.407a.469.469 0 0 1 .109.93c-1.239.146-2.482.283-3.731.408l-.046.003a.468.468 0 0 1-.466-.422m-44.316.433a204.546 204.546 0 0 1-3.731-.408.467.467 0 0 1-.411-.518.465.465 0 0 1 .521-.41c1.233.144 2.471.28 3.714.405a.467.467 0 0 1-.046.934l-.047-.003m36.853.176a.47.47 0 0 1 .435-.5 205.82 205.82 0 0 0 3.726-.278.476.476 0 0 1 .506.427.468.468 0 0 1-.428.506c-1.243.104-2.49.198-3.741.28l-.032.002a.468.468 0 0 1-.466-.437m-29.375.446a217.16 217.16 0 0 1-3.742-.281.467.467 0 0 1-.428-.504.486.486 0 0 1 .505-.428c1.238.102 2.481.196 3.727.278a.47.47 0 0 1-.031.936l-.031-.001m21.894-.088a.471.471 0 0 1 .454-.484c1.248-.042 2.493-.092 3.734-.155.254-.03.477.187.489.444a.467.467 0 0 1-.443.49c-1.246.064-2.496.116-3.749.157h-.016a.469.469 0 0 1-.469-.452m-14.399.457a231.05 231.05 0 0 1-3.749-.154.468.468 0 0 1-.444-.491c.012-.257.233-.474.489-.444 1.241.06 2.486.11 3.735.152a.469.469 0 0 1-.016.937h-.015m3.751.089a.467.467 0 0 1-.461-.475c.005-.26.209-.496.475-.461 2.445.038 4.907.039 7.351-.002.239-.025.472.202.477.46a.47.47 0 0 1-.46.477 234.214 234.214 0 0 1-7.382 0" fill="#FFF"/>
        <path d="M420.251 168.935c-.934-.005-1.87-.008-2.807-.006h-.935a.468.468 0 0 1-.001-.936l.936-.001c.939 0 1.875.002 2.811.006a.468.468 0 0 1-.002.937h-.002m-11.701-.412a.469.469 0 0 1 .462-.475c1.245-.016 2.495-.03 3.747-.038h.003a.47.47 0 0 1 .469.465.47.47 0 0 1-.465.47c-1.25.01-2.498.023-3.741.04h-.007a.469.469 0 0 1-.468-.462m19.175.489c-1.243-.02-2.49-.036-3.741-.05a.47.47 0 0 1 .005-.935h.004c1.255.013 2.504.029 3.749.049a.467.467 0 0 1-.008.936h-.009m-26.664-.34a.468.468 0 0 1 .456-.48c1.245-.031 2.494-.058 3.747-.083a.48.48 0 0 1 .478.459.468.468 0 0 1-.459.477c-1.252.025-2.499.052-3.742.084h-.012a.468.468 0 0 1-.468-.457m34.148.507a572.784 572.784 0 0 0-3.741-.095.469.469 0 0 1-.458-.48c.006-.257.173-.466.478-.456 1.255.028 2.504.059 3.748.094a.468.468 0 0 1-.014.937h-.013m-41.635-.267a.469.469 0 0 1 .451-.485c1.243-.046 2.492-.09 3.745-.128a.467.467 0 1 1 .029.936c-1.251.038-2.498.08-3.739.127h-.018a.47.47 0 0 1-.468-.45m49.115.524a736.66 736.66 0 0 0-3.739-.141.469.469 0 0 1 .031-.935c1.254.044 2.502.09 3.746.14a.468.468 0 0 1-.018.936h-.02m-56.598-.191a.47.47 0 0 1 .445-.491c1.243-.061 2.491-.12 3.744-.175.266-.026.477.189.489.447a.47.47 0 0 1-.449.488 722.44 722.44 0 0 0-3.738.175h-.023a.47.47 0 0 1-.468-.444m64.074.54a623.316 623.316 0 0 0-3.738-.186.468.468 0 0 1 .044-.935c1.253.058 2.501.12 3.744.186a.47.47 0 0 1-.025.936h-.025m-71.552-.113a.468.468 0 0 1 .437-.496c1.243-.078 2.49-.153 3.743-.223.278-.026.478.183.493.44a.468.468 0 0 1-.441.494c-1.25.07-2.495.145-3.736.223h-.029a.468.468 0 0 1-.467-.438m79.024.558c-1.239-.082-2.484-.16-3.735-.236a.465.465 0 0 1-.438-.494.464.464 0 0 1 .494-.44c1.253.075 2.5.154 3.742.236a.465.465 0 0 1 .434.498.466.466 0 0 1-.465.437l-.032-.001m-86.496-.032a.469.469 0 0 1 .432-.502c1.239-.095 2.485-.186 3.739-.273.272-.007.481.178.499.435a.47.47 0 0 1-.435.5c-1.25.086-2.494.177-3.732.272h-.036a.469.469 0 0 1-.467-.432m93.961.576a524.949 524.949 0 0 0-3.731-.285.47.47 0 0 1-.434-.501.465.465 0 0 1 .501-.432c1.253.09 2.498.186 3.737.285a.467.467 0 0 1-.036.934l-.037-.001m-101.425.05a.468.468 0 0 1 .424-.507c1.238-.112 2.483-.22 3.736-.324.232-.015.483.17.504.428a.467.467 0 0 1-.428.505 589.07 589.07 0 0 0-3.728.323l-.043.002a.468.468 0 0 1-.465-.426m108.881.595a510.537 510.537 0 0 0-3.726-.337.468.468 0 1 1 .08-.932c1.252.108 2.496.22 3.734.337a.467.467 0 0 1-.044.934l-.044-.002m-116.337.139a.467.467 0 0 1 .417-.514c1.236-.13 2.479-.256 3.73-.378a.47.47 0 0 1 .091.932c-1.248.12-2.49.247-3.724.376l-.049.003a.469.469 0 0 1-.465-.42m123.783.615a547.402 547.402 0 0 0-3.722-.391.469.469 0 0 1-.419-.513.472.472 0 0 1 .513-.418c1.251.126 2.494.257 3.728.39a.467.467 0 0 1-.05.934l-.05-.002m-131.225.23a.468.468 0 0 1 .409-.52c1.232-.15 2.473-.293 3.724-.434a.47.47 0 0 1 .104.931 392.26 392.26 0 0 0-3.717.433l-.057.003a.467.467 0 0 1-.463-.412m138.658.634c-1.23-.153-2.468-.302-3.715-.447a.468.468 0 1 1 .108-.93c1.249.145 2.49.295 3.722.449a.467.467 0 0 1-.057.932l-.058-.004m-146.087.329a.468.468 0 0 1 .401-.527c1.229-.17 2.468-.333 3.717-.494a.468.468 0 0 1 .118.929c-1.245.16-2.481.324-3.709.492l-.064.004a.468.468 0 0 1-.463-.404m153.505.657a444.3 444.3 0 0 0-3.708-.51.467.467 0 1 1 .124-.926c1.247.165 2.486.335 3.715.509a.467.467 0 0 1-.065.932l-.066-.005m-160.916.433a.469.469 0 0 1 .391-.535c1.225-.19 2.462-.376 3.708-.558a.468.468 0 0 1 .135.927c-1.244.18-2.477.366-3.699.556l-.073.006a.468.468 0 0 1-.462-.396m168.315.68a385.24 385.24 0 0 0-3.697-.573.468.468 0 0 1 .139-.927c1.245.188 2.481.379 3.706.576a.468.468 0 0 1-.073.93l-.075-.006m-175.705.546a.467.467 0 0 1 .38-.541c1.221-.213 2.454-.423 3.698-.627a.468.468 0 0 1 .152.923c-1.241.205-2.471.413-3.689.626l-.081.007a.467.467 0 0 1-.46-.388m183.08.707c-1.215-.22-2.444-.434-3.683-.645a.468.468 0 1 1 .155-.922c1.244.21 2.476.426 3.695.645a.468.468 0 0 1-.083.929l-.084-.007m-190.444.67a.468.468 0 0 1 .369-.55c1.215-.238 2.443-.473 3.685-.703a.468.468 0 0 1 .17.92c-1.238.23-2.463.464-3.674.702l-.092.009a.469.469 0 0 1-.458-.377m197.793.733c-1.21-.245-2.432-.486-3.67-.722a.468.468 0 1 1 .176-.92c1.24.238 2.467.479 3.681.724a.468.468 0 0 1-.094.927l-.093-.01m-205.122.81a.467.467 0 0 1 .355-.558c1.208-.267 2.43-.531 3.668-.79a.469.469 0 0 1 .192.916c-1.234.259-2.453.522-3.657.788l-.101.01a.469.469 0 0 1-.457-.366m212.434.764a296.904 296.904 0 0 0-3.652-.81.467.467 0 0 1-.358-.555.466.466 0 0 1 .556-.36c1.237.267 2.457.538 3.662.813a.468.468 0 0 1-.104.925l-.104-.013m-219.723.968a.468.468 0 0 1 .341-.568c1.198-.301 2.413-.596 3.646-.886a.469.469 0 0 1 .214.91c-1.227.29-2.439.584-3.634.884l-.113.014a.47.47 0 0 1-.454-.354m226.99.798c-1.19-.307-2.4-.61-3.628-.908a.468.468 0 0 1 .222-.91c1.232.3 2.444.604 3.64.913a.468.468 0 0 1-.117.92l-.117-.015m-234.222 1.15a.468.468 0 0 1 .321-.58c1.184-.337 2.391-.67 3.618-.997a.467.467 0 1 1 .241.905c-1.221.326-2.422.657-3.602.994l-.128.017a.468.468 0 0 1-.45-.34m241.427.839a221.808 221.808 0 0 0-3.594-1.024.472.472 0 0 1-.328-.576.472.472 0 0 1 .577-.326c1.225.337 2.429.68 3.611 1.029a.468.468 0 0 1-.132.917l-.134-.02m-248.588 1.367a.468.468 0 0 1 .3-.591c1.167-.383 2.361-.76 3.581-1.132a.468.468 0 1 1 .272.895c-1.212.37-2.401.746-3.562 1.126l-.146.024a.471.471 0 0 1-.445-.322m255.713.887a174.588 174.588 0 0 0-3.55-1.163.468.468 0 1 1 .283-.892c1.216.384 2.405.773 3.567 1.168a.47.47 0 0 1-.149.912l-.151-.025m-262.767 1.63a.468.468 0 0 1 .27-.603c1.145-.44 2.32-.871 3.528-1.297a.468.468 0 0 1 .311.883c-1.199.424-2.367.853-3.504 1.288l-.168.03a.467.467 0 0 1-.437-.3m269.774.946c-1.13-.45-2.291-.896-3.486-1.334a.469.469 0 0 1 .323-.88c1.203.443 2.373.89 3.51 1.345a.47.47 0 0 1 .262.609.472.472 0 0 1-.436.294l-.173-.034m-276.67 1.973a.47.47 0 0 1 .229-.622 109.303 109.303 0 0 1 3.447-1.507.464.464 0 0 1 .611.252.466.466 0 0 1-.251.61c-1.172.49-2.321.994-3.415 1.496l-.196.044a.468.468 0 0 1-.425-.273m283.497 1.023a95.904 95.904 0 0 0-3.385-1.558.468.468 0 1 1 .375-.857 98.667 98.667 0 0 1 3.418 1.57.468.468 0 0 1-.204.89l-.204-.045m-290.134 2.437a.468.468 0 0 1 .17-.64 72.483 72.483 0 0 1 3.311-1.8.467.467 0 1 1 .425.833 72.008 72.008 0 0 0-3.266 1.778l-.235.063a.468.468 0 0 1-.405-.234m296.663 1.123a64.19 64.19 0 0 0-3.214-1.864.468.468 0 1 1 .446-.823 66.122 66.122 0 0 1 3.262 1.892.47.47 0 0 1-.247.866l-.247-.071m-302.818 3.122a.47.47 0 0 1 .071-.66 43.694 43.694 0 0 1 3.05-2.231.468.468 0 0 1 .521.777 43.256 43.256 0 0 0-2.984 2.185.468.468 0 0 1-.658-.071m308.769 1.262a36.512 36.512 0 0 0-2.873-2.316.467.467 0 1 1 .551-.755 37.15 37.15 0 0 1 2.947 2.374.47.47 0 0 1-.313.817.463.463 0 0 1-.312-.12m-313.831 4.186a.468.468 0 0 1-.118-.651 22.735 22.735 0 0 1 2.436-2.92.467.467 0 0 1 .669.655 21.727 21.727 0 0 0-2.335 2.797.471.471 0 0 1-.652.119m318.442 1.423a17.75 17.75 0 0 0-2.053-2.985.47.47 0 0 1 .718-.602 18.705 18.705 0 0 1 2.159 3.145.466.466 0 0 1-.19.633l-.222.055a.466.466 0 0 1-.412-.246m-320.694 5.537a.47.47 0 0 1-.449-.488c.055-1.252.319-2.515.787-3.754a.47.47 0 0 1 .876.331 11.164 11.164 0 0 0-.726 3.463.47.47 0 0 1-.468.449l-.02-.001m322.494 1.862a.468.468 0 0 1-.405-.524c.056-.441.086-.89.086-1.335 0-.732-.079-1.473-.233-2.203a.468.468 0 1 1 .916-.193c.167.792.252 1.599.252 2.396 0 .485-.031.972-.092 1.454a.469.469 0 0 1-.465.409l-.059-.004m-320.889 4.945c-.705-1.15-1.236-2.32-1.578-3.485a.468.468 0 0 1 .898-.264 13.605 13.605 0 0 0 1.477 3.259.467.467 0 0 1-.154.643l-.244.07a.468.468 0 0 1-.399-.223m317.694 1.668a.47.47 0 0 1-.087-.656c.777-1.015 1.411-2.05 1.881-3.078a.47.47 0 0 1 .852.392 17.266 17.266 0 0 1-1.989 3.254.47.47 0 0 1-.657.088m-312.65 3.99a29.276 29.276 0 0 1-2.738-2.626.467.467 0 1 1 .692-.63 28.425 28.425 0 0 0 2.652 2.542.469.469 0 0 1-.606.715m307.217 1.104a.47.47 0 0 1 .087-.657 34.07 34.07 0 0 0 2.807-2.385.467.467 0 1 1 .647.676 34.915 34.915 0 0 1-2.886 2.454.466.466 0 0 1-.655-.088m-301.044 3.247a53.068 53.068 0 0 1-3.172-2.048.47.47 0 0 1-.116-.653.472.472 0 0 1 .653-.115 51.698 51.698 0 0 0 3.116 2.013.468.468 0 0 1-.241.87l-.24-.067m294.735.768a.468.468 0 0 1 .18-.637 60.521 60.521 0 0 0 3.185-1.91.466.466 0 0 1 .647.14.469.469 0 0 1-.14.646 60.883 60.883 0 0 1-3.234 1.94l-.228.06a.467.467 0 0 1-.41-.24m-288.078 2.758a82.815 82.815 0 0 1-3.372-1.68.466.466 0 0 1-.195-.631.47.47 0 0 1 .632-.197 84.891 84.891 0 0 0 3.333 1.66.467.467 0 0 1-.199.893l-.199-.045m281.363.55a.465.465 0 0 1 .235-.616 95.728 95.728 0 0 0 3.369-1.591.467.467 0 1 1 .417.837 90.873 90.873 0 0 1-3.403 1.607l-.191.04a.467.467 0 0 1-.427-.276m-274.449 2.41a118.457 118.457 0 0 1-3.482-1.422.467.467 0 1 1 .368-.86c1.115.475 2.267.946 3.454 1.41a.468.468 0 0 1-.17.904l-.17-.032m267.505.399a.468.468 0 0 1 .275-.602c1.191-.447 2.35-.9 3.475-1.36a.47.47 0 0 1 .611.256.472.472 0 0 1-.256.612c-1.134.463-2.301.919-3.501 1.368l-.165.03a.468.468 0 0 1-.439-.304m-260.437 2.152a165.445 165.445 0 0 1-3.55-1.23.469.469 0 0 1 .317-.882c1.148.414 2.325.822 3.529 1.223a.469.469 0 0 1-.148.912l-.148-.023m253.354.282a.467.467 0 0 1 .302-.59 161.51 161.51 0 0 0 3.543-1.181.467.467 0 0 1 .308.884c-1.162.403-2.35.798-3.564 1.189l-.144.022a.467.467 0 0 1-.445-.324m-246.182 1.945a188.04 188.04 0 0 1-3.597-1.08.468.468 0 1 1 .278-.892c1.17.363 2.364.72 3.58 1.073a.468.468 0 0 1-.131.918l-.13-.02m239.003.192a.465.465 0 0 1 .323-.577 213.19 213.19 0 0 0 3.59-1.04.462.462 0 0 1 .582.314.467.467 0 0 1-.314.582c-1.18.354-2.381.702-3.606 1.045l-.126.018a.465.465 0 0 1-.449-.342m-231.76 1.776c-1.23-.313-2.439-.631-3.63-.954a.468.468 0 0 1 .245-.903c1.185.32 2.391.638 3.615.95a.469.469 0 0 1-.115.922l-.115-.015m224.51.115a.468.468 0 0 1 .341-.567c1.228-.303 2.436-.61 3.624-.922a.464.464 0 0 1 .572.333.467.467 0 0 1-.334.57c-1.194.315-2.406.623-3.636.928l-.113.014a.468.468 0 0 1-.454-.356m-217.21 1.632c-1.236-.277-2.454-.56-3.656-.847a.47.47 0 0 1 .218-.912c1.198.288 2.413.57 3.643.845a.47.47 0 0 1 .355.56.471.471 0 0 1-.457.366l-.103-.012m209.909.048a.468.468 0 0 1 .357-.557c1.233-.27 2.449-.543 3.649-.821a.468.468 0 0 1 .212.913c-1.205.278-2.424.553-3.661.822l-.1.01a.467.467 0 0 1-.457-.367m-202.571 1.509a307.803 307.803 0 0 1-3.674-.756.468.468 0 0 1 .194-.916c1.206.257 2.428.507 3.663.754a.468.468 0 0 1-.09.927l-.093-.01m195.232-.007a.469.469 0 0 1 .371-.55c1.236-.24 2.46-.484 3.668-.732a.468.468 0 0 1 .188.918c-1.211.248-2.438.493-3.678.734l-.09.009a.469.469 0 0 1-.459-.38m-187.861 1.398a384.611 384.611 0 0 1-3.689-.675.468.468 0 0 1 .173-.92c1.214.228 2.441.452 3.681.673a.467.467 0 0 1-.081.928l-.084-.006m180.491-.06a.468.468 0 0 1 .382-.54c1.24-.214 2.466-.432 3.682-.654a.476.476 0 0 1 .545.377.468.468 0 0 1-.376.544c-1.218.222-2.45.44-3.692.656l-.08.007a.468.468 0 0 1-.461-.39M333.4 246.017a372.796 372.796 0 0 1-3.701-.601.469.469 0 0 1 .154-.923c1.22.204 2.451.404 3.693.599a.468.468 0 0 1-.072.93l-.074-.005m165.698-.105a.467.467 0 0 1 .392-.532c1.243-.19 2.475-.384 3.695-.583a.462.462 0 0 1 .537.387.467.467 0 0 1-.385.537c-1.225.2-2.459.393-3.705.584l-.071.006a.47.47 0 0 1-.463-.4m-158.279 1.206c-1.247-.173-2.484-.35-3.712-.533a.468.468 0 1 1 .138-.926c1.225.182 2.459.359 3.704.533a.469.469 0 0 1-.064.93l-.066-.004m150.864-.147a.466.466 0 0 1 .401-.526c1.245-.168 2.48-.34 3.706-.517a.474.474 0 0 1 .529.398.469.469 0 0 1-.396.53 547.33 547.33 0 0 1-3.713.516l-.064.004a.467.467 0 0 1-.463-.405m-143.428 1.118a384.845 384.845 0 0 1-3.72-.47.467.467 0 0 1-.404-.524.479.479 0 0 1 .525-.404c1.228.16 2.466.317 3.712.469a.469.469 0 0 1-.055.933l-.058-.004m135.996-.184a.465.465 0 0 1 .409-.52c1.247-.147 2.485-.3 3.714-.455a.468.468 0 0 1 .117.93c-1.231.155-2.473.306-3.721.455l-.056.003a.466.466 0 0 1-.463-.413m-128.546 1.038a590.465 590.465 0 0 1-3.727-.411.47.47 0 0 1-.413-.52.471.471 0 0 1 .519-.411c1.232.14 2.471.277 3.719.41a.468.468 0 0 1-.048.934l-.05-.002m121.098-.222a.469.469 0 0 1 .418-.514c1.248-.13 2.489-.261 3.722-.397a.474.474 0 0 1 .516.414.468.468 0 0 1-.413.517c-1.236.135-2.478.268-3.728.397l-.049.003a.471.471 0 0 1-.466-.42m-113.638.964c-1.25-.116-2.494-.235-3.731-.36a.467.467 0 0 1-.421-.51.461.461 0 0 1 .513-.42c1.234.123 2.476.24 3.725.357a.468.468 0 0 1-.042.935l-.044-.002m106.181-.257a.47.47 0 0 1 .426-.508c1.249-.11 2.49-.224 3.726-.344a.468.468 0 0 1 .089.933c-1.237.119-2.482.233-3.733.344l-.042.002a.47.47 0 0 1-.466-.427m-98.711.892c-1.253-.1-2.498-.2-3.736-.305a.469.469 0 0 1-.427-.506.483.483 0 0 1 .505-.427c1.237.106 2.48.207 3.731.305a.467.467 0 0 1-.035.934l-.038-.001m91.244-.29a.47.47 0 0 1 .433-.502c1.25-.093 2.493-.19 3.731-.29a.468.468 0 0 1 .076.932c-1.239.1-2.486.197-3.737.292h-.036a.47.47 0 0 1-.467-.432m-83.765.82c-1.253-.08-2.5-.164-3.741-.253a.468.468 0 0 1-.433-.501.455.455 0 0 1 .501-.434c1.237.089 2.482.173 3.733.255a.468.468 0 0 1-.029.935l-.031-.001m76.293-.321a.467.467 0 0 1 .438-.496c1.251-.077 2.496-.158 3.735-.242a.468.468 0 0 1 .063.935c-1.242.084-2.488.165-3.741.24l-.029.002a.466.466 0 0 1-.466-.44m-68.81.755a442.449 442.449 0 0 1-3.743-.205.466.466 0 0 1-.44-.494c.015-.258.24-.47.494-.44 1.241.073 2.486.14 3.737.205a.467.467 0 0 1-.024.935l-.024-.001m61.329-.35a.467.467 0 0 1 .445-.49c1.251-.06 2.498-.123 3.738-.193.253-.025.479.184.493.442a.466.466 0 0 1-.441.493c-1.243.068-2.491.133-3.744.193h-.024a.468.468 0 0 1-.467-.444m-53.841.689a499.749 499.749 0 0 1-3.745-.158.465.465 0 0 1-.445-.487c.01-.258.207-.496.487-.447 1.242.055 2.488.107 3.74.157a.468.468 0 0 1-.019.935h-.018m46.358-.381a.467.467 0 0 1 .45-.484c1.251-.045 2.497-.094 3.739-.146.251.005.477.19.489.448a.47.47 0 0 1-.448.488c-1.245.053-2.493.102-3.746.146h-.017a.467.467 0 0 1-.467-.452m-38.864.627a563.15 563.15 0 0 1-3.748-.111.468.468 0 0 1-.452-.483c.008-.258.185-.445.483-.454 1.243.043 2.49.08 3.741.113a.468.468 0 0 1-.012.935h-.012m31.376-.41a.47.47 0 0 1 .457-.478c1.251-.031 2.498-.064 3.741-.101a.475.475 0 0 1 .482.455.47.47 0 0 1-.454.482c-1.246.036-2.494.07-3.747.1h-.011a.469.469 0 0 1-.468-.457m-23.883.566a655.497 655.497 0 0 1-3.747-.067.469.469 0 0 1 .01-.936h.01c1.243.026 2.49.048 3.742.067a.469.469 0 0 1-.008.936h-.007m16.394-.44a.467.467 0 0 1 .463-.473c1.251-.015 2.498-.034 3.743-.055.276-.03.471.2.476.46a.465.465 0 0 1-.46.475c-1.246.023-2.495.04-3.748.056h-.006a.468.468 0 0 1-.468-.463m-8.904.505a773.49 773.49 0 0 1-3.744-.022.469.469 0 0 1 .005-.936h.004c1.242.01 2.488.018 3.738.022a.468.468 0 0 1-.002.936h-.001m1.414-.466c0-.26.209-.468.468-.468 1.251 0 2.498-.003 3.742-.01h.003a.469.469 0 0 1 .003.935 583.92 583.92 0 0 1-3.748.012.468.468 0 0 1-.468-.47" fill="#FFF"/>
        <path d="M282.631 248.372a1.471 1.471 0 0 1-1.1-.497 1.46 1.46 0 0 1 .135-2.062 97.984 97.984 0 0 1 11.614-8.733c1.135.352 2.292.698 3.471 1.04l.13.019a.468.468 0 0 0 .131-.918c-.911-.264-1.808-.531-2.693-.801a107.455 107.455 0 0 1 6.905-3.973.433.433 0 0 0 .002.072c.102 1.023.212 2.044.33 3.062-6.366 3.448-12.406 7.555-17.964 12.429a1.449 1.449 0 0 1-.961.362m19.813-13.266c-.102-.892-.197-1.785-.288-2.681a.472.472 0 0 0-.222-.35c23.867-12.371 51.834-15.95 76.187-15.95 6.086 0 11.941.223 17.456.588 28.733 1.904 53.152 7.875 62.748 10.487l-.017.608a.467.467 0 0 0 .455.48h.013a.47.47 0 0 0 .469-.455l.01-.378.449.125-.426-.982c.022-.836.043-1.673.062-2.512a.469.469 0 0 0-.458-.478c-.287.017-.473.2-.479.458l-.012.538c-19.561-43.19-52.443-66.2-77.106-77.983-.514-.245-1.024-.486-1.535-.724l.137-1.214a.468.468 0 0 0-.412-.518.47.47 0 0 0-.518.412l-.103.906c-26.896-12.352-49.283-14.478-49.513-14.498a1.428 1.428 0 0 1-.308-.064l-.009-.001-.086-.038-.174-.078-.106-.07-.135-.1-.099-.096-.106-.121-.077-.112-.086-.156-.035-.065-.016-.055-.042-.142-.031-.143-.011-.131-.004-.162v-.052l.014-.076.03-.154.04-.132.055-.131.067-.125.077-.117.087-.107.103-.103.106-.088.115-.081.137-.071.069-.037c36.458-14.977 69.355-20.073 97.231-20.073 22.73 0 42.12 3.386 57.396 7.564 19.266 5.269 34.169 12.33 43.277 17.324 9.901 5.43 15.169 9.563 15.388 9.737a1.462 1.462 0 0 1-1.812 2.293c-.119-.094-7.038-5.49-19.712-11.95-.249-.634-.501-1.266-.757-1.896a.467.467 0 0 0-.867.353c.123.302.245.605.366.908-9.388-4.695-21.737-9.872-36.655-13.95-9.14-2.5-19.782-4.711-31.743-6.063l-.053-.271a.464.464 0 0 0-.551-.37.468.468 0 0 0-.371.533 221.555 221.555 0 0 0-23.877-1.282c-12.921 0-26.93 1.107-41.892 3.812a.466.466 0 0 0-.442-.314.47.47 0 0 0-.46.382l-.019.1c-15.16 2.8-31.283 7.243-48.219 13.83 8.77 1.456 26.945 5.382 47.299 15.09 11.347 5.414 24.4 13.152 37.144 24.062-.714-.002-1.427-.004-2.143-.004h-.936a.469.469 0 0 0 .001.937h.935l.633-.001c.726 0 1.45.003 2.174.007h.002c.113 0 .217-.04.298-.107 13.984 12.163 27.528 28.177 37.957 49.166a592.4 592.4 0 0 1-.034 2.33.467.467 0 0 0 .46.476h.009a.469.469 0 0 0 .468-.46l.007-.485a168.167 168.167 0 0 1 4.187 9.43c.051.128.077.258.093.386l.005.066.002.198-.012.11-.032.166-.014.063-.025.06-.061.142-.065.122-.081.118-.09.108-.1.097-.112.093-.113.074-.138.073-.058.032-.037.007a1.382 1.382 0 0 1-.438.093h-.099a1.47 1.47 0 0 1-.413-.057c-.294-.093-29.857-9.191-66.495-11.61a262.143 262.143 0 0 0-18.927-.573c-.008-.508-.014-1.016-.02-1.525a.467.467 0 0 0-.468-.462h-.006a.466.466 0 0 0-.462.472l.019 1.523c-23.615.256-50.313 4.024-73.014 16.045" fill="#8CAAF7"/>
        <path d="M301.556 235.58a192.27 192.27 0 0 1-.33-3.061.433.433 0 0 1-.002-.072l.71-.371c.118.074.207.2.222.349.091.896.186 1.789.288 2.68-.298.158-.592.316-.888.476m219.128-102.51c-.413-.21-.832-.421-1.258-.634-.121-.303-.243-.606-.366-.908a.469.469 0 0 1 .867-.353c.256.63.508 1.262.757 1.896M458.776 228.288h-.013a.467.467 0 0 1-.455-.48l.017-.608.93.255-.01.378a.47.47 0 0 1-.469.455m.502-1.69c-.293-.67-.588-1.334-.887-1.994l.012-.538c.006-.258.192-.441.479-.458.258.005.463.22.458.478-.019.839-.04 1.676-.062 2.512m-.335-5.798h-.009a.467.467 0 0 1-.46-.475 592.4 592.4 0 0 0 .034-2.331c.306.615.61 1.238.91 1.86l-.007.486a.469.469 0 0 1-.468.46m-83.485-1.74a754.53 754.53 0 0 1-.019-1.522.466.466 0 0 1 .462-.472h.006c.256 0 .465.205.468.462.006.509.012 1.017.02 1.525l-.937.008m4.292-73.164c-.299-.14-.598-.278-.896-.414l.103-.906a.47.47 0 0 1 .459-.416.468.468 0 0 1 .471.522l-.137 1.214m3.613-30.882.019-.101a.47.47 0 0 1 .547-.373c.17.032.302.152.355.305l-.921.169m67.665-2.591-.975-.108a.468.468 0 0 1 .922-.163l.053.27M296.881 238.139l-.13-.02a197.058 197.058 0 0 1-3.471-1.04c.344-.22.692-.441 1.039-.66.885.27 1.782.538 2.693.802a.468.468 0 0 1-.131.918m123.372-69.204h-.002a393.23 393.23 0 0 0-2.807-.006h-.935a.468.468 0 0 1-.001-.936l.936-.001c.716 0 1.429.002 2.143.004.32.274.644.553.964.832a.466.466 0 0 1-.298.107" fill="#BDD0FB"/>
        <path d="M282.18 248.3a1.46 1.46 0 0 0 1.538-.414c30.728-34.372 77.383-37.117 111.109-33.367 36.741 4.084 66.558 16.543 66.856 16.666a1.46 1.46 0 0 0 2.02-1.522c-4.846-40.181-29.629-70.5-71.671-87.673-23.596-9.641-46.636-12.643-56.925-13.547 27.589-12.925 55.144-20.327 81.984-22.02 22.741-1.432 45.028 1.208 66.241 7.848 36.09 11.28 56.765 30.476 56.969 30.67.589.55 1.512.523 2.066-.064a1.46 1.46 0 0 0-.064-2.066c-.215-.203-5.384-5.032-15.164-11.341-8.999-5.805-23.739-13.983-42.934-19.99-21.556-6.746-44.198-9.43-67.298-7.973-28.844 1.818-58.479 10.132-88.082 24.71a1.46 1.46 0 0 0 .605 2.772c.301.009 30.445 1.003 61.572 13.738 18.211 7.45 33.194 17.404 44.535 29.584 13.603 14.614 21.988 32.518 24.941 53.248-7.783-3.01-34.051-12.46-65.257-15.938-49.38-5.505-88.691 6.36-113.681 34.315a1.462 1.462 0 0 0 .64 2.365" fill="#6C89D3"/>
        <path d="M532.153 120.112a8.322 8.322 0 1 1 16.64.001 8.322 8.322 0 0 1-16.64-.001zm-6.934 0c0 8.425 15.255 28.367 15.255 28.367s15.254-19.942 15.254-28.367-6.829-15.254-15.254-15.254c-8.426 0-15.255 6.829-15.255 15.254zM322.794 105.283a8.321 8.321 0 1 1 16.642.002 8.321 8.321 0 0 1-16.642-.002zm-6.934 0c0 8.425 15.254 28.367 15.254 28.367s15.255-19.942 15.255-28.367-6.83-15.254-15.255-15.254c-8.424 0-15.254 6.829-15.254 15.254zM454.481 205.385a8.322 8.322 0 0 1 16.644 0 8.32 8.32 0 0 1-8.321 8.32c-4.595 0-8.323-3.725-8.323-8.32zm-6.933 0c0 8.423 15.256 28.366 15.256 28.366s15.254-19.943 15.254-28.366c0-8.425-6.829-15.254-15.254-15.254-8.424 0-15.256 6.829-15.256 15.254zM274.01 222.72a8.32 8.32 0 0 1 8.321-8.32 8.32 8.32 0 1 1 0 16.64 8.322 8.322 0 0 1-8.321-8.32zm-6.933 0c0 8.426 15.254 28.367 15.254 28.367s15.255-19.941 15.255-28.367c0-8.425-6.83-15.254-15.255-15.254-8.426 0-15.254 6.829-15.254 15.254z" fill="#FFF"/>
        <path d="M413.8 34.828s53.868 2.07 75.26 4.84c0 0 13.34 9.254 15.852 14.867 0 0-83.573-14.477-87.352-15.394-3.777-.917-6.831-4.438-3.76-4.313" fill="#DAE4FF"/>
        <path d="M473.965 45.845c2.209.24 3.672 3.456 3.267 7.18-.407 3.727-2.526 6.552-4.736 6.312l-12.322-.343c-2.852-.311-4.738-4.462-4.214-9.271.524-4.81 3.258-8.454 6.111-8.144l11.894 4.266" fill="#7C97F2"/>
        <path d="M455.96 49.723c-.524 4.809 1.362 8.96 4.214 9.27 2.852.312 5.588-3.336 6.112-8.145.524-4.81-1.364-8.96-4.215-9.27-2.853-.31-5.587 3.336-6.111 8.145" fill="#5B65F8"/>
        <path d="M457.61 49.904c-.354 3.272.929 6.095 2.867 6.306 1.941.212 3.803-2.27 4.159-5.541.356-3.271-.928-6.095-2.868-6.306-1.939-.211-3.801 2.269-4.158 5.54" fill="#1A1998"/>
        <path d="M599.728 80.84c-4.786 3.352-43.435-3.537-61.715-7.862-18.279-4.323-100.24-53.067-115.374-61.912-15.134-8.845 28.5-15.331 43.241-7.665 14.742 7.665 98.273 52.674 103.581 55.033 5.307 2.358 50.315-10.418 52.871-11.204 2.555-.785 11.008 3.342 8.255 5.7-2.751 2.359-28.892 26.535-30.859 27.91" fill="#FFF"/>
        <g transform="translate(495.897 52.97)">
            <mask id="g96dbgx1id" fill="#fff">
                <use xlink:href="#42f5ftpgsb"/>
            </mask>
            <path d="M98.039 28.759c-12.599 0-41.025-5.227-55.923-8.752C35.062 18.339 18.522 10.054 0 0c18.522 10.054 35.062 18.339 42.116 20.007 14.898 3.525 43.324 8.752 55.923 8.752 2.86 0 4.907-.27 5.792-.89-.885.62-2.932.89-5.792.89" fill="url(#tivp1xuubc)" mask="url(#g96dbgx1id)"/>
        </g>
        <path d="M593.936 81.73c-12.599 0-41.025-5.227-55.923-8.752-7.054-1.668-23.594-9.953-42.116-20.007-29.472-15.997-63.964-36.474-73.258-41.905a.118.118 0 0 0-.019-.011l-.004-.003-.017-.01-.001-.001c-6.962-4.095-1.325-7.68 8.188-9.586.078 13.626 74.495 53.688 104.778 65.772 24.706 9.859 53.961 11.063 66.794 11.063l.337-.001c-.904.806-1.648 1.46-2.179 1.912-.377.32-.646.54-.788.639-.885.62-2.932.89-5.792.89" fill="#ECF1FF"/>
        <path d="M626.066 40.865S561.402 51.16 535.261 52.93c0 0-18.082-7.862-22.406-13.954 0 0 102.99-2.555 107.707-2.36 4.719.198 9.191 3.669 5.504 4.249M592.452 66.008c17.365-.386 31.349-.66 33.018-.591 4.718.197 9.189 3.668 5.504 4.248 0 0-10.099 1.608-23.926 3.66-5.503-1.493-10.163-3.96-14.596-7.317" fill="#DAE4FF"/>
        <path d="M561.943 50.329c2.139.605 3.046 4.019 2.026 7.625-1.021 3.605-3.582 6.039-5.72 5.434L546.156 61c-2.761-.78-3.93-5.187-2.612-9.843 1.315-4.654 4.62-7.794 7.379-7.014l11.02 6.186" fill="#7C97F2"/>
        <path d="M543.544 51.157c-1.318 4.656-.149 9.063 2.612 9.843 2.761.78 6.066-2.36 7.383-7.014 1.316-4.655.145-9.062-2.616-9.843-2.759-.78-6.064 2.36-7.379 7.014" fill="#5B65F8"/>
        <path d="M545.141 51.61c-.896 3.167-.101 6.165 1.779 6.695 1.877.532 4.126-1.605 5.021-4.772.896-3.166.099-6.164-1.779-6.695-1.878-.531-4.126 1.606-5.021 4.772" fill="#1A1998"/>
        <path fill="#5862E5" d="M564.004 268.812h42.857v-36.283h-42.857z"/>
        <path fill="#4347E8" d="M585.432 268.812h21.429v-36.283h-21.429z"/>
        <path fill="#7380FF" d="M572.125 245.186h2.555v-12.657h-2.555zM596.146 245.186h2.557v-12.657h-2.557z"/>
        <path fill="#FFFFFD" d="M547.352 267.689h31.463v-15.827h-31.463z"/>
        <path fill="#E6EDFD" d="M557.387 267.689h21.428v-15.827h-21.428z"/>
        <path fill="#BECFFB" d="M551.191 257.383h2.556v-5.521h-2.556zM566.388 257.383h2.557v-5.521h-2.557z"/>
        <path fill="#8591FF" d="M535.941 315.98h79.083v-49.337h-79.083z"/>
        <path fill="#5C66F9" d="M575.483 315.98h39.541v-49.337h-39.541z"/>
        <path fill="#B3BAFF" d="M550.924 283.853h4.718v-17.21h-4.718zM595.254 283.853h4.715v-17.21h-4.715z"/>
        <path fill="#FFFFFD" d="M581.297 313.664h37.374v-28.302h-37.374z"/>
        <path fill="#E6EDFD" d="M597.611 313.664h21.06v-28.302h-21.06z"/>
        <path fill="#BECFFB" d="M586.718 293.159h3.61v-7.797h-3.61zM608.183 293.159h3.611v-7.797h-3.611z"/>
        <path fill="#5862E5" d="M516.058 398.255h112.131v-84.591H516.058z"/>
        <path fill="#4347E8" d="M572.125 398.255h56.064v-84.591h-56.064z"/>
        <path fill="#7380FF" d="M537.303 343.173h6.691v-29.51h-6.691zM600.156 343.173h6.69v-29.51h-6.69z"/>
    </g>
</svg>
