<svg xmlns="http://www.w3.org/2000/svg" width="31.166" height="21" viewBox="0 0 31.166 21">
  <g id="Group_13900" data-name="Group 13900" transform="translate(-5847.037 -5321.743)">
    <g id="g382" transform="translate(5864.57 5335.173)">
      <path id="path384" d="M-148.7-74.458a3.589,3.589,0,0,1-3.641,3.535,3.589,3.589,0,0,1-3.641-3.535,3.589,3.589,0,0,1,3.641-3.535A3.589,3.589,0,0,1-148.7-74.458Z" transform="translate(155.985 77.993)" fill="none" stroke="#fff" stroke-linecap="round" stroke-linejoin="round" stroke-miterlimit="10" stroke-width="1"/>
    </g>
    <g id="g386" transform="translate(5849.569 5336.494)">
      <path id="path388" d="M-120.92-60.546a2.918,2.918,0,0,1-2.96,2.874,2.918,2.918,0,0,1-2.961-2.874,2.918,2.918,0,0,1,2.961-2.874A2.918,2.918,0,0,1-120.92-60.546Z" transform="translate(126.841 63.42)" fill="none" stroke="#fff" stroke-linecap="round" stroke-linejoin="round" stroke-miterlimit="10" stroke-width="1"/>
    </g>
    <g id="g390" transform="translate(5855.492 5339.368)">
      <path id="path392" d="M0,0H9.143" transform="translate(0 0)" fill="none" stroke="#fff" stroke-linecap="round" stroke-linejoin="round" stroke-miterlimit="10" stroke-width="1"/>
    </g>
    <g id="g394" transform="translate(5847.703 5331.24)">
      <path id="path396" d="M-47.45-138.912h-2.323v-4.345h10.08a5,5,0,0,0,1.9-.377l4.539-1.873h7s-.092,5.366,0,5.492" transform="translate(49.773 145.506)" fill="none" stroke="#fff" stroke-linecap="round" stroke-linejoin="round" stroke-miterlimit="10" stroke-width="1"/>
    </g>
    <g id="g398" transform="translate(5871.23 5336.732)">
      <path id="path400" d="M0,0,4.608,4.449H6.473" fill="none" stroke="#fff" stroke-linecap="round" stroke-linejoin="round" stroke-miterlimit="10" stroke-width="1"/>
    </g>
    <g id="g402" transform="translate(5864.226 5324.391)">
      <path id="path404" d="M0-144.282v-6.849H10.24L7-144.282" transform="translate(0 151.132)" fill="none" stroke="#fff" stroke-linecap="round" stroke-linejoin="round" stroke-miterlimit="10" stroke-width="1"/>
    </g>
    <g id="g406" transform="translate(5874.466 5324.391)">
      <path id="path408" d="M0,0H2.036" transform="translate(0 0)" fill="none" stroke="#fff" stroke-linecap="round" stroke-linejoin="round" stroke-miterlimit="10" stroke-width="1"/>
    </g>
    <g id="g410" transform="translate(5847.703 5326.82)">
      <path id="path412" d="M-337.449,0h-10.837a3.945,3.945,0,0,0-3.575,2.221l-2.112,4.447" transform="translate(353.972)" fill="none" stroke="#fff" stroke-linecap="round" stroke-linejoin="round" stroke-miterlimit="10" stroke-width="1"/>
    </g>
    <g id="g414" transform="translate(5853.116 5329.249)">
      <path id="path416" d="M-38.133-19.094a.92.92,0,0,1-.934.906A.92.92,0,0,1-40-19.094.92.92,0,0,1-39.066-20a.92.92,0,0,1,.934.906" transform="translate(40 20)" fill="#fff"/>
    </g>
    <g id="g418" transform="translate(5856.85 5329.249)">
      <path id="path420" d="M-38.133-19.094a.92.92,0,0,1-.934.906A.92.92,0,0,1-40-19.094.92.92,0,0,1-39.066-20a.92.92,0,0,1,.934.906" transform="translate(40 20)" fill="#fff"/>
    </g>
    <g id="g422" transform="translate(5847.703 5322.243)">
      <path id="path424" d="M-252.409-96.429l-1.678-3.369a2.211,2.211,0,0,0-1.985-1.209h-8.7" transform="translate(264.769 101.006)" fill="none" stroke="#fff" stroke-linecap="round" stroke-linejoin="round" stroke-miterlimit="10" stroke-width="1"/>
    </g>
  </g>
</svg>
