<svg width="24" height="24" viewBox="0 0 24 24" xmlns="http://www.w3.org/2000/svg">
    <path d="M24 2v3.5a1 1 0 0 1-2 0V2h-3.5a1 1 0 0 1 0-2H22a2 2 0 0 1 2 2zm-1 15.5a1 1 0 0 0-1 1V22h-3.5a1 1 0 0 0 0 2H22a2 2 0 0 0 2-2v-3.5a1 1 0 0 0-1-1zM5.5 22H2v-3.5a1 1 0 0 0-2 0V22a2 2 0 0 0 2 2h3.5a1 1 0 0 0 0-2zM1 6.5a1 1 0 0 0 1-1V2h3.5a1 1 0 1 0 0-2H2a2 2 0 0 0-2 2v3.5a1 1 0 0 0 1 1zM18 18a1 1 0 0 1-.801-.399 6.5 6.5 0 0 0-10.4 0 1 1 0 0 1-1.6-1.202 8.493 8.493 0 0 1 3.426-2.71 5 5 0 1 1 6.742 0 8.493 8.493 0 0 1 3.43 2.71A1 1 0 0 1 18 18zm-6-5a3 3 0 1 0 0-6 3 3 0 0 0 0 6z" fill="#FFF" fill-rule="nonzero"/>
</svg>
