<svg width="38" height="32" viewBox="0 0 38 32" xmlns="http://www.w3.org/2000/svg">
    <path d="M35.5.25h-33A2.25 2.25 0 0 0 .25 2.5v27a2.25 2.25 0 0 0 2.25 2.25h33a2.25 2.25 0 0 0 2.25-2.25v-27A2.25 2.25 0 0 0 35.5.25zm-33 1.5h33a.75.75 0 0 1 .75.75v21.075l-6.167-6.167a2.25 2.25 0 0 0-3.187 0l-4.281 4.28-8.779-8.78a2.25 2.25 0 0 0-3.187 0L1.75 21.813V2.5a.75.75 0 0 1 .75-.75zM1.75 29.5v-5.561l9.97-9.97a.75.75 0 0 1 1.06 0L29.062 30.25H2.5a.75.75 0 0 1-.75-.75zm33.75.75h-4.313l-7.5-7.5 4.281-4.28a.75.75 0 0 1 1.061 0l7.221 7.226V29.5a.75.75 0 0 1-.75.75zm-12.75-19.5a1.5 1.5 0 1 1 3 0 1.5 1.5 0 0 1-3 0z" fill="#121212" fill-rule="nonzero"/>
</svg>
