<svg xmlns="http://www.w3.org/2000/svg" width="20" height="20" viewBox="0 0 20 20">
  <path id="Delivery_Box" d="M24.9,11.99l-3.611-6.02A2.012,2.012,0,0,0,19.578,5H10.422a2.012,2.012,0,0,0-1.716.971L5.1,11.99a.663.663,0,0,0-.1.343V23a2,2,0,0,0,2,2H23a2,2,0,0,0,2-2V12.333A.663.663,0,0,0,24.9,11.99ZM20.379,6.334l3.155,5.289-7.868.044,0-5.657h4.142a.671.671,0,0,1,.572.324Zm-10.732,0a.671.671,0,0,1,.572-.324h4.112l0,5.657-7.844-.044ZM23.4,24.017H6.579a.667.667,0,0,1-.667-.667l0-10.8,18.152.02V23.351A.667.667,0,0,1,23.4,24.017Zm-5.066-7.684a.666.666,0,0,1-.667.667H12.333a.667.667,0,1,1,0-1.333h5.333A.666.666,0,0,1,18.333,16.333Z" transform="translate(-5 -5)" fill="#fff"/>
</svg>
