<svg width="26" height="26" viewBox="0 0 26 26" xmlns="http://www.w3.org/2000/svg">
    <path d="M17.355 8.645a.5.5 0 0 1 0 .708l-8 8a.5.5 0 1 1-.708-.708l8-8a.5.5 0 0 1 .708 0zm6.244-6.244a6.509 6.509 0 0 0-9.195 0L10.646 6.16a.5.5 0 0 0 .706.707l3.76-3.757a5.501 5.501 0 0 1 7.78 7.78l-3.76 3.757a.5.5 0 0 0 .708.708l3.759-3.758a6.509 6.509 0 0 0 0-9.195zm-8.953 16.732L10.89 22.89a5.501 5.501 0 1 1-7.78-7.78l3.757-3.757a.5.5 0 1 0-.707-.708L2.4 14.404a6.502 6.502 0 0 0 9.195 9.195l3.758-3.759a.5.5 0 0 0-.708-.707z" fill="#121212" fill-rule="nonzero"/>
</svg>
