<svg xmlns="http://www.w3.org/2000/svg" xmlns:xlink="http://www.w3.org/1999/xlink" width="20" height="20" viewBox="0 0 20 20">
  <defs>
    <clipPath id="clip-path">
      <rect id="Rectangle_5268" data-name="Rectangle 5268" width="20" height="20" transform="translate(12970 6577)" fill="#fff" stroke="#212529" stroke-width="1.5"/>
    </clipPath>
  </defs>
  <g id="Mask_Group_734" data-name="Mask Group 734" transform="translate(-12970 -6577)" clip-path="url(#clip-path)">
    <g id="square-lock-password-stroke-rounded" transform="translate(12968.837 6575.837)">
      <path id="Path_39255" data-name="Path 39255" d="M13.48,14.419h.008m-4.651,0h.008" fill="none" stroke="#212529" stroke-linecap="round" stroke-linejoin="round" stroke-width="1.5"/>
      <path id="Path_39256" data-name="Path 39256" d="M3.97,17.53a3.273,3.273,0,0,0,3.062,2.843c1.318.061,2.656.092,4.131.092s2.813-.032,4.131-.092a3.273,3.273,0,0,0,3.062-2.843,23.278,23.278,0,0,0,.249-3.111,23.278,23.278,0,0,0-.249-3.111,3.273,3.273,0,0,0-3.062-2.843c-1.318-.061-2.656-.092-4.131-.092S8.35,8.4,7.032,8.464A3.273,3.273,0,0,0,3.97,11.307a23.284,23.284,0,0,0-.249,3.111A23.284,23.284,0,0,0,3.97,17.53Z" fill="none" stroke="#212529" stroke-width="1.5"/>
      <path id="Path_39257" data-name="Path 39257" d="M6.977,8.372V6.047a4.186,4.186,0,0,1,8.372,0V8.372" fill="none" stroke="#212529" stroke-linecap="round" stroke-linejoin="round" stroke-width="1.5"/>
    </g>
  </g>
</svg>
