<svg xmlns="http://www.w3.org/2000/svg" xmlns:xlink="http://www.w3.org/1999/xlink" width="426" height="240" viewBox="0 0 426 240">
  <defs>
    <filter id="Rectangle_3869" x="-48" y="-32" width="522" height="336" filterUnits="userSpaceOnUse">
      <feOffset dy="16" input="SourceAlpha"/>
      <feGaussianBlur stdDeviation="16" result="blur"/>
      <feFlood flood-opacity="0.043"/>
      <feComposite operator="in" in2="blur"/>
      <feComposite in="SourceGraphic"/>
    </filter>
    <clipPath id="clip-path">
      <g transform="matrix(1, 0, 0, 1, 0, 0)" filter="url(#Rectangle_3869)">
        <rect id="Rectangle_3869-2" data-name="Rectangle 3869" width="426" height="240" rx="3" transform="translate(152 80)" fill="#fff"/>
      </g>
    </clipPath>
    <clipPath id="clip-path-2">
      <path id="Path_7" data-name="Path 7" d="M198.529,266.258c-10.667-2.115-101.989-15.931-92.927,8.269,1.337,3.57,3.564,3.57.891,6.694-2.228,2.231-8.02,2.678-10.693,3.124-6.238.892-13.813,1.339-17.377,7.586-15.594,27.222,46.338,47.749,63.27,53.1,25.842,8.033,50.794,15.62,77.972,17.4a76.118,76.118,0,0,0,17.377-.446c7.13-.893,10.693-3.571,16.487-7.14,9.8-6.247,24.06,1.339,35.2.892,10.248-.446,28.515-3.57,33.862-14.28,7.13-14.282-17.822-20.976-25.842-26.331-6.238-4.463-1.337-10.71-7.575-15.173-13.349-9.55-31.947-18.174-47.312-22.625C227.561,273.193,213.15,269.158,198.529,266.258Z" transform="translate(-75.927 -260.421)" fill="none"/>
    </clipPath>
    <clipPath id="clip-path-3">
      <path id="Path_105" data-name="Path 105" d="M358.947,286.329c2.087-.658-7.537-8.9-7.538-11.254,0-.435-.021-.886-.057-1.347-.2-2.626-1.97-5.061-3.733-6.865-5.467-5.7-12.742-7.839-20.378-7.631-2.669.158-7.453.311-9.019,3.168a9.956,9.956,0,0,0-.181,5.839c.341,1.546-32.105,9.631-31.564,10.664,9,17.189,41.623,16.747,48.722,16.869C337.585,295.81,355.521,287.406,358.947,286.329Z" transform="translate(-286.469 -259.219)" fill="none"/>
    </clipPath>
    <clipPath id="clip-path-4">
      <path id="Path_206" data-name="Path 206" d="M121.546,281.828c1.685-.335,1.893,1.394,1.559,2.064-.668,1.841-3.342,1.394-4.846,1.562a56.617,56.617,0,0,0-10.192,2.51,46.062,46.062,0,0,1-6.683,1c-2.339.167-4.678,1-6.85,1.339a21.09,21.09,0,0,1-12.03-1.841c-1.838-.837-9.524-4.853-7.185-7.531,1.337-1.506,6.6-8.6,8.774-8.6,3.676,0,6.531-1.009,10.207-1.679,3.509-.5,8.664,1.681,12.34,2.518,4.344.837,5.7,4.807,10.208,4.807Z" transform="translate(-74.88 -270.579)" fill="none"/>
    </clipPath>
    <clipPath id="clip-path-5">
      <path id="Path_227" data-name="Path 227" d="M165.224,343.689c1.685-.335,1.893,1.394,1.559,2.064-.668,1.841-3.342,1.394-4.846,1.562a56.619,56.619,0,0,0-10.192,2.51,46.062,46.062,0,0,1-6.683,1c-2.339.167-4.678,1-6.85,1.339a21.09,21.09,0,0,1-12.03-1.841c-1.838-.837-9.524-4.853-7.185-7.531,1.337-1.506,6.6-8.6,8.774-8.6,3.676,0,6.531-1.009,10.207-1.678,3.509-.5,8.664,1.681,12.34,2.518,4.344.837,5.7,4.806,10.208,4.806Z" transform="translate(-118.557 -332.44)" fill="none"/>
    </clipPath>
  </defs>
  <g id="producer" transform="translate(-152 -80)" clip-path="url(#clip-path)">
    <g id="Group_57" data-name="Group 57" transform="translate(231.613 80)">
      <g id="BACKGROUND" transform="translate(18.847 12.035)">
        <g id="Group_13" data-name="Group 13" transform="translate(0 91.473)">
          <g id="Group_3" data-name="Group 3" transform="translate(0 10.711)">
            <path id="Path_1" data-name="Path 1" d="M198.529,266.258c-10.667-2.115-101.989-15.931-92.927,8.269,1.337,3.57,3.564,3.57.891,6.694-2.228,2.231-8.02,2.678-10.693,3.124-6.238.892-13.813,1.339-17.377,7.586-15.594,27.222,46.338,47.749,63.27,53.1,25.842,8.033,50.794,15.62,77.972,17.4a76.118,76.118,0,0,0,17.377-.446c7.13-.893,10.693-3.571,16.487-7.14,9.8-6.247,24.06,1.339,35.2.892,10.248-.446,28.515-3.57,33.862-14.28,7.13-14.282-17.822-20.976-25.842-26.331-6.238-4.463-1.337-10.71-7.575-15.173-13.349-9.55-31.947-18.174-47.312-22.625C227.561,273.193,213.15,269.158,198.529,266.258Z" transform="translate(-75.927 -260.421)" fill="#bb8057"/>
            <g id="Group_2" data-name="Group 2">
              <g id="Group_1" data-name="Group 1" clip-path="url(#clip-path-2)">
                <path id="Path_2" data-name="Path 2" d="M262.157,380.747c-.7-1.256-3.415-4.155-5.57-3.179l-.437.075c.388-1.592-4.186-7.842-8.2-3.341-.173-5.47-3.751-14.793-15.238-11.159a16.852,16.852,0,0,0-2.419.947c.084-.141.168-.276.249-.424,1.641-3.489-.535-6.555-4.511-7.711a5.618,5.618,0,0,0-4.908.452l.218-.039c-.107.1-.1.4-.209.342.029-2.525-1.811-5.422-3.943-6.968a12.227,12.227,0,0,0-4.977-1.673c-2.52-.106-3.359.953-4.955,2.371.232-3.02-5.311-8.721-9.877-4.356-.117-.209-.021-.606-.134-.817-.916-1.219-.644-3.022-1.674-4.45a9.773,9.773,0,0,0-4.051-3.589,8.594,8.594,0,0,0-2.612-.608c.026-1.744-1.633-3.127-3.542-4.217-3.342-1.874-7.256-1.058-11.207-1.455,4.215-5.148-8.414-6.589-12.868-5.6,3.923-3.949-6.389-8.233-11.12-5.595,1.24-4.826-4.578-5.265-9.843-4.223a4.154,4.154,0,0,0-1.627-5.589,15.981,15.981,0,0,0-6.18-1.7c-2.3-.293-4.805.358-6.782.082-.329-.02-.869.148-1.2.128,5.013-4.135-4.573-6.249-8.81-5.3,1.6-1.417,2.882-2.246,2.065-3.864a8.518,8.518,0,0,0-3.7-2.811,23.691,23.691,0,0,0-10.965-.736c-.111-.056.325-.134.432-.226l0,.152c1.055-1.248.468-2.447-.652-3.324-2.7-2.292-7.641-2.9-12.172-.91-.19.091-.364.183-.541.275a7.289,7.289,0,0,0,.71-1.831c2.139-8.461-12.08-8.335-19.917-7,5.35-3.811-4.76-5.148-6.927-4.474l-.008-.305c.822-1.666-4.023-2.678-6-2.8-2.2-.238-6.762.69-5.815,2.974.474,1.138,4.653,1.807,6.412,2.117-4.352.736-1.653,3.032.338,3.761s5.05.517,7.449.262c-3.017,1.43-.531,3.911,1.247,4.83,2.225,1.149,5.06.821,7.864-.421-4.189,2.547,5.136,7.7,11.115,5.735-.844,1.464-.281,2.954,1.786,4.368a16.4,16.4,0,0,0,5.107,2.343,20.2,20.2,0,0,0,2.969.488c.223.114,2.955.031,2.959.185.112.058.112.058.329.019-3.239,1.315.987,3.5,2.1,4.075,2.114,1.091,5.537,2.114,8.465,1.233-1.8,1.91,1.346,4.583,2.909,5.54,2.562,1.473,5.959,1.583,9.44.992-3.578,2.7,4.277,6.458,10.816,5.748-.724,3.715,9.615,4.128,13.018,4.025-2.323,2.686.352,4.217,3.008,5.141,3.211,1.21,6.26.692,9.871.766-1.43,3.146-.4,4.727,2.935,6.3a23.943,23.943,0,0,0,4.87,1.769c1.544.348,3.507.168,5.157.422-3.07,3.767,1.609,5.2,6.731,4.676.226,4.634,8.087,9.187,11.094,6.029a6.32,6.32,0,0,0,3.907,5.9c1.774.768,6.412,2.117,8.656.437-.479,2.145,1.881,4.11,4,5.2,1.111.574,5.337,2.758,6.353.295.005.152.005.152.116.21.218-.038.822,1.769,1.045,1.883a9.451,9.451,0,0,0,1.479,1.813,14.775,14.775,0,0,0,4.682,2.716,8.117,8.117,0,0,0,6.693.014c-1.214,4.423,8.583,9.153,11.1,5.745-1.026,2.159-.744,4.1,1.48,5.248,1.779.918,5.968,1.886,7.205-.462.271,1.633.774,3.687,2.339,4.795s5.543,2.265,5.447-.771c.909,1.066,2.959,3.62,4.708,3.629A2.915,2.915,0,0,0,262.157,380.747Z" transform="translate(-67.966 -265.366)" fill="#68442a"/>
                <path id="Path_3" data-name="Path 3" d="M7.789,284.089c1.537-.1,5.748.615,6.182,2.961l.2.408c1.184-1.192,9.5-.74,7.912,5.087,4.969-2.829,15.413-4.887,19.1,6.761a16,16,0,0,1,.616,2.553c.074-.147.144-.293.228-.44,2.113-3.28,6.149-3.117,9.575-.4a5.689,5.689,0,0,1,2.555,4.379l-.1-.2c-.02.142-.3.3-.178.362,2.227-1.4,5.911-1.424,8.569-.473a13.474,13.474,0,0,1,4.489,3.28c1.612,2.064,1.176,3.347.878,5.464,2.544-1.839,10.955-.272,9.825,5.948.257-.015.553-.313.808-.331,1.635.106,3.074-1.1,4.966-1.013a11.241,11.241,0,0,1,5.631,1.46,9.288,9.288,0,0,1,2.113,1.869c1.537-.971,3.765-.326,5.881.688,3.682,1.794,5.312,5.536,8.047,8.646,2.037-6.35,10.928,3.5,12.736,7.788,1.149-5.453,11.169.9,11.674,6.321,3.542-3.67,7.441.991,9.686,5.993a4.552,4.552,0,0,1,5.948-1.673,17.435,17.435,0,0,1,5.234,4.284c1.651,1.786,2.576,4.241,4.01,5.757.216.268.392.813.609,1.08.658-6.47,8.313.452,10.02,4.537.3-2.116.262-3.649,2.193-3.842a9.761,9.761,0,0,1,4.725,1.588,24.823,24.823,0,0,1,7.26,8.836c.117.062-.08-.345-.059-.488l-.138.08c.476-1.567,1.893-1.727,3.35-1.26,3.664,1.026,7.185,4.855,8.144,9.757.033.21.055.406.081.6a7.077,7.077,0,0,1,1.2-1.6c6.233-6.4,14.689,5.64,18.226,12.963.164-6.579,7.445,1.209,8.154,3.4l.275-.159c.986-1.6,4.805,1.932,6.1,3.528,1.534,1.719,3.461,6.071.859,6.514-1.3.222-4.411-2.937-5.748-4.249,1.965,4.067-1.7,3.042-3.549,1.763s-3.5-3.972-4.72-6.13c.547,3.317-3.156,2.575-5.045,1.576-2.363-1.248-3.779-3.815-4.366-6.852.261,4.914-9.938-.138-11.795-6.241-.794,1.507-2.458,1.845-4.96.87a18.4,18.4,0,0,1-5.159-3.028,21.453,21.453,0,0,1-2.224-2.236c-.236-.125-1.809-2.471-1.946-2.392-.119-.062-.119-.062-.215-.268.783,3.443-3.706,1.071-4.889.448-2.244-1.186-5.213-3.513-6.2-6.458-.614,2.555-4.886,1.359-6.679.563-2.855-1.356-5-4.156-6.57-7.411-.245,4.485-8.32-.088-11.629-5.982-2.867,2.631-9.463-5.851-11.423-8.774-.988,3.419-3.962,2-6.382.268-3.012-2.046-4.388-4.9-6.629-7.9-1.938,2.917-3.964,2.907-7.37.957a26.48,26.48,0,0,1-4.507-3.139c-1.238-1.11-2.262-2.863-3.482-4.113-1.5,4.634-5.593,1.473-8.214-3.124-4.257,2.33-13.044-1.816-12.045-6.065a7.192,7.192,0,0,1-7.6-.078c-1.752-1.077-5.748-4.25-5.605-7.053-1.617,1.57-4.787.652-7.032-.536-1.18-.625-5.67-3-4.091-5.192-.138.078-.138.078-.256.017-.1-.2-2.072.268-2.305.144a10.926,10.926,0,0,1-2.5-.26A16.722,16.722,0,0,1,45,311.775c-2.413-1.627-3.758-3.552-4.045-5.63-3.2,3.43-13.311-2.248-11.8-6.225-1.3,2.04-3.195,2.858-5.557,1.607-1.891-1-5.274-4-3.931-6.32-1.616.661-3.743,1.354-5.675.637s-5.353-3.435-2.6-5.006c-1.5-.185-5-.523-6.064-1.992C3.215,285.916,6.016,284.063,7.789,284.089Z" transform="translate(-52.069 -268.307)" fill="#68442a"/>
                <path id="Path_4" data-name="Path 4" d="M94.769,260.464c1.42-.2,5.368.217,5.893,2.528l.2.394c1.035-1.272,8.769-1.393,7.611,4.53,4.458-3.165,14.035-5.936,18.079,5.427a16.847,16.847,0,0,1,.708,2.5c.061-.152.118-.3.188-.455,1.785-3.414,5.54-3.53,8.862-1.054a5.635,5.635,0,0,1,2.607,4.192l-.1-.2c-.011.143-.26.319-.146.373,1.992-1.548,5.409-1.826,7.925-1.061a12.247,12.247,0,0,1,4.338,2.963c1.6,1.948,1.27,3.258,1.105,5.389,2.262-2.008,10.147-1.026,9.43,5.255.237-.033.5-.351.731-.386,1.523-.005,2.794-1.311,4.553-1.351a9.757,9.757,0,0,1,5.3,1.071,8.628,8.628,0,0,1,2.06,1.718c1.373-1.075,3.475-.584,5.492.282,3.511,1.536,5.224,5.154,7.925,8.069,1.552-6.473,10.324,2.738,12.231,6.889.775-5.517,10.409.134,11.165,5.5,3.094-3.9,6.955.477,9.3,5.31a4.141,4.141,0,0,1,5.432-2.075,16.054,16.054,0,0,1,5.083,3.909c1.627,1.663,2.616,4.052,4.029,5.464.215.252.408.785.624,1.035.267-6.5,7.736-.121,9.537,3.835.164-2.131.048-3.658,1.829-3.983a8.522,8.522,0,0,1,4.47,1.258,23.773,23.773,0,0,1,7.2,8.312c.112.054-.093-.335-.081-.481l-.124.089c.358-1.6,1.665-1.853,3.04-1.487,3.454.77,6.925,4.347,8.075,9.171.042.207.074.4.107.6a7.289,7.289,0,0,1,1.03-1.673c5.441-6.816,13.927,4.613,17.6,11.672-.2-6.572,6.971.692,7.743,2.829l.249-.178c.829-1.662,4.559,1.6,5.848,3.1,1.514,1.607,3.534,5.815,1.143,6.437-1.194.311-4.246-2.625-5.557-3.841,2.039,3.921-1.414,3.151-3.2,2s-3.459-3.72-4.706-5.788c.684,3.271-2.791,2.785-4.6,1.92-2.258-1.082-3.709-3.544-4.411-6.533.5,4.887-9.223.547-11.276-5.411-.655,1.558-2.181,2.008-4.554,1.212a16.4,16.4,0,0,1-4.946-2.665A20.1,20.1,0,0,1,257.644,345c-.226-.109-1.809-2.34-1.934-2.251-.114-.054-.114-.054-.214-.25.91,3.38-3.38,1.324-4.51.783-2.145-1.029-5.026-3.146-6.093-6.013-.434,2.591-4.461,1.692-6.165,1.021-2.72-1.155-4.858-3.8-6.49-6.938.012,4.485-7.723.485-11.106-5.165-2.52,2.821-9.089-5.184-11.062-7.966-.735,3.477-3.57,2.265-5.907.7-2.9-1.833-4.33-4.579-6.57-7.419-1.639,3.042-3.522,3.172-6.786,1.461a23.923,23.923,0,0,1-4.348-2.82c-1.209-1.022-2.252-2.7-3.45-3.862-1.144,4.725-5.109,1.855-7.786-2.55-3.824,2.617-12.2-.912-11.5-5.221a6.3,6.3,0,0,1-7.058.445c-1.682-.953-5.557-3.842-5.574-6.648-1.418,1.678-4.407.98-6.55-.048-1.128-.541-5.419-2.6-4.072-4.895-.124.087-.124.087-.236.033-.1-.2-1.905.412-2.131.3a9.464,9.464,0,0,1-2.335-.087,14.735,14.735,0,0,1-4.989-2.1,8.128,8.128,0,0,1-4.052-5.336c-2.787,3.641-12.469-1.326-11.277-5.4-1.1,2.123-2.812,3.069-5.069,1.987-1.8-.866-5.105-3.625-3.984-6.031-1.464.77-3.4,1.607-5.23,1.026s-5.146-3.057-2.673-4.815c-1.4-.081-4.668-.176-5.732-1.568A2.909,2.909,0,0,1,94.769,260.464Z" transform="translate(-81.281 -260.421)" fill="#68442a"/>
                <path id="Path_5" data-name="Path 5" d="M337.371,344c-.728-1.238-3.525-4.06-5.654-3.026l-.434.087c.344-1.6-4.4-7.725-8.287-3.116-.321-5.464-4.151-14.684-15.532-10.74a16.958,16.958,0,0,0-2.394,1.013c.081-.141.162-.281.237-.431,1.546-3.532-.712-6.538-4.718-7.585a5.615,5.615,0,0,0-4.894.585l.217-.044c-.1.1-.086.4-.2.347-.041-2.526-1.958-5.37-4.129-6.857a12.222,12.222,0,0,0-5.021-1.54c-2.522-.037-3.332,1.046-4.89,2.5.15-3.024-5.547-8.572-9.991-4.083-.123-.206-.037-.606-.157-.813-.948-1.194-.724-3-1.793-4.4a9.779,9.779,0,0,0-4.148-3.477,8.586,8.586,0,0,0-2.627-.535c-.021-1.746-1.716-3.079-3.654-4.118-3.391-1.784-7.281-.859-11.243-1.149,4.077-5.259-8.589-6.359-13.015-5.251,3.814-4.056-6.61-8.054-11.266-5.288,1.107-4.858-4.72-5.138-9.958-3.949a4.153,4.153,0,0,0-1.778-5.544,16.012,16.012,0,0,0-6.223-1.529c-2.314-.232-4.793.488-6.776.268-.334-.012-.869.172-1.2.159,4.9-4.27-4.745-6.122-8.951-5.057,1.558-1.461,2.82-2.324,1.96-3.92a8.525,8.525,0,0,0-3.774-2.706,23.709,23.709,0,0,0-10.982-.434c-.112-.054.321-.14.426-.238l.007.153c1.021-1.277.4-2.46-.742-3.306-2.759-2.218-7.717-2.7-12.193-.578-.187.1-.358.193-.535.29a7.238,7.238,0,0,0,.66-1.851c1.91-8.515-12.3-8-20.1-6.457,5.244-3.955-4.9-5.017-7.046-4.284l-.017-.306c.777-1.687-4.094-2.565-6.071-2.633-2.2-.178-6.74.87-5.73,3.131.5,1.127,4.7,1.673,6.467,1.941-4.33.857-1.571,3.075.44,3.749s5.061.38,7.453.06c-2.977,1.511-.425,3.924,1.377,4.793,2.256,1.089,5.079.684,7.85-.635-4.118,2.661,5.343,7.553,11.266,5.43-.8,1.486-.2,2.96,1.9,4.318a16.407,16.407,0,0,0,5.168,2.2,20.187,20.187,0,0,0,2.983.408c.227.108,2.955-.05,2.963.1.113.055.113.055.329.011-3.2,1.406,1.081,3.469,2.21,4.016,2.143,1.033,5.593,1.963,8.5,1-1.748,1.958,1.47,4.544,3.058,5.458,2.6,1.406,6,1.421,9.464.736-3.5,2.8,4.451,6.34,10.968,5.452-.624,3.733,9.722,3.864,13.121,3.668-2.249,2.748.468,4.206,3.145,5.057,3.242,1.123,6.277.523,9.891.5-1.345,3.184-.267,4.735,3.1,6.217a23.89,23.89,0,0,0,4.917,1.636c1.553.3,3.51.072,5.166.28-2.966,3.85,1.749,5.154,6.856,4.493.352,4.625,8.337,8.963,11.255,5.723a6.316,6.316,0,0,0,4.065,5.8c1.794.719,6.469,1.941,8.666.2-.42,2.158,1.992,4.058,4.134,5.093,1.128.543,5.414,2.611,6.36.122.01.152.01.152.121.207.218-.044.869,1.746,1.1,1.854a9.456,9.456,0,0,0,1.529,1.772,14.757,14.757,0,0,0,4.753,2.588,8.119,8.119,0,0,0,6.691-.169c-1.094,4.454,8.829,8.916,11.256,5.441-.968,2.186-.633,4.117,1.621,5.2,1.8.87,6.015,1.724,7.191-.657.315,1.625.874,3.664,2.473,4.729s5.6,2.113,5.424-.92c.936,1.042,3.056,3.538,4.806,3.5A2.921,2.921,0,0,0,337.371,344Z" transform="translate(-92.208 -254.992)" fill="#68442a"/>
                <path id="Path_6" data-name="Path 6" d="M170.745,230.7c1.42-.2,5.368.217,5.893,2.528l.2.394c1.035-1.272,8.769-1.392,7.611,4.53,4.458-3.164,14.035-5.936,18.079,5.427a16.711,16.711,0,0,1,.708,2.5c.061-.151.118-.3.188-.454,1.784-3.414,5.539-3.53,8.861-1.054a5.638,5.638,0,0,1,2.607,4.192l-.1-.2c-.011.143-.259.319-.146.374,1.992-1.548,5.408-1.827,7.924-1.061a12.259,12.259,0,0,1,4.339,2.962c1.6,1.949,1.27,3.259,1.1,5.389,2.262-2.008,10.147-1.026,9.43,5.255.238-.033.5-.351.735-.386,1.523-.005,2.793-1.311,4.553-1.352a9.755,9.755,0,0,1,5.3,1.071,8.61,8.61,0,0,1,2.06,1.718c1.373-1.074,3.475-.584,5.493.282,3.511,1.536,5.222,5.154,7.924,8.069,1.552-6.473,10.324,2.739,12.231,6.889.775-5.517,10.409.134,11.166,5.5,3.094-3.9,6.955.477,9.3,5.309a4.141,4.141,0,0,1,5.432-2.075,16,16,0,0,1,5.079,3.909c1.624,1.664,2.616,4.052,4.029,5.464.215.252.408.784.624,1.035.267-6.5,7.735-.122,9.537,3.834.164-2.131.048-3.658,1.829-3.982a8.511,8.511,0,0,1,4.47,1.258,23.766,23.766,0,0,1,7.2,8.312c.112.054-.093-.335-.081-.482l-.124.09c.358-1.6,1.664-1.854,3.04-1.487,3.454.77,6.925,4.347,8.075,9.171.042.207.073.4.107.6a7.217,7.217,0,0,1,1.03-1.673c5.441-6.817,13.927,4.612,17.6,11.671-.2-6.572,6.971.693,7.743,2.829l.248-.178c.829-1.662,4.56,1.6,5.848,3.1,1.514,1.607,3.534,5.816,1.144,6.438-1.194.31-4.246-2.625-5.557-3.842,2.039,3.921-1.414,3.151-3.2,2s-3.459-3.719-4.706-5.788c.684,3.272-2.791,2.785-4.6,1.92-2.258-1.082-3.709-3.544-4.411-6.533.5,4.883-9.223.548-11.276-5.411-.655,1.558-2.181,2.008-4.554,1.212a16.414,16.414,0,0,1-4.946-2.664,20.231,20.231,0,0,1-2.182-2.075c-.226-.109-1.809-2.343-1.934-2.251-.114-.054-.114-.054-.214-.25.91,3.379-3.38,1.323-4.51.783-2.145-1.029-5.026-3.146-6.093-6.013-.434,2.591-4.461,1.692-6.165,1.022-2.72-1.156-4.859-3.8-6.49-6.938.012,4.485-7.723.485-11.106-5.165-2.52,2.821-9.089-5.184-11.063-7.966-.735,3.477-3.569,2.266-5.907.7-2.9-1.833-4.331-4.579-6.57-7.419-1.639,3.042-3.522,3.171-6.785,1.46a23.872,23.872,0,0,1-4.354-2.825c-1.208-1.022-2.25-2.7-3.449-3.862-1.145,4.725-5.111,1.854-7.787-2.55-3.824,2.617-12.2-.912-11.5-5.221a6.3,6.3,0,0,1-7.058.446c-1.683-.953-5.557-3.842-5.575-6.648-1.416,1.678-4.407.98-6.55-.048-1.128-.542-5.42-2.6-4.072-4.9-.124.088-.124.088-.236.034-.1-.2-1.905.412-2.131.3a9.425,9.425,0,0,1-2.335-.087,14.735,14.735,0,0,1-4.989-2.1,8.132,8.132,0,0,1-4.053-5.335c-2.786,3.64-12.468-1.327-11.276-5.4-1.1,2.124-2.812,3.069-5.07,1.987-1.8-.866-5.1-3.625-3.983-6.032-1.464.77-3.4,1.607-5.23,1.026s-5.146-3.056-2.673-4.814c-1.4-.081-4.668-.177-5.731-1.569A2.912,2.912,0,0,1,170.745,230.7Z" transform="translate(-106.684 -250.5)" fill="#68442a"/>
              </g>
            </g>
          </g>
          <g id="Group_12" data-name="Group 12" transform="translate(47.999)">
            <g id="Group_4" data-name="Group 4" transform="translate(149.305 72.343)">
              <path id="Path_8" data-name="Path 8" d="M372.346,360.565c2.9,4.24,2.228,10.264,2.228,15.173" transform="translate(-372.346 -355.435)" fill="none" stroke="#6cd379" stroke-width="3.012"/>
              <path id="Path_9" data-name="Path 9" d="M378.927,352.87c.223,6.694-.891,13.611-.891,20.3" transform="translate(-374.248 -352.87)" fill="none" stroke="#6cd379" stroke-width="3.012"/>
              <path id="Path_10" data-name="Path 10" d="M386.441,355.545c-2.45,5.8-5.124,12.718-3.342,19.189" transform="translate(-375.748 -353.761)" fill="none" stroke="#6cd379" stroke-width="3.012"/>
              <path id="Path_11" data-name="Path 11" d="M388.743,371.947c-1.782,2.454-2,5.8-2,8.7" transform="translate(-377.158 -359.229)" fill="none" stroke="#6cd379" stroke-width="3.012"/>
            </g>
            <g id="Group_5" data-name="Group 5" transform="translate(10.496 52.082)">
              <path id="Path_12" data-name="Path 12" d="M163.807,330.173c2.9,4.241,2.228,10.265,2.228,15.173" transform="translate(-163.807 -325.043)" fill="none" stroke="#6cd379" stroke-width="3.012"/>
              <path id="Path_13" data-name="Path 13" d="M170.388,322.477c.223,6.694-.891,13.61-.891,20.3" transform="translate(-165.709 -322.477)" fill="none" stroke="#6cd379" stroke-width="3.012"/>
              <path id="Path_14" data-name="Path 14" d="M177.9,325.153c-2.45,5.8-5.123,12.718-3.342,19.189" transform="translate(-167.209 -323.369)" fill="none" stroke="#6cd379" stroke-width="3.012"/>
              <path id="Path_15" data-name="Path 15" d="M180.2,341.555c-1.782,2.453-2.005,5.8-2.005,8.7" transform="translate(-168.619 -328.836)" fill="none" stroke="#6cd379" stroke-width="3.012"/>
            </g>
            <g id="Group_6" data-name="Group 6" transform="translate(81.116 12.275)">
              <path id="Path_16" data-name="Path 16" d="M269.9,270.46c2.9,4.24,2.228,10.264,2.228,15.173" transform="translate(-269.904 -265.332)" fill="none" stroke="#6cd379" stroke-width="3.012"/>
              <path id="Path_17" data-name="Path 17" d="M276.485,262.768c.223,6.694-.891,13.611-.891,20.3" transform="translate(-271.806 -262.768)" fill="none" stroke="#6cd379" stroke-width="3.012"/>
              <path id="Path_18" data-name="Path 18" d="M284,265.439c-2.45,5.8-5.124,12.718-3.342,19.189" transform="translate(-273.306 -263.658)" fill="none" stroke="#6cd379" stroke-width="3.012"/>
              <path id="Path_19" data-name="Path 19" d="M286.3,281.845c-1.782,2.454-2.005,5.8-2.005,8.7" transform="translate(-274.716 -269.127)" fill="none" stroke="#6cd379" stroke-width="3.012"/>
            </g>
            <g id="Group_7" data-name="Group 7" transform="translate(12.072 27.848)">
              <path id="Path_20" data-name="Path 20" d="M166.175,293.824c2.9,4.24,2.228,10.264,2.228,15.173" transform="translate(-166.175 -288.692)" fill="none" stroke="#6cd379" stroke-width="3.012"/>
              <path id="Path_21" data-name="Path 21" d="M172.756,286.127c.223,6.694-.891,13.611-.891,20.3" transform="translate(-168.078 -286.127)" fill="none" stroke="#6cd379" stroke-width="3.012"/>
              <path id="Path_22" data-name="Path 22" d="M180.271,288.8c-2.45,5.8-5.124,12.718-3.342,19.189" transform="translate(-169.577 -287.019)" fill="none" stroke="#6cd379" stroke-width="3.012"/>
              <path id="Path_23" data-name="Path 23" d="M182.575,305.2c-1.782,2.454-2.005,5.8-2.005,8.7" transform="translate(-170.988 -292.486)" fill="none" stroke="#6cd379" stroke-width="3.012"/>
            </g>
            <g id="Group_8" data-name="Group 8" transform="translate(140.228 42.109)">
              <path id="Path_24" data-name="Path 24" d="M358.709,315.216c2.9,4.24,2.228,10.264,2.228,15.173" transform="translate(-358.709 -310.084)" fill="none" stroke="#6cd379" stroke-width="3.012"/>
              <path id="Path_25" data-name="Path 25" d="M365.29,307.518c.223,6.694-.891,13.611-.891,20.3" transform="translate(-360.612 -307.518)" fill="none" stroke="#6cd379" stroke-width="3.012"/>
              <path id="Path_26" data-name="Path 26" d="M372.8,310.2c-2.45,5.8-5.123,12.718-3.342,19.189" transform="translate(-362.112 -308.411)" fill="none" stroke="#6cd379" stroke-width="3.012"/>
              <path id="Path_27" data-name="Path 27" d="M375.107,326.6c-1.782,2.454-2.005,5.8-2.005,8.7" transform="translate(-363.522 -313.878)" fill="none" stroke="#6cd379" stroke-width="3.012"/>
            </g>
            <g id="Group_9" data-name="Group 9">
              <path id="Path_28" data-name="Path 28" d="M148.038,252.052c2.9,4.24,2.228,10.264,2.228,15.173" transform="translate(-148.038 -246.921)" fill="none" stroke="#6cd379" stroke-width="3.012"/>
              <path id="Path_29" data-name="Path 29" d="M154.62,244.355c.223,6.694-.891,13.611-.891,20.3" transform="translate(-149.941 -244.355)" fill="none" stroke="#6cd379" stroke-width="3.012"/>
              <path id="Path_30" data-name="Path 30" d="M162.134,247.032c-2.45,5.8-5.124,12.718-3.342,19.189" transform="translate(-151.441 -245.247)" fill="none" stroke="#6cd379" stroke-width="3.012"/>
              <path id="Path_31" data-name="Path 31" d="M164.436,263.432c-1.782,2.454-2.005,5.8-2.005,8.7" transform="translate(-152.851 -250.714)" fill="none" stroke="#6cd379" stroke-width="3.012"/>
            </g>
            <g id="Group_10" data-name="Group 10" transform="translate(61.404 79.634)">
              <path id="Path_32" data-name="Path 32" d="M240.288,371.5c2.9,4.24,2.228,10.264,2.228,15.173" transform="translate(-240.288 -366.372)" fill="none" stroke="#6cd379" stroke-width="3.012"/>
              <path id="Path_33" data-name="Path 33" d="M246.869,363.806c.223,6.694-.891,13.611-.891,20.3" transform="translate(-242.191 -363.806)" fill="none" stroke="#6cd379" stroke-width="3.012"/>
              <path id="Path_34" data-name="Path 34" d="M254.383,366.483c-2.45,5.8-5.123,12.718-3.342,19.189" transform="translate(-243.69 -364.698)" fill="none" stroke="#6cd379" stroke-width="3.012"/>
              <path id="Path_35" data-name="Path 35" d="M256.685,382.884c-1.782,2.454-2.005,5.8-2.005,8.7" transform="translate(-245.1 -370.165)" fill="none" stroke="#6cd379" stroke-width="3.012"/>
            </g>
            <g id="Group_11" data-name="Group 11" transform="translate(109.768 77.481)">
              <path id="Path_36" data-name="Path 36" d="M312.948,368.273c2.9,4.24,2.228,10.264,2.228,15.173" transform="translate(-312.948 -363.142)" fill="none" stroke="#6cd379" stroke-width="3.012"/>
              <path id="Path_37" data-name="Path 37" d="M319.529,360.576c.223,6.694-.89,13.611-.89,20.3" transform="translate(-314.85 -360.576)" fill="none" stroke="#6cd379" stroke-width="3.012"/>
              <path id="Path_38" data-name="Path 38" d="M327.043,363.253c-2.45,5.8-5.123,12.718-3.342,19.189" transform="translate(-316.35 -361.468)" fill="none" stroke="#6cd379" stroke-width="3.012"/>
              <path id="Path_39" data-name="Path 39" d="M329.345,379.654c-1.782,2.454-2.005,5.8-2.005,8.7" transform="translate(-317.76 -366.935)" fill="none" stroke="#6cd379" stroke-width="3.012"/>
            </g>
          </g>
        </g>
        <g id="Group_14" data-name="Group 14" transform="translate(0.891)" opacity="0.5">
          <path id="Path_40" data-name="Path 40" d="M77.273,133.111c-.211-4.284,4.528-5.128,7.693-5.168-.354-3.487-1.026-6.332.2-9.837,1.528-4.619,5.272-8.946,10.01-10.271a14.883,14.883,0,0,1,12.684,1.748c4.474,3.273,4.049,7.405,5.533,11.982.121-3.012,4.709-3.387,6.939-2.3,3.185,1.387,4.164,3.912,4.521,6.925,2.351-1.775,4.585-.059,4.946,2.631,2.345-1.932,6.464-2.3,9.325-1.226,2.54.92,5.128,5.172,6.721,5.63Z" transform="translate(-77.266 -107.146)" fill="#c3eafb"/>
          <path id="Path_41" data-name="Path 41" d="M397.745,182.865c.168-4.19-4.478-4.98-7.576-4.99.319-3.414.947-6.207-.282-9.626-1.537-4.506-5.241-8.706-9.885-9.964a14.583,14.583,0,0,0-12.4,1.825c-4.352,3.245-3.9,7.284-5.305,11.781-.146-2.949-4.643-3.275-6.817-2.194-3.1,1.386-4.038,3.864-4.358,6.813-2.322-1.713-4.495-.011-4.812,2.625-2.315-1.87-6.349-2.194-9.138-1.117-2.482.924-4.973,5.11-6.527,5.567Z" transform="translate(-161.989 -123.981)" fill="#c3eafb"/>
        </g>
        <g id="Group_21" data-name="Group 21" transform="translate(140.142 91.495)">
          <g id="Group_17" data-name="Group 17" transform="translate(8.707 15.944)">
            <g id="Group_15" data-name="Group 15">
              <path id="Path_42" data-name="Path 42" d="M385.446,309.695c0,.493-.984.892-2.2.892s-2.2-.4-2.2-.892.984-.893,2.2-.893S385.446,309.2,385.446,309.695Z" transform="translate(-326.801 -281.803)" fill="#e2bb91"/>
              <path id="Path_43" data-name="Path 43" d="M389.941,306.4c0,.246-.511.446-1.143.446s-1.143-.2-1.143-.446.511-.446,1.143-.446S389.941,306.157,389.941,306.4Z" transform="translate(-329.01 -280.855)" fill="#e2bb91"/>
              <path id="Path_44" data-name="Path 44" d="M395.2,305.288c0,.185-.267.335-.6.335s-.6-.149-.6-.335.267-.335.6-.335S395.2,305.1,395.2,305.288Z" transform="translate(-331.132 -280.52)" fill="#e2bb91"/>
              <path id="Path_45" data-name="Path 45" d="M393.405,312.335c0,.473-.668.855-1.492.855s-1.492-.382-1.492-.855.668-.855,1.492-.855S393.405,311.863,393.405,312.335Z" transform="translate(-329.935 -282.696)" fill="#e2bb91"/>
              <path id="Path_46" data-name="Path 46" d="M400.343,298.761c0,.463-.8.837-1.782.837s-1.782-.374-1.782-.837.8-.837,1.782-.837S400.343,298.3,400.343,298.761Z" transform="translate(-332.061 -278.178)" fill="#e2bb91"/>
              <path id="Path_47" data-name="Path 47" d="M314.039,270.937c0,.52-.771.943-1.722.943s-1.722-.422-1.722-.943.771-.943,1.722-.943S314.039,270.416,314.039,270.937Z" transform="translate(-303.243 -268.867)" fill="#e2bb91"/>
              <path id="Path_48" data-name="Path 48" d="M320.909,268.868c0,.311-.847.563-1.894.563s-1.893-.252-1.893-.563.848-.564,1.893-.564S320.909,268.556,320.909,268.868Z" transform="translate(-305.426 -268.304)" fill="#e2bb91"/>
              <path id="Path_49" data-name="Path 49" d="M322.915,273.6c0,.43-.66.78-1.474.78s-1.475-.349-1.475-.78.661-.78,1.475-.78S322.915,273.172,322.915,273.6Z" transform="translate(-306.377 -269.81)" fill="#e2bb91"/>
              <path id="Path_50" data-name="Path 50" d="M305.336,271.88c0,.26-.873.469-1.95.469s-1.951-.211-1.951-.469.874-.472,1.951-.472S305.336,271.619,305.336,271.88Z" transform="translate(-300.18 -269.339)" fill="#e2bb91"/>
              <path id="Path_51" data-name="Path 51" d="M310.47,276.672c0,.37-.473.669-1.057.669s-1.056-.3-1.056-.669.473-.669,1.056-.669S310.47,276.3,310.47,276.672Z" transform="translate(-302.495 -270.87)" fill="#e2bb91"/>
              <ellipse id="Ellipse_1" data-name="Ellipse 1" cx="0.947" cy="0.335" rx="0.947" ry="0.335" transform="translate(0 5.132)" fill="#e2bb91"/>
            </g>
            <g id="Group_16" data-name="Group 16">
              <path id="Path_52" data-name="Path 52" d="M385.446,309.695c0,.493-.984.892-2.2.892s-2.2-.4-2.2-.892.984-.893,2.2-.893S385.446,309.2,385.446,309.695Z" transform="translate(-326.801 -281.803)" fill="#e2bb91"/>
              <path id="Path_53" data-name="Path 53" d="M389.941,306.4c0,.246-.511.446-1.143.446s-1.143-.2-1.143-.446.511-.446,1.143-.446S389.941,306.157,389.941,306.4Z" transform="translate(-329.01 -280.855)" fill="#e2bb91"/>
              <path id="Path_54" data-name="Path 54" d="M395.2,305.288c0,.185-.267.335-.6.335s-.6-.149-.6-.335.267-.335.6-.335S395.2,305.1,395.2,305.288Z" transform="translate(-331.132 -280.52)" fill="#e2bb91"/>
              <path id="Path_55" data-name="Path 55" d="M393.405,312.335c0,.473-.668.855-1.492.855s-1.492-.382-1.492-.855.668-.855,1.492-.855S393.405,311.863,393.405,312.335Z" transform="translate(-329.935 -282.696)" fill="#e2bb91"/>
              <path id="Path_56" data-name="Path 56" d="M400.343,298.761c0,.463-.8.837-1.782.837s-1.782-.374-1.782-.837.8-.837,1.782-.837S400.343,298.3,400.343,298.761Z" transform="translate(-332.061 -278.178)" fill="#e2bb91"/>
              <path id="Path_57" data-name="Path 57" d="M314.039,270.937c0,.52-.771.943-1.722.943s-1.722-.422-1.722-.943.771-.943,1.722-.943S314.039,270.416,314.039,270.937Z" transform="translate(-303.243 -268.867)" fill="#e2bb91"/>
              <path id="Path_58" data-name="Path 58" d="M320.909,268.868c0,.311-.847.563-1.894.563s-1.893-.252-1.893-.563.848-.564,1.893-.564S320.909,268.556,320.909,268.868Z" transform="translate(-305.426 -268.304)" fill="#e2bb91"/>
              <path id="Path_59" data-name="Path 59" d="M322.915,273.6c0,.43-.66.78-1.474.78s-1.475-.349-1.475-.78.661-.78,1.475-.78S322.915,273.172,322.915,273.6Z" transform="translate(-306.377 -269.81)" fill="#e2bb91"/>
              <path id="Path_60" data-name="Path 60" d="M305.336,271.88c0,.26-.873.469-1.95.469s-1.951-.211-1.951-.469.874-.472,1.951-.472S305.336,271.619,305.336,271.88Z" transform="translate(-300.18 -269.339)" fill="#e2bb91"/>
              <path id="Path_61" data-name="Path 61" d="M310.47,276.672c0,.37-.473.669-1.057.669s-1.056-.3-1.056-.669.473-.669,1.056-.669S310.47,276.3,310.47,276.672Z" transform="translate(-302.495 -270.87)" fill="#e2bb91"/>
              <ellipse id="Ellipse_2" data-name="Ellipse 2" cx="0.947" cy="0.335" rx="0.947" ry="0.335" transform="translate(0 5.132)" fill="#e2bb91"/>
            </g>
          </g>
          <path id="Path_62" data-name="Path 62" d="M343.3,251.388c.98-1.2.106-3.727,1.254-4.814,1.123-1.23,2.615-.3,3.959-.232a14.156,14.156,0,0,0,4.9-.837c7.269-1.688,14.208-1.836,20.97,2.2,3.178,2.127,5.47,5.148,7.882,8,1.5,1.822,2.311,1.386,4.379,2.22,2.262,1.1,1.786,2.661-.323,3.32-3.093.974-5.972,1.466-8.992,2.873-3,1.551-6.468,3.777-7.992,7.005-.762,1.615-.85,3.707-2.6,4.748-2.178,1.339-5.987,1.138-8.455,1.309a37.518,37.518,0,0,1-9.413-.327c-7.467-1.384-12.992-3.473-17.318-10.1-2.005-3.071-2.816-7.832-.548-11.036,1.7-2.22,6.349-3.609,9.108-3.932Z" transform="translate(-300.901 -244.387)" fill="#af9f95"/>
          <path id="Path_63" data-name="Path 63" d="M364.414,279.985c2.473-.779,2.856-3.311,2.627-6.257-.2-2.626-1.97-5.061-3.733-6.865-5.467-5.7-12.742-7.839-20.378-7.631-2.669.158-7.453.311-9.019,3.168-1.194,2.587-.174,7.543,1.4,9.784,4.532,6.463,11.48,8.356,18.58,8.478C356.275,280.7,360.987,281.064,364.414,279.985Z" transform="translate(-302.157 -249.331)" fill="#917f73"/>
          <path id="Path_64" data-name="Path 64" d="M355.211,253.765c2.255-.682,5.815,1.083,7.739,1.941,5.918,2.55,9.439,6.694,13.134,11.852.487-4.09-3.779-8.258-6.55-10.6a19.636,19.636,0,0,0-9.5-4.459c2.567-.587,6.942.742,9.059,1.864,2.935,1.574,6.429,4.686,7.715,7.881" transform="translate(-309.455 -247.043)" fill="none" stroke="#917f73" stroke-width="1.004"/>
          <g id="Group_20" data-name="Group 20" transform="translate(0 9.888)">
            <g id="Group_19" data-name="Group 19" clip-path="url(#clip-path-3)">
              <path id="Path_65" data-name="Path 65" d="M289.4,279.526c.067-.853,1.2-1.187,1.871-.952-1.129-.86,1.891-1.658,2.665-1.229.644-1.163,2.54-1.978,3.633-.9a2.048,2.048,0,0,1,3.1-1.161c.634-.811,1.537-1.667,2.486-.635.589-.663,1.541-1.247,2.373-.477-.346-1.2,1.428-1.086,1.953-.474-.836-1.613,1.165-1.393,2.087-.918-.378-.568.053-.922.6-1.015.6-.173.8.145,1.275.485.006-1.195,1.871-1.374,2.452-.42-.029-1.821,1.059-2.429,2.53-1.2a1.565,1.565,0,0,1,2.7-.6c-.142-1.185.689-1.544,1.649-1.3.061-.148.122-.3.186-.442-.253-.727-.173-1.465.709-1.449.126-.232.261-.455.4-.675-.019-.691.222-1.21.884-1.2a9.249,9.249,0,0,1,.64-.68,1.751,1.751,0,0,1,1.9-1.452c.088-.055.176-.108.264-.161.021-1.065.255-1.134,1.24-1.567.192-.1.295.09.42,0s.215-.388.407-.491c.318-.195.772-.413,1.1-.118.291-.752,2.005-1.4,2.667-.807.053-.922,1.053-.812,1.666-.917a12.894,12.894,0,0,1,2.272-.669,9.03,9.03,0,0,1,3.8.684,3.006,3.006,0,0,1,2.5,1.749c.007.025.01.053.017.078l9.674,8.233c.389.637.529,1.455-.448,1.482,1.184.359,1.12,1.635.259,2.343A1.322,1.322,0,0,1,351.6,275c1.432.176,1.575,1.837.489,2.865,1.589-.552,1.505,1.429.8,2.251.931-.3,3,.329,1.825,1.653.954-.163,1.885-.463,2.457.423a1.1,1.1,0,0,1-.811,1.824c2.319.446.827,2.386-1.083,1.871.481,1.181-1.2,2.03-2.155,1.351.416,1.615-1.337,1.213-2.017,1.329-.134.023-.479-.34-.751-.293s-.452.638-.724.686c-.681.116-.907.436-1.522.118.664,1.432-1.994,1.465-2.815.763a1.358,1.358,0,0,1-2.406.692c-.816.741-1.438.619-1.916.058-.448,1-1.711,1.6-2.491.414-.314,1.037-2.265,1.932-2.657.454-.513.577-2.416,1.446-2.891.586-.005.981-1.6,1.031-2.23.22.108,1.456-2.005.976-2.093-.344-.324,1.39-1.78,1.076-1.921-.163-.234,1.094-1.962.828-2.262-.1.128.75-.915,1.21-1.507,1.03a1.745,1.745,0,0,1-.972-1.589c-.017,1.548-2.054.7-1.887-.379-.928,1.142-2.169.441-1.925-1-.394.98-1.4.8-1.817.031.324,1.489-1.5,1.874-2.145.576.116.683.244,1.433-.665,1.448-.761.061-1.333-.825-1.5-1.428-.053,1.343-1.611.837-2.1.009a1.488,1.488,0,0,1-.143-.442,2.569,2.569,0,0,1-.392.182c-.6.173-1.853-.175-1.14-.929a3.914,3.914,0,0,1-1.938.543c-.6-.093-1.23-.722-.569-1-.851.239-3.588.566-2.38-.675a2.47,2.47,0,0,1-1.93.611c-.591-.179-1.288-.974-.676-1.5-.589.241-1.168.551-1.625-.074a.7.7,0,0,1,.29-1.173c-.7-.02-1.635.28-2.284-.242-.809-.633-.4-1.124.392-1.4-1.489-.1-1.778-1.382-.258-1.923-.976.027-2.038-1.266-.791-1.76-.874.22-2.009.555-2.343-.582-.689.89-2.245,1.227-2.557-.195C290.972,280.1,289.3,281.02,289.4,279.526Z" transform="translate(-287.448 -258.84)" fill="#e2bb91"/>
              <g id="Group_18" data-name="Group 18" transform="translate(11.335 8.286)">
                <path id="Path_66" data-name="Path 66" d="M344.979,275.165c0,.647-.86,1.171-1.922,1.171s-1.921-.524-1.921-1.171.861-1.171,1.921-1.171S344.979,274.518,344.979,275.165Z" transform="translate(-316.083 -272.43)" fill="#c96"/>
                <path id="Path_67" data-name="Path 67" d="M352.317,275.609c0,.248-.5.447-1.113.447s-1.114-.2-1.114-.447.5-.447,1.114-.447S352.317,275.361,352.317,275.609Z" transform="translate(-319.077 -272.819)" fill="#c96"/>
                <path id="Path_68" data-name="Path 68" d="M354.058,280.49c0,.424-.514.768-1.148.768s-1.148-.343-1.148-.768.514-.768,1.148-.768S354.058,280.067,354.058,280.49Z" transform="translate(-319.637 -274.34)" fill="#c96"/>
                <path id="Path_69" data-name="Path 69" d="M351.193,287.428a.578.578,0,1,1-.557-.73A.661.661,0,0,1,351.193,287.428Z" transform="translate(-319.067 -276.665)" fill="#c96"/>
                <path id="Path_70" data-name="Path 70" d="M337.088,283.958c0,.143-.424.258-.946.258s-.946-.116-.946-.258.424-.258.946-.258S337.088,283.815,337.088,283.958Z" transform="translate(-314.097 -275.665)" fill="#c96"/>
                <path id="Path_71" data-name="Path 71" d="M342.747,281.678c0,.281-.567.509-1.27.509s-1.27-.228-1.27-.509.567-.509,1.27-.509S342.747,281.4,342.747,281.678Z" transform="translate(-315.773 -274.822)" fill="#c96"/>
                <path id="Path_72" data-name="Path 72" d="M369.724,279.764c0,.6-.761,1.084-1.7,1.084s-1.7-.486-1.7-1.084.762-1.084,1.7-1.084S369.724,279.165,369.724,279.764Z" transform="translate(-324.505 -273.992)" fill="#c96"/>
                <path id="Path_73" data-name="Path 73" d="M375.413,284.216c0,.072-.2.13-.446.13s-.445-.058-.445-.13.2-.129.445-.129S375.413,284.145,375.413,284.216Z" transform="translate(-327.247 -275.794)" fill="#c96"/>
                <path id="Path_74" data-name="Path 74" d="M378.088,279.221c0,.3-.5.542-1.114.542s-1.114-.243-1.114-.542.5-.542,1.114-.542S378.088,278.922,378.088,279.221Z" transform="translate(-327.694 -273.992)" fill="#c96"/>
                <path id="Path_75" data-name="Path 75" d="M366.093,273.379c0,.493-.773.892-1.726.892s-1.726-.4-1.726-.892.773-.892,1.726-.892S366.093,272.886,366.093,273.379Z" transform="translate(-323.274 -271.928)" fill="#c96"/>
                <path id="Path_76" data-name="Path 76" d="M369.219,285.216c0,.41-.5.742-1.114.742s-1.113-.335-1.113-.742.5-.741,1.113-.741S369.219,284.807,369.219,285.216Z" transform="translate(-324.729 -275.924)" fill="#c96"/>
                <path id="Path_77" data-name="Path 77" d="M372,293.238c0,.558-.7,1.011-1.563,1.011s-1.562-.453-1.562-1.011.7-1.009,1.562-1.009S372,292.68,372,293.238Z" transform="translate(-325.359 -278.508)" fill="#c96"/>
                <path id="Path_78" data-name="Path 78" d="M361.672,277.226a.981.981,0,1,1-.947-.725.858.858,0,0,1,.947.725Z" transform="translate(-322.305 -273.264)" fill="#c96"/>
                <path id="Path_79" data-name="Path 79" d="M359.621,272.374a.844.844,0,1,1-.835-.724.786.786,0,0,1,.835.724Z" transform="translate(-321.703 -271.648)" fill="#c96"/>
                <path id="Path_80" data-name="Path 80" d="M317.077,286.3c0,.4-.535.72-1.186.72s-1.186-.323-1.186-.72.535-.72,1.186-.72S317.077,285.908,317.077,286.3Z" transform="translate(-307.245 -276.293)" fill="#c96"/>
                <path id="Path_81" data-name="Path 81" d="M322.139,285.193c0,.4-.523.718-1.17.718s-1.17-.321-1.17-.718.524-.718,1.17-.718S322.139,284.8,322.139,285.193Z" transform="translate(-308.949 -275.924)" fill="#c96"/>
                <path id="Path_82" data-name="Path 82" d="M328.581,290.782c0,.4-.468.723-1.043.723s-1.044-.324-1.044-.723.468-.724,1.044-.724S328.581,290.383,328.581,290.782Z" transform="translate(-311.187 -277.785)" fill="#c96"/>
                <path id="Path_83" data-name="Path 83" d="M324.762,296.867c0,.154-.324.278-.724.278s-.724-.126-.724-.278.325-.279.724-.279S324.762,296.711,324.762,296.867Z" transform="translate(-310.124 -279.961)" fill="#c96"/>
                <path id="Path_84" data-name="Path 84" d="M313.856,292.126c0,.335-.573.608-1.279.608s-1.28-.272-1.28-.608.573-.609,1.28-.609S313.856,291.789,313.856,292.126Z" transform="translate(-306.106 -278.271)" fill="#c96"/>
                <path id="Path_85" data-name="Path 85" d="M320.457,292.738c0,.279-.49.5-1.094.5s-1.095-.226-1.095-.5.49-.5,1.095-.5S320.457,292.456,320.457,292.738Z" transform="translate(-308.437 -278.51)" fill="#c96"/>
                <path id="Path_86" data-name="Path 86" d="M317.223,297.845c0,.235-.468.424-1.041.424s-1.041-.189-1.041-.424.468-.424,1.041-.424S317.223,297.614,317.223,297.845Z" transform="translate(-307.391 -280.239)" fill="#c96"/>
                <path id="Path_87" data-name="Path 87" d="M306.73,287.675c0,.535-.723.977-1.615.977s-1.616-.438-1.616-.977.723-.976,1.616-.976S306.73,287.136,306.73,287.675Z" transform="translate(-303.498 -276.665)" fill="#c96"/>
                <path id="Path_88" data-name="Path 88" d="M344.751,303.226c0,.339-.589.613-1.315.613s-1.317-.274-1.317-.613.589-.614,1.317-.614S344.751,302.886,344.751,303.226Z" transform="translate(-316.412 -281.97)" fill="#c96"/>
                <path id="Path_89" data-name="Path 89" d="M337.312,301.567c0,.287-.324.519-.723.519s-.724-.232-.724-.519.324-.519.724-.519S337.312,301.282,337.312,301.567Z" transform="translate(-314.321 -281.448)" fill="#c96"/>
                <path id="Path_90" data-name="Path 90" d="M340.755,298.27c0,.116-.608.212-1.358.212s-1.358-.1-1.358-.212.608-.213,1.358-.213S340.755,298.153,340.755,298.27Z" transform="translate(-315.048 -280.451)" fill="#c96"/>
                <path id="Path_91" data-name="Path 91" d="M349.863,296.432c0,.273-.474.495-1.058.495s-1.059-.222-1.059-.495.474-.495,1.059-.495S349.863,296.159,349.863,296.432Z" transform="translate(-318.293 -279.744)" fill="#c96"/>
                <path id="Path_92" data-name="Path 92" d="M354.345,301.31c0,.144-.248.26-.553.26s-.553-.117-.553-.26.247-.259.553-.259S354.345,301.166,354.345,301.31Z" transform="translate(-320.13 -281.449)" fill="#c96"/>
                <ellipse id="Ellipse_3" data-name="Ellipse 3" cx="1.309" cy="0.723" rx="1.309" ry="0.723" transform="translate(25.052 12.274)" fill="#c96"/>
                <path id="Path_93" data-name="Path 93" d="M360.045,292.481c0,.139-.187.252-.418.252s-.418-.113-.418-.252.188-.252.418-.252S360.045,292.341,360.045,292.481Z" transform="translate(-322.127 -278.508)" fill="#c96"/>
                <path id="Path_94" data-name="Path 94" d="M365.594,297.845c0,.235-.324.424-.724.424s-.724-.189-.724-.424.325-.424.724-.424S365.594,297.614,365.594,297.845Z" transform="translate(-323.777 -280.239)" fill="#c96"/>
                <path id="Path_95" data-name="Path 95" d="M366.04,288.8c0,.349-.423.632-.946.632s-.947-.283-.947-.632.424-.631.947-.631S366.04,288.446,366.04,288.8Z" transform="translate(-323.777 -277.153)" fill="#c96"/>
                <path id="Path_96" data-name="Path 96" d="M361.687,286.3a.965.965,0,1,1-.932-.72A.848.848,0,0,1,361.687,286.3Z" transform="translate(-322.32 -276.291)" fill="#c96"/>
                <path id="Path_97" data-name="Path 97" d="M330.582,280.848c0,.3-.564.542-1.26.542s-1.26-.243-1.26-.542.564-.542,1.26-.542S330.582,280.549,330.582,280.848Z" transform="translate(-311.712 -274.534)" fill="#c96"/>
                <path id="Path_98" data-name="Path 98" d="M325.794,302.916c0,.169-.311.307-.7.307s-.7-.138-.7-.307.311-.307.7-.307S325.794,302.747,325.794,302.916Z" transform="translate(-310.488 -281.969)" fill="#c96"/>
                <path id="Path_99" data-name="Path 99" d="M329.078,301.181c0,.072-.391.129-.874.129s-.874-.058-.874-.129.391-.13.874-.13S329.078,301.109,329.078,301.181Z" transform="translate(-311.467 -281.449)" fill="#c96"/>
                <path id="Path_100" data-name="Path 100" d="M309.492,297.845c0,.235-.491.424-1.1.424s-1.1-.189-1.1-.424.493-.424,1.1-.424S309.492,297.614,309.492,297.845Z" transform="translate(-304.768 -280.239)" fill="#c96"/>
                <path id="Path_101" data-name="Path 101" d="M362.915,302.4c0,.317-.549.574-1.225.574s-1.226-.257-1.226-.574.549-.574,1.226-.574S362.915,302.087,362.915,302.4Z" transform="translate(-322.546 -281.709)" fill="#c96"/>
                <path id="Path_102" data-name="Path 102" d="M373.934,300.788c0,.287-.559.521-1.25.521s-1.25-.234-1.25-.521.56-.521,1.25-.521S373.934,300.5,373.934,300.788Z" transform="translate(-326.214 -281.188)" fill="#c96"/>
                <path id="Path_103" data-name="Path 103" d="M381.827,292.732c0,.28-.324.505-.724.505s-.724-.226-.724-.505.325-.5.724-.5S381.827,292.454,381.827,292.732Z" transform="translate(-329.205 -278.508)" fill="#c96"/>
                <path id="Path_104" data-name="Path 104" d="M384.337,297.739c0,.176-.4.318-.891.318s-.892-.142-.892-.318.4-.318.892-.318S384.337,297.564,384.337,297.739Z" transform="translate(-329.933 -280.239)" fill="#c96"/>
              </g>
            </g>
          </g>
        </g>
      </g>
      <g id="OBJECTS" transform="translate(0 0)">
        <g id="Group_46" data-name="Group 46" transform="translate(78.332)">
          <path id="Path_106" data-name="Path 106" d="M224.441,304.417c-5.146-1.02-49.2-7.686-44.831,3.99.645,1.722,1.72,1.722.43,3.229-1.075,1.076-3.87,1.291-5.159,1.507-3.008.43-6.663.645-8.383,3.66-7.524,13.132,22.355,23.035,30.522,25.618,12.467,3.875,24.5,7.536,37.616,8.4a36.754,36.754,0,0,0,8.383-.214c3.44-.432,5.159-1.724,7.953-3.445,4.729-3.012,11.607.646,16.981.43,4.946-.216,13.756-1.722,16.335-6.889,3.44-6.889-8.6-10.118-12.466-12.7-3.008-2.153-.645-5.167-3.655-7.32a81.365,81.365,0,0,0-22.825-10.916C238.446,307.763,231.493,305.816,224.441,304.417Z" transform="translate(-165.294 -159.929)" fill="#917f73" opacity="0.5" style="mix-blend-mode: multiply;isolation: isolate"/>
          <g id="Group_45" data-name="Group 45" transform="translate(23.249)">
            <g id="Group_27" data-name="Group 27" transform="translate(0.531 75.457)">
              <g id="Group_22" data-name="Group 22" transform="translate(35.104 61.082)">
                <path id="Path_107" data-name="Path 107" d="M255.595,340.089c-1.5.167-1.337,1.841-1.337,3.18,0,2.176-.167,3.012,1.838,3.849a8.117,8.117,0,0,0,4.845.335c.835-.335,1-1.339,1.838-1.171,1.337.167,1,1.506,1.5,2.176A7.706,7.706,0,0,0,269.3,350.3a27.883,27.883,0,0,0,10.526-.335c1.838-.5,4.678-2.678,3.175-5.188-1.17-1.841-5.18,0-7.185,0a15.136,15.136,0,0,1-7.185-1.673c-2.005-.837-4.01-2.343-6.349-2.176Z" transform="translate(-253.924 -309.297)" fill="#ccb36d"/>
                <path id="Path_108" data-name="Path 108" d="M253.759,295.742s.5,10.375.835,15.563c.167,1.841.167,3.514.167,5.355s-.668,3.18-.835,5.02c-.167,1.339-.334,3.682.5,4.518,1,1.171,3.843,1.506,5.347,1.673.668.167,2.005-.167,2.84.167,1,.335,1.837,1.506,3.008,2.008a16.315,16.315,0,0,0,6.349,1c3.342,0,10.016-.363,10.526-2.175.295-4.993-2.673-5.69-6.015-7.029-1.671-.837-3.843-1-5.013-2.678-.835-1.506-.668-3.849-.835-5.522-.5-3.682-.668-7.363-.835-11.045-.167-2.008.167-8.7.167-8.7Z" transform="translate(-253.759 -293.901)" fill="#ffe576"/>
              </g>
              <g id="Group_23" data-name="Group 23" transform="translate(0.258 61.138)">
                <path id="Path_109" data-name="Path 109" d="M201.9,340.173c0,1.785-.557,3.9-.446,5.69a2.241,2.241,0,0,0,2.339,2.119c1.782.224,1.894,0,3.119,1.562,2.005,2.678,3.787,4.127,7.24,4.351a42.724,42.724,0,0,0,7.575.223c1.671-.223,4.789-.558,5.9-1.785,1.671-1.673,1-4.686-1.559-3.793-2.451,1-5.681,2.566-7.909.335-1.225-1.228-.779-2.9-1.559-4.128-.891-1.339-2.785-1.562-4.122-2.008Z" transform="translate(-201.419 -309.381)" fill="#ccb36d"/>
                <path id="Path_110" data-name="Path 110" d="M203.339,294.208c0,5.132-.112,10.264-.334,15.284-.112,2.678-.446,5.244-.446,7.81,0,2.678-1,4.686-1,7.251,0,.558-.334,2.566,0,3.012.557.781,2.339.558,3.119.893,1.225.558,1.782,2.008,2.673,3.123a12.646,12.646,0,0,0,3.23,2.789c4.456,2.789,9.579,2.566,14.481,1a6.586,6.586,0,0,0,2.9-2.026c.582-4.556-1.893-5.449-4.456-6.788-2.45-1.227-5.569-2.678-6.126-5.69-.557-2.678,0-5.913.223-8.59.446-6.024.557-12.272,1.448-18.3Z" transform="translate(-201.408 -293.985)" fill="#ffe576"/>
              </g>
              <g id="Group_26" data-name="Group 26">
                <path id="Path_111" data-name="Path 111" d="M203.544,205.124c1.671,8.033,1,16.567,1,24.767,0,3.514-.167,6.861-.167,10.375-.167,1.673-.334,3.347-.334,5.02,0,2.845-1,2.845-2.339,5.188-2.005,3.849,2.673,5.857.835,9.371-1,2.008-2.673,3.012-.334,4.853a11.817,11.817,0,0,0,5.347,1.673,34.706,34.706,0,0,0,11.028-.5c2.005-.5,3.843-1,3.008-3.347-.167-.669-1.337-1.506-1.17-2.175.334-1.171,2.005-1.171,2.172-2.51.167-1.673-1.838-2.51-1.671-4.351.167-1.171,1.337-3.012,1.671-4.351.835-3.347,3.592-26.106,4.595-28.616,0,0,7.435,33.8,7.435,34.641-.167,1.673-.835.837-1.671,2.008-.835,1-.835,1.674,0,2.51,1,1.171,1.5-.167,1.169,1.673-.334,2.343-2.171,3.012.835,4.351,3.175,1.506,7.352,1.171,10.693.837,2.339-.167,9.189.335,10.025-2.678.5-2.008-2.172-3.012-1.838-5.02.167-1,1-1.171.668-2.51-.334-1.171-1.838-1.506-2.506-2.678-1.17-2.678-.334-7.7-.5-10.543a60.361,60.361,0,0,0-2.005-10.71c-1-3.347-.835-6.694-1.17-10.208-.668-6.694-2.339-13.388-3.676-19.914Z" transform="translate(-201.02 -202.279)" fill="#cdaa80"/>
                <g id="Group_24" data-name="Group 24" transform="translate(4.742 51.375)">
                  <path id="Path_112" data-name="Path 112" d="M219.645,279.342c-3.342,1.422-7.937.837-11.445.837" transform="translate(-208.163 -279.342)" fill="none" stroke="#967654" stroke-width="1.004"/>
                  <path id="Path_113" data-name="Path 113" d="M208.68,283.86c.835,1.339,4.762,1.506,6.1,1.673,2.172.084,4.428-.084,6.516,0,0,1.339-3.926,2.008-5.013,2.092a20.671,20.671,0,0,1-6.015-.5c-.334-.084-1.587-.5-1.921-.251-.668.5.5,1.422,1,1.673,2.757,1.841,7.018,1.757,10.109,1.339" transform="translate(-208.145 -280.848)" fill="none" stroke="#967654" stroke-width="1.004"/>
                </g>
                <g id="Group_25" data-name="Group 25" transform="translate(36.022 51.292)">
                  <path id="Path_114" data-name="Path 114" d="M267.167,279.216a30.411,30.411,0,0,1-6.766,1.422c-1.337.251-4.511-.084-5.263,1.422,2.089.753,4.929.335,7.185.586,1.838.167,4.427.084,6.1.92.835.418.835.586,0,1.088a22.928,22.928,0,0,1-3.926,1.088,16.466,16.466,0,0,1-4.929.837c-1.5-.084-2.924-.586-4.428-.669" transform="translate(-255.138 -279.216)" fill="none" stroke="#967654" stroke-width="1.004"/>
                  <path id="Path_115" data-name="Path 115" d="M255.639,291.809c1.5.753,3.676.669,5.263.753,2.924.167,6.181.335,8.855-1.171" transform="translate(-255.305 -283.275)" fill="none" stroke="#967654" stroke-width="1.004"/>
                </g>
              </g>
            </g>
            <g id="Group_38" data-name="Group 38" transform="translate(0 25.071)">
              <g id="Group_29" data-name="Group 29" transform="translate(55.172 8.071)">
                <path id="Path_116" data-name="Path 116" d="M290.256,176.408s.049,14.9.936,16.611c2.973,5.744,9.58,15.451,11.808,20.137,2.227,4.016-2.005,9.595,4.678,11.157,2.227.446,6.015-.223,6.237-2.9.223-2.455-2.45-3.793-3.564-5.8-2.228-4.016-9.3-20.612-10.188-24.851s-.952-11.519-.952-15.758Z" transform="translate(-285.499 -150.871)" fill="#f7a87f"/>
                <g id="Group_28" data-name="Group 28">
                  <path id="Path_117" data-name="Path 117" d="M289.2,138.806c4.835,6.28,7.452,9.683,8.12,16.042.167,2.175,0,3.347,1.17,5.188a15.979,15.979,0,0,1,2.005,2.678c.668,1.506,1,1-.334,2.176-2.339,2.176-8.521,2.343-11.7,2.51a39.172,39.172,0,0,1-4.511.167c-.167-1.171.334-2.008.334-3.012a9.919,9.919,0,0,0-.835-3.18,39.526,39.526,0,0,1-.334-6.192Z" transform="translate(-283.109 -138.806)" fill="#2a495e"/>
                  <path id="Path_118" data-name="Path 118" d="M296.024,169.556c-2.45.7-6.015,1.241-7.575,2.87,2.786,1.009,6.462-.155,9.357.469-.111.93-3.007,1.241-4.01,1.4-2.339.388-4.455.544-6.46-.465" transform="translate(-284.522 -149.056)" fill="none" stroke="#3c697c" stroke-width="1.004"/>
                </g>
              </g>
              <g id="Group_30" data-name="Group 30">
                <path id="Path_119" data-name="Path 119" d="M200.492,179.987a15.059,15.059,0,0,0,4.01.892,41.612,41.612,0,0,0,8.354.892c6.795.224,13.813.446,20.607.112,4.678-.223,9.023-2.008,13.589-2.789-.334-2.566-3.118-4.8-3.564-7.474-.446-1.9,1.559-1.116,2.451-2.678s-.892-3.124-1.782-4.24c-1.337-1.673.445-2.231,1.893-3.347,1.337-1,2.562-2.008,3.9-3.012,2.562-1.9,4.678-4.127,7.018-6.136,4.01-3.347,10.025-8.033,7.018-13.722-3.008-5.579-8.578-10.264-14.814-11.38-5.681-1-11.919,0-17.377,1.45a34.6,34.6,0,0,0-15.26,8.2c-4.344,4.351-8.02,8.312-10.248,14a78.243,78.243,0,0,0-3.008,8.033,20.829,20.829,0,0,0-.78,3.793c-.223,1.785-.891,2.343-1.782,3.793-1.559,2.455,1.114,3.905.78,6.359-.223,1.339-1,3.347-1.225,4.463Z" transform="translate(-200.222 -126.7)" fill="#3c697c"/>
                <path id="Path_120" data-name="Path 120" d="M272.053,146.1c-1.113.446-1.671,1.115-2.784,1.45a7.858,7.858,0,0,1-6.683-1c-5.236-3.57-3.9-12.941,2.228-14.727a8.828,8.828,0,0,1,9.357,3.012,7.635,7.635,0,0,1,1.337,4.909c-.111,1.227-.556,3.9-1.782,4.462Z" transform="translate(-219.988 -128.291)" fill="#dd7a66"/>
                <path id="Path_121" data-name="Path 121" d="M243.756,183.871c-7.352,2.343-15.817.558-23.392,1.227-1,.112-3.9-.223-3.453,1.451.446,1.562,5.013,2.008,6.238,2.12a77.515,77.515,0,0,0,15.26-.224c1.226-.223,7.018-1.562,7.018.446,0,2.566-7.686,3.347-9.244,3.57a44.6,44.6,0,0,1-10.917.781c-3.676-.112-7.018-1.451-10.582-2.343" transform="translate(-205.057 -145.757)" fill="none" stroke="#2a495e" stroke-width="1.004"/>
              </g>
              <g id="Group_37" data-name="Group 37" transform="translate(15.419 10.082)">
                <path id="Path_122" data-name="Path 122" d="M232.423,175.448a138.106,138.106,0,0,1,.445,15.172,15.714,15.714,0,0,0,0,3.236,6.705,6.705,0,0,0,2.451,3.123,36.132,36.132,0,0,0,6.349,5.244c4.344,2.789,8.688,6.247,13.367,8.478,1.782.893,5.347.558,4.01-2.231-1.226-2.455-4.567-4.463-6.46-6.247-2.451-2.232-4.456-4.686-7.018-6.806a21.366,21.366,0,0,1-3.23-3.124c-.891-1.115-.668-1.9-.557-3.347.223-4.574,0-9.037,0-13.611Z" transform="translate(-226.408 -152.995)" fill="#f7a87f"/>
                <g id="Group_34" data-name="Group 34" transform="translate(9.119 51.892)">
                  <path id="Path_123" data-name="Path 123" d="M266.561,219.85a16.448,16.448,0,0,0,3.676,1.9c1.671.558,4.678-.224,5.9,1,.892,1,.668,2.454,1.337,3.458.334.558,2.228,2.343,1.782,3.124-.556.669-6.126-1.116-7.018-1.451-1-.335-4.789-1.45-4.9-2.343Z" transform="translate(-246.942 -219.725)" fill="#f7a87f"/>
                  <g id="Group_31" data-name="Group 31">
                    <path id="Path_124" data-name="Path 124" d="M349.828,254.15s-91.78-28.336-108.271-34.139c-1.263-.444-2.913-.65-3.81.544-.965,1.288-.958,3.929.6,4.664,1.3.615,3.07.653,4.463,1.071q3.685,1.105,7.365,2.218,11.172,3.371,22.338,6.761,13.427,4.071,26.849,8.15,13.342,4.057,26.672,8.144,10,3.074,19.99,6.195c.672.21,1.345.417,2.016.63C348.046,258.389,351.386,258.836,349.828,254.15Z" transform="translate(-237.087 -219.662)" fill="#4a281e"/>
                    <path id="Path_125" data-name="Path 125" d="M422.021,301.933c-.167-2.176-1.838-16.484-2.089-20.333a28.977,28.977,0,0,0-1.086-5.355,4.938,4.938,0,0,0-.9-2.121c-1.053-1.7-3.1-2.149-4.812-2.844-1.17-.446-2.283-.893-3.453-1.4a35.876,35.876,0,0,0-3.955-1.785c-2.339-.558-4.455,3.012-4.733,4.964-.112,1.06-.112,3.4.835,4.184a6.88,6.88,0,0,0,1.615.558c.5.167,1,.446,1.56.613,1.274.464,2.976,1.117,3.826,2.293-.69,7.168-2.04,18.633-2.455,22.2-.084.837-.4,3.1.689,3.347a1.826,1.826,0,0,0,2.089-1.144c.585-1.088.418-19.5,3.425-19.329,1.215.067.418,12.635.752,17.822.076,1.172-.167,1.757,1.086,1.841s1.337-.5,1.5-1.673c.585-4.518-.489-17.681,1.754-17.99,1.6-.22,1.5,14.643,1.671,16.818.083,1.339.067,2.527,1.921,2.008C422.471,304.275,422.105,303.188,422.021,301.933Z" transform="translate(-291.877 -235.789)" fill="#728196"/>
                  </g>
                  <g id="Group_33" data-name="Group 33" transform="translate(47.455 10.724)">
                    <g id="Group_32" data-name="Group 32" transform="translate(0 5.462)">
                      <path id="Path_126" data-name="Path 126" d="M310.878,249.889a13.88,13.88,0,0,0-.3-1.841c-.21-.892-1.181-1.506-1.857-.948-.718.558-.17,2.734.38,3.291.423.447,1.732.837,2.028.056Z" transform="translate(-308.381 -244.924)" fill="#f7a87f" stroke="#c15e4d" stroke-width="1.004"/>
                      <path id="Path_127" data-name="Path 127" d="M315.077,251a1.615,1.615,0,0,1-1.436.782c-1.27.055-1.394-1.06-1.647-2.455-.127-.837-.55-2.565,0-3.18a1.4,1.4,0,0,1,2.323.447,10.277,10.277,0,0,1,.338,1.059Z" transform="translate(-309.497 -244.529)" fill="#f7a87f" stroke="#c15e4d" stroke-width="1.004"/>
                      <path id="Path_128" data-name="Path 128" d="M319.527,251.251a3.443,3.443,0,0,1-2.2.447c-1.52-.056-1.816-1.9-1.9-3.627-.085-1.283-.468-2.845.676-3.347.971-.446,1.816-.5,2.238.949a11.343,11.343,0,0,1,.17,1.171Z" transform="translate(-310.694 -244.11)" fill="#f7a87f" stroke="#c15e4d" stroke-width="1.004"/>
                      <path id="Path_129" data-name="Path 129" d="M323.716,250.693c-.126.892-1.563.837-2.027.669-1.351-.447-1.6-2.51-1.732-4.129a11.547,11.547,0,0,1-.21-2.4c.084-.726.468-.837,1.056-.893,1.136-.056,1.689,1.4,2.112,2.621a12.141,12.141,0,0,1,.253,1.339Z" transform="translate(-312.181 -243.942)" fill="#f7a87f" stroke="#c15e4d" stroke-width="1.004"/>
                    </g>
                    <path id="Path_130" data-name="Path 130" d="M318.265,238.872a4.2,4.2,0,0,0,.892,2.9c1.113,1.339,2.673,1.562,4.344,1.562a16.042,16.042,0,0,0,1.5,4.239c.278.446.946,1.171,1.615.726.446-.335.334-1.339.334-1.841a12.4,12.4,0,0,0-.668-3.18c-.278-.949-.612-2.51-1.392-3.124-.835-.725-2.061-1-2.953-1.729a13.265,13.265,0,0,1-2.283-2.678" transform="translate(-311.682 -235.749)" fill="#f7a87f" stroke="#c15e4d" stroke-width="1.004"/>
                  </g>
                  <path id="Path_131" data-name="Path 131" d="M274.223,228.329c-1.671,1.228.446,5.69,1,7.029.334,1,1,2.008,0,2.789-1,.892-2.45.223-3.118-.558-.223-.335-.557-1.339-.779-1.451-.334-.223-1.226.223-1.671.223a2.383,2.383,0,0,1-2.228-2.119c-1.448.223-2.116,1-2.673-.669a9.642,9.642,0,0,1-.223-3.124c0-1.339-.112-4.574,1.337-5.243Z" transform="translate(-246.25 -221.51)" fill="#f7a87f"/>
                </g>
                <g id="Group_36" data-name="Group 36">
                  <path id="Path_132" data-name="Path 132" d="M223.387,165.392a7.939,7.939,0,0,0,.111-1.673c0-1.785.668-2.119,1.448-3.57s.334-3.347.334-4.909a30.515,30.515,0,0,1,.334-4.575c.557-3.235,2.005-5.8,4.9-7.363,2.228-1.227,5.458-2.119,7.909-.892a8.67,8.67,0,0,1,4.455,7.14c.111,1.115.111,2.343.111,3.57-.111,1.339-.891,2.455-.891,3.682-.112,1,.446.781.78,1.673.223.669-.112,1.227-.334,1.9-.223.558-.78,1-.668,1.673s.668.893.891,1.562c1,3.123-4.01,2.343-5.792,2.566a50.9,50.9,0,0,1-5.793.558c-1.893,0-3.676-.558-5.569-.669Z" transform="translate(-223.387 -141.824)" fill="#508699"/>
                  <g id="Group_35" data-name="Group 35" transform="translate(3.008 15.983)">
                    <path id="Path_133" data-name="Path 133" d="M227.9,173.328c1.782,1.227,4.9,1.339,7.018,1.451,1.893.111,5.458.446,7.018-1.116" transform="translate(-227.905 -168.308)" fill="none" stroke="#3c697c" stroke-width="1.004"/>
                    <path id="Path_134" data-name="Path 134" d="M240.142,169.814c-2.228,0-4.344.223-6.572.112-1-.112-3.23-.224-4.01-1-1.448-1.562,1.782-1.116,2.673-1.116,1.448,0,2.9,0,4.344.112,1.114.111,3.676.892,4.567.335,1.671-1-1.893-1.673-2.673-1.785a21.506,21.506,0,0,0-4.567-.669H230.9" transform="translate(-228.335 -165.798)" fill="none" stroke="#3c697c" stroke-width="1.004"/>
                  </g>
                </g>
              </g>
            </g>
            <g id="Group_44" data-name="Group 44" transform="translate(30.18)">
              <path id="Path_135" data-name="Path 135" d="M263.074,115.538c-1,.446-1.448,2.343-1.559,3.347a6.874,6.874,0,0,0,2.451,6.136c3.676,3.347,10.247,4.24,15.038,4.686,2.784.335,5.458,1,8.354.446,3.008-.558,4.789-3.124,6.015-5.8,0,1.228-2.673,6.248-2.117,6.917,1.56,1.9,3.342-4.909,3.454-5.69a12.293,12.293,0,0,0-1.337-6.917c-.892-1.785-2.786-4.574-5.125-4.574Z" transform="translate(-250.88 -97.425)" fill="#4a281e"/>
              <path id="Path_136" data-name="Path 136" d="M266.906,123.443a10.328,10.328,0,0,0-.446,3.235c-.112,1.9-.446,4.239.112,6.136a27.414,27.414,0,0,0,4.566,6.694c1.449,1.9,2.782,3.414,5.347,2.744a14.545,14.545,0,0,0,6.8-4.305,6.944,6.944,0,0,0,1.671-3.235c.445-1.562,1.113-2.008,2.339-3.235,4.01-4.016,6.46-9.483,2.784-14.615-5.123-7.251-22.055-7.474-23.392,3.236Z" transform="translate(-252.483 -96.628)" fill="#f7a87f"/>
              <path id="Path_137" data-name="Path 137" d="M264.27,123.539a5.98,5.98,0,0,0-2.757-.335c-2.089.084-3.592,1.088-3.927,3.18-.835,4.769,2.84,6.275,6.516,6.275Z" transform="translate(-249.543 -100.462)" fill="#f7a87f"/>
              <path id="Path_138" data-name="Path 138" d="M265.174,119.568c0,2.51-.5,4.853-.5,7.363,0,.92-.167,1.59.752,1.924a1.835,1.835,0,0,0,2.256-.669c.751-1.088.584-3.1.668-4.435,1.253.586,3.676-.251,4.595-1.171,1.086-1,2.423-3.1.668-3.933a13.658,13.658,0,0,0-4.511-.586,18.538,18.538,0,0,1-3.842-.251Z" transform="translate(-251.948 -98.666)" fill="#4a281e"/>
              <g id="Group_40" data-name="Group 40">
                <g id="Group_39" data-name="Group 39" transform="translate(12.639)">
                  <path id="Path_139" data-name="Path 139" d="M278.973,102.632c4.261.167,8.772.251,12.782-1.255a5.689,5.689,0,0,0,.96-.513c-.039-.192-.079-.384-.124-.574-.5-2.343-.668-5.188-1.838-7.363-1.086-2.092-2.673-3.18-5.013-2.845-.919.084-1.838.418-2.84.418-1.17,0-2.339-.084-3.592-.084-2.84,0-5.681-1.673-8.521-1.255-2.255.335-3.174,2.259-3.592,4.435-.341,2.133-.487,4.374-.735,6.6a16.972,16.972,0,0,0,5.331,1.6A52.521,52.521,0,0,0,278.973,102.632Z" transform="translate(-265.189 -89.094)" fill="#967654"/>
                  <path id="Path_140" data-name="Path 140" d="M293.123,112.2c-.531-1.9-.652-3.871-1.045-5.785a5.685,5.685,0,0,1-.96.513c-4.01,1.506-8.521,1.422-12.782,1.255a52.519,52.519,0,0,1-7.185-.837,16.971,16.971,0,0,1-5.331-1.6,28.968,28.968,0,0,1-1.27,6.284l1.337,1.422h.084a24.7,24.7,0,0,0,6.015,1.171c2.423.251,4.929.753,7.352.837a53.933,53.933,0,0,0,7.352-.167c2.172-.251,5.013-.335,6.934-1.339Z" transform="translate(-264.551 -94.646)" fill="#774742"/>
                  <path id="Path_141" data-name="Path 141" d="M276.35,93.587c.334,1.422,2.005,2.594,3.258,3.263a9.728,9.728,0,0,0,9.774-.669" transform="translate(-268.496 -90.592)" fill="none" stroke="#6b533d" stroke-width="1.004"/>
                </g>
                <path id="Path_142" data-name="Path 142" d="M249.317,106.245a14.6,14.6,0,0,0,1.381,1.54c4.35,3.626,11.356,4.32,16.767,4.848a74.709,74.709,0,0,0,18.056-.017,46.72,46.72,0,0,0,4.929-1,20.442,20.442,0,0,1,4.845-1.171,1.92,1.92,0,0,1,2.005,1.422c.334,1.255-.41,1.769-1.42,2.176-14.119,5.69-36.348,1.564-39.746.669a17.92,17.92,0,0,1-9.624-6.274c-.585-.753-1.5-2.427-.5-3.263C247.264,104.116,248.36,105.132,249.317,106.245Z" transform="translate(-245.562 -94.305)" fill="#cdaa80"/>
              </g>
              <g id="Group_43" data-name="Group 43" transform="translate(21.243 24.082)">
                <g id="Group_41" data-name="Group 41" transform="translate(2.827)">
                  <path id="Path_143" data-name="Path 143" d="M283.392,127.442a2.094,2.094,0,0,1-1.109.649c-.741-.046-.648-1.066-.278-1.529a3.736,3.736,0,0,1,2.451-1.343c.879-.046,1.064.695.371,1.158Z" transform="translate(-281.724 -125.217)" fill="#4a281e"/>
                  <path id="Path_144" data-name="Path 144" d="M298.772,131.015a2.088,2.088,0,0,0,.6,1.138c.654.35,1.109-.566,1.039-1.155a3.745,3.745,0,0,0-1.382-2.433c-.722-.5-1.27.031-.922.791Z" transform="translate(-287.167 -126.267)" fill="#4a281e"/>
                </g>
                <path id="Path_145" data-name="Path 145" d="M289.529,135.642a6.026,6.026,0,0,0-.325,2.224,24.113,24.113,0,0,0,.185,3.66,1.731,1.731,0,0,1-1.109,2.177,4.6,4.6,0,0,1-2.728.278" transform="translate(-280.177 -128.692)" fill="none" stroke="#c15e4d" stroke-width="1.004"/>
                <path id="Path_146" data-name="Path 146" d="M277.487,147.663a4.665,4.665,0,0,0,1.479,3.706,3.415,3.415,0,0,0,4.024-.417Z" transform="translate(-277.477 -132.699)" fill="#fff"/>
                <g id="Group_42" data-name="Group 42" transform="translate(2.488 5.406)">
                  <path id="Path_147" data-name="Path 147" d="M283.007,135.187c-.462.751-1.15,1.167-1.537.929s-.327-1.042.134-1.793,1.148-1.168,1.537-.929S283.468,134.435,283.007,135.187Z" transform="translate(-281.214 -133.326)" fill="#272525"/>
                  <path id="Path_148" data-name="Path 148" d="M294.819,139.471c-.462.752-1.15,1.167-1.537.929s-.326-1.042.134-1.793,1.149-1.168,1.537-.929S295.28,138.719,294.819,139.471Z" transform="translate(-285.164 -134.754)" fill="#272525"/>
                </g>
              </g>
            </g>
          </g>
        </g>
        <g id="Group_56" data-name="Group 56" transform="translate(0 120.99)">
          <g id="Group_47" data-name="Group 47" transform="translate(0 46.396)">
            <path id="Path_149" data-name="Path 149" d="M103.443,380.465c0,.329-1.147.594-2.562.594s-2.562-.268-2.562-.594,1.148-.594,2.562-.594S103.443,380.137,103.443,380.465Z" transform="translate(-64.567 -353.406)" fill="#e2bb91"/>
            <path id="Path_150" data-name="Path 150" d="M108.165,388.9c0,.493-.929.893-2.072.893s-2.075-.4-2.075-.893.929-.892,2.075-.892S108.165,388.412,108.165,388.9Z" transform="translate(-66.473 -356.12)" fill="#e2bb91"/>
            <path id="Path_151" data-name="Path 151" d="M104.73,395.755c0,.392-.573.709-1.281.709s-1.281-.317-1.281-.709.574-.71,1.281-.71S104.73,395.36,104.73,395.755Z" transform="translate(-65.854 -358.464)" fill="#e2bb91"/>
            <path id="Path_152" data-name="Path 152" d="M98.558,386.894c0,.308-.8.558-1.793.558s-1.793-.25-1.793-.558.8-.558,1.793-.558S98.558,386.587,98.558,386.894Z" transform="translate(-63.448 -355.561)" fill="#e2bb91"/>
            <path id="Path_153" data-name="Path 153" d="M93.847,377.049c0,.779-1.246,1.412-2.784,1.412s-2.785-.633-2.785-1.412,1.247-1.41,2.785-1.41S93.847,376.269,93.847,377.049Z" transform="translate(-61.21 -351.995)" fill="#e2bb91"/>
            <path id="Path_154" data-name="Path 154" d="M83.919,384.918c0,.393-1.047.711-2.339.711s-2.339-.318-2.339-.711,1.047-.71,2.339-.71S83.919,384.526,83.919,384.918Z" transform="translate(-58.188 -354.851)" fill="#e2bb91"/>
            <path id="Path_155" data-name="Path 155" d="M59.264,358.572c0,.37-1,.669-2.228.669s-2.228-.3-2.228-.669,1-.669,2.228-.669S59.264,358.2,59.264,358.572Z" transform="translate(-50.019 -346.083)" fill="#e2bb91"/>
            <path id="Path_156" data-name="Path 156" d="M64.285,353.655c0,.272-.847.493-1.893.493s-1.894-.22-1.894-.493.848-.492,1.894-.492S64.285,353.383,64.285,353.655Z" transform="translate(-51.921 -344.503)" fill="#e2bb91"/>
            <path id="Path_157" data-name="Path 157" d="M55.25,351.52c0,.453-.623.821-1.392.821s-1.392-.368-1.392-.821.623-.821,1.392-.821S55.25,351.068,55.25,351.52Z" transform="translate(-49.235 -343.682)" fill="#e2bb91"/>
            <path id="Path_158" data-name="Path 158" d="M64.456,347.922c0,.3-.4.549-.892.549s-.891-.246-.891-.549.4-.549.891-.549S64.456,347.619,64.456,347.922Z" transform="translate(-52.649 -342.573)" fill="#e2bb91"/>
            <ellipse id="Ellipse_4" data-name="Ellipse 4" cx="1.893" cy="0.558" rx="1.893" ry="0.558" transform="translate(8.577 15.828)" fill="#e2bb91"/>
            <path id="Path_159" data-name="Path 159" d="M51.848,363.4c0,.374-.648.676-1.448.676s-1.448-.3-1.448-.676.648-.676,1.448-.676S51.848,363.025,51.848,363.4Z" transform="translate(-48.06 -347.69)" fill="#e2bb91"/>
            <ellipse id="Ellipse_5" data-name="Ellipse 5" cx="1.615" cy="0.502" rx="1.615" ry="0.502" transform="translate(0 19.175)" fill="#e2bb91"/>
            <path id="Path_160" data-name="Path 160" d="M68.034,374.627c0,.279-.6.505-1.342.505s-1.341-.226-1.341-.505.6-.505,1.341-.505S68.034,374.348,68.034,374.627Z" transform="translate(-53.544 -351.489)" fill="#e2bb91"/>
            <path id="Path_161" data-name="Path 161" d="M68.034,340.529c0,.2-.6.355-1.342.355s-1.341-.159-1.341-.355.6-.355,1.341-.355S68.034,340.332,68.034,340.529Z" transform="translate(-53.544 -340.173)" fill="#e2bb91"/>
            <path id="Path_162" data-name="Path 162" d="M114.718,386.618c0,.154-.3.279-.665.279s-.668-.125-.668-.279.3-.279.668-.279S114.718,386.464,114.718,386.618Z" transform="translate(-69.605 -355.562)" fill="#e2bb91"/>
            <path id="Path_163" data-name="Path 163" d="M104.125,409.823c0,.4-.843.725-1.883.725s-1.883-.325-1.883-.725.843-.726,1.883-.726S104.125,409.422,104.125,409.823Z" transform="translate(-65.25 -363.148)" fill="#e2bb91"/>
            <path id="Path_164" data-name="Path 164" d="M198.847,404.856c0,.432-.7.781-1.566.781s-1.567-.349-1.567-.781.7-.781,1.567-.781S198.847,404.426,198.847,404.856Z" transform="translate(-97.134 -361.474)" fill="#e2bb91"/>
            <ellipse id="Ellipse_6" data-name="Ellipse 6" cx="1.337" cy="0.669" rx="1.337" ry="0.669" transform="translate(102.813 41.264)" fill="#e2bb91"/>
            <path id="Path_165" data-name="Path 165" d="M206.978,407.368c0,.246-.648.446-1.448.446s-1.448-.2-1.448-.446.649-.446,1.448-.446S206.978,407.122,206.978,407.368Z" transform="translate(-99.932 -362.423)" fill="#e2bb91"/>
            <path id="Path_166" data-name="Path 166" d="M210.995,414.523c0,.35-.573.634-1.281.634s-1.281-.284-1.281-.634.573-.635,1.281-.635S210.995,414.172,210.995,414.523Z" transform="translate(-101.387 -364.745)" fill="#e2bb91"/>
            <path id="Path_167" data-name="Path 167" d="M216.852,413.149c0,.2-.5.37-1.114.37s-1.114-.165-1.114-.37.5-.37,1.114-.37S216.852,412.944,216.852,413.149Z" transform="translate(-103.457 -364.375)" fill="#e2bb91"/>
            <ellipse id="Ellipse_7" data-name="Ellipse 7" cx="1.893" cy="0.781" rx="1.893" ry="0.781" transform="translate(107.825 55.655)" fill="#e2bb91"/>
            <path id="Path_168" data-name="Path 168" d="M218.19,407.033c0,.339-.648.614-1.448.614s-1.448-.274-1.448-.614.648-.613,1.448-.613S218.19,406.695,218.19,407.033Z" transform="translate(-103.681 -362.255)" fill="#e2bb91"/>
            <path id="Path_169" data-name="Path 169" d="M200.506,435.789c0,.392-.7.711-1.559.711s-1.559-.319-1.559-.711.7-.712,1.559-.712S200.506,435.4,200.506,435.789Z" transform="translate(-97.694 -371.808)" fill="#e2bb91"/>
            <ellipse id="Ellipse_8" data-name="Ellipse 8" cx="1.225" cy="0.516" rx="1.225" ry="0.516" transform="translate(104.15 62.238)" fill="#e2bb91"/>
            <ellipse id="Ellipse_9" data-name="Ellipse 9" cx="0.612" cy="0.335" rx="0.612" ry="0.335" transform="translate(106.6 66.7)" fill="#e2bb91"/>
            <ellipse id="Ellipse_10" data-name="Ellipse 10" cx="1.504" cy="0.669" rx="1.504" ry="0.669" transform="translate(37.539 58.445)" fill="#e2bb91"/>
            <path id="Path_170" data-name="Path 170" d="M107.8,424.047c0,.216-.623.39-1.392.39s-1.392-.175-1.392-.39.624-.391,1.392-.391S107.8,423.834,107.8,424.047Z" transform="translate(-66.806 -368.001)" fill="#e2bb91"/>
            <ellipse id="Ellipse_11" data-name="Ellipse 11" cx="1.498" cy="0.502" rx="1.498" ry="0.502" transform="translate(33.317 53.759)" fill="#e2bb91"/>
            <path id="Path_171" data-name="Path 171" d="M105.373,417.63c0,.185-.287.335-.641.335s-.64-.15-.64-.335.287-.335.64-.335S105.373,417.447,105.373,417.63Z" transform="translate(-66.498 -365.881)" fill="#e2bb91"/>
            <path id="Path_172" data-name="Path 172" d="M88.049,413.019c0,.5-.773.911-1.726.911s-1.727-.408-1.727-.911.773-.91,1.727-.91S88.049,412.517,88.049,413.019Z" transform="translate(-59.979 -364.152)" fill="#e2bb91"/>
            <path id="Path_173" data-name="Path 173" d="M127.041,437.881c0,.37-.773.669-1.726.669s-1.726-.3-1.726-.669.773-.669,1.726-.669S127.041,437.511,127.041,437.881Z" transform="translate(-73.017 -372.519)" fill="#e2bb91"/>
            <path id="Path_174" data-name="Path 174" d="M133.233,441.842c0,.339-.7.614-1.559.614s-1.559-.274-1.559-.614.7-.614,1.559-.614S133.233,441.5,133.233,441.842Z" transform="translate(-75.199 -373.858)" fill="#e2bb91"/>
            <path id="Path_175" data-name="Path 175" d="M139.2,438.55c0,.185-.424.335-.947.335s-.947-.149-.947-.335.424-.335.947-.335S139.2,438.365,139.2,438.55Z" transform="translate(-77.605 -372.854)" fill="#e2bb91"/>
            <path id="Path_176" data-name="Path 176" d="M149.465,447.643c0,.4-.847.726-1.893.726s-1.893-.325-1.893-.726.847-.725,1.893-.725S149.465,447.242,149.465,447.643Z" transform="translate(-80.403 -375.755)" fill="#e2bb91"/>
            <path id="Path_177" data-name="Path 177" d="M160.289,440.558c0,.185-.573.335-1.281.335s-1.281-.149-1.281-.335.573-.335,1.281-.335S160.289,440.374,160.289,440.558Z" transform="translate(-84.432 -373.523)" fill="#e2bb91"/>
            <path id="Path_178" data-name="Path 178" d="M163.8,444.8c0,.308-.5.558-1.113.558s-1.114-.25-1.114-.558.5-.558,1.114-.558S163.8,444.49,163.8,444.8Z" transform="translate(-85.719 -374.862)" fill="#e2bb91"/>
            <path id="Path_179" data-name="Path 179" d="M175.517,440.866c0,.354-.573.641-1.281.641s-1.281-.287-1.281-.641.574-.642,1.281-.642S175.517,440.511,175.517,440.866Z" transform="translate(-89.524 -373.523)" fill="#e2bb91"/>
            <ellipse id="Ellipse_12" data-name="Ellipse 12" cx="1.337" cy="0.335" rx="1.337" ry="0.335" transform="translate(90.56 64.692)" fill="#e2bb91"/>
            <path id="Path_180" data-name="Path 180" d="M188.371,440.866c0,.354-.6.641-1.349.641s-1.349-.287-1.349-.641.6-.642,1.349-.642S188.371,440.511,188.371,440.866Z" transform="translate(-93.777 -373.523)" fill="#e2bb91"/>
            <path id="Path_181" data-name="Path 181" d="M194.092,441.842c0,.339-.723.614-1.615.614s-1.615-.274-1.615-.614.723-.614,1.615-.614S194.092,441.5,194.092,441.842Z" transform="translate(-95.511 -373.858)" fill="#e2bb91"/>
            <path id="Path_182" data-name="Path 182" d="M158.348,443.124c0,.54-.99.977-2.212.977s-2.213-.437-2.213-.977.99-.976,2.213-.976S158.348,442.586,158.348,443.124Z" transform="translate(-83.16 -374.165)" fill="#e2bb91"/>
          </g>
          <g id="Group_51" data-name="Group 51" transform="translate(14.491)">
            <path id="Path_183" data-name="Path 183" d="M73.032,302.929c0,9.037.5,17.906-1.671,26.775-.835,3.682-2.506,7.865,0,11.212,2.84,3.514,7.352,4.016,11.362,4.686a134.344,134.344,0,0,0,25.9,2.343c4.845,0,20.384-1.841,19.048-9.539-.668-4.351-5.681-6.527-5.514-11.212.167-2.008,1.337-3.849,1.671-5.69a15.289,15.289,0,0,0-.835-5.522c-1.17-3.849-.167-7.531-.334-11.38-.167-4.016.5-7.363-4.511-7.2-.334,0-.835.167-1.337.167Z" transform="translate(-69.602 -279.519)" fill="#917f73"/>
            <path id="Path_184" data-name="Path 184" d="M117.257,283.534c-3.676.5-4.845.167-8.02-1.673a17.14,17.14,0,0,0-13.7-1.841A56.51,56.51,0,0,1,82.5,281.358c-3.175,0-8.856.167-11.362,2.176-2.84,2.343-.668,7.363-1.17,10.71-.167,1.673-1,3.682-.334,5.355,1,2.008,3.843,3.347,5.681,4.351a31.873,31.873,0,0,0,25.9,2.343c3.843-1.339,7.686-4.184,11.863-3.682,2.84.167,7.519,2.008,9.524-.335,2.172-2.343.668-7.363.668-10.375,0-2.343.334-6.861-2.005-8.2-.45-.449-1.722-.167-2.306-.167A13.642,13.642,0,0,0,117.257,283.534Z" transform="translate(-69.383 -273.512)" fill="#af9f95"/>
            <path id="Path_185" data-name="Path 185" d="M121.546,285.689c1.685-.335,1.893,1.394,1.559,2.064-.668,1.841-3.342,1.394-4.846,1.562a56.617,56.617,0,0,0-10.192,2.51,46.062,46.062,0,0,1-6.683,1c-2.339.167-4.678,1-6.85,1.339a21.09,21.09,0,0,1-12.03-1.841c-1.838-.837-9.524-4.853-7.185-7.531,1.337-1.506,7.853-.837,10.025-.837a39.508,39.508,0,0,0,8.856-.669c3.509-.5,6.516-1.673,10.192-.837,4.344.837,7.3,3.85,11.808,3.85Z" transform="translate(-71.221 -274.439)" fill="#917f73"/>
            <g id="Group_50" data-name="Group 50" transform="translate(3.659)">
              <g id="Group_49" data-name="Group 49" clip-path="url(#clip-path-4)">
                <path id="Path_186" data-name="Path 186" d="M120.227,287.046c.585-.539.668-2.338-.334-2.068.084-.9,0-1.979-1.17-1.529.334-.989-.919-1.8-1.587-1.169-.251-.629-.919-.359-1.337,0-.167.268.084.72-.084.9s-.585-.09-.752.09c-.334.449-.334,1.169-.585,1.439-.418.359-1.086-.18-1.17.809.167-1.079-.752-1.8-1.42-.9.418-.989-.835-1.438-1.42-.809.334-.54.167-2.158-.585-1.349.752-.809.251-2.518-.919-1.53a1.061,1.061,0,0,0-2.089-.359c.251-1.438-2.172-1.888-1.921-.09-.084-.9-.919-1.708-1.5-.809.5-.81-.167-2.429-1.086-1.439.334-1.169-1.086-2.611-1.42-1.169-.251-.719-1.587-.719-2.005-.18-.5.45-.334,1.17-.334,1.8-.055-.946-1.047-.88-1.768-.442-.211-.724-.688-1.175-.988-.368-.167-1.8-2.005-2.068-2.256-.179-.334-1.709-1.921-.09-2.005.9-1.17-1.259-1.754.268-1.921,1.349-.251-.9-1.42-1.709-2.089-.72-.084-.9-1.42-1.349-1.671-.36,0-1.349-2.005-1.888-1.921-.54-1.086-1.349-2.506-.09-2.172,1.26-1.5-.54-1.838.539-1.337,1.978-.835-.45-2.506-.18-1.754,1.169-.752-.539-2.84.179-1.754,1.349-.835-.268-2.256.18-2.089,1.349l4.01,4.856a23.71,23.71,0,0,0,16.541,4.047,4.024,4.024,0,0,0,.626-.149,13.86,13.86,0,0,0,2.8,1.048,12.776,12.776,0,0,0,7.769-.54,38.046,38.046,0,0,1,7.769-1.979c1.754-.36,5.263-1.169,5.013-3.778a.862.862,0,0,0,.084.45C120.311,289.3,120.979,287.5,120.227,287.046Z" transform="translate(-74.842 -272.517)" fill="#e2bb91"/>
                <g id="Group_48" data-name="Group 48" transform="translate(2.5 7.722)">
                  <path id="Path_187" data-name="Path 187" d="M86,286.754c0,.309-.449.558-1,.558s-1-.25-1-.558.449-.558,1-.558S86,286.447,86,286.754Z" transform="translate(-80.426 -283.507)" fill="#c96"/>
                  <ellipse id="Ellipse_13" data-name="Ellipse 13" cx="1.003" cy="0.753" rx="1.003" ry="0.753" transform="translate(5.96 1.519)" fill="#c96"/>
                  <ellipse id="Ellipse_14" data-name="Ellipse 14" cx="1.17" cy="0.837" rx="1.17" ry="0.837" transform="translate(8.8 4.978)" fill="#c96"/>
                  <ellipse id="Ellipse_15" data-name="Ellipse 15" cx="0.752" cy="0.357" rx="0.752" ry="0.357" transform="translate(12.866 1.519)" fill="#c96"/>
                  <path id="Path_188" data-name="Path 188" d="M109.493,283.515c0,.552-.763,1-1.706,1s-1.706-.447-1.706-1,.763-1,1.706-1S109.493,282.963,109.493,283.515Z" transform="translate(-87.813 -282.28)" fill="#c96"/>
                  <path id="Path_189" data-name="Path 189" d="M110,290.046c0,.23-.3.418-.679.418s-.678-.188-.678-.418.3-.418.678-.418S110,289.815,110,290.046Z" transform="translate(-88.67 -284.65)" fill="#c96"/>
                  <path id="Path_190" data-name="Path 190" d="M118.793,286.921a1.422,1.422,0,1,1-1.42-1.352A1.388,1.388,0,0,1,118.793,286.921Z" transform="translate(-91.113 -283.297)" fill="#c96"/>
                  <ellipse id="Ellipse_16" data-name="Ellipse 16" cx="0.71" cy="0.461" rx="0.71" ry="0.461" transform="translate(24.84 5.396)" fill="#c96"/>
                  <path id="Path_191" data-name="Path 191" d="M122.756,285.025c0,.323-.474.586-1.058.586s-1.058-.262-1.058-.586.474-.586,1.058-.586S122.756,284.7,122.756,285.025Z" transform="translate(-92.681 -282.921)" fill="#c96"/>
                  <path id="Path_192" data-name="Path 192" d="M89.955,293.142c0,.37-.66.669-1.476.669s-1.476-.3-1.476-.669.66-.669,1.476-.669S89.955,292.772,89.955,293.142Z" transform="translate(-81.434 -285.598)" fill="#c96"/>
                  <path id="Path_193" data-name="Path 193" d="M101.962,294.453c0,.308-.642.558-1.435.558s-1.434-.25-1.434-.558.642-.558,1.434-.558S101.962,294.145,101.962,294.453Z" transform="translate(-85.476 -286.073)" fill="#c96"/>
                  <path id="Path_194" data-name="Path 194" d="M102.682,289.617c0,.177-.321.321-.717.321s-.718-.144-.718-.321.321-.321.718-.321S102.682,289.438,102.682,289.617Z" transform="translate(-86.196 -284.54)" fill="#c96"/>
                  <ellipse id="Ellipse_17" data-name="Ellipse 17" cx="0.835" cy="0.418" rx="0.835" ry="0.418" transform="translate(19.661 7.822)" fill="#c96"/>
                  <path id="Path_195" data-name="Path 195" d="M126.326,290.284c0,.281-.449.509-1,.509s-1-.228-1-.509.449-.509,1-.509S126.326,290,126.326,290.284Z" transform="translate(-93.912 -284.699)" fill="#c96"/>
                  <path id="Path_196" data-name="Path 196" d="M132.574,291.691c0,.216-.5.39-1.114.39s-1.114-.175-1.114-.39.5-.39,1.114-.39S132.574,291.476,132.574,291.691Z" transform="translate(-95.926 -285.208)" fill="#c96"/>
                  <path id="Path_197" data-name="Path 197" d="M80.418,290.607c0,.193-.4.349-.892.349s-.891-.157-.891-.349.4-.349.891-.349S80.418,290.412,80.418,290.607Z" transform="translate(-78.635 -284.86)" fill="#c96"/>
                  <path id="Path_198" data-name="Path 198" d="M81.814,289.015c0,.076-.225.139-.5.139s-.5-.063-.5-.139.225-.14.5-.14S81.814,288.937,81.814,289.015Z" transform="translate(-79.363 -284.399)" fill="#c96"/>
                  <path id="Path_199" data-name="Path 199" d="M95.507,297.1c0,.2-.424.363-.947.363s-.946-.163-.946-.363.424-.363.946-.363S95.507,296.9,95.507,297.1Z" transform="translate(-83.644 -287.021)" fill="#c96"/>
                  <path id="Path_200" data-name="Path 200" d="M87.783,291.023c0,.077-.174.14-.39.14s-.39-.063-.39-.14.174-.14.39-.14S87.783,290.945,87.783,291.023Z" transform="translate(-81.434 -285.069)" fill="#c96"/>
                  <ellipse id="Ellipse_18" data-name="Ellipse 18" cx="0.585" cy="0.139" rx="0.585" ry="0.139" transform="translate(4.79 8.381)" fill="#c96"/>
                  <path id="Path_201" data-name="Path 201" d="M92.385,282.419c0,.143-.212.258-.474.258s-.473-.116-.473-.258.212-.258.473-.258S92.385,282.276,92.385,282.419Z" transform="translate(-82.916 -282.161)" fill="#c96"/>
                  <path id="Path_202" data-name="Path 202" d="M124.4,293.616c0,.077-.374.14-.835.14s-.835-.063-.835-.14.374-.139.835-.139S124.4,293.539,124.4,293.616Z" transform="translate(-93.38 -285.933)" fill="#c96"/>
                  <path id="Path_203" data-name="Path 203" d="M139.3,287.884c0,.157-.3.286-.668.286s-.668-.129-.668-.286.3-.286.668-.286S139.3,287.726,139.3,287.884Z" transform="translate(-98.472 -283.973)" fill="#c96"/>
                  <path id="Path_204" data-name="Path 204" d="M138.1,289.175c0,.165-.386.3-.863.3s-.864-.134-.864-.3.386-.3.864-.3S138.1,289.008,138.1,289.175Z" transform="translate(-97.94 -284.399)" fill="#c96"/>
                  <path id="Path_205" data-name="Path 205" d="M140.47,290.674c0,.075-.112.134-.251.134s-.251-.061-.251-.134.112-.134.251-.134S140.47,290.6,140.47,290.674Z" transform="translate(-99.144 -284.954)" fill="#c96"/>
                </g>
              </g>
            </g>
          </g>
          <g id="Group_55" data-name="Group 55" transform="translate(43.565 41.241)">
            <path id="Path_207" data-name="Path 207" d="M116.711,364.789c0,9.037.5,17.906-1.671,26.775-.835,3.682-2.506,7.865,0,11.212,2.84,3.514,7.352,4.016,11.362,4.686a134.351,134.351,0,0,0,25.9,2.343c4.845,0,20.384-1.841,19.048-9.539-.668-4.351-5.681-6.527-5.514-11.212.167-2.008,1.337-3.849,1.671-5.69a15.289,15.289,0,0,0-.835-5.522c-1.17-3.849-.167-7.531-.334-11.38-.167-4.016.5-7.363-4.511-7.2-.334,0-.835.167-1.337.167Z" transform="translate(-113.281 -341.38)" fill="#917f73"/>
            <path id="Path_208" data-name="Path 208" d="M160.937,345.394c-3.676.5-4.845.167-8.02-1.673a17.14,17.14,0,0,0-13.7-1.841,56.512,56.512,0,0,1-13.033,1.339c-3.175,0-8.856.167-11.362,2.176-2.84,2.343-.668,7.363-1.17,10.71-.167,1.673-1,3.682-.334,5.355,1,2.008,3.843,3.347,5.681,4.351a31.872,31.872,0,0,0,25.9,2.343c3.843-1.339,7.686-4.184,11.863-3.682,2.84.167,7.519,2.008,9.524-.335,2.172-2.343.668-7.363.668-10.375,0-2.343.334-6.861-2.005-8.2-.45-.449-1.722-.167-2.306-.167A13.748,13.748,0,0,0,160.937,345.394Z" transform="translate(-113.062 -335.373)" fill="#af9f95"/>
            <path id="Path_209" data-name="Path 209" d="M165.224,347.549c1.685-.335,1.893,1.394,1.559,2.064-.668,1.841-3.342,1.394-4.846,1.562a56.619,56.619,0,0,0-10.192,2.51,46.062,46.062,0,0,1-6.683,1c-2.339.167-4.678,1-6.85,1.339a21.09,21.09,0,0,1-12.03-1.841c-1.838-.837-9.524-4.853-7.185-7.531,1.337-1.506,7.853-.837,10.025-.837a39.512,39.512,0,0,0,8.856-.669c3.509-.5,6.516-1.673,10.192-.837,4.344.837,7.3,3.85,11.808,3.85Z" transform="translate(-114.9 -336.3)" fill="#917f73"/>
            <g id="Group_54" data-name="Group 54" transform="translate(3.657)">
              <g id="Group_53" data-name="Group 53" clip-path="url(#clip-path-5)">
                <path id="Path_210" data-name="Path 210" d="M163.907,348.907c.585-.539.668-2.339-.334-2.068.084-.9,0-1.979-1.17-1.53.334-.989-.919-1.8-1.587-1.169-.251-.629-.919-.359-1.337,0-.167.268.084.72-.084.9s-.585-.09-.752.09c-.334.45-.334,1.169-.585,1.439-.418.359-1.086-.179-1.17.809.167-1.079-.752-1.8-1.42-.9.418-.989-.835-1.439-1.42-.809.334-.54.167-2.159-.585-1.349.752-.809.251-2.518-.919-1.529a1.061,1.061,0,0,0-2.089-.359c.251-1.439-2.172-1.889-1.921-.09-.084-.9-.919-1.709-1.5-.809.5-.809-.167-2.429-1.086-1.439.334-1.169-1.086-2.611-1.42-1.169-.251-.719-1.587-.719-2.005-.179-.5.45-.334,1.169-.334,1.8-.055-.946-1.047-.879-1.768-.442-.211-.724-.688-1.175-.988-.368-.167-1.8-2.005-2.068-2.256-.179-.334-1.709-1.921-.09-2.005.9-1.17-1.259-1.754.268-1.921,1.349-.251-.9-1.42-1.709-2.089-.72-.084-.9-1.42-1.349-1.671-.359,0-1.349-2.005-1.888-1.921-.54-1.086-1.348-2.506-.09-2.172,1.26-1.5-.54-1.838.54-1.337,1.978-.835-.45-2.506-.179-1.754,1.169-.752-.535-2.84.18-1.754,1.349-.835-.268-2.256.179-2.089,1.349l4.01,4.856a23.71,23.71,0,0,0,16.541,4.047,4.046,4.046,0,0,0,.626-.148,13.894,13.894,0,0,0,2.8,1.048,12.775,12.775,0,0,0,7.769-.54,38.092,38.092,0,0,1,7.769-1.979c1.754-.36,5.263-1.169,5.013-3.777a.864.864,0,0,0,.084.45C163.99,351.156,164.659,349.357,163.907,348.907Z" transform="translate(-118.52 -334.379)" fill="#e2bb91"/>
                <g id="Group_52" data-name="Group 52" transform="translate(2.501 7.72)">
                  <path id="Path_211" data-name="Path 211" d="M129.676,348.615c0,.309-.449.558-1,.558s-1-.25-1-.558.449-.558,1-.558S129.676,348.307,129.676,348.615Z" transform="translate(-124.106 -345.366)" fill="#c96"/>
                  <ellipse id="Ellipse_19" data-name="Ellipse 19" cx="1.003" cy="0.753" rx="1.003" ry="0.753" transform="translate(5.96 1.52)" fill="#c96"/>
                  <ellipse id="Ellipse_20" data-name="Ellipse 20" cx="1.17" cy="0.837" rx="1.17" ry="0.837" transform="translate(8.8 4.978)" fill="#c96"/>
                  <ellipse id="Ellipse_21" data-name="Ellipse 21" cx="0.752" cy="0.357" rx="0.752" ry="0.357" transform="translate(12.866 1.52)" fill="#c96"/>
                  <path id="Path_212" data-name="Path 212" d="M153.172,345.375c0,.552-.763,1-1.706,1s-1.706-.447-1.706-1,.763-1,1.706-1S153.172,344.823,153.172,345.375Z" transform="translate(-131.492 -344.139)" fill="#c96"/>
                  <path id="Path_213" data-name="Path 213" d="M153.681,351.906c0,.231-.3.418-.679.418s-.678-.187-.678-.418.3-.418.678-.418S153.681,351.676,153.681,351.906Z" transform="translate(-132.349 -346.51)" fill="#c96"/>
                  <path id="Path_214" data-name="Path 214" d="M162.473,348.782a1.422,1.422,0,1,1-1.42-1.353,1.388,1.388,0,0,1,1.42,1.353Z" transform="translate(-134.792 -345.157)" fill="#c96"/>
                  <ellipse id="Ellipse_22" data-name="Ellipse 22" cx="0.71" cy="0.461" rx="0.71" ry="0.461" transform="translate(24.84 5.397)" fill="#c96"/>
                  <ellipse id="Ellipse_23" data-name="Ellipse 23" cx="1.058" cy="0.586" rx="1.058" ry="0.586" transform="translate(27.959 1.52)" fill="#c96"/>
                  <ellipse id="Ellipse_24" data-name="Ellipse 24" cx="1.476" cy="0.669" rx="1.476" ry="0.669" transform="translate(5.57 6.875)" fill="#c96"/>
                  <path id="Path_215" data-name="Path 215" d="M145.642,356.314c0,.308-.642.558-1.435.558s-1.434-.25-1.434-.558.642-.558,1.434-.558S145.642,356.005,145.642,356.314Z" transform="translate(-129.156 -347.932)" fill="#c96"/>
                  <path id="Path_216" data-name="Path 216" d="M146.362,351.475c0,.176-.321.32-.717.32s-.718-.144-.718-.32.321-.321.718-.321S146.362,351.3,146.362,351.475Z" transform="translate(-129.876 -346.398)" fill="#c96"/>
                  <ellipse id="Ellipse_25" data-name="Ellipse 25" cx="0.835" cy="0.418" rx="0.835" ry="0.418" transform="translate(19.661 7.823)" fill="#c96"/>
                  <path id="Path_217" data-name="Path 217" d="M170.006,352.144c0,.281-.449.509-1,.509s-1-.228-1-.509.449-.509,1-.509S170.006,351.863,170.006,352.144Z" transform="translate(-137.591 -346.559)" fill="#c96"/>
                  <path id="Path_218" data-name="Path 218" d="M176.253,353.552c0,.216-.5.39-1.114.39s-1.114-.175-1.114-.39.5-.39,1.114-.39S176.253,353.338,176.253,353.552Z" transform="translate(-139.606 -347.068)" fill="#c96"/>
                  <path id="Path_219" data-name="Path 219" d="M124.1,352.465c0,.193-.4.349-.892.349s-.891-.156-.891-.349.4-.349.891-.349S124.1,352.272,124.1,352.465Z" transform="translate(-122.315 -346.719)" fill="#c96"/>
                  <path id="Path_220" data-name="Path 220" d="M125.493,350.875c0,.076-.225.139-.5.139s-.5-.063-.5-.139.225-.14.5-.14S125.493,350.8,125.493,350.875Z" transform="translate(-123.043 -346.259)" fill="#c96"/>
                  <path id="Path_221" data-name="Path 221" d="M139.186,358.963c0,.2-.424.363-.947.363s-.946-.163-.946-.363.424-.363.946-.363S139.186,358.763,139.186,358.963Z" transform="translate(-127.323 -348.88)" fill="#c96"/>
                  <ellipse id="Ellipse_26" data-name="Ellipse 26" cx="0.39" cy="0.14" rx="0.39" ry="0.14" transform="translate(5.57 5.815)" fill="#c96"/>
                  <ellipse id="Ellipse_27" data-name="Ellipse 27" cx="0.585" cy="0.139" rx="0.585" ry="0.139" transform="translate(4.79 8.381)" fill="#c96"/>
                  <path id="Path_222" data-name="Path 222" d="M136.064,344.278c0,.143-.213.258-.474.258s-.473-.116-.473-.258.212-.257.473-.257S136.064,344.139,136.064,344.278Z" transform="translate(-126.596 -344.021)" fill="#c96"/>
                  <path id="Path_223" data-name="Path 223" d="M168.082,355.475c0,.077-.374.14-.835.14s-.835-.063-.835-.14.374-.139.835-.139S168.082,355.4,168.082,355.475Z" transform="translate(-137.06 -347.792)" fill="#c96"/>
                  <path id="Path_224" data-name="Path 224" d="M182.975,349.745c0,.158-.3.286-.668.286s-.668-.128-.668-.286.3-.286.668-.286S182.975,349.587,182.975,349.745Z" transform="translate(-142.151 -345.833)" fill="#c96"/>
                  <path id="Path_225" data-name="Path 225" d="M181.775,351.035c0,.165-.386.3-.863.3s-.864-.134-.864-.3.386-.3.864-.3S181.775,350.87,181.775,351.035Z" transform="translate(-141.619 -346.259)" fill="#c96"/>
                  <path id="Path_226" data-name="Path 226" d="M184.149,352.535c0,.076-.112.134-.251.134s-.251-.061-.251-.134.112-.134.251-.134S184.149,352.46,184.149,352.535Z" transform="translate(-142.823 -346.814)" fill="#c96"/>
                </g>
              </g>
            </g>
          </g>
        </g>
      </g>
    </g>
  </g>
</svg>
