<svg xmlns="http://www.w3.org/2000/svg" xmlns:xlink="http://www.w3.org/1999/xlink" width="48" height="48" viewBox="0 0 48 48">
  <defs>
    <clipPath id="clip-path">
      <rect id="Rectangle_4" data-name="Rectangle 4" width="48" height="48" transform="translate(24 30)" fill="#fff" stroke="#707070" stroke-width="1"/>
    </clipPath>
  </defs>
  <g id="Mask_Group_1" data-name="Mask Group 1" transform="translate(-24 -30)" clip-path="url(#clip-path)">
    <g id="asset-10" transform="translate(24.873 30)">
      <path id="Path_1" data-name="Path 1" d="M46.255,29.278A23.646,23.646,0,0,1,0,29.278H11.578a12.644,12.644,0,0,0,23.1,0H46.255Zm0-10.554H34.679a12.644,12.644,0,0,0-23.1,0H0a23.645,23.645,0,0,1,46.255,0Z" fill="#fff"/>
      <path id="Path_2" data-name="Path 2" d="M4.453,31.447H6.287l.4-1.6.683,1.6H8.806l-1.213.971.4,1.6-1.367-1-1.152,1,.373-1.66Zm31.889,0h1.834l.4-1.6.684,1.6h1.43l-1.213.971.4,1.6-1.368-1-1.15,1,.373-1.66ZM3.872,13.541H5.706l.4-1.6.684,1.6h1.43l-1.212.971.4,1.6-1.368-1-1.15,1,.373-1.66Zm33.239,0h1.834l.4-1.6.683,1.6h1.43l-1.213.971.4,1.6-1.368-1-1.149,1,.373-1.66Z" transform="translate(0.352 1.086)" fill="#023a43"/>
      <path id="Path_3" data-name="Path 3" d="M33.637,21.252h3.179l.7-2.769L38.7,21.252h2.479l-2.1,1.683.7,2.769-2.371-1.737L35.415,25.7l.646-2.877Z" transform="translate(3.058 1.68)" fill="none" fill-rule="evenodd"/>
      <path id="Path_4" data-name="Path 4" d="M12.192,4.78l.366.709Q11.568,6,10.6,6.558q.353.514.73,1.171.746-.436,1.476-.9l.375.654q-.859.462-1.51.839.511.893.993,1.662l-.942.547q-.571-1.1-1.191-2.176Q9.976,7.372,9.366,6.42l2.826-1.641Zm8.157.03a2.533,2.533,0,0,1-1.992,3.066,2.39,2.39,0,0,1-1.841-.3,2.28,2.28,0,0,1-1.034-1.537,2.531,2.531,0,0,1,1.991-3.067,2.394,2.394,0,0,1,1.841.3A2.286,2.286,0,0,1,20.349,4.81Zm-1.043.327a1.783,1.783,0,0,0-.662-1.122,1.335,1.335,0,0,0-1.114-.25,1.234,1.234,0,0,0-.86.669A1.812,1.812,0,0,0,16.522,5.7a1.783,1.783,0,0,0,.665,1.121,1.335,1.335,0,0,0,1.113.251,1.234,1.234,0,0,0,.859-.669,1.8,1.8,0,0,0,.147-1.262Zm8.608.312a2.518,2.518,0,0,1-.995,1.731A2.486,2.486,0,0,1,25,7.646a2.415,2.415,0,0,1-1.627-.92,2.282,2.282,0,0,1-.45-1.8,2.515,2.515,0,0,1,2.911-2.2,2.413,2.413,0,0,1,1.627.92,2.286,2.286,0,0,1,.451,1.8ZM26.823,5.4a1.789,1.789,0,0,0-.243-1.283,1.342,1.342,0,0,0-.962-.618,1.23,1.23,0,0,0-1.034.332,1.812,1.812,0,0,0-.57,1.14,1.785,1.785,0,0,0,.245,1.281,1.337,1.337,0,0,0,.96.62,1.236,1.236,0,0,0,1.035-.334A1.775,1.775,0,0,0,26.822,5.4v0Zm7.568,2.978a2.55,2.55,0,0,1-1.477,1.256,2.6,2.6,0,0,1-2.133-.271q-.514-.276-1.4-.8.559-.948,1.2-2.166.619-1.172,1.011-2.022l.608.325c.1.054.25.131.449.229s.332.162.391.2a2.812,2.812,0,0,1,1.513,1.556A2.181,2.181,0,0,1,34.391,8.373ZM33.371,8a1.678,1.678,0,0,0,.161-1.249,1.759,1.759,0,0,0-.967-1.06,4.446,4.446,0,0,0-.426-.192q-.319.691-.676,1.364-.4.762-.771,1.543a2.882,2.882,0,0,0,.429.285,1.536,1.536,0,0,0,1.334.162A1.782,1.782,0,0,0,33.369,8ZM13.6,37.092l-.468.627q-.614-.5-1.186-.9-.4.559-.879,1.253-.706,1.017-1.375,2.06L8.79,39.5q.747-.987,1.45-2.006.473-.681.86-1.267-.629-.434-1.283-.831l.473-.628L13.6,37.092Zm4.069,6.448-1.114-.345a6.962,6.962,0,0,0-.205-1.731.957.957,0,0,0-.665-.522c-.146-.045-.285-.087-.419-.126q-.276.9-.518,1.819L13.7,42.31q.369-1.037.772-2.358.387-1.267.611-2.178l.651.2c.076.024.235.068.476.135s.464.133.668.2q1.728.534,1.4,1.629a1.3,1.3,0,0,1-1.355.9l-.016.054a1.223,1.223,0,0,1,.5.758,12.27,12.27,0,0,1,.265,1.889ZM17.237,39.9q.212-.694-.751-.991a3.78,3.78,0,0,0-.641-.145q-.167.717-.387,1.42.206.072.348.115Q17,40.668,17.237,39.9Zm7.992,3.941-1.26.021a7.18,7.18,0,0,0-.381-1.356l-1.819.031a6.523,6.523,0,0,0-.347,1.369l-1.185.02a24.971,24.971,0,0,1,.881-2.348A17.807,17.807,0,0,0,22,39.147l1.488-.025a19.419,19.419,0,0,0,.873,2.363,19.883,19.883,0,0,1,.873,2.353ZM23.375,41.81a19.91,19.91,0,0,1-.707-2.021h-.063q0,.141-.663,2.045Zm7.656-.423.229.792-3.343,1.1-.175-.729q.246-.632.67-2.055a7.364,7.364,0,0,0,.41-1.695l-.018-.054q-.894.295-2.041.762l-.225-.766,3.2-1.056.181.733q-.241.664-.623,2.008a7.157,7.157,0,0,0-.38,1.686l.017.054q.785-.262,2.095-.782ZM36.5,38.07l.429.674-2.743,1.939q-.663-1.046-1.374-2.061-.64-.929-1.328-1.824L34.1,34.949l.42.678q-1,.636-1.787,1.19.323.393.714.956.721-.51,1.419-1.051l.43.626q-.775.5-1.461.988c.282.4.554.777.817,1.117q.94-.669,1.847-1.382Z" transform="translate(0.799 0.245)" fill="#023a43"/>
      <path id="Path_5" data-name="Path 5" d="M26.55,12.314,16.209,13.329a.641.641,0,0,0-.655-.56.688.688,0,0,0-.675.681.665.665,0,0,0,.31.555L10.86,23.458l-.045.042c-.057.058-.057.058-.057.115a.055.055,0,0,0,.057.054l6.032,8.6a.672.672,0,0,0-.1.723.663.663,0,0,0,.614.387.642.642,0,0,0,.465-.173.651.651,0,0,0,.206-.454v-.011l10.146-1,.125.046a.217.217,0,0,0,.05-.063c.035,0,.065-.013.065-.054l4.33-9.465a.65.65,0,0,0,.182.038.729.729,0,0,0,.676-.681.689.689,0,0,0-.676-.683.655.655,0,0,0-.25.054L26.661,12.37c-.057-.058-.057-.058-.112-.058Zm-.5.271-4.713,2.6-5.172-1.532a1,1,0,0,0,.043-.143Zm.385.015,1.294,5.661L24.767,16.4a.907.907,0,0,0,.147-.346.689.689,0,0,0-.675-.681.675.675,0,0,0-.634.47l-1.971-.58Zm.259.234,5.769,8.247a.639.639,0,0,0-.072.089l-4.451-2.78L26.7,12.833Zm-10.559.9,5.082,1.512-3.469,1.913-1.785-3.2a.771.771,0,0,0,.171-.223h0Zm-.362.347,1.757,3.149.011.054-1.992,1.839V14.133a.581.581,0,0,0,.224-.047Zm-.409.01a.592.592,0,0,0,.129.026v5.06l-4.2,3.88,4.076-8.966Zm6.145,1.245,2.072.616a.576.576,0,0,0-.024.108.647.647,0,0,0,.15.4l-2.408,2.1-3.392-1.225,3.6-2Zm2.226,1.169a.682.682,0,0,0,.5.239.48.48,0,0,0,.061-.008l.6,3.122L21.35,18.582Zm.951.017,3.088,1.932.609,2.664-3.422-1.239-.591-3.158a.678.678,0,0,0,.317-.2v0Zm-6.881.957,3.357,1.2L18.5,21.006Zm-.209.085.712,3.6-2.266,1.971a.668.668,0,0,0-.493-.2v-3.48Zm10.39,1.021,4.325,2.708a.691.691,0,0,0-.031.1l-3.727-.273Zm-6.775.112,3.713,1.329.673,3.536-2.928,2.531-3.411-1.19L18.5,21.05Zm-5.716.8V22.94A.68.68,0,0,0,15.55,24.3a.6.6,0,0,0,.081-.016l.387,2.058-4.924-2.78L15.5,19.5Zm9.5.545,3.3,1.182-2.656,2.294Zm-6.676,1.163.716,3.615-2.87-1a.9.9,0,0,0,.065-.216.681.681,0,0,0-.161-.446l2.252-1.955Zm10.259.134,3.672.271a.648.648,0,0,0,.112.308l-3.872,3.492Zm-.173.133-.09,4.1-1.489,1.344a.685.685,0,0,0-.445-.178.715.715,0,0,0-.134.024L25.7,23.823Zm4.067.593a.916.916,0,0,0,.084.054L28.363,31.3l.124-5.693,3.985-3.539ZM25.657,23.86l.553,2.911a.624.624,0,0,0-.46.394l-2.79-.971,2.7-2.335Zm-9.526.053,2.925,1.016.7,3.512L16.1,26.381l-.407-2.113a.679.679,0,0,0,.442-.357Zm-4.876.011,4.826,2.732L17.1,32.072a.658.658,0,0,0-.077.048l-5.772-8.195Zm8.024,1.085,3.314,1.152-2.641,2.283-.673-3.435Zm9.033.758-.126,5.744-5.4-1.937L25.835,27.8A.665.665,0,1,0,26.9,27.01Zm-5.428.5,2.851.991a.75.75,0,0,0-.031.168.683.683,0,0,0,.065.285l-3.116,1.817-2.5-.9,2.734-2.364Zm-6.729.433,3.6,2.042-2.107,3.35a.65.65,0,0,0-.469-.042L16.155,26.7Zm3.792,2.125,2.43.866L17.9,32.3a.554.554,0,0,0-.077-.1Zm2.568.915,5.263,1.874L18,32.53a.665.665,0,0,0-.04-.131l4.555-2.662Z" transform="translate(0.978 1.119)" fill="#fff" stroke="#fff" stroke-width="0.3"/>
      <path id="Path_6" data-name="Path 6" d="M15.119,13.651a.063.063,0,0,1-.045-.023l-.271-.271a.067.067,0,0,1-.006-.041.065.065,0,0,1,.019-.037.069.069,0,0,1,.077-.013l.223.224.771-.771a.065.065,0,0,1,.04-.005.067.067,0,0,1,.049.094l-.813.819A.065.065,0,0,1,15.119,13.651Z" transform="translate(1.345 1.156)" fill="#023a43"/>
      <path id="Path_8" data-name="Path 8" d="M23.752,16.022A.065.065,0,0,1,23.707,16l-.269-.271a.068.068,0,0,1,.09-.091l.223.225.771-.771a.066.066,0,0,1,.041-.006.068.068,0,0,1,.037.019.071.071,0,0,1,.018.037.066.066,0,0,1-.006.041L23.8,16A.063.063,0,0,1,23.752,16.022Zm8.75,5.559a.07.07,0,0,1-.045-.022l-.269-.273a.067.067,0,0,1,.013-.079.072.072,0,0,1,.037-.018.071.071,0,0,1,.041.006l.223.224.771-.771a.066.066,0,0,1,.041-.005.065.065,0,0,1,.053.054.068.068,0,0,1-.005.041l-.813.821a.07.07,0,0,1-.045.022ZM25.84,27.359a.065.065,0,0,1-.031-.04l-.125-.365a.069.069,0,0,1,.046-.064.065.065,0,0,1,.04,0,.063.063,0,0,1,.035.023l.1.3,1.028-.351a.064.064,0,0,1,.039.012.079.079,0,0,1,.025.033.067.067,0,0,1,0,.041.071.071,0,0,1-.023.035l-1.088.379a.068.068,0,0,1-.05,0ZM15.058,23.571a.067.067,0,0,1-.031-.04l-.125-.365a.07.07,0,0,1,.013-.039.066.066,0,0,1,.032-.024.068.068,0,0,1,.042,0,.066.066,0,0,1,.034.024l.1.3,1.029-.351a.062.062,0,0,1,.038.013.07.07,0,0,1,.024.033.072.072,0,0,1-.023.076l-1.087.379a.068.068,0,0,1-.05,0Z" transform="translate(1.355 1.371)" fill="#023a43"/>
    </g>
  </g>
</svg>
