<svg xmlns="http://www.w3.org/2000/svg" xmlns:xlink="http://www.w3.org/1999/xlink" width="56" height="56" viewBox="0 0 56 56">
  <defs>
    <clipPath id="clip-path">
      <rect id="Rectangle_4" data-name="Rectangle 4" width="56" height="56" transform="translate(24 30)" fill="#fff" stroke="#707070" stroke-width="1"/>
    </clipPath>
  </defs>
  <g id="Mask_Group_1" data-name="Mask Group 1" transform="translate(-24 -30)" clip-path="url(#clip-path)">
    <g id="asset-10" transform="translate(25.018 30)">
      <path id="Path_1" data-name="Path 1" d="M53.964,34.158A27.587,27.587,0,0,1,0,34.158H13.508a14.751,14.751,0,0,0,26.95,0H53.964Zm0-12.313H40.458a14.751,14.751,0,0,0-26.949,0H0a27.586,27.586,0,0,1,53.964,0Z" fill="#023a43"/>
      <path id="Path_2" data-name="Path 2" d="M4.55,34.7H6.689l.471-1.863.8,1.863h1.67L8.213,35.831l.471,1.863L7.089,36.523,5.745,37.694l.435-1.937Zm37.2,0h2.14l.471-1.863.8,1.863h1.668l-1.415,1.133.472,1.863-1.6-1.17-1.342,1.17.435-1.937ZM3.872,13.807h2.14l.471-1.863.8,1.863H8.95L7.535,14.941,8.007,16.8l-1.6-1.169L5.069,16.8,5.5,14.867Zm38.778,0h2.14l.471-1.863.8,1.863h1.669l-1.415,1.133.472,1.863-1.6-1.169L43.848,16.8l.435-1.937Z" transform="translate(1.056 3.257)" fill="#fff"/>
      <path id="Path_3" data-name="Path 3" d="M33.637,21.714h3.709l.817-3.231,1.384,3.231h2.892l-2.452,1.963.818,3.231-2.766-2.026-2.326,2.026.753-3.357Z" transform="translate(9.174 5.041)" fill="none" fill-rule="evenodd"/>
      <path id="Path_4" data-name="Path 4" d="M12.759,5.127l.427.827q-1.155.6-2.282,1.247.412.6.851,1.366.871-.509,1.722-1.05l.438.763q-1,.539-1.761.978.6,1.042,1.159,1.939l-1.1.638q-.666-1.285-1.39-2.538-.65-1.147-1.361-2.257l3.3-1.914Zm9.516.035a2.956,2.956,0,0,1-2.323,3.577A2.789,2.789,0,0,1,17.8,8.384,2.66,2.66,0,0,1,16.6,6.591a2.953,2.953,0,0,1,2.322-3.578,2.793,2.793,0,0,1,2.147.352,2.667,2.667,0,0,1,1.209,1.8Zm-1.217.382a2.08,2.08,0,0,0-.773-1.309,1.558,1.558,0,0,0-1.3-.291,1.44,1.44,0,0,0-1,.78A2.114,2.114,0,0,0,17.81,6.2,2.08,2.08,0,0,0,18.586,7.5a1.558,1.558,0,0,0,1.3.293,1.44,1.44,0,0,0,1-.781,2.1,2.1,0,0,0,.172-1.472ZM31.1,5.908A2.938,2.938,0,0,1,29.94,7.927a2.9,2.9,0,0,1-2.237.544,2.818,2.818,0,0,1-1.9-1.073,2.663,2.663,0,0,1-.525-2.1,2.934,2.934,0,0,1,3.4-2.563,2.815,2.815,0,0,1,1.9,1.073,2.667,2.667,0,0,1,.526,2.1Zm-1.273-.063a2.088,2.088,0,0,0-.283-1.5,1.566,1.566,0,0,0-1.122-.721,1.435,1.435,0,0,0-1.207.387,2.114,2.114,0,0,0-.665,1.33,2.083,2.083,0,0,0,.286,1.495,1.56,1.56,0,0,0,1.12.723,1.442,1.442,0,0,0,1.208-.39,2.071,2.071,0,0,0,.662-1.324v0Zm8.83,3.474a2.975,2.975,0,0,1-1.723,1.465,3.029,3.029,0,0,1-2.488-.316q-.6-.322-1.629-.933.652-1.106,1.405-2.527.722-1.367,1.18-2.359l.71.379c.116.063.291.153.524.267s.387.189.456.23a3.281,3.281,0,0,1,1.766,1.815,2.545,2.545,0,0,1-.2,1.978Zm-1.19-.434a1.957,1.957,0,0,0,.188-1.457,2.052,2.052,0,0,0-1.128-1.237,5.188,5.188,0,0,0-.5-.224q-.372.807-.789,1.591-.471.889-.9,1.8a3.363,3.363,0,0,0,.5.332A1.792,1.792,0,0,0,36.4,9.88a2.079,2.079,0,0,0,1.066-.995ZM14.4,42.824l-.546.732q-.716-.583-1.384-1.051-.464.652-1.025,1.462-.824,1.187-1.6,2.4L8.79,45.629q.872-1.151,1.692-2.34.551-.794,1-1.478-.734-.506-1.5-.969l.552-.732L14.4,42.824Zm4.747,7.522-1.3-.4a8.122,8.122,0,0,0-.239-2.02,1.117,1.117,0,0,0-.776-.609c-.17-.052-.333-.1-.489-.147q-.322,1.055-.6,2.122l-1.22-.379q.431-1.21.9-2.751.452-1.478.713-2.541l.76.235c.089.027.274.079.555.158s.542.155.779.228q2.016.623,1.629,1.9a1.513,1.513,0,0,1-1.581,1.054l-.018.063a1.427,1.427,0,0,1,.582.884,14.314,14.314,0,0,1,.31,2.2Zm-.507-4.25q.247-.809-.877-1.156a4.408,4.408,0,0,0-.747-.169q-.2.836-.452,1.657.24.084.406.134Q18.37,47,18.644,46.1Zm9.325,4.6-1.47.024a8.376,8.376,0,0,0-.445-1.582l-2.122.036a7.609,7.609,0,0,0-.405,1.6l-1.383.023a29.136,29.136,0,0,1,1.028-2.739A20.775,20.775,0,0,0,24.2,45.222l1.736-.03a22.656,22.656,0,0,0,1.018,2.757,23.2,23.2,0,0,1,1.018,2.745Zm-2.163-2.366a23.228,23.228,0,0,1-.825-2.358h-.073q0,.165-.774,2.386Zm8.933-.494.267.923-3.9,1.286-.2-.85q.287-.738.782-2.4a8.591,8.591,0,0,0,.479-1.977l-.021-.063q-1.043.344-2.382.889l-.263-.894,3.737-1.232.211.855q-.281.774-.727,2.343a8.35,8.35,0,0,0-.443,1.967l.02.063q.916-.305,2.444-.912Zm6.375-3.869.5.786-3.2,2.262q-.774-1.221-1.6-2.4-.747-1.084-1.55-2.128l3.054-2.157.49.791q-1.167.742-2.085,1.388.377.458.833,1.115.841-.6,1.656-1.226l.5.73q-.9.586-1.7,1.153c.329.47.647.906.953,1.3q1.1-.78,2.154-1.613Z" transform="translate(2.397 0.736)" fill="#fff"/>
      <path id="Path_5" data-name="Path 5" d="M29.182,12.314,17.117,13.5a.747.747,0,0,0-.764-.654.8.8,0,0,0-.788.794.776.776,0,0,0,.361.648l-5.049,11.03-.052.049c-.066.067-.066.067-.066.134a.064.064,0,0,0,.066.063l7.038,10.032a.784.784,0,0,0-.122.843.774.774,0,0,0,.716.452.749.749,0,0,0,.543-.2.76.76,0,0,0,.24-.529v-.013l11.837-1.163.146.054a.253.253,0,0,0,.058-.073c.041,0,.075-.015.075-.063l5.052-11.042a.759.759,0,0,0,.212.044.851.851,0,0,0,.789-.794.8.8,0,0,0-.789-.8.764.764,0,0,0-.291.063L29.311,12.38c-.066-.067-.066-.067-.13-.067Zm-.58.316-5.5,3.028L17.07,13.871a1.168,1.168,0,0,0,.05-.167Zm.449.017,1.51,6.6L27.1,17.086a1.058,1.058,0,0,0,.171-.4.8.8,0,0,0-.788-.794.788.788,0,0,0-.74.549l-2.3-.677,5.605-3.114Zm.3.273,6.73,9.622a.746.746,0,0,0-.083.1L30.807,19.4,29.353,12.92ZM17.034,13.973l5.929,1.763-4.047,2.232-2.082-3.735a.9.9,0,0,0,.2-.261h0Zm-.423.405,2.05,3.674.013.063L16.35,20.261V14.437a.678.678,0,0,0,.262-.055Zm-.478.011a.691.691,0,0,0,.151.031v5.9l-4.9,4.527L16.135,14.39ZM23.3,15.842l2.417.719a.672.672,0,0,0-.027.126.754.754,0,0,0,.175.468L23.059,19.6,19.1,18.173l4.2-2.332Zm2.6,1.364a.8.8,0,0,0,.583.279.56.56,0,0,0,.071-.009l.694,3.642-4.135-1.492,2.786-2.42Zm1.11.02,3.6,2.254.711,3.107-3.992-1.446-.689-3.684a.791.791,0,0,0,.37-.236v0Zm-8.028,1.116,3.916,1.4-3.112,2.713-.8-4.112Zm-.244.1.831,4.2-2.643,2.3a.779.779,0,0,0-.575-.235V20.643l2.388-2.2Zm12.121,1.191,5.046,3.159a.806.806,0,0,0-.036.112l-4.349-.319-.662-2.953Zm-7.9.13,4.332,1.551.785,4.126-3.416,2.953L20.676,27l-.881-4.5,3.159-2.743Zm-6.669.939v4.01a.793.793,0,0,0,.062,1.582.7.7,0,0,0,.095-.018l.451,2.4-5.745-3.243L16.285,20.7Zm11.081.636,3.854,1.379-3.1,2.676ZM19.578,22.7l.835,4.217-3.348-1.164a1.045,1.045,0,0,0,.075-.253.794.794,0,0,0-.188-.52L19.579,22.7Zm11.969.156,4.283.316a.757.757,0,0,0,.13.359L31.443,27.6Zm-.2.155-.1,4.778L29.5,29.352a.8.8,0,0,0-.519-.208.835.835,0,0,0-.156.029l-.639-3.431Zm4.745.691a1.069,1.069,0,0,0,.1.063L31.3,34.467l.145-6.642L36.091,23.7Zm-7.95,2.087.646,3.4a.728.728,0,0,0-.537.46l-3.255-1.133,3.146-2.724Zm-11.113.062,3.412,1.185.811,4.1-4.261-2.4-.474-2.465a.792.792,0,0,0,.516-.416l0,0Zm-5.689.013,5.631,3.187,1.193,6.319a.766.766,0,0,0-.09.056l-6.734-9.561ZM20.7,27.125l3.866,1.344-3.081,2.664L20.7,27.125Zm10.538.884-.147,6.7L24.8,32.451l3.551-2.074a.775.775,0,1,0,1.247-.917Zm-6.333.58,3.326,1.157a.876.876,0,0,0-.036.2.8.8,0,0,0,.076.332l-3.635,2.12-2.922-1.047,3.19-2.758Zm-7.85.505,4.205,2.383L18.8,35.385a.759.759,0,0,0-.547-.049l-1.2-6.241Zm4.424,2.479,2.835,1.01-5.225,3.044a.647.647,0,0,0-.09-.117l2.48-3.937Zm3,1.067,6.141,2.186L19.206,35.9a.776.776,0,0,0-.047-.153l5.314-3.105Z" transform="translate(2.934 3.358)" fill="#023a43" stroke="#023a43" stroke-width="0.3"/>
      <path id="Path_6" data-name="Path 6" d="M15.173,13.807a.073.073,0,0,1-.053-.026l-.316-.316a.078.078,0,0,1-.007-.048.076.076,0,0,1,.022-.043.08.08,0,0,1,.09-.015l.261.262.9-.9a.075.075,0,0,1,.047-.006.078.078,0,0,1,.057.11l-.949.956A.075.075,0,0,1,15.173,13.807Z" transform="translate(4.035 3.467)" fill="#fff"/>
      <path id="Path_7" data-name="Path 7" d="M15.321,14.322a.8.8,0,0,1-.083-1.6.784.784,0,0,1,.314.031.052.052,0,0,1,.025.01.063.063,0,0,1,.019.02.079.079,0,0,1,.009.026.068.068,0,0,1,0,.027.067.067,0,0,1-.013.024.058.058,0,0,1-.022.016.062.062,0,0,1-.054,0,.67.67,0,1,0-.128,1.308.651.651,0,0,0,.447-.243.665.665,0,0,0,.146-.493.08.08,0,0,1,0-.026.093.093,0,0,1,.012-.025.075.075,0,0,1,.048-.025.071.071,0,0,1,.076.064.807.807,0,0,1-.717.888h-.078Z" transform="translate(3.961 3.467)" fill="#010101"/>
      <path id="Path_8" data-name="Path 8" d="M25.227,16.178a.076.076,0,0,1-.052-.027l-.314-.316a.079.079,0,0,1,.1-.106l.261.263.9-.9a.077.077,0,0,1,.048-.007.08.08,0,0,1,.043.022.082.082,0,0,1,.021.043.077.077,0,0,1-.007.048l-.951.952A.073.073,0,0,1,25.227,16.178Zm10.208,6.486a.081.081,0,0,1-.053-.025l-.314-.319a.078.078,0,0,1,.015-.092.085.085,0,0,1,.043-.021.082.082,0,0,1,.048.007l.26.262.9-.9a.077.077,0,0,1,.048-.006.076.076,0,0,1,.062.063.079.079,0,0,1-.006.048l-.949.958a.081.081,0,0,1-.053.025ZM27.663,29.4a.076.076,0,0,1-.036-.047l-.146-.426a.08.08,0,0,1,.054-.074.076.076,0,0,1,.047,0,.074.074,0,0,1,.041.026l.119.35,1.2-.409a.074.074,0,0,1,.046.014.092.092,0,0,1,.03.039.078.078,0,0,1,0,.048.082.082,0,0,1-.026.041l-1.27.442a.079.079,0,0,1-.058,0Zm-12.58-4.419a.078.078,0,0,1-.036-.047l-.146-.426a.081.081,0,0,1,.015-.046.077.077,0,0,1,.038-.029.079.079,0,0,1,.049,0,.076.076,0,0,1,.04.027l.119.349,1.2-.409a.072.072,0,0,1,.045.015.082.082,0,0,1,.029.039.083.083,0,0,1-.026.089l-1.269.442a.079.079,0,0,1-.058-.005Z" transform="translate(4.064 4.114)" fill="#fff"/>
    </g>
  </g>
</svg>
