<svg xmlns="http://www.w3.org/2000/svg" xmlns:xlink="http://www.w3.org/1999/xlink" width="33" height="33" viewBox="0 0 33 33">
  <defs>
    <clipPath id="clip-path">
      <rect id="Rectangle_5268" data-name="Rectangle 5268" width="33" height="33" transform="translate(12970 6577)" fill="#fff" stroke="#023a43" stroke-width="2"/>
    </clipPath>
  </defs>
  <g id="Mask_Group_734" data-name="Mask Group 734" transform="translate(-12970 -6577)" clip-path="url(#clip-path)">
    <g id="square-lock-password-stroke-rounded" transform="translate(12974.221 6578.152)">
      <path id="Path_39255" data-name="Path 39255" d="M16.5,14.419h.014m-7.674,0h.014" transform="translate(-0.395 6.302)" fill="none" stroke="#023a43" stroke-linecap="round" stroke-linejoin="round" stroke-width="2"/>
      <path id="Path_39256" data-name="Path 39256" d="M4.132,23.483a5.4,5.4,0,0,0,5.053,4.691c2.174.1,4.383.152,6.815.152s4.641-.052,6.815-.152a5.4,5.4,0,0,0,5.053-4.691,38.409,38.409,0,0,0,.411-5.134,38.409,38.409,0,0,0-.411-5.134,5.4,5.4,0,0,0-5.053-4.691c-2.174-.1-4.383-.152-6.815-.152s-4.641.052-6.815.152a5.4,5.4,0,0,0-5.053,4.691,38.419,38.419,0,0,0-.411,5.134A38.419,38.419,0,0,0,4.132,23.483Z" transform="translate(-3.721 2.372)" fill="none" stroke="#023a43" stroke-width="2"/>
      <path id="Path_39257" data-name="Path 39257" d="M6.977,12.6V8.767a6.907,6.907,0,1,1,13.814,0V12.6" transform="translate(-1.605 -1.86)" fill="none" stroke="#023a43" stroke-linecap="round" stroke-linejoin="round" stroke-width="2"/>
    </g>
  </g>
</svg>
