<svg xmlns="http://www.w3.org/2000/svg" width="20" height="20.128" viewBox="0 0 20 20.128">
  <g id="producer" transform="translate(-19268 -6186.936)">
    <rect id="Rectangle_5281" data-name="Rectangle 5281" width="20" height="20" transform="translate(19268 6187)" fill="#023a43" opacity="0"/>
    <g id="Group_16432" data-name="Group 16432" transform="translate(-6 -29)">
      <g id="g1273" transform="translate(19282.242 6226.741)">
        <path id="path1275" d="M0,0V2.15a1.758,1.758,0,0,0,3.516,0V0" fill="none" stroke="#fff" stroke-linecap="round" stroke-linejoin="round" stroke-miterlimit="10" stroke-width="1.3"/>
      </g>
      <g id="g1277" transform="translate(19276.969 6228.695)">
        <path id="path1279" d="M-174.726,0h-1.367A3.906,3.906,0,0,0-180,3.906V6.719h14.063V3.906A3.906,3.906,0,0,0-169.843,0h-1.367" transform="translate(180)" fill="none" stroke="#fff" stroke-linecap="round" stroke-linejoin="round" stroke-miterlimit="10" stroke-width="1.3"/>
      </g>
      <g id="g1281" transform="translate(19280.484 6221.664)">
        <path id="path1283" d="M0-12.943V-11.3A3.516,3.516,0,0,0,3.516-7.786,3.516,3.516,0,0,0,7.031-11.3v-1.641a16.016,16.016,0,0,0-7.031,0Z" transform="translate(0 13.333)" fill="none" stroke="#fff" stroke-linecap="round" stroke-linejoin="round" stroke-miterlimit="10" stroke-width="1.3"/>
      </g>
      <g id="g1285" transform="translate(19280.484 6216.586)">
        <path id="path1287" d="M-232.968-113.965v-1.1a2.344,2.344,0,0,0-2.344-2.344h-2.344A2.344,2.344,0,0,0-240-115.061v1.1" transform="translate(239.999 117.405)" fill="none" stroke="#fff" stroke-linecap="round" stroke-linejoin="round" stroke-miterlimit="10" stroke-width="1.3"/>
      </g>
      <g id="g1289" transform="translate(19278.141 6219.711)">
        <path id="path1291" d="M-310.624-93.116c1.421-.285,2.344-.737,2.344-1.248,0-.863-2.623-1.562-5.859-1.562s-5.859.7-5.859,1.563c0,.511.923.963,2.344,1.248" transform="translate(319.999 95.926)" fill="none" stroke="#fff" stroke-linecap="round" stroke-linejoin="round" stroke-miterlimit="10" stroke-width="1.3"/>
      </g>
      <g id="g1293" transform="translate(19280.484 6228.715)">
        <path id="path1295" d="M0,0V4.277" transform="translate(0)" fill="none" stroke="#fff" stroke-linecap="round" stroke-linejoin="round" stroke-miterlimit="10" stroke-width="1.3"/>
      </g>
      <g id="g1297" transform="translate(19287.516 6228.715)">
        <path id="path1299" d="M0-141.716v-4.277" transform="translate(0 145.993)" fill="none" stroke="#fff" stroke-linecap="round" stroke-linejoin="round" stroke-miterlimit="10" stroke-width="1.3"/>
      </g>
      <g id="g1301" transform="translate(19279.703 6232.992)">
        <path id="path1303" d="M-284.739-80.245v-1.641a.781.781,0,0,0-.781-.781h-7.031a.781.781,0,0,0-.781.781v1.641Z" transform="translate(293.333 82.666)" fill="none" stroke="#fff" stroke-linecap="round" stroke-linejoin="round" stroke-miterlimit="10" stroke-width="1.3"/>
      </g>
    </g>
  </g>
</svg>
