<svg xmlns="http://www.w3.org/2000/svg" width="13" height="13" viewBox="0 0 13 13">
  <path id="save_2_" data-name="save (2)" d="M11.363,3.276A2.536,2.536,0,0,0,10.8,3.25H4.883c-.382,0-.638,0-.835.017a.909.909,0,0,0-.343.074.833.833,0,0,0-.364.364.908.908,0,0,0-.074.343c-.016.2-.017.453-.017.835v7.733c0,.382,0,.638.017.835a.908.908,0,0,0,.074.343.833.833,0,0,0,.364.364.909.909,0,0,0,.343.074c.2.016.454.017.835.017h.033V12.2c0-.356,0-.653.02-.9a1.873,1.873,0,0,1,.18-.716,1.833,1.833,0,0,1,.8-.8,1.874,1.874,0,0,1,.716-.18c.243-.02.54-.02.9-.02H9.97c.356,0,.653,0,.9.02a1.873,1.873,0,0,1,.716.18,1.834,1.834,0,0,1,.8.8,1.872,1.872,0,0,1,.18.716c.02.242.02.539.02.894V14.25h.033c.382,0,.638,0,.835-.017a.907.907,0,0,0,.343-.074.834.834,0,0,0,.364-.364.908.908,0,0,0,.074-.343c.016-.2.016-.453.016-.835V6.9a2.5,2.5,0,0,0-.02-.489.834.834,0,0,0-.087-.227,2.5,2.5,0,0,0-.312-.377L12.014,3.791a2.537,2.537,0,0,0-.4-.4.835.835,0,0,0-.254-.113Zm.723,11.974h.551c.356,0,.654,0,.9-.02a1.872,1.872,0,0,0,.716-.18,1.834,1.834,0,0,0,.8-.8,1.872,1.872,0,0,0,.18-.716c.02-.242.02-.539.02-.894V6.859a3.036,3.036,0,0,0-.044-.664,1.833,1.833,0,0,0-.192-.5,3.023,3.023,0,0,0-.41-.522l-.03-.033L12.757,3.122l-.034-.037a3.056,3.056,0,0,0-.553-.528,1.834,1.834,0,0,0-.559-.249,3.046,3.046,0,0,0-.76-.058H4.863c-.356,0-.653,0-.9.02a1.873,1.873,0,0,0-.716.18,1.833,1.833,0,0,0-.8.8,1.872,1.872,0,0,0-.18.716c-.02.243-.02.54-.02.9v7.774c0,.356,0,.653.02.9a1.873,1.873,0,0,0,.18.716,1.833,1.833,0,0,0,.8.8,1.872,1.872,0,0,0,.716.18c.243.02.54.02.9.02h7.22Zm-.5-1V12.217c0-.382,0-.638-.016-.835a.908.908,0,0,0-.074-.343.834.834,0,0,0-.364-.364.908.908,0,0,0-.343-.074c-.2-.016-.453-.017-.835-.017H7.55c-.382,0-.638,0-.835.017a.908.908,0,0,0-.343.074.833.833,0,0,0-.364.364.908.908,0,0,0-.074.343c-.016.2-.017.453-.017.835V14.25ZM6.25,5.417a.5.5,0,0,1,.5-.5h4a.5.5,0,0,1,0,1h-4A.5.5,0,0,1,6.25,5.417Z" transform="translate(-2.25 -2.25)" fill="#fff" fill-rule="evenodd"/>
</svg>
