<svg width="24" height="24" viewBox="0 0 24 24" xmlns="http://www.w3.org/2000/svg">
    <g fill="none" fill-rule="evenodd">
        <path d="M12 7.5a4.5 4.5 0 1 0 0 9 4.5 4.5 0 0 0 0-9zm0 7.5a3 3 0 1 1 0-6 3 3 0 0 1 0 6zm10.307-4.95a.75.75 0 0 0-.365-.505L19.146 7.95l-.012-3.152a.75.75 0 0 0-.265-.57 10.492 10.492 0 0 0-3.442-1.938.75.75 0 0 0-.606.056L12 3.923l-2.824-1.58a.75.75 0 0 0-.606-.055 10.51 10.51 0 0 0-3.44 1.945.75.75 0 0 0-.264.569l-.014 3.155L2.055 9.55a.75.75 0 0 0-.365.507 9.982 9.982 0 0 0 0 3.896.75.75 0 0 0 .365.506l2.797 1.594.01 3.152c.002.22.098.428.266.57a10.492 10.492 0 0 0 3.443 1.938c.2.067.42.047.605-.056L12 20.077l2.824 1.58a.742.742 0 0 0 .606.054 10.51 10.51 0 0 0 3.44-1.944.75.75 0 0 0 .264-.569l.014-3.155 2.797-1.593a.75.75 0 0 0 .365-.507 9.982 9.982 0 0 0-.003-3.892zM20.9 13.325l-2.679 1.523a.75.75 0 0 0-.281.281c-.054.094-.112.194-.17.287a.744.744 0 0 0-.114.395l-.014 3.023a8.99 8.99 0 0 1-2.379 1.341l-2.701-1.506a.75.75 0 0 0-.367-.093H11.837a.757.757 0 0 0-.384.093l-2.704 1.51a9 9 0 0 1-2.385-1.334l-.01-3.019a.75.75 0 0 0-.115-.396 5.358 5.358 0 0 1-.169-.287.758.758 0 0 0-.28-.286l-2.682-1.528a8.483 8.483 0 0 1 0-2.649l2.674-1.526a.75.75 0 0 0 .28-.281c.055-.094.112-.194.17-.287a.744.744 0 0 0 .115-.395l.014-3.023a8.99 8.99 0 0 1 2.378-1.341l2.698 1.506a.75.75 0 0 0 .385.093h.341a.757.757 0 0 0 .384-.093l2.704-1.51a9 9 0 0 1 2.385 1.334l.01 3.019c.001.14.04.277.115.396.058.093.115.187.169.287.066.119.163.218.28.286l2.682 1.528c.14.878.142 1.773.005 2.652h.004z" fill="#121212" fill-rule="nonzero"/>
        <path d="M0 0h24v24H0z"/>
    </g>
</svg>
