<svg xmlns="http://www.w3.org/2000/svg" width="28.569" height="20" viewBox="0 0 28.569 20">
  <g id="delivery-truck_4_" data-name="delivery-truck (4)" transform="translate(-0.698 -81.916)">
    <path id="Path_1871" data-name="Path 1871" d="M28.165,91.522H26.627l-.952-4.807a1.337,1.337,0,0,0-1.405-1.049H20.33l-.034-1.65c0-1.158-.214-2.1-1.371-2.1H2.069c-1.158,0-1.371.942-1.371,2.1V97.992c0,1.157.214,2.1,1.371,2.1H4.4a3.232,3.232,0,0,0,2.876,1.825,2.883,2.883,0,0,0,2.793-1.825H20.3a2.651,2.651,0,0,0,2.662,1.825,2.843,2.843,0,0,0,2.858-1.825h2.022c1.158,0,1.428-.942,1.428-2.1V92.567C29.267,91.589,29.143,91.522,28.165,91.522Zm-3.522-4.807.975,4.807H20.3V86.715ZM1.8,98.741,1.769,95.36H3.681a.9.9,0,1,0,0-1.8H1.769V83.266a.3.3,0,0,1,.3-.3H18.925a.3.3,0,0,1,.3.3l.026,15.775H10.092c-.4-1.05-1.146-2.494-2.819-2.494a3.25,3.25,0,0,0-2.849,2.494H2.1a.3.3,0,0,1-.3-.3Zm5.477,2.249a1.8,1.8,0,1,1,1.558-.9,1.8,1.8,0,0,1-1.558.9Zm15.843,0a1.8,1.8,0,1,1,1.8-1.8A1.8,1.8,0,0,1,23.115,100.991Zm5.05-2.249a.3.3,0,0,1-.3.3H25.843c-.4-1.551-1.055-2.494-2.728-2.494a3.014,3.014,0,0,0-2.785,2.194L20.3,92.593h7.843l.026,6.148Z" fill="#fff"/>
    <path id="Path_1872" data-name="Path 1872" d="M115.178,192.286a.9.9,0,0,0,1.293.064l4.019-3.772a.9.9,0,1,0-1.231-1.312l-3.34,3.134-1.036-1.184a.9.9,0,0,0-1.354,1.185Z" transform="translate(-106.543 -98.804)" fill="#fff"/>
  </g>
</svg>
