<svg xmlns="http://www.w3.org/2000/svg" xmlns:xlink="http://www.w3.org/1999/xlink" width="20" height="20" viewBox="0 0 20 20">
  <defs>
    <clipPath id="clip-path">
      <rect id="Rectangle_3894" data-name="Rectangle 3894" width="20" height="20" transform="translate(92 106)" stroke="#000" stroke-width="0.8"/>
    </clipPath>
  </defs>
  <g id="Mask_Group_28" data-name="Mask Group 28" transform="translate(-92 -106)" clip-path="url(#clip-path)">
    <g id="delivery-truck_3_" data-name="delivery-truck (3)" transform="translate(92.406 110.81)">
      <path id="Path_1828" data-name="Path 1828" d="M14.009,12.974a1.643,1.643,0,1,1,1.642-1.642,1.643,1.643,0,0,1-1.642,1.642Zm0-2.686a1.043,1.043,0,1,0,1.042,1.043,1.043,1.043,0,0,0-1.042-1.043Z" transform="translate(2.49 -2.594)" stroke="#000" stroke-width="0.8"/>
      <path id="Path_1829" data-name="Path 1829" d="M6.786,12.974a1.643,1.643,0,1,1,1.641-1.643,1.643,1.643,0,0,1-1.641,1.643Zm0-2.686a1.043,1.043,0,1,0,1.042,1.043A1.043,1.043,0,0,0,6.786,10.287Z" transform="translate(1.057 -2.594)" stroke="#000" stroke-width="0.8"/>
      <path id="Path_1830" data-name="Path 1830" d="M16.338,12.367h-.819a.3.3,0,1,1,0-.6h.735V10.179a1.262,1.262,0,0,0-.16-.614L14.472,6.658a.16.16,0,0,0-.139-.082h-2.21v5.193h.713a.3.3,0,1,1,0,.6H11.822a.3.3,0,0,1-.3-.3V6.276a.3.3,0,0,1,.3-.3h2.51A.759.759,0,0,1,15,6.366l1.622,2.908a1.862,1.862,0,0,1,.235.905v1.674A.515.515,0,0,1,16.338,12.367Z" transform="translate(2.323 -3.33)" stroke="#000" stroke-width="0.8"/>
      <path id="Path_1831" data-name="Path 1831" d="M5.92,11.79H3.047a.3.3,0,0,1-.3-.3v-2.3a.3.3,0,0,1,.6,0v2H5.92a.3.3,0,1,1,0,.6Z" transform="translate(0.582 -2.753)" stroke="#000" stroke-width="0.8"/>
      <path id="Path_1832" data-name="Path 1832" d="M3.047,8.682a.3.3,0,0,1-.3-.3V6.37a.3.3,0,1,1,.6,0V8.383A.3.3,0,0,1,3.047,8.682Z" transform="translate(0.582 -3.312)" stroke="#000" stroke-width="0.8"/>
      <path id="Path_1833" data-name="Path 1833" d="M13.564,12.805H8.6a.3.3,0,1,1,0-.6h4.661V4.368H3.347V5.6a.3.3,0,0,1-.6,0V4.313a.545.545,0,0,1,.545-.544H13.319a.545.545,0,0,1,.544.544v8.193A.3.3,0,0,1,13.564,12.805Z" transform="translate(0.582 -3.768)" stroke="#000" stroke-width="0.8"/>
      <path id="Path_1834" data-name="Path 1834" d="M4.665,9.485H.862a.3.3,0,0,1,0-.6h3.8a.3.3,0,0,1,0,.6Z" transform="translate(0.148 -2.753)" stroke="#000" stroke-width="0.8"/>
      <path id="Path_1836" data-name="Path 1836" d="M2.341,7.028H.269a.3.3,0,0,1,0-.6H2.341a.3.3,0,0,1,0,.6Z" transform="translate(0.03 -3.24)" stroke="#000" stroke-width="0.8"/>
      <path id="Path_1837" data-name="Path 1837" d="M5.376,5.647H1.719a.3.3,0,0,1,0-.6H5.376a.3.3,0,0,1,0,.6Z" transform="translate(0.318 -3.514)" stroke="#000" stroke-width="0.8"/>
    </g>
  </g>
</svg>
