<svg width="332" height="569" viewBox="0 0 332 569" xmlns="http://www.w3.org/2000/svg">
    <defs>
        <linearGradient x1="50%" y1="0%" x2="50%" y2="100%" id="nfnxzljm2a">
            <stop stop-color="#1336D9" offset="0%"/>
            <stop stop-color="#121212" offset="100%"/>
        </linearGradient>
    </defs>
    <g transform="translate(-174 -218)" fill="url(#nfnxzljm2a)" fill-rule="evenodd">
        <path d="M497 450.5 461 471v-41l36 20.5zm3 50.166L461 523v-44.667L500 456v44.666zM455 482v41l-36-20.5 36-20.5zm-73 86.667L343 591v-44.667L382 524v44.667zM298 524l39 22.333V591l-39-22.333V524zm-73 0v-42l36 21-36 21zm-45-68 39 22.334V523l-39-22.334V456zm39-26v42l-36-21 36-21zm-39-110 39 22.334V387l-39-22.334V320zm42-28 39 22.5-2.579 1.489L222 337l-39-22.5 39-22.5zm76-40 36 20.5-36 20.5v-41zm42-28 39 22.5-39 22.5-39-22.5 39-22.5zm6 48.5 36-20.5v41l-36-20.5zM458 292l39 22.5-39 22.5-36.42-21.011L419 314.5l39-22.5zm42 72.666L461 387v-44.666L500 320v44.666zM416 456l36 20.5-36 20.5v-41zm-31.185 59L343 490.609V462.39L384.815 438 409 452.109v48.782L384.815 515zM270 452.463 294.939 438 337 462.391v28.218L294.939 515 270 500.537v-48.074zM337 319l-36-20.5 36-20.5v41zm6 0v-41l36 20.5-36 20.5zm73 1 36 20.5-36 20.5v-41zm39 67-36-20.5 36-20.5v41zm-36 63.5 36-20.5v41l-36-20.5zm-31-66.391L412.186 370 454 394.391v28.218L412.185 447 388 432.891V384.11zM346 408.5l36-20.5v41l-36-20.5zm-3 5.5 36 20.5-36 20.5v-41zm0 125v-41l36 20.5-36 20.5zm-6-125v41l-36-20.5 36-20.5zm-39-26 36 20.5-36 20.5v-41zm-37 62.5L226 471v-41l35 20.5zm0-84L225 387v-41l36 20.5zm76 36.5-36-20.5 36-20.5v41zm6 0v-41l36 20.5-36 20.5zm-78-83v41l-36-20.5 36-20.5zm2.207 127L226 423.073V394.28L267.814 370 292 384.044v48.56L267.207 447zM301 518.5l36-20.5v41l-36-20.5zm108-202.391v48.782L384.814 379 343 354.609V326.39L384.814 302 409 316.109zM295.185 302 337 326.391v28.218L295.186 379 271 364.891V316.11L295.185 302zM229 476.5l35-20.5v41l-35-20.5zm277-109.362v-52.083c0-1.111-.592-2.138-1.553-2.692l-45.07-26.043a3.102 3.102 0 0 0-3.106 0l-43.518 25.145-24.272-14.025v-50.29a3.11 3.11 0 0 0-1.553-2.691l-45.07-26.043a3.106 3.106 0 0 0-3.106 0l-45.07 26.043a3.108 3.108 0 0 0-1.554 2.692v50.289l-24.273 14.025-43.517-25.145a3.102 3.102 0 0 0-3.106 0l-45.07 26.043a3.11 3.11 0 0 0-1.553 2.692v52.083c0 1.111.592 2.137 1.553 2.692l43.517 25.145v28.051l-44.126 25.496a3.109 3.109 0 0 0-1.553 2.692v52.085c0 1.11.592 2.137 1.553 2.692l45.07 26.041a3.098 3.098 0 0 0 3.106 0l44.127-25.497 24.272 14.026v50.289c0 1.11.592 2.137 1.553 2.692l45.071 26.041a3.1 3.1 0 0 0 3.106 0l45.07-26.041a3.11 3.11 0 0 0 1.553-2.692v-50.29l24.272-14.025 43.518 25.145a3.098 3.098 0 0 0 3.106 0l45.07-26.042a3.106 3.106 0 0 0 1.553-2.691v-52.085c0-1.11-.592-2.137-1.553-2.692l-43.517-25.145v-28.05l43.517-25.145a3.107 3.107 0 0 0 1.553-2.692z" opacity=".716"/>
        <path d="M497 637.5 461 658v-41l36 20.5zm3 50.166L461 710v-44.667L500 643v44.666zM455 669v41l-36-20.5 36-20.5zm-73 86.667L343 778v-44.667L382 711v44.667zM298 711l39 22.333V778l-39-22.333V711zm-73 0v-42l36 21-36 21zm-45-68 39 22.334V710l-39-22.334V643zm39-26v42l-36-21 36-21zm-39-110 39 22.334V574l-39-22.334V507zm42-28 39 22.5-2.579 1.489L222 524l-39-22.5 39-22.5zm76-40 36 20.5-36 20.5v-41zm42-28 39 22.5-39 22.5-39-22.5 39-22.5zm6 48.5 36-20.5v41l-36-20.5zM458 479l39 22.5-39 22.5-36.42-21.011L419 501.5l39-22.5zm42 72.666L461 574v-44.666L500 507v44.666zM416 643l36 20.5-36 20.5v-41zm-31.185 59L343 677.609V649.39L384.815 625 409 639.109v48.782L384.815 702zM270 639.463 294.939 625 337 649.391v28.218L294.939 702 270 687.537v-48.074zM337 506l-36-20.5 36-20.5v41zm6 0v-41l36 20.5-36 20.5zm73 1 36 20.5-36 20.5v-41zm39 67-36-20.5 36-20.5v41zm-36 63.5 36-20.5v41l-36-20.5zm-31-66.391L412.186 557 454 581.391v28.218L412.185 634 388 619.891V571.11zM346 595.5l36-20.5v41l-36-20.5zm-3 5.5 36 20.5-36 20.5v-41zm0 125v-41l36 20.5-36 20.5zm-6-125v41l-36-20.5 36-20.5zm-39-26 36 20.5-36 20.5v-41zm-37 62.5L226 658v-41l35 20.5zm0-84L225 574v-41l36 20.5zm76 36.5-36-20.5 36-20.5v41zm6 0v-41l36 20.5-36 20.5zm-78-83v41l-36-20.5 36-20.5zm2.207 127L226 610.073V581.28L267.814 557 292 571.044v48.56L267.207 634zM301 705.5l36-20.5v41l-36-20.5zm108-202.391v48.782L384.814 566 343 541.609V513.39L384.814 489 409 503.109zM295.185 489 337 513.391v28.218L295.186 566 271 551.891V503.11L295.185 489zM229 663.5l35-20.5v41l-35-20.5zm277-109.362v-52.083c0-1.111-.592-2.138-1.553-2.692l-45.07-26.043a3.102 3.102 0 0 0-3.106 0l-43.518 25.145-24.272-14.025v-50.29a3.11 3.11 0 0 0-1.553-2.691l-45.07-26.043a3.106 3.106 0 0 0-3.106 0l-45.07 26.043a3.108 3.108 0 0 0-1.554 2.692v50.289l-24.273 14.025-43.517-25.145a3.102 3.102 0 0 0-3.106 0l-45.07 26.043a3.11 3.11 0 0 0-1.553 2.692v52.083c0 1.111.592 2.137 1.553 2.692l43.517 25.145v28.051l-44.126 25.496a3.109 3.109 0 0 0-1.553 2.692v52.085c0 1.11.592 2.137 1.553 2.692l45.07 26.041a3.098 3.098 0 0 0 3.106 0l44.127-25.497 24.272 14.026v50.289c0 1.11.592 2.137 1.553 2.692l45.071 26.041a3.1 3.1 0 0 0 3.106 0l45.07-26.041a3.11 3.11 0 0 0 1.553-2.692v-50.29l24.272-14.025 43.518 25.145a3.098 3.098 0 0 0 3.106 0l45.07-26.042a3.106 3.106 0 0 0 1.553-2.691v-52.085c0-1.11-.592-2.137-1.553-2.692l-43.517-25.145v-28.05l43.517-25.145a3.107 3.107 0 0 0 1.553-2.692z" fill-opacity=".03"/>
    </g>
</svg>
