<svg width="32" height="32" viewBox="0 0 32 32" xmlns="http://www.w3.org/2000/svg">
    <g fill="none" fill-rule="evenodd">
        <path d="M27.75 27a.75.75 0 0 1-.75.75H5a.75.75 0 1 1 0-1.5h22a.75.75 0 0 1 .75.75zm-10.5-5V10c0-.966.784-1.75 1.75-1.75h5c.966 0 1.75.784 1.75 1.75v12A1.75 1.75 0 0 1 24 23.75h-5A1.75 1.75 0 0 1 17.25 22zm1.5 0c0 .138.112.25.25.25h5a.25.25 0 0 0 .25-.25V10a.25.25 0 0 0-.25-.25h-5a.25.25 0 0 0-.25.25v12zm-12.5 0V5c0-.966.784-1.75 1.75-1.75h5A1.75 1.75 0 0 1 14.75 5v17A1.75 1.75 0 0 1 13 23.75H8A1.75 1.75 0 0 1 6.25 22zm1.5 0c0 .138.112.25.25.25h5a.25.25 0 0 0 .25-.25V5a.25.25 0 0 0-.25-.25H8a.25.25 0 0 0-.25.25v17z" fill="#121212" fill-rule="nonzero"/>
        <path d="M0 0h32v32H0z"/>
    </g>
</svg>
