<svg width="32" height="32" viewBox="0 0 32 32" xmlns="http://www.w3.org/2000/svg">
    <path d="M16 .546C7.465.546.546 7.465.546 16S7.465 31.455 16 31.455 31.455 24.535 31.455 16C31.445 7.469 24.53.555 16 .546zm0 29.672C8.148 30.218 1.782 23.853 1.782 16 1.782 8.148 8.148 1.782 16 1.782c7.853 0 14.218 6.366 14.218 14.218C30.21 23.849 23.85 30.21 16 30.218zM25.273 16a.618.618 0 0 1-.618.618H16a.618.618 0 0 1-.618-.618V7.345a.618.618 0 0 1 1.236 0v8.037h8.037c.341 0 .618.277.618.618z" fill="#121212" fill-rule="nonzero"/>
</svg>
