<svg width="24" height="20" viewBox="0 0 24 20" xmlns="http://www.w3.org/2000/svg">
    <path d="M20.31 13.043c-1.685.002-3.155 1.074-3.578 2.609H5.539c-2.04 0-3.693-1.557-3.693-3.478 0-1.921 1.654-3.479 3.693-3.479h11.078c2.549 0 4.615-1.946 4.615-4.347C21.232 1.947 19.166 0 16.617 0H5.539c-.51 0-.923.39-.923.87s.413.87.923.87h11.078c1.53 0 2.769 1.167 2.769 2.608 0 1.44-1.24 2.608-2.77 2.608H5.54C2.479 6.956 0 9.292 0 12.174c0 2.881 2.48 5.217 5.539 5.217h11.193c.48 1.75 2.302 2.862 4.194 2.56 1.891-.303 3.222-1.92 3.06-3.721-.16-1.801-1.758-3.186-3.677-3.187z" fill="#121212" fill-rule="nonzero"/>
</svg>
