<svg xmlns="http://www.w3.org/2000/svg" width="14.767" height="16" viewBox="0 0 14.767 16">
  <g id="delete_8_" data-name="delete (8)" transform="translate(-3 -2)">
    <path id="Path_1848" data-name="Path 1848" d="M6.21,4.792h0a.721.721,0,0,0,.7-.578l.194-.973A1.635,1.635,0,0,1,8.69,2h3.386a1.627,1.627,0,0,1,1.57,1.2l.2,1.009a.719.719,0,0,0,.7.578h2.614a.6.6,0,1,1,0,1.2H3.6a.6.6,0,1,1,0-1.2Zm6.565,0a1.914,1.914,0,0,1-.1-.342l-.194-.973a.42.42,0,0,0-.4-.277H8.69a.423.423,0,0,0-.41.314l-.186.936a1.9,1.9,0,0,1-.1.342Z" fill-rule="evenodd"/>
    <path id="Path_1849" data-name="Path 1849" d="M10.674,19.344c-1.084,0-2.141-.012-3.186-.034a2.374,2.374,0,0,1-2.414-2.263c-.252-2.272-.683-7.627-.687-7.681a.6.6,0,0,1,.55-.646.616.616,0,0,1,.646.55c0,.054.434,5.391.684,7.646a1.178,1.178,0,0,0,1.246,1.2c2,.042,4.041.045,6.241,0a1.2,1.2,0,0,0,1.3-1.206c.248-2.235.68-7.586.685-7.64a.613.613,0,0,1,.646-.55.6.6,0,0,1,.55.646c0,.054-.438,5.423-.688,7.675a2.381,2.381,0,0,1-2.472,2.274C12.709,19.334,11.68,19.344,10.674,19.344Z" transform="translate(-0.277 -1.344)" fill-rule="evenodd"/>
  </g>
</svg>
