<svg width="21" height="21" viewBox="0 0 21 21" xmlns="http://www.w3.org/2000/svg">
    <g fill="none" fill-rule="evenodd">
        <path d="M18.375 12.469v4.594c0 .724-.588 1.312-1.313 1.312H3.938a1.313 1.313 0 0 1-1.312-1.313V12.47a.656.656 0 1 1 1.313 0v4.594h13.124v-4.594a.656.656 0 1 1 1.313 0zM7.219 7.219h2.625v5.25a.656.656 0 1 0 1.312 0v-5.25h2.625a.656.656 0 0 0 .465-1.12l-3.282-3.282a.656.656 0 0 0-.928 0L6.754 6.098a.656.656 0 0 0 .465 1.12z" fill="#FFF" fill-rule="nonzero"/>
        <path d="M0 0h21v21H0z"/>
    </g>
</svg>
