<svg width="17" height="20" viewBox="0 0 17 20" xmlns="http://www.w3.org/2000/svg">
    <g fill="#121212" fill-rule="nonzero">
        <path opacity=".2" d="M16.227 6.154h-5.409V.769z"/>
        <path d="M16.774 5.61 11.364.225A.775.775 0 0 0 10.819 0H1.545C.692 0 0 .689 0 1.538v16.924C0 19.312.692 20 1.545 20h13.91c.853 0 1.545-.689 1.545-1.538V6.154c0-.204-.081-.4-.226-.544zm-5.183-2.984 2.771 2.759h-2.771V2.626zm3.864 15.836H1.545V1.538h8.5v4.616c0 .425.346.77.773.77h4.637v11.538zm-4.09-7.468a.767.767 0 0 1-.347 1.288.776.776 0 0 1-.747-.2l-.998-.994v4.297c0 .424-.346.769-.773.769a.771.771 0 0 1-.773-.77v-4.296l-.998.995a.776.776 0 0 1-1.294-.345.767.767 0 0 1 .2-.744l2.318-2.307a.775.775 0 0 1 1.094 0l2.318 2.307z"/>
    </g>
</svg>
