<svg width="32" height="32" viewBox="0 0 32 32" xmlns="http://www.w3.org/2000/svg">
    <g fill="none" fill-rule="evenodd">
        <path d="M21.5 15A5.5 5.5 0 1 1 16 9.5a5.506 5.506 0 0 1 5.5 5.5zm7.5 1c0 7.18-5.82 13-13 13S3 23.18 3 16 8.82 3 16 3c7.177.008 12.992 5.823 13 13zm-2 0A11.011 11.011 0 0 0 15.566 5.009C9.68 5.236 4.984 10.14 5 16.03a10.957 10.957 0 0 0 2.78 7.27 9.964 9.964 0 0 1 2.72-2.663.5.5 0 0 1 .604.04 7.479 7.479 0 0 0 9.785 0 .5.5 0 0 1 .604-.04 9.964 9.964 0 0 1 2.723 2.663A10.953 10.953 0 0 0 27 16z" fill="#9D9D9D" fill-rule="nonzero"/>
        <path d="M0 0h32v32H0z"/>
    </g>
</svg>
